G04 EAGLE Gerber X2 export*
%TF.Part,Single*%
%TF.FileFunction,Copper,L2,Bot,Mixed*%
%TF.FilePolarity,Positive*%
%TF.GenerationSoftware,Autodesk,EAGLE,8.7.1*%
%TF.CreationDate,2018-04-12T17:58:56Z*%
G75*
%MOMM*%
%FSLAX34Y34*%
%LPD*%
%AMOC8*
5,1,8,0,0,1.08239X$1,22.5*%
G01*
%ADD10C,1.879600*%
%ADD11C,1.625600*%
%ADD12C,1.508000*%
%ADD13C,1.408000*%
%ADD14R,1.498600X1.498600*%
%ADD15C,1.498600*%
%ADD16C,1.308000*%
%ADD17C,2.850000*%
%ADD18C,0.304800*%
%ADD19C,0.711200*%
%ADD20C,0.254000*%
%ADD21C,0.406400*%

G36*
X931184Y155655D02*
X931184Y155655D01*
X931203Y155653D01*
X931305Y155675D01*
X931407Y155692D01*
X931424Y155701D01*
X931444Y155705D01*
X931533Y155758D01*
X931624Y155807D01*
X931638Y155821D01*
X931655Y155831D01*
X931722Y155910D01*
X931794Y155985D01*
X931802Y156003D01*
X931815Y156018D01*
X931854Y156115D01*
X931897Y156208D01*
X931899Y156228D01*
X931907Y156246D01*
X931925Y156413D01*
X931925Y424527D01*
X931924Y424535D01*
X931925Y424543D01*
X931904Y424657D01*
X931886Y424770D01*
X931882Y424777D01*
X931880Y424785D01*
X931824Y424886D01*
X931770Y424987D01*
X931765Y424993D01*
X931761Y425000D01*
X931675Y425078D01*
X931592Y425157D01*
X931585Y425160D01*
X931579Y425165D01*
X931473Y425212D01*
X931369Y425260D01*
X931361Y425261D01*
X931354Y425264D01*
X931239Y425275D01*
X931125Y425287D01*
X931117Y425286D01*
X931109Y425286D01*
X930997Y425260D01*
X930884Y425235D01*
X930877Y425231D01*
X930870Y425229D01*
X930772Y425168D01*
X930673Y425109D01*
X930668Y425103D01*
X930661Y425099D01*
X930548Y424975D01*
X929856Y424022D01*
X928528Y422694D01*
X927007Y421589D01*
X925333Y420736D01*
X923546Y420155D01*
X922273Y419954D01*
X922273Y431038D01*
X922270Y431058D01*
X922272Y431077D01*
X922250Y431179D01*
X922233Y431281D01*
X922224Y431298D01*
X922220Y431318D01*
X922167Y431407D01*
X922118Y431498D01*
X922104Y431512D01*
X922094Y431529D01*
X922015Y431596D01*
X921940Y431667D01*
X921922Y431676D01*
X921907Y431689D01*
X921811Y431727D01*
X921717Y431771D01*
X921697Y431773D01*
X921679Y431781D01*
X921512Y431799D01*
X920749Y431799D01*
X920749Y431801D01*
X921512Y431801D01*
X921532Y431804D01*
X921551Y431802D01*
X921653Y431824D01*
X921755Y431841D01*
X921772Y431850D01*
X921792Y431854D01*
X921881Y431907D01*
X921972Y431956D01*
X921986Y431970D01*
X922003Y431980D01*
X922070Y432059D01*
X922141Y432134D01*
X922150Y432152D01*
X922163Y432167D01*
X922202Y432263D01*
X922245Y432357D01*
X922247Y432377D01*
X922255Y432395D01*
X922273Y432562D01*
X922273Y443646D01*
X923546Y443445D01*
X925333Y442864D01*
X927007Y442011D01*
X928528Y440906D01*
X929856Y439578D01*
X930548Y438625D01*
X930554Y438620D01*
X930558Y438613D01*
X930641Y438534D01*
X930723Y438452D01*
X930730Y438449D01*
X930736Y438443D01*
X930840Y438395D01*
X930944Y438344D01*
X930952Y438343D01*
X930959Y438340D01*
X931073Y438327D01*
X931188Y438312D01*
X931196Y438313D01*
X931203Y438313D01*
X931316Y438337D01*
X931429Y438359D01*
X931436Y438363D01*
X931444Y438365D01*
X931542Y438424D01*
X931643Y438481D01*
X931648Y438487D01*
X931655Y438491D01*
X931730Y438579D01*
X931807Y438665D01*
X931810Y438672D01*
X931815Y438678D01*
X931858Y438785D01*
X931903Y438891D01*
X931904Y438899D01*
X931907Y438906D01*
X931925Y439073D01*
X931925Y451810D01*
X931924Y451817D01*
X931924Y451818D01*
X931923Y451822D01*
X931910Y451906D01*
X931900Y452003D01*
X931890Y452027D01*
X931886Y452053D01*
X931840Y452139D01*
X931800Y452228D01*
X931783Y452247D01*
X931770Y452270D01*
X931700Y452337D01*
X931634Y452409D01*
X931611Y452421D01*
X931592Y452439D01*
X931504Y452480D01*
X931418Y452527D01*
X931393Y452532D01*
X931369Y452543D01*
X931272Y452554D01*
X931176Y452571D01*
X931150Y452567D01*
X931125Y452570D01*
X931029Y452550D01*
X930933Y452535D01*
X930910Y452524D01*
X930884Y452518D01*
X930801Y452468D01*
X930714Y452424D01*
X930695Y452405D01*
X930673Y452392D01*
X930610Y452318D01*
X930542Y452248D01*
X930526Y452220D01*
X930513Y452205D01*
X930501Y452174D01*
X930461Y452101D01*
X930010Y451013D01*
X926937Y447940D01*
X922923Y446277D01*
X918577Y446277D01*
X914563Y447940D01*
X911490Y451013D01*
X909827Y455027D01*
X909827Y459373D01*
X911490Y463387D01*
X914563Y466460D01*
X918577Y468123D01*
X922923Y468123D01*
X926937Y466460D01*
X930010Y463387D01*
X930461Y462299D01*
X930512Y462216D01*
X930558Y462130D01*
X930576Y462112D01*
X930590Y462090D01*
X930666Y462027D01*
X930736Y461961D01*
X930760Y461950D01*
X930780Y461933D01*
X930871Y461898D01*
X930959Y461857D01*
X930985Y461854D01*
X931009Y461845D01*
X931107Y461841D01*
X931203Y461830D01*
X931229Y461835D01*
X931255Y461834D01*
X931349Y461861D01*
X931444Y461882D01*
X931466Y461895D01*
X931491Y461903D01*
X931571Y461958D01*
X931655Y462008D01*
X931672Y462028D01*
X931693Y462043D01*
X931752Y462121D01*
X931815Y462195D01*
X931825Y462219D01*
X931840Y462240D01*
X931870Y462333D01*
X931907Y462423D01*
X931910Y462456D01*
X931916Y462474D01*
X931916Y462507D01*
X931925Y462590D01*
X931925Y477210D01*
X931910Y477306D01*
X931900Y477403D01*
X931890Y477427D01*
X931886Y477453D01*
X931840Y477539D01*
X931800Y477628D01*
X931783Y477647D01*
X931770Y477670D01*
X931700Y477737D01*
X931634Y477809D01*
X931611Y477821D01*
X931592Y477839D01*
X931504Y477880D01*
X931418Y477927D01*
X931393Y477932D01*
X931369Y477943D01*
X931272Y477954D01*
X931176Y477971D01*
X931150Y477967D01*
X931125Y477970D01*
X931029Y477950D01*
X930933Y477935D01*
X930910Y477924D01*
X930884Y477918D01*
X930801Y477868D01*
X930714Y477824D01*
X930695Y477805D01*
X930673Y477792D01*
X930610Y477718D01*
X930542Y477648D01*
X930526Y477620D01*
X930513Y477605D01*
X930501Y477574D01*
X930461Y477501D01*
X930010Y476413D01*
X926937Y473340D01*
X922923Y471677D01*
X918577Y471677D01*
X914563Y473340D01*
X911490Y476413D01*
X909827Y480427D01*
X909827Y484773D01*
X911490Y488787D01*
X914563Y491860D01*
X918577Y493523D01*
X922923Y493523D01*
X926937Y491860D01*
X930010Y488787D01*
X930461Y487699D01*
X930512Y487616D01*
X930558Y487530D01*
X930576Y487512D01*
X930590Y487490D01*
X930666Y487427D01*
X930736Y487361D01*
X930760Y487350D01*
X930780Y487333D01*
X930871Y487298D01*
X930959Y487257D01*
X930985Y487254D01*
X931009Y487245D01*
X931107Y487241D01*
X931203Y487230D01*
X931229Y487235D01*
X931255Y487234D01*
X931349Y487261D01*
X931444Y487282D01*
X931466Y487295D01*
X931491Y487303D01*
X931571Y487358D01*
X931655Y487408D01*
X931672Y487428D01*
X931693Y487443D01*
X931752Y487521D01*
X931815Y487595D01*
X931825Y487619D01*
X931840Y487640D01*
X931870Y487733D01*
X931907Y487823D01*
X931910Y487856D01*
X931916Y487874D01*
X931916Y487907D01*
X931925Y487990D01*
X931925Y502610D01*
X931910Y502706D01*
X931900Y502803D01*
X931890Y502827D01*
X931886Y502853D01*
X931840Y502939D01*
X931800Y503028D01*
X931783Y503047D01*
X931770Y503070D01*
X931700Y503137D01*
X931634Y503209D01*
X931611Y503221D01*
X931592Y503239D01*
X931504Y503280D01*
X931418Y503327D01*
X931393Y503332D01*
X931369Y503343D01*
X931272Y503354D01*
X931176Y503371D01*
X931150Y503367D01*
X931125Y503370D01*
X931029Y503350D01*
X930933Y503335D01*
X930910Y503324D01*
X930884Y503318D01*
X930801Y503268D01*
X930714Y503224D01*
X930695Y503205D01*
X930673Y503192D01*
X930610Y503118D01*
X930542Y503048D01*
X930526Y503020D01*
X930513Y503005D01*
X930501Y502974D01*
X930461Y502901D01*
X930010Y501813D01*
X926937Y498740D01*
X922923Y497077D01*
X918577Y497077D01*
X914563Y498740D01*
X911490Y501813D01*
X909827Y505827D01*
X909827Y510173D01*
X911490Y514187D01*
X914563Y517260D01*
X918577Y518923D01*
X922923Y518923D01*
X926937Y517260D01*
X930010Y514187D01*
X930461Y513099D01*
X930512Y513016D01*
X930558Y512930D01*
X930576Y512912D01*
X930590Y512890D01*
X930666Y512827D01*
X930736Y512761D01*
X930760Y512750D01*
X930780Y512733D01*
X930871Y512698D01*
X930959Y512657D01*
X930985Y512654D01*
X931009Y512645D01*
X931107Y512641D01*
X931203Y512630D01*
X931229Y512635D01*
X931255Y512634D01*
X931349Y512661D01*
X931444Y512682D01*
X931466Y512695D01*
X931491Y512703D01*
X931571Y512758D01*
X931655Y512808D01*
X931672Y512828D01*
X931693Y512843D01*
X931752Y512921D01*
X931815Y512995D01*
X931825Y513019D01*
X931840Y513040D01*
X931870Y513133D01*
X931907Y513223D01*
X931910Y513256D01*
X931916Y513274D01*
X931916Y513307D01*
X931925Y513390D01*
X931925Y528010D01*
X931910Y528106D01*
X931900Y528203D01*
X931890Y528227D01*
X931886Y528253D01*
X931840Y528339D01*
X931800Y528428D01*
X931783Y528447D01*
X931770Y528470D01*
X931700Y528537D01*
X931634Y528609D01*
X931611Y528621D01*
X931592Y528639D01*
X931504Y528680D01*
X931418Y528727D01*
X931393Y528732D01*
X931369Y528743D01*
X931272Y528754D01*
X931176Y528771D01*
X931150Y528767D01*
X931125Y528770D01*
X931029Y528750D01*
X930933Y528735D01*
X930910Y528724D01*
X930884Y528718D01*
X930801Y528668D01*
X930714Y528624D01*
X930695Y528605D01*
X930673Y528592D01*
X930610Y528518D01*
X930542Y528448D01*
X930526Y528420D01*
X930513Y528405D01*
X930501Y528374D01*
X930461Y528301D01*
X930010Y527213D01*
X926937Y524140D01*
X922923Y522477D01*
X918577Y522477D01*
X914563Y524140D01*
X911490Y527213D01*
X909827Y531227D01*
X909827Y535573D01*
X911490Y539587D01*
X914563Y542660D01*
X918577Y544323D01*
X922923Y544323D01*
X926937Y542660D01*
X930010Y539587D01*
X930461Y538499D01*
X930512Y538416D01*
X930558Y538330D01*
X930576Y538312D01*
X930590Y538290D01*
X930666Y538227D01*
X930736Y538161D01*
X930760Y538150D01*
X930780Y538133D01*
X930871Y538098D01*
X930959Y538057D01*
X930985Y538054D01*
X931009Y538045D01*
X931107Y538041D01*
X931203Y538030D01*
X931229Y538035D01*
X931255Y538034D01*
X931349Y538061D01*
X931444Y538082D01*
X931466Y538095D01*
X931491Y538103D01*
X931571Y538158D01*
X931655Y538208D01*
X931672Y538228D01*
X931693Y538243D01*
X931752Y538321D01*
X931815Y538395D01*
X931825Y538419D01*
X931840Y538440D01*
X931870Y538533D01*
X931907Y538623D01*
X931910Y538656D01*
X931916Y538674D01*
X931916Y538707D01*
X931925Y538790D01*
X931925Y553410D01*
X931910Y553506D01*
X931900Y553603D01*
X931890Y553627D01*
X931886Y553653D01*
X931840Y553739D01*
X931800Y553828D01*
X931783Y553847D01*
X931770Y553870D01*
X931700Y553937D01*
X931634Y554009D01*
X931611Y554021D01*
X931592Y554039D01*
X931504Y554080D01*
X931418Y554127D01*
X931393Y554132D01*
X931369Y554143D01*
X931272Y554154D01*
X931176Y554171D01*
X931150Y554167D01*
X931125Y554170D01*
X931029Y554150D01*
X930933Y554135D01*
X930910Y554124D01*
X930884Y554118D01*
X930801Y554068D01*
X930714Y554024D01*
X930695Y554005D01*
X930673Y553992D01*
X930610Y553918D01*
X930542Y553848D01*
X930526Y553820D01*
X930513Y553805D01*
X930501Y553774D01*
X930461Y553701D01*
X930010Y552613D01*
X926937Y549540D01*
X922923Y547877D01*
X918577Y547877D01*
X914563Y549540D01*
X911490Y552613D01*
X909827Y556627D01*
X909827Y560973D01*
X911490Y564987D01*
X914563Y568060D01*
X918577Y569723D01*
X922923Y569723D01*
X926937Y568060D01*
X930010Y564987D01*
X930461Y563899D01*
X930512Y563816D01*
X930558Y563730D01*
X930576Y563712D01*
X930590Y563690D01*
X930666Y563627D01*
X930736Y563561D01*
X930760Y563550D01*
X930780Y563533D01*
X930871Y563498D01*
X930959Y563457D01*
X930985Y563454D01*
X931009Y563445D01*
X931107Y563441D01*
X931203Y563430D01*
X931229Y563435D01*
X931255Y563434D01*
X931349Y563461D01*
X931444Y563482D01*
X931466Y563495D01*
X931491Y563503D01*
X931571Y563558D01*
X931655Y563608D01*
X931672Y563628D01*
X931693Y563643D01*
X931752Y563721D01*
X931815Y563795D01*
X931825Y563819D01*
X931840Y563840D01*
X931870Y563933D01*
X931907Y564023D01*
X931910Y564056D01*
X931916Y564074D01*
X931916Y564107D01*
X931925Y564190D01*
X931925Y578810D01*
X931910Y578906D01*
X931900Y579003D01*
X931890Y579027D01*
X931886Y579053D01*
X931840Y579139D01*
X931800Y579228D01*
X931783Y579247D01*
X931770Y579270D01*
X931700Y579337D01*
X931634Y579409D01*
X931611Y579421D01*
X931592Y579439D01*
X931504Y579480D01*
X931418Y579527D01*
X931393Y579532D01*
X931369Y579543D01*
X931272Y579554D01*
X931176Y579571D01*
X931150Y579567D01*
X931125Y579570D01*
X931029Y579550D01*
X930933Y579535D01*
X930910Y579524D01*
X930884Y579518D01*
X930801Y579468D01*
X930714Y579424D01*
X930695Y579405D01*
X930673Y579392D01*
X930610Y579318D01*
X930542Y579248D01*
X930526Y579220D01*
X930513Y579205D01*
X930501Y579174D01*
X930461Y579101D01*
X930010Y578013D01*
X926937Y574940D01*
X922923Y573277D01*
X918577Y573277D01*
X914563Y574940D01*
X911490Y578013D01*
X910280Y580935D01*
X910218Y581035D01*
X910158Y581135D01*
X910153Y581139D01*
X910150Y581144D01*
X910060Y581219D01*
X909971Y581295D01*
X909965Y581297D01*
X909961Y581301D01*
X909852Y581343D01*
X909743Y581387D01*
X909735Y581388D01*
X909731Y581389D01*
X909713Y581390D01*
X909576Y581405D01*
X562356Y581405D01*
X562336Y581402D01*
X562317Y581404D01*
X562215Y581382D01*
X562113Y581366D01*
X562096Y581356D01*
X562076Y581352D01*
X561987Y581299D01*
X561896Y581250D01*
X561882Y581236D01*
X561865Y581226D01*
X561798Y581147D01*
X561726Y581072D01*
X561718Y581054D01*
X561705Y581039D01*
X561666Y580943D01*
X561623Y580849D01*
X561621Y580829D01*
X561613Y580811D01*
X561595Y580644D01*
X561595Y573332D01*
X553443Y565180D01*
X553401Y565122D01*
X553352Y565070D01*
X553330Y565023D01*
X553300Y564981D01*
X553278Y564912D01*
X553248Y564847D01*
X553243Y564795D01*
X553227Y564745D01*
X553229Y564674D01*
X553221Y564603D01*
X553232Y564552D01*
X553234Y564500D01*
X553258Y564432D01*
X553273Y564362D01*
X553300Y564317D01*
X553318Y564269D01*
X553363Y564213D01*
X553400Y564151D01*
X553439Y564117D01*
X553472Y564077D01*
X553532Y564038D01*
X553587Y563991D01*
X553635Y563972D01*
X553679Y563944D01*
X553748Y563926D01*
X553815Y563899D01*
X553886Y563891D01*
X553917Y563883D01*
X553940Y563885D01*
X553981Y563881D01*
X554555Y563881D01*
X557531Y560905D01*
X557531Y556695D01*
X555468Y554632D01*
X555415Y554559D01*
X555355Y554489D01*
X555343Y554459D01*
X555324Y554433D01*
X555297Y554346D01*
X555263Y554261D01*
X555259Y554220D01*
X555252Y554198D01*
X555253Y554165D01*
X555245Y554094D01*
X555245Y511048D01*
X555259Y510958D01*
X555267Y510867D01*
X555279Y510837D01*
X555284Y510805D01*
X555327Y510724D01*
X555363Y510640D01*
X555389Y510608D01*
X555400Y510588D01*
X555423Y510565D01*
X555468Y510509D01*
X586461Y479516D01*
X586555Y479449D01*
X586649Y479378D01*
X586656Y479376D01*
X586661Y479373D01*
X586771Y479339D01*
X586883Y479302D01*
X586890Y479302D01*
X586896Y479300D01*
X587012Y479303D01*
X587129Y479305D01*
X587136Y479307D01*
X587142Y479307D01*
X587159Y479313D01*
X587290Y479351D01*
X589494Y480264D01*
X593334Y480264D01*
X596881Y478794D01*
X599597Y476079D01*
X601066Y472531D01*
X601066Y468691D01*
X599597Y465143D01*
X596881Y462428D01*
X593334Y460958D01*
X589494Y460958D01*
X585946Y462428D01*
X583230Y465143D01*
X582109Y467850D01*
X582058Y467933D01*
X582012Y468019D01*
X581993Y468037D01*
X581980Y468059D01*
X581905Y468121D01*
X581834Y468188D01*
X581810Y468199D01*
X581790Y468216D01*
X581699Y468251D01*
X581611Y468292D01*
X581585Y468295D01*
X581561Y468304D01*
X581463Y468308D01*
X581367Y468319D01*
X581341Y468313D01*
X581315Y468314D01*
X581221Y468287D01*
X581126Y468267D01*
X581104Y468253D01*
X581079Y468246D01*
X580999Y468190D01*
X580915Y468140D01*
X580898Y468121D01*
X580877Y468106D01*
X580818Y468028D01*
X580755Y467954D01*
X580745Y467929D01*
X580730Y467908D01*
X580700Y467816D01*
X580663Y467725D01*
X580660Y467693D01*
X580654Y467674D01*
X580654Y467641D01*
X580645Y467559D01*
X580645Y443342D01*
X568168Y430865D01*
X568115Y430791D01*
X568055Y430722D01*
X568043Y430692D01*
X568024Y430666D01*
X567997Y430579D01*
X567963Y430494D01*
X567959Y430453D01*
X567952Y430431D01*
X567953Y430398D01*
X567945Y430327D01*
X567945Y404568D01*
X567947Y404553D01*
X567946Y404541D01*
X567959Y404479D01*
X567964Y404452D01*
X567981Y404337D01*
X567983Y404331D01*
X567984Y404325D01*
X568039Y404223D01*
X568092Y404118D01*
X568097Y404113D01*
X568100Y404108D01*
X568184Y404028D01*
X568268Y403946D01*
X568274Y403942D01*
X568278Y403938D01*
X568295Y403931D01*
X568415Y403865D01*
X571481Y402594D01*
X574197Y399879D01*
X575666Y396331D01*
X575666Y392491D01*
X574197Y388943D01*
X571481Y386228D01*
X567934Y384758D01*
X564094Y384758D01*
X560546Y386228D01*
X557814Y388960D01*
X557756Y389001D01*
X557704Y389051D01*
X557657Y389073D01*
X557615Y389103D01*
X557546Y389124D01*
X557481Y389154D01*
X557429Y389160D01*
X557379Y389175D01*
X557308Y389174D01*
X557237Y389181D01*
X557186Y389170D01*
X557134Y389169D01*
X557066Y389144D01*
X556996Y389129D01*
X556951Y389102D01*
X556903Y389085D01*
X556847Y389040D01*
X556785Y389003D01*
X556751Y388963D01*
X556711Y388931D01*
X556672Y388871D01*
X556625Y388816D01*
X556606Y388768D01*
X556578Y388724D01*
X556560Y388655D01*
X556533Y388588D01*
X556525Y388517D01*
X556517Y388485D01*
X556519Y388462D01*
X556515Y388421D01*
X556515Y376534D01*
X556522Y376487D01*
X556521Y376439D01*
X556542Y376366D01*
X556554Y376291D01*
X556577Y376249D01*
X556590Y376203D01*
X556656Y376098D01*
X556659Y376040D01*
X556681Y375984D01*
X556693Y375926D01*
X556725Y375871D01*
X556749Y375811D01*
X556787Y375765D01*
X556817Y375714D01*
X556865Y375671D01*
X556906Y375622D01*
X556957Y375591D01*
X557002Y375552D01*
X557061Y375527D01*
X557116Y375494D01*
X557174Y375480D01*
X557229Y375457D01*
X557293Y375453D01*
X557356Y375439D01*
X557415Y375445D01*
X557475Y375441D01*
X557569Y375460D01*
X557600Y375463D01*
X557614Y375469D01*
X557639Y375474D01*
X558690Y375816D01*
X559410Y375930D01*
X559410Y367233D01*
X559414Y367214D01*
X559411Y367194D01*
X559433Y367093D01*
X559450Y366991D01*
X559459Y366973D01*
X559464Y366954D01*
X559517Y366864D01*
X559565Y366773D01*
X559580Y366760D01*
X559590Y366742D01*
X559669Y366675D01*
X559744Y366604D01*
X559762Y366595D01*
X559777Y366582D01*
X559873Y366544D01*
X559967Y366500D01*
X559986Y366498D01*
X560005Y366491D01*
X560172Y366472D01*
X560934Y366472D01*
X560934Y366470D01*
X560172Y366470D01*
X560152Y366467D01*
X560132Y366469D01*
X560031Y366447D01*
X559929Y366431D01*
X559911Y366421D01*
X559892Y366417D01*
X559803Y366364D01*
X559711Y366315D01*
X559698Y366301D01*
X559681Y366291D01*
X559613Y366212D01*
X559542Y366137D01*
X559534Y366119D01*
X559521Y366104D01*
X559482Y366008D01*
X559438Y365914D01*
X559436Y365894D01*
X559429Y365876D01*
X559410Y365709D01*
X559410Y357012D01*
X558690Y357126D01*
X557256Y357592D01*
X555912Y358277D01*
X554692Y359164D01*
X553626Y360230D01*
X552739Y361450D01*
X552055Y362793D01*
X551859Y363395D01*
X551858Y363398D01*
X551857Y363402D01*
X551802Y363506D01*
X551747Y363613D01*
X551744Y363616D01*
X551742Y363619D01*
X551656Y363701D01*
X551570Y363784D01*
X551566Y363786D01*
X551564Y363789D01*
X551455Y363839D01*
X551348Y363890D01*
X551344Y363891D01*
X551340Y363892D01*
X551222Y363906D01*
X551104Y363920D01*
X551100Y363919D01*
X551096Y363920D01*
X550980Y363894D01*
X550863Y363870D01*
X550860Y363868D01*
X550856Y363867D01*
X550753Y363806D01*
X550651Y363746D01*
X550648Y363743D01*
X550645Y363741D01*
X550567Y363650D01*
X550489Y363561D01*
X550487Y363557D01*
X550485Y363554D01*
X550440Y363443D01*
X550394Y363334D01*
X550394Y363330D01*
X550393Y363326D01*
X550374Y363159D01*
X550374Y358577D01*
X550379Y358546D01*
X550380Y358480D01*
X550500Y357549D01*
X550485Y357531D01*
X550454Y357456D01*
X550416Y357385D01*
X550409Y357343D01*
X550393Y357303D01*
X550381Y357199D01*
X549717Y356534D01*
X549698Y356509D01*
X549652Y356461D01*
X537623Y340882D01*
X537603Y340844D01*
X537575Y340812D01*
X537545Y340737D01*
X537507Y340666D01*
X537499Y340624D01*
X537483Y340584D01*
X537467Y340434D01*
X537465Y340423D01*
X537465Y340421D01*
X537465Y340417D01*
X537465Y287858D01*
X537465Y287854D01*
X537465Y287850D01*
X537485Y287732D01*
X537504Y287615D01*
X537506Y287612D01*
X537507Y287608D01*
X537564Y287503D01*
X537620Y287398D01*
X537622Y287395D01*
X537624Y287392D01*
X537712Y287311D01*
X537798Y287229D01*
X537802Y287227D01*
X537804Y287224D01*
X537913Y287175D01*
X538021Y287125D01*
X538025Y287125D01*
X538029Y287123D01*
X538148Y287111D01*
X538265Y287098D01*
X538269Y287099D01*
X538273Y287098D01*
X538389Y287125D01*
X538506Y287150D01*
X538509Y287152D01*
X538513Y287153D01*
X538614Y287215D01*
X538717Y287276D01*
X538719Y287279D01*
X538723Y287282D01*
X538800Y287373D01*
X538877Y287463D01*
X538878Y287467D01*
X538881Y287470D01*
X538950Y287623D01*
X539355Y288869D01*
X540039Y290212D01*
X540926Y291433D01*
X541992Y292499D01*
X543212Y293385D01*
X544556Y294070D01*
X545990Y294536D01*
X546710Y294650D01*
X546710Y285953D01*
X546714Y285934D01*
X546711Y285914D01*
X546733Y285813D01*
X546750Y285711D01*
X546759Y285693D01*
X546764Y285674D01*
X546817Y285584D01*
X546865Y285493D01*
X546880Y285480D01*
X546890Y285462D01*
X546969Y285395D01*
X547044Y285324D01*
X547062Y285315D01*
X547077Y285302D01*
X547173Y285264D01*
X547267Y285220D01*
X547286Y285218D01*
X547305Y285211D01*
X547472Y285192D01*
X548234Y285192D01*
X548234Y285190D01*
X547472Y285190D01*
X547452Y285187D01*
X547432Y285189D01*
X547331Y285167D01*
X547229Y285151D01*
X547211Y285141D01*
X547192Y285137D01*
X547103Y285084D01*
X547011Y285035D01*
X546998Y285021D01*
X546981Y285011D01*
X546913Y284932D01*
X546842Y284857D01*
X546834Y284839D01*
X546821Y284824D01*
X546782Y284728D01*
X546738Y284634D01*
X546736Y284614D01*
X546729Y284596D01*
X546710Y284429D01*
X546710Y275732D01*
X545990Y275846D01*
X544556Y276312D01*
X543212Y276997D01*
X541992Y277884D01*
X540926Y278950D01*
X540039Y280170D01*
X539355Y281513D01*
X538950Y282759D01*
X538948Y282763D01*
X538947Y282767D01*
X538892Y282872D01*
X538837Y282978D01*
X538834Y282981D01*
X538832Y282984D01*
X538746Y283066D01*
X538661Y283149D01*
X538657Y283151D01*
X538654Y283154D01*
X538546Y283204D01*
X538439Y283255D01*
X538435Y283256D01*
X538431Y283257D01*
X538314Y283270D01*
X538194Y283285D01*
X538190Y283284D01*
X538187Y283284D01*
X538071Y283259D01*
X537954Y283235D01*
X537950Y283233D01*
X537946Y283232D01*
X537844Y283171D01*
X537741Y283111D01*
X537738Y283108D01*
X537735Y283106D01*
X537657Y283014D01*
X537579Y282926D01*
X537578Y282922D01*
X537575Y282919D01*
X537530Y282807D01*
X537485Y282699D01*
X537485Y282695D01*
X537483Y282691D01*
X537465Y282524D01*
X537465Y272676D01*
X537479Y272586D01*
X537487Y272495D01*
X537499Y272465D01*
X537504Y272433D01*
X537547Y272352D01*
X537583Y272269D01*
X537609Y272236D01*
X537620Y272216D01*
X537643Y272194D01*
X537688Y272138D01*
X539751Y270075D01*
X539751Y265865D01*
X536775Y262889D01*
X532565Y262889D01*
X529589Y265865D01*
X529589Y270075D01*
X531652Y272138D01*
X531705Y272211D01*
X531765Y272281D01*
X531777Y272311D01*
X531796Y272337D01*
X531823Y272424D01*
X531857Y272509D01*
X531861Y272550D01*
X531868Y272572D01*
X531867Y272605D01*
X531875Y272676D01*
X531875Y280812D01*
X531860Y280908D01*
X531850Y281005D01*
X531840Y281029D01*
X531836Y281055D01*
X531790Y281141D01*
X531750Y281230D01*
X531733Y281249D01*
X531720Y281272D01*
X531650Y281339D01*
X531584Y281411D01*
X531561Y281423D01*
X531542Y281441D01*
X531454Y281482D01*
X531368Y281529D01*
X531343Y281534D01*
X531319Y281545D01*
X531222Y281556D01*
X531126Y281573D01*
X531100Y281569D01*
X531075Y281572D01*
X530979Y281551D01*
X530883Y281537D01*
X530860Y281525D01*
X530834Y281520D01*
X530751Y281470D01*
X530664Y281426D01*
X530645Y281407D01*
X530623Y281394D01*
X530560Y281320D01*
X530492Y281250D01*
X530476Y281222D01*
X530463Y281207D01*
X530451Y281176D01*
X530411Y281103D01*
X530094Y280340D01*
X527685Y277930D01*
X524537Y276626D01*
X521130Y276626D01*
X517982Y277930D01*
X515573Y280340D01*
X514269Y283488D01*
X514269Y286895D01*
X515573Y290043D01*
X517982Y292452D01*
X521130Y293756D01*
X524537Y293756D01*
X527685Y292452D01*
X530094Y290043D01*
X530411Y289279D01*
X530462Y289196D01*
X530508Y289110D01*
X530527Y289092D01*
X530540Y289070D01*
X530615Y289008D01*
X530686Y288941D01*
X530710Y288930D01*
X530730Y288913D01*
X530821Y288878D01*
X530909Y288837D01*
X530935Y288834D01*
X530959Y288825D01*
X531057Y288821D01*
X531153Y288810D01*
X531179Y288816D01*
X531205Y288815D01*
X531299Y288842D01*
X531394Y288862D01*
X531416Y288876D01*
X531441Y288883D01*
X531521Y288939D01*
X531605Y288989D01*
X531622Y289009D01*
X531643Y289023D01*
X531702Y289102D01*
X531765Y289176D01*
X531775Y289200D01*
X531790Y289221D01*
X531820Y289313D01*
X531857Y289404D01*
X531860Y289436D01*
X531866Y289455D01*
X531866Y289488D01*
X531875Y289570D01*
X531875Y329006D01*
X531872Y329026D01*
X531874Y329046D01*
X531852Y329147D01*
X531836Y329249D01*
X531826Y329267D01*
X531822Y329286D01*
X531769Y329375D01*
X531720Y329466D01*
X531706Y329480D01*
X531696Y329497D01*
X531617Y329564D01*
X531542Y329636D01*
X531524Y329644D01*
X531509Y329657D01*
X531413Y329696D01*
X531319Y329739D01*
X531299Y329742D01*
X531281Y329749D01*
X531114Y329767D01*
X525627Y329767D01*
X525627Y339039D01*
X525624Y339059D01*
X525626Y339079D01*
X525604Y339180D01*
X525587Y339282D01*
X525578Y339299D01*
X525574Y339319D01*
X525520Y339408D01*
X525472Y339499D01*
X525458Y339513D01*
X525447Y339530D01*
X525369Y339597D01*
X525294Y339669D01*
X525276Y339677D01*
X525260Y339690D01*
X525164Y339729D01*
X525071Y339772D01*
X525051Y339774D01*
X525032Y339782D01*
X524866Y339800D01*
X524103Y339800D01*
X524103Y339802D01*
X524866Y339802D01*
X524885Y339805D01*
X524905Y339803D01*
X525006Y339825D01*
X525108Y339842D01*
X525126Y339851D01*
X525145Y339855D01*
X525234Y339909D01*
X525326Y339957D01*
X525339Y339971D01*
X525356Y339982D01*
X525424Y340060D01*
X525495Y340135D01*
X525503Y340153D01*
X525516Y340168D01*
X525555Y340265D01*
X525599Y340358D01*
X525601Y340378D01*
X525608Y340397D01*
X525627Y340563D01*
X525627Y349835D01*
X531931Y349835D01*
X532577Y349662D01*
X533157Y349327D01*
X533630Y348854D01*
X533964Y348275D01*
X534160Y347543D01*
X534169Y347524D01*
X534172Y347504D01*
X534219Y347413D01*
X534261Y347319D01*
X534276Y347304D01*
X534285Y347286D01*
X534359Y347214D01*
X534429Y347139D01*
X534447Y347129D01*
X534462Y347115D01*
X534555Y347071D01*
X534645Y347022D01*
X534665Y347018D01*
X534684Y347009D01*
X534786Y346997D01*
X534887Y346979D01*
X534908Y346982D01*
X534928Y346980D01*
X535028Y347001D01*
X535130Y347016D01*
X535149Y347026D01*
X535169Y347030D01*
X535258Y347082D01*
X535349Y347129D01*
X535363Y347144D01*
X535381Y347155D01*
X535498Y347275D01*
X544626Y359097D01*
X544646Y359135D01*
X544674Y359168D01*
X544705Y359243D01*
X544743Y359314D01*
X544750Y359356D01*
X544766Y359396D01*
X544783Y359545D01*
X544785Y359556D01*
X544784Y359559D01*
X544785Y359563D01*
X544785Y362598D01*
X544769Y362693D01*
X544760Y362791D01*
X544749Y362815D01*
X544745Y362840D01*
X544700Y362926D01*
X544660Y363016D01*
X544642Y363035D01*
X544630Y363058D01*
X544559Y363125D01*
X544493Y363197D01*
X544471Y363209D01*
X544452Y363227D01*
X544363Y363268D01*
X544278Y363315D01*
X544252Y363320D01*
X544229Y363331D01*
X544132Y363342D01*
X544036Y363359D01*
X544010Y363355D01*
X543984Y363358D01*
X543889Y363337D01*
X543793Y363323D01*
X543769Y363311D01*
X543744Y363306D01*
X543660Y363256D01*
X543573Y363212D01*
X543555Y363193D01*
X543533Y363180D01*
X543469Y363105D01*
X543401Y363036D01*
X543385Y363007D01*
X543373Y362993D01*
X543360Y362962D01*
X543320Y362889D01*
X542794Y361620D01*
X540385Y359210D01*
X537237Y357906D01*
X533830Y357906D01*
X530682Y359210D01*
X528273Y361620D01*
X526969Y364768D01*
X526969Y368175D01*
X528273Y371323D01*
X530682Y373732D01*
X533830Y375036D01*
X537237Y375036D01*
X540385Y373732D01*
X542794Y371323D01*
X543295Y370115D01*
X543323Y370069D01*
X543343Y370019D01*
X543387Y369965D01*
X543424Y369906D01*
X543466Y369872D01*
X543501Y369830D01*
X543560Y369794D01*
X543614Y369749D01*
X543664Y369730D01*
X543710Y369702D01*
X543778Y369686D01*
X543843Y369661D01*
X543897Y369659D01*
X543950Y369647D01*
X544019Y369654D01*
X544089Y369651D01*
X544141Y369666D01*
X544195Y369671D01*
X544258Y369700D01*
X544325Y369719D01*
X544370Y369750D01*
X544419Y369772D01*
X544470Y369820D01*
X544527Y369860D01*
X544560Y369903D01*
X544599Y369940D01*
X544632Y370001D01*
X544674Y370057D01*
X544691Y370108D01*
X544717Y370156D01*
X544741Y370263D01*
X544750Y370291D01*
X544750Y370302D01*
X544754Y370319D01*
X544780Y370542D01*
X544778Y370571D01*
X544785Y370629D01*
X544785Y371591D01*
X544790Y371596D01*
X544826Y371663D01*
X544871Y371724D01*
X544885Y371770D01*
X544908Y371812D01*
X544925Y371886D01*
X545683Y372487D01*
X545702Y372509D01*
X545748Y372545D01*
X546428Y373225D01*
X546436Y373225D01*
X546508Y373247D01*
X546583Y373259D01*
X546626Y373281D01*
X546671Y373295D01*
X546781Y373364D01*
X546801Y373374D01*
X546805Y373379D01*
X546814Y373384D01*
X550637Y376417D01*
X550645Y376425D01*
X550655Y376431D01*
X550727Y376516D01*
X550803Y376599D01*
X550807Y376609D01*
X550815Y376618D01*
X550857Y376722D01*
X550901Y376824D01*
X550902Y376836D01*
X550907Y376847D01*
X550925Y377013D01*
X550925Y390255D01*
X550910Y390351D01*
X550900Y390448D01*
X550890Y390472D01*
X550886Y390498D01*
X550840Y390584D01*
X550800Y390673D01*
X550783Y390692D01*
X550770Y390715D01*
X550700Y390782D01*
X550634Y390854D01*
X550611Y390866D01*
X550592Y390884D01*
X550504Y390925D01*
X550418Y390972D01*
X550393Y390977D01*
X550369Y390988D01*
X550272Y390999D01*
X550176Y391016D01*
X550150Y391012D01*
X550125Y391015D01*
X550029Y390994D01*
X549933Y390980D01*
X549910Y390968D01*
X549884Y390963D01*
X549801Y390913D01*
X549714Y390869D01*
X549695Y390850D01*
X549673Y390837D01*
X549610Y390763D01*
X549542Y390693D01*
X549526Y390665D01*
X549513Y390650D01*
X549501Y390619D01*
X549461Y390546D01*
X548797Y388943D01*
X546081Y386228D01*
X542534Y384758D01*
X538694Y384758D01*
X535146Y386228D01*
X532430Y388943D01*
X530961Y392491D01*
X530961Y396331D01*
X532430Y399879D01*
X535146Y402594D01*
X537349Y403507D01*
X537448Y403568D01*
X537549Y403628D01*
X537553Y403633D01*
X537558Y403637D01*
X537632Y403726D01*
X537708Y403815D01*
X537711Y403821D01*
X537715Y403826D01*
X537756Y403934D01*
X537800Y404044D01*
X537801Y404051D01*
X537803Y404056D01*
X537804Y404074D01*
X537819Y404210D01*
X537819Y453692D01*
X537804Y453782D01*
X537797Y453873D01*
X537784Y453903D01*
X537779Y453935D01*
X537736Y454016D01*
X537701Y454099D01*
X537675Y454132D01*
X537664Y454152D01*
X537641Y454174D01*
X537596Y454230D01*
X526897Y464930D01*
X526897Y472136D01*
X526882Y472225D01*
X526875Y472316D01*
X526862Y472346D01*
X526857Y472378D01*
X526814Y472459D01*
X526779Y472543D01*
X526753Y472575D01*
X526742Y472596D01*
X526719Y472618D01*
X526674Y472674D01*
X526166Y473182D01*
X526108Y473224D01*
X526056Y473273D01*
X526008Y473295D01*
X525966Y473325D01*
X525898Y473346D01*
X525833Y473377D01*
X525781Y473382D01*
X525731Y473398D01*
X525659Y473396D01*
X525588Y473404D01*
X525537Y473393D01*
X525485Y473391D01*
X525418Y473367D01*
X525348Y473351D01*
X525303Y473325D01*
X525254Y473307D01*
X525198Y473262D01*
X525137Y473225D01*
X525103Y473186D01*
X525062Y473153D01*
X525023Y473093D01*
X524977Y473038D01*
X524957Y472990D01*
X524929Y472946D01*
X524912Y472877D01*
X524885Y472810D01*
X524877Y472739D01*
X524869Y472708D01*
X524871Y472684D01*
X524866Y472644D01*
X524866Y468691D01*
X523397Y465143D01*
X520681Y462428D01*
X517134Y460958D01*
X513294Y460958D01*
X509746Y462428D01*
X507030Y465143D01*
X506202Y467143D01*
X506140Y467243D01*
X506080Y467343D01*
X506076Y467347D01*
X506072Y467352D01*
X505982Y467427D01*
X505894Y467503D01*
X505888Y467505D01*
X505883Y467509D01*
X505775Y467551D01*
X505665Y467595D01*
X505658Y467596D01*
X505653Y467597D01*
X505635Y467598D01*
X505499Y467613D01*
X504698Y467613D01*
X504678Y467610D01*
X504659Y467612D01*
X504557Y467590D01*
X504455Y467574D01*
X504438Y467564D01*
X504418Y467560D01*
X504329Y467507D01*
X504238Y467458D01*
X504224Y467444D01*
X504207Y467434D01*
X504140Y467355D01*
X504068Y467280D01*
X504060Y467262D01*
X504047Y467247D01*
X504008Y467151D01*
X503965Y467057D01*
X503963Y467037D01*
X503955Y467019D01*
X503937Y466852D01*
X503937Y425584D01*
X503951Y425494D01*
X503959Y425403D01*
X503971Y425373D01*
X503976Y425341D01*
X504019Y425260D01*
X504055Y425177D01*
X504081Y425144D01*
X504092Y425124D01*
X504115Y425102D01*
X504160Y425046D01*
X505461Y423745D01*
X505461Y419535D01*
X504160Y418234D01*
X504107Y418161D01*
X504047Y418091D01*
X504035Y418061D01*
X504016Y418035D01*
X503989Y417948D01*
X503955Y417863D01*
X503951Y417822D01*
X503944Y417800D01*
X503945Y417767D01*
X503937Y417696D01*
X503937Y383093D01*
X503951Y383003D01*
X503959Y382912D01*
X503971Y382883D01*
X503976Y382851D01*
X504019Y382770D01*
X504055Y382686D01*
X504081Y382654D01*
X504092Y382633D01*
X504115Y382611D01*
X504160Y382555D01*
X511855Y374859D01*
X511951Y374791D01*
X512044Y374721D01*
X512050Y374719D01*
X512055Y374716D01*
X512167Y374681D01*
X512278Y374645D01*
X512284Y374645D01*
X512290Y374643D01*
X512407Y374646D01*
X512524Y374648D01*
X512531Y374650D01*
X512536Y374650D01*
X512554Y374656D01*
X512685Y374694D01*
X513510Y375036D01*
X516917Y375036D01*
X520065Y373732D01*
X522474Y371323D01*
X523778Y368175D01*
X523778Y364768D01*
X522474Y361620D01*
X520065Y359210D01*
X519240Y358869D01*
X519141Y358807D01*
X519041Y358747D01*
X519037Y358742D01*
X519031Y358739D01*
X518957Y358649D01*
X518881Y358560D01*
X518878Y358554D01*
X518874Y358550D01*
X518833Y358441D01*
X518789Y358332D01*
X518788Y358325D01*
X518786Y358320D01*
X518785Y358302D01*
X518770Y358165D01*
X518770Y354838D01*
X516464Y352531D01*
X514858Y350926D01*
X514830Y350887D01*
X514795Y350854D01*
X514759Y350787D01*
X514714Y350726D01*
X514700Y350680D01*
X514677Y350638D01*
X514664Y350563D01*
X514642Y350491D01*
X514643Y350443D01*
X514635Y350395D01*
X514646Y350321D01*
X514648Y350245D01*
X514665Y350200D01*
X514672Y350152D01*
X514707Y350085D01*
X514733Y350014D01*
X514763Y349976D01*
X514785Y349934D01*
X514839Y349881D01*
X514887Y349822D01*
X514927Y349796D01*
X514961Y349762D01*
X515030Y349730D01*
X515093Y349689D01*
X515140Y349677D01*
X515183Y349656D01*
X515259Y349647D01*
X515332Y349629D01*
X515380Y349632D01*
X515427Y349627D01*
X515555Y349646D01*
X515577Y349648D01*
X515583Y349650D01*
X515593Y349652D01*
X516276Y349835D01*
X522580Y349835D01*
X522580Y341324D01*
X514070Y341324D01*
X514070Y347629D01*
X514253Y348312D01*
X514258Y348359D01*
X514272Y348405D01*
X514270Y348481D01*
X514277Y348556D01*
X514267Y348603D01*
X514265Y348651D01*
X514239Y348722D01*
X514222Y348796D01*
X514197Y348837D01*
X514181Y348882D01*
X514134Y348941D01*
X514094Y349006D01*
X514057Y349037D01*
X514027Y349074D01*
X513963Y349115D01*
X513905Y349164D01*
X513861Y349181D01*
X513820Y349207D01*
X513747Y349226D01*
X513676Y349253D01*
X513628Y349255D01*
X513582Y349267D01*
X513506Y349261D01*
X513431Y349265D01*
X513384Y349252D01*
X513337Y349248D01*
X513267Y349218D01*
X513194Y349198D01*
X513154Y349170D01*
X513110Y349152D01*
X513010Y349071D01*
X512991Y349058D01*
X512987Y349053D01*
X512979Y349047D01*
X507438Y343506D01*
X507371Y343412D01*
X507300Y343317D01*
X507298Y343311D01*
X507295Y343306D01*
X507261Y343195D01*
X507224Y343083D01*
X507224Y343077D01*
X507222Y343071D01*
X507226Y342954D01*
X507227Y342837D01*
X507229Y342830D01*
X507229Y342825D01*
X507235Y342808D01*
X507273Y342676D01*
X507721Y341595D01*
X507721Y338007D01*
X506348Y334693D01*
X503812Y332156D01*
X500497Y330783D01*
X496910Y330783D01*
X493595Y332156D01*
X491059Y334693D01*
X489686Y338007D01*
X489686Y341595D01*
X491059Y344909D01*
X493595Y347446D01*
X496910Y348819D01*
X500497Y348819D01*
X501579Y348371D01*
X501692Y348344D01*
X501806Y348316D01*
X501812Y348316D01*
X501818Y348315D01*
X501935Y348326D01*
X502051Y348335D01*
X502057Y348337D01*
X502063Y348338D01*
X502171Y348386D01*
X502277Y348431D01*
X502283Y348436D01*
X502288Y348438D01*
X502302Y348451D01*
X502408Y348536D01*
X511434Y357561D01*
X511487Y357635D01*
X511546Y357705D01*
X511559Y357735D01*
X511577Y357761D01*
X511604Y357848D01*
X511638Y357933D01*
X511643Y357974D01*
X511650Y357996D01*
X511649Y358028D01*
X511657Y358100D01*
X511657Y358165D01*
X511655Y358177D01*
X511656Y358184D01*
X511648Y358221D01*
X511638Y358280D01*
X511621Y358396D01*
X511618Y358402D01*
X511617Y358408D01*
X511563Y358511D01*
X511509Y358616D01*
X511505Y358620D01*
X511502Y358626D01*
X511417Y358706D01*
X511334Y358788D01*
X511327Y358791D01*
X511324Y358795D01*
X511307Y358803D01*
X511187Y358869D01*
X510362Y359210D01*
X507953Y361620D01*
X506649Y364768D01*
X506649Y368175D01*
X506991Y369000D01*
X507017Y369113D01*
X507046Y369227D01*
X507045Y369233D01*
X507047Y369239D01*
X507036Y369356D01*
X507027Y369472D01*
X507024Y369478D01*
X507024Y369484D01*
X506976Y369592D01*
X506930Y369698D01*
X506926Y369704D01*
X506924Y369709D01*
X506911Y369723D01*
X506826Y369829D01*
X499130Y377525D01*
X496823Y379832D01*
X496823Y417696D01*
X496809Y417786D01*
X496801Y417877D01*
X496789Y417907D01*
X496784Y417939D01*
X496741Y418020D01*
X496705Y418103D01*
X496679Y418136D01*
X496668Y418156D01*
X496645Y418178D01*
X496600Y418234D01*
X495299Y419535D01*
X495299Y423745D01*
X496600Y425046D01*
X496653Y425119D01*
X496713Y425189D01*
X496725Y425219D01*
X496744Y425245D01*
X496771Y425332D01*
X496805Y425417D01*
X496809Y425458D01*
X496816Y425480D01*
X496815Y425513D01*
X496823Y425584D01*
X496823Y472643D01*
X498907Y474727D01*
X505962Y474727D01*
X506076Y474746D01*
X506193Y474763D01*
X506198Y474765D01*
X506204Y474766D01*
X506307Y474821D01*
X506412Y474874D01*
X506416Y474879D01*
X506422Y474882D01*
X506502Y474966D01*
X506584Y475050D01*
X506588Y475056D01*
X506591Y475060D01*
X506599Y475077D01*
X506665Y475197D01*
X507030Y476079D01*
X509746Y478794D01*
X513294Y480264D01*
X517134Y480264D01*
X520681Y478794D01*
X522702Y476774D01*
X522760Y476732D01*
X522812Y476683D01*
X522859Y476661D01*
X522901Y476631D01*
X522970Y476609D01*
X523035Y476579D01*
X523087Y476573D01*
X523137Y476558D01*
X523208Y476560D01*
X523279Y476552D01*
X523330Y476563D01*
X523382Y476565D01*
X523450Y476589D01*
X523520Y476604D01*
X523565Y476631D01*
X523613Y476649D01*
X523669Y476694D01*
X523731Y476731D01*
X523765Y476770D01*
X523805Y476803D01*
X523844Y476863D01*
X523891Y476917D01*
X523910Y476966D01*
X523938Y477010D01*
X523956Y477079D01*
X523983Y477146D01*
X523991Y477217D01*
X523999Y477248D01*
X523997Y477271D01*
X524001Y477312D01*
X524001Y491019D01*
X523986Y491115D01*
X523976Y491212D01*
X523966Y491236D01*
X523962Y491261D01*
X523916Y491347D01*
X523876Y491436D01*
X523859Y491456D01*
X523846Y491479D01*
X523776Y491546D01*
X523710Y491618D01*
X523687Y491630D01*
X523668Y491648D01*
X523580Y491689D01*
X523494Y491736D01*
X523469Y491741D01*
X523445Y491752D01*
X523348Y491763D01*
X523252Y491780D01*
X523226Y491776D01*
X523201Y491779D01*
X523106Y491758D01*
X523009Y491744D01*
X522986Y491732D01*
X522960Y491727D01*
X522877Y491677D01*
X522790Y491633D01*
X522771Y491614D01*
X522749Y491600D01*
X522686Y491526D01*
X522618Y491457D01*
X522602Y491428D01*
X522589Y491414D01*
X522577Y491383D01*
X522537Y491310D01*
X522474Y491160D01*
X520065Y488750D01*
X516917Y487446D01*
X513510Y487446D01*
X510362Y488750D01*
X507953Y491160D01*
X506649Y494308D01*
X506649Y497715D01*
X507953Y500863D01*
X510362Y503272D01*
X513510Y504576D01*
X516917Y504576D01*
X520065Y503272D01*
X522474Y500863D01*
X522537Y500712D01*
X522588Y500630D01*
X522634Y500544D01*
X522653Y500526D01*
X522666Y500503D01*
X522741Y500441D01*
X522812Y500374D01*
X522836Y500363D01*
X522856Y500347D01*
X522947Y500312D01*
X523035Y500271D01*
X523061Y500268D01*
X523085Y500258D01*
X523183Y500254D01*
X523279Y500243D01*
X523305Y500249D01*
X523331Y500248D01*
X523425Y500275D01*
X523520Y500296D01*
X523542Y500309D01*
X523567Y500316D01*
X523647Y500372D01*
X523731Y500422D01*
X523748Y500442D01*
X523769Y500457D01*
X523828Y500535D01*
X523891Y500609D01*
X523901Y500633D01*
X523916Y500654D01*
X523946Y500746D01*
X523983Y500837D01*
X523986Y500869D01*
X523992Y500888D01*
X523992Y500921D01*
X524001Y501004D01*
X524001Y514864D01*
X524000Y514872D01*
X524001Y514880D01*
X523980Y514993D01*
X523962Y515107D01*
X523958Y515114D01*
X523956Y515121D01*
X523900Y515223D01*
X523846Y515324D01*
X523841Y515329D01*
X523837Y515336D01*
X523751Y515414D01*
X523668Y515493D01*
X523661Y515497D01*
X523655Y515502D01*
X523550Y515548D01*
X523445Y515597D01*
X523437Y515598D01*
X523430Y515601D01*
X523314Y515611D01*
X523201Y515624D01*
X523193Y515622D01*
X523185Y515623D01*
X523073Y515596D01*
X522960Y515572D01*
X522953Y515568D01*
X522946Y515566D01*
X522848Y515505D01*
X522749Y515446D01*
X522744Y515440D01*
X522737Y515435D01*
X522624Y515311D01*
X522521Y515170D01*
X521455Y514104D01*
X520235Y513217D01*
X518891Y512532D01*
X517457Y512066D01*
X516737Y511952D01*
X516737Y520649D01*
X516734Y520669D01*
X516736Y520689D01*
X516714Y520790D01*
X516697Y520892D01*
X516688Y520909D01*
X516684Y520929D01*
X516630Y521018D01*
X516582Y521109D01*
X516568Y521123D01*
X516557Y521140D01*
X516479Y521207D01*
X516404Y521279D01*
X516386Y521287D01*
X516370Y521300D01*
X516274Y521339D01*
X516181Y521382D01*
X516161Y521384D01*
X516142Y521392D01*
X515976Y521410D01*
X515213Y521410D01*
X515213Y521412D01*
X515976Y521412D01*
X515995Y521415D01*
X516015Y521413D01*
X516116Y521435D01*
X516218Y521452D01*
X516236Y521461D01*
X516255Y521465D01*
X516344Y521519D01*
X516436Y521567D01*
X516449Y521581D01*
X516466Y521592D01*
X516534Y521670D01*
X516605Y521745D01*
X516613Y521763D01*
X516626Y521778D01*
X516665Y521875D01*
X516709Y521968D01*
X516711Y521988D01*
X516718Y522007D01*
X516737Y522173D01*
X516737Y530870D01*
X517457Y530756D01*
X518891Y530290D01*
X520235Y529605D01*
X521455Y528719D01*
X522521Y527653D01*
X522624Y527511D01*
X522630Y527505D01*
X522634Y527498D01*
X522717Y527420D01*
X522799Y527338D01*
X522806Y527335D01*
X522812Y527329D01*
X522917Y527280D01*
X523020Y527230D01*
X523028Y527229D01*
X523035Y527225D01*
X523150Y527213D01*
X523264Y527198D01*
X523272Y527199D01*
X523279Y527198D01*
X523392Y527223D01*
X523505Y527245D01*
X523512Y527249D01*
X523520Y527251D01*
X523618Y527310D01*
X523719Y527367D01*
X523724Y527373D01*
X523731Y527377D01*
X523806Y527464D01*
X523882Y527550D01*
X523886Y527558D01*
X523891Y527564D01*
X523934Y527671D01*
X523979Y527776D01*
X523980Y527784D01*
X523983Y527792D01*
X524001Y527959D01*
X524001Y604154D01*
X532242Y612395D01*
X909576Y612395D01*
X909691Y612414D01*
X909807Y612431D01*
X909813Y612433D01*
X909819Y612434D01*
X909922Y612489D01*
X910026Y612542D01*
X910031Y612547D01*
X910036Y612550D01*
X910116Y612634D01*
X910199Y612718D01*
X910202Y612724D01*
X910206Y612728D01*
X910214Y612745D01*
X910280Y612865D01*
X911490Y615787D01*
X914563Y618860D01*
X918577Y620523D01*
X922923Y620523D01*
X926937Y618860D01*
X930010Y615787D01*
X930461Y614699D01*
X930512Y614616D01*
X930558Y614530D01*
X930576Y614512D01*
X930590Y614490D01*
X930666Y614427D01*
X930736Y614361D01*
X930760Y614350D01*
X930780Y614333D01*
X930871Y614298D01*
X930959Y614257D01*
X930985Y614254D01*
X931009Y614245D01*
X931107Y614241D01*
X931203Y614230D01*
X931229Y614235D01*
X931255Y614234D01*
X931349Y614261D01*
X931444Y614282D01*
X931466Y614295D01*
X931491Y614303D01*
X931571Y614358D01*
X931655Y614408D01*
X931672Y614428D01*
X931693Y614443D01*
X931752Y614521D01*
X931815Y614595D01*
X931825Y614619D01*
X931840Y614640D01*
X931870Y614733D01*
X931907Y614823D01*
X931910Y614856D01*
X931916Y614874D01*
X931916Y614907D01*
X931925Y614990D01*
X931925Y645009D01*
X931922Y645029D01*
X931924Y645049D01*
X931902Y645150D01*
X931886Y645252D01*
X931876Y645270D01*
X931872Y645289D01*
X931819Y645378D01*
X931770Y645469D01*
X931756Y645483D01*
X931746Y645500D01*
X931667Y645567D01*
X931592Y645639D01*
X931574Y645647D01*
X931559Y645660D01*
X931463Y645699D01*
X931369Y645742D01*
X931349Y645745D01*
X931331Y645752D01*
X931164Y645770D01*
X433426Y645770D01*
X433406Y645767D01*
X433386Y645769D01*
X433285Y645747D01*
X433183Y645731D01*
X433165Y645721D01*
X433146Y645717D01*
X433057Y645664D01*
X432965Y645616D01*
X432952Y645601D01*
X432935Y645591D01*
X432867Y645512D01*
X432796Y645437D01*
X432788Y645419D01*
X432775Y645404D01*
X432736Y645308D01*
X432692Y645214D01*
X432690Y645194D01*
X432683Y645176D01*
X432664Y645009D01*
X432664Y613396D01*
X432680Y613300D01*
X432689Y613203D01*
X432700Y613179D01*
X432704Y613153D01*
X432750Y613067D01*
X432789Y612978D01*
X432807Y612959D01*
X432819Y612936D01*
X432890Y612868D01*
X432956Y612797D01*
X432979Y612784D01*
X432998Y612766D01*
X433086Y612725D01*
X433171Y612678D01*
X433197Y612674D01*
X433221Y612663D01*
X433317Y612652D01*
X433413Y612635D01*
X433439Y612638D01*
X433465Y612635D01*
X433560Y612656D01*
X433657Y612670D01*
X433680Y612682D01*
X433705Y612688D01*
X433789Y612738D01*
X433876Y612782D01*
X433894Y612801D01*
X433917Y612814D01*
X433980Y612888D01*
X434048Y612957D01*
X434064Y612986D01*
X434076Y613001D01*
X434089Y613031D01*
X434129Y613104D01*
X435240Y615787D01*
X438313Y618860D01*
X442327Y620523D01*
X446673Y620523D01*
X450687Y618860D01*
X453760Y615787D01*
X455423Y611773D01*
X455423Y607427D01*
X453760Y603413D01*
X450687Y600340D01*
X446673Y598677D01*
X442327Y598677D01*
X438313Y600340D01*
X435240Y603413D01*
X434129Y606096D01*
X434077Y606179D01*
X434032Y606264D01*
X434013Y606282D01*
X433999Y606305D01*
X433924Y606367D01*
X433854Y606434D01*
X433830Y606445D01*
X433810Y606462D01*
X433719Y606496D01*
X433631Y606537D01*
X433605Y606540D01*
X433580Y606550D01*
X433483Y606554D01*
X433386Y606565D01*
X433361Y606559D01*
X433334Y606560D01*
X433241Y606533D01*
X433146Y606512D01*
X433123Y606499D01*
X433098Y606492D01*
X433018Y606436D01*
X432935Y606386D01*
X432918Y606366D01*
X432896Y606351D01*
X432838Y606273D01*
X432775Y606199D01*
X432765Y606175D01*
X432749Y606154D01*
X432719Y606061D01*
X432683Y605971D01*
X432679Y605939D01*
X432673Y605920D01*
X432673Y605887D01*
X432664Y605804D01*
X432664Y587996D01*
X432680Y587900D01*
X432689Y587803D01*
X432700Y587779D01*
X432704Y587753D01*
X432750Y587667D01*
X432789Y587578D01*
X432807Y587559D01*
X432819Y587536D01*
X432890Y587468D01*
X432956Y587397D01*
X432979Y587384D01*
X432998Y587366D01*
X433086Y587325D01*
X433171Y587278D01*
X433197Y587274D01*
X433221Y587263D01*
X433317Y587252D01*
X433413Y587235D01*
X433439Y587238D01*
X433465Y587235D01*
X433560Y587256D01*
X433657Y587270D01*
X433680Y587282D01*
X433705Y587288D01*
X433789Y587338D01*
X433876Y587382D01*
X433894Y587401D01*
X433917Y587414D01*
X433980Y587488D01*
X434048Y587557D01*
X434064Y587586D01*
X434076Y587601D01*
X434089Y587631D01*
X434129Y587704D01*
X435240Y590387D01*
X438313Y593460D01*
X442327Y595123D01*
X446673Y595123D01*
X450687Y593460D01*
X453760Y590387D01*
X455423Y586373D01*
X455423Y582027D01*
X453760Y578013D01*
X450687Y574940D01*
X446673Y573277D01*
X442327Y573277D01*
X438313Y574940D01*
X435240Y578013D01*
X434129Y580696D01*
X434077Y580779D01*
X434032Y580864D01*
X434013Y580882D01*
X433999Y580905D01*
X433924Y580967D01*
X433854Y581034D01*
X433830Y581045D01*
X433810Y581062D01*
X433719Y581096D01*
X433631Y581137D01*
X433605Y581140D01*
X433580Y581150D01*
X433483Y581154D01*
X433386Y581165D01*
X433361Y581159D01*
X433334Y581160D01*
X433241Y581133D01*
X433146Y581112D01*
X433123Y581099D01*
X433098Y581092D01*
X433018Y581036D01*
X432935Y580986D01*
X432918Y580966D01*
X432896Y580951D01*
X432838Y580873D01*
X432775Y580799D01*
X432765Y580775D01*
X432749Y580754D01*
X432719Y580661D01*
X432683Y580571D01*
X432679Y580539D01*
X432673Y580520D01*
X432673Y580487D01*
X432664Y580404D01*
X432664Y562596D01*
X432680Y562500D01*
X432689Y562403D01*
X432700Y562379D01*
X432704Y562353D01*
X432750Y562267D01*
X432789Y562178D01*
X432807Y562159D01*
X432819Y562136D01*
X432890Y562068D01*
X432956Y561997D01*
X432979Y561984D01*
X432998Y561966D01*
X433086Y561925D01*
X433171Y561878D01*
X433197Y561874D01*
X433221Y561863D01*
X433317Y561852D01*
X433413Y561835D01*
X433439Y561838D01*
X433465Y561835D01*
X433560Y561856D01*
X433657Y561870D01*
X433680Y561882D01*
X433705Y561888D01*
X433789Y561938D01*
X433876Y561982D01*
X433894Y562001D01*
X433917Y562014D01*
X433980Y562088D01*
X434048Y562157D01*
X434064Y562186D01*
X434076Y562201D01*
X434089Y562231D01*
X434129Y562304D01*
X435240Y564987D01*
X438313Y568060D01*
X442327Y569723D01*
X446673Y569723D01*
X450687Y568060D01*
X453760Y564987D01*
X455423Y560973D01*
X455423Y556627D01*
X453760Y552613D01*
X450687Y549540D01*
X446673Y547877D01*
X442327Y547877D01*
X438313Y549540D01*
X435240Y552613D01*
X434129Y555296D01*
X434077Y555379D01*
X434032Y555464D01*
X434013Y555482D01*
X433999Y555505D01*
X433924Y555567D01*
X433854Y555634D01*
X433830Y555645D01*
X433810Y555662D01*
X433719Y555696D01*
X433631Y555737D01*
X433605Y555740D01*
X433580Y555750D01*
X433483Y555754D01*
X433386Y555765D01*
X433361Y555759D01*
X433334Y555760D01*
X433241Y555733D01*
X433146Y555712D01*
X433123Y555699D01*
X433098Y555692D01*
X433018Y555636D01*
X432935Y555586D01*
X432918Y555566D01*
X432896Y555551D01*
X432838Y555473D01*
X432775Y555399D01*
X432765Y555375D01*
X432749Y555354D01*
X432719Y555261D01*
X432683Y555171D01*
X432679Y555139D01*
X432673Y555120D01*
X432673Y555087D01*
X432664Y555004D01*
X432664Y537196D01*
X432680Y537100D01*
X432689Y537003D01*
X432700Y536979D01*
X432704Y536953D01*
X432750Y536867D01*
X432789Y536778D01*
X432807Y536759D01*
X432819Y536736D01*
X432890Y536668D01*
X432956Y536597D01*
X432979Y536584D01*
X432998Y536566D01*
X433086Y536525D01*
X433171Y536478D01*
X433197Y536474D01*
X433221Y536463D01*
X433317Y536452D01*
X433413Y536434D01*
X433439Y536438D01*
X433465Y536435D01*
X433560Y536456D01*
X433657Y536470D01*
X433680Y536482D01*
X433705Y536488D01*
X433789Y536538D01*
X433876Y536582D01*
X433894Y536600D01*
X433917Y536614D01*
X433980Y536688D01*
X434048Y536757D01*
X434064Y536786D01*
X434076Y536801D01*
X434089Y536831D01*
X434129Y536904D01*
X435240Y539587D01*
X438313Y542660D01*
X442327Y544323D01*
X446673Y544323D01*
X450687Y542660D01*
X453760Y539587D01*
X455423Y535573D01*
X455423Y531227D01*
X453760Y527213D01*
X450687Y524140D01*
X446673Y522477D01*
X442327Y522477D01*
X438313Y524140D01*
X435240Y527213D01*
X434129Y529896D01*
X434077Y529979D01*
X434032Y530064D01*
X434013Y530082D01*
X433999Y530105D01*
X433924Y530167D01*
X433854Y530234D01*
X433830Y530245D01*
X433810Y530262D01*
X433719Y530296D01*
X433631Y530337D01*
X433605Y530340D01*
X433580Y530350D01*
X433483Y530354D01*
X433386Y530365D01*
X433361Y530359D01*
X433334Y530360D01*
X433241Y530333D01*
X433146Y530312D01*
X433123Y530299D01*
X433098Y530292D01*
X433018Y530236D01*
X432935Y530186D01*
X432918Y530166D01*
X432896Y530151D01*
X432838Y530073D01*
X432775Y529999D01*
X432765Y529975D01*
X432749Y529954D01*
X432719Y529861D01*
X432683Y529771D01*
X432679Y529739D01*
X432673Y529720D01*
X432673Y529687D01*
X432664Y529604D01*
X432664Y511796D01*
X432680Y511700D01*
X432689Y511603D01*
X432700Y511579D01*
X432704Y511553D01*
X432750Y511467D01*
X432789Y511378D01*
X432807Y511359D01*
X432819Y511336D01*
X432890Y511268D01*
X432956Y511197D01*
X432979Y511184D01*
X432998Y511166D01*
X433086Y511125D01*
X433171Y511078D01*
X433197Y511074D01*
X433221Y511063D01*
X433317Y511052D01*
X433413Y511034D01*
X433439Y511038D01*
X433465Y511035D01*
X433560Y511056D01*
X433657Y511070D01*
X433680Y511082D01*
X433705Y511088D01*
X433789Y511138D01*
X433876Y511182D01*
X433894Y511200D01*
X433917Y511214D01*
X433980Y511288D01*
X434048Y511357D01*
X434064Y511386D01*
X434076Y511401D01*
X434089Y511431D01*
X434129Y511504D01*
X435240Y514187D01*
X438313Y517260D01*
X442327Y518923D01*
X446673Y518923D01*
X450687Y517260D01*
X453760Y514187D01*
X455423Y510173D01*
X455423Y505827D01*
X453760Y501813D01*
X450687Y498740D01*
X446673Y497077D01*
X442327Y497077D01*
X438313Y498740D01*
X435240Y501813D01*
X434129Y504496D01*
X434077Y504579D01*
X434032Y504664D01*
X434013Y504682D01*
X433999Y504705D01*
X433924Y504767D01*
X433854Y504834D01*
X433830Y504845D01*
X433810Y504862D01*
X433719Y504896D01*
X433631Y504937D01*
X433605Y504940D01*
X433580Y504950D01*
X433483Y504954D01*
X433386Y504965D01*
X433361Y504959D01*
X433334Y504960D01*
X433241Y504933D01*
X433146Y504912D01*
X433123Y504899D01*
X433098Y504892D01*
X433018Y504836D01*
X432935Y504786D01*
X432918Y504766D01*
X432896Y504751D01*
X432838Y504673D01*
X432775Y504599D01*
X432765Y504575D01*
X432749Y504554D01*
X432719Y504461D01*
X432683Y504371D01*
X432679Y504339D01*
X432673Y504320D01*
X432673Y504287D01*
X432664Y504204D01*
X432664Y486396D01*
X432680Y486300D01*
X432689Y486203D01*
X432700Y486179D01*
X432704Y486153D01*
X432750Y486067D01*
X432789Y485978D01*
X432807Y485959D01*
X432819Y485936D01*
X432890Y485868D01*
X432956Y485797D01*
X432979Y485784D01*
X432998Y485766D01*
X433086Y485725D01*
X433171Y485678D01*
X433197Y485674D01*
X433221Y485663D01*
X433317Y485652D01*
X433413Y485634D01*
X433439Y485638D01*
X433465Y485635D01*
X433560Y485656D01*
X433657Y485670D01*
X433680Y485682D01*
X433705Y485688D01*
X433789Y485738D01*
X433876Y485782D01*
X433894Y485800D01*
X433917Y485814D01*
X433980Y485888D01*
X434048Y485957D01*
X434064Y485986D01*
X434076Y486001D01*
X434089Y486031D01*
X434129Y486104D01*
X435240Y488787D01*
X438313Y491860D01*
X442327Y493523D01*
X446673Y493523D01*
X450687Y491860D01*
X453760Y488787D01*
X455423Y484773D01*
X455423Y480427D01*
X453760Y476413D01*
X450687Y473340D01*
X446673Y471677D01*
X442327Y471677D01*
X438313Y473340D01*
X435240Y476413D01*
X434129Y479096D01*
X434077Y479179D01*
X434032Y479264D01*
X434013Y479282D01*
X433999Y479305D01*
X433924Y479367D01*
X433854Y479434D01*
X433830Y479445D01*
X433810Y479462D01*
X433719Y479496D01*
X433631Y479537D01*
X433605Y479540D01*
X433580Y479550D01*
X433483Y479554D01*
X433386Y479565D01*
X433361Y479559D01*
X433334Y479560D01*
X433241Y479533D01*
X433146Y479512D01*
X433123Y479499D01*
X433098Y479492D01*
X433018Y479436D01*
X432935Y479386D01*
X432918Y479366D01*
X432896Y479351D01*
X432838Y479273D01*
X432775Y479199D01*
X432765Y479175D01*
X432749Y479154D01*
X432719Y479061D01*
X432683Y478971D01*
X432679Y478939D01*
X432673Y478920D01*
X432673Y478887D01*
X432664Y478804D01*
X432664Y460996D01*
X432680Y460900D01*
X432689Y460803D01*
X432700Y460779D01*
X432704Y460753D01*
X432750Y460667D01*
X432789Y460578D01*
X432807Y460559D01*
X432819Y460536D01*
X432890Y460468D01*
X432956Y460397D01*
X432979Y460384D01*
X432998Y460366D01*
X433086Y460325D01*
X433171Y460278D01*
X433197Y460274D01*
X433221Y460263D01*
X433317Y460252D01*
X433413Y460234D01*
X433439Y460238D01*
X433465Y460235D01*
X433560Y460256D01*
X433657Y460270D01*
X433680Y460282D01*
X433705Y460288D01*
X433789Y460338D01*
X433876Y460382D01*
X433894Y460400D01*
X433917Y460414D01*
X433980Y460488D01*
X434048Y460557D01*
X434064Y460586D01*
X434076Y460601D01*
X434089Y460631D01*
X434129Y460704D01*
X435240Y463387D01*
X438313Y466460D01*
X442327Y468123D01*
X446673Y468123D01*
X450687Y466460D01*
X453760Y463387D01*
X454655Y461227D01*
X454716Y461127D01*
X454776Y461027D01*
X454781Y461023D01*
X454784Y461018D01*
X454874Y460943D01*
X454963Y460867D01*
X454969Y460865D01*
X454974Y460861D01*
X455082Y460819D01*
X455191Y460775D01*
X455199Y460774D01*
X455203Y460773D01*
X455222Y460772D01*
X455358Y460757D01*
X473913Y460757D01*
X485700Y448970D01*
X485700Y434474D01*
X485714Y434384D01*
X485721Y434293D01*
X485734Y434263D01*
X485739Y434231D01*
X485782Y434150D01*
X485818Y434067D01*
X485843Y434034D01*
X485854Y434014D01*
X485878Y433992D01*
X485923Y433936D01*
X487224Y432635D01*
X487224Y428425D01*
X485923Y427124D01*
X485869Y427051D01*
X485810Y426981D01*
X485798Y426951D01*
X485779Y426925D01*
X485752Y426838D01*
X485718Y426753D01*
X485714Y426712D01*
X485707Y426690D01*
X485708Y426657D01*
X485700Y426586D01*
X485700Y381628D01*
X485703Y381610D01*
X485700Y381592D01*
X485722Y381489D01*
X485739Y381386D01*
X485748Y381369D01*
X485752Y381351D01*
X485830Y381203D01*
X485915Y381076D01*
X485714Y380038D01*
X485713Y380012D01*
X485700Y379893D01*
X485700Y378835D01*
X485592Y378727D01*
X485581Y378712D01*
X485566Y378700D01*
X485509Y378612D01*
X485448Y378527D01*
X485443Y378509D01*
X485433Y378494D01*
X485383Y378333D01*
X485354Y378184D01*
X484477Y377592D01*
X484457Y377574D01*
X484364Y377499D01*
X483616Y376751D01*
X483463Y376751D01*
X483445Y376748D01*
X483427Y376750D01*
X483324Y376728D01*
X483221Y376711D01*
X483204Y376703D01*
X483186Y376699D01*
X483038Y376621D01*
X482130Y376008D01*
X482100Y375980D01*
X482065Y375959D01*
X482011Y375896D01*
X481951Y375839D01*
X481931Y375803D01*
X481905Y375772D01*
X481874Y375695D01*
X481835Y375623D01*
X481828Y375582D01*
X481813Y375544D01*
X481795Y375385D01*
X481794Y375380D01*
X481794Y375379D01*
X481794Y375377D01*
X481794Y373839D01*
X481806Y373768D01*
X481808Y373696D01*
X481826Y373647D01*
X481834Y373596D01*
X481868Y373533D01*
X481892Y373465D01*
X481925Y373425D01*
X481949Y373379D01*
X482001Y373329D01*
X482046Y373273D01*
X482090Y373245D01*
X482127Y373209D01*
X482193Y373179D01*
X482253Y373140D01*
X482303Y373128D01*
X482351Y373106D01*
X482422Y373098D01*
X482491Y373080D01*
X482543Y373084D01*
X482595Y373079D01*
X482665Y373094D01*
X482737Y373099D01*
X482784Y373120D01*
X482835Y373131D01*
X482897Y373168D01*
X482963Y373196D01*
X483019Y373241D01*
X483046Y373257D01*
X483062Y373275D01*
X483094Y373301D01*
X483572Y373779D01*
X484792Y374665D01*
X486136Y375350D01*
X487570Y375816D01*
X488290Y375930D01*
X488290Y367233D01*
X488294Y367214D01*
X488291Y367194D01*
X488313Y367093D01*
X488330Y366991D01*
X488339Y366973D01*
X488344Y366954D01*
X488397Y366864D01*
X488445Y366773D01*
X488460Y366760D01*
X488470Y366742D01*
X488549Y366675D01*
X488624Y366604D01*
X488642Y366595D01*
X488657Y366582D01*
X488753Y366544D01*
X488847Y366500D01*
X488866Y366498D01*
X488885Y366491D01*
X489052Y366472D01*
X489814Y366472D01*
X489814Y366470D01*
X489052Y366470D01*
X489032Y366467D01*
X489012Y366469D01*
X488911Y366447D01*
X488809Y366431D01*
X488791Y366421D01*
X488772Y366417D01*
X488683Y366364D01*
X488591Y366315D01*
X488578Y366301D01*
X488561Y366291D01*
X488493Y366212D01*
X488422Y366137D01*
X488414Y366119D01*
X488401Y366104D01*
X488362Y366008D01*
X488318Y365914D01*
X488316Y365894D01*
X488309Y365876D01*
X488290Y365709D01*
X488290Y357012D01*
X487570Y357126D01*
X486136Y357592D01*
X484739Y358304D01*
X484697Y358318D01*
X484607Y358363D01*
X484594Y358365D01*
X484583Y358370D01*
X484505Y358379D01*
X484504Y358379D01*
X484503Y358379D01*
X484473Y358382D01*
X484363Y358398D01*
X484351Y358396D01*
X484339Y358397D01*
X484230Y358374D01*
X484121Y358354D01*
X484110Y358348D01*
X484098Y358345D01*
X484003Y358288D01*
X483906Y358235D01*
X483898Y358225D01*
X483887Y358219D01*
X483815Y358135D01*
X483740Y358053D01*
X483735Y358041D01*
X483727Y358032D01*
X483686Y357929D01*
X483641Y357828D01*
X483640Y357815D01*
X483635Y357804D01*
X483617Y357637D01*
X483617Y320548D01*
X483620Y320528D01*
X483618Y320509D01*
X483640Y320407D01*
X483656Y320305D01*
X483666Y320288D01*
X483670Y320268D01*
X483723Y320179D01*
X483772Y320088D01*
X483786Y320074D01*
X483796Y320057D01*
X483875Y319990D01*
X483950Y319918D01*
X483968Y319910D01*
X483983Y319897D01*
X484079Y319858D01*
X484173Y319815D01*
X484193Y319813D01*
X484211Y319805D01*
X484378Y319787D01*
X503721Y319787D01*
X503811Y319801D01*
X503902Y319809D01*
X503932Y319821D01*
X503964Y319826D01*
X504044Y319869D01*
X504128Y319905D01*
X504160Y319931D01*
X504181Y319942D01*
X504203Y319965D01*
X504259Y320010D01*
X506295Y322046D01*
X509610Y323419D01*
X513197Y323419D01*
X516512Y322046D01*
X519048Y319509D01*
X520421Y316195D01*
X520421Y312607D01*
X519048Y309293D01*
X516512Y306756D01*
X513197Y305383D01*
X509610Y305383D01*
X506295Y306756D01*
X503759Y309293D01*
X502553Y312203D01*
X502492Y312303D01*
X502432Y312403D01*
X502427Y312407D01*
X502424Y312412D01*
X502334Y312487D01*
X502245Y312563D01*
X502239Y312565D01*
X502234Y312569D01*
X502126Y312611D01*
X502017Y312655D01*
X502009Y312656D01*
X502005Y312657D01*
X501986Y312658D01*
X501850Y312673D01*
X478587Y312673D01*
X476503Y314757D01*
X476503Y357932D01*
X476484Y358048D01*
X476467Y358166D01*
X476464Y358171D01*
X476464Y358175D01*
X476456Y358189D01*
X476398Y358319D01*
X475452Y359924D01*
X475444Y359933D01*
X475439Y359944D01*
X475334Y360075D01*
X474681Y360729D01*
X474681Y361025D01*
X474662Y361141D01*
X474644Y361258D01*
X474642Y361263D01*
X474641Y361267D01*
X474634Y361281D01*
X474575Y361411D01*
X474425Y361666D01*
X474657Y362561D01*
X474658Y362573D01*
X474662Y362584D01*
X474681Y362751D01*
X474681Y376352D01*
X474678Y376370D01*
X474680Y376389D01*
X474658Y376491D01*
X474641Y376595D01*
X474632Y376611D01*
X474629Y376629D01*
X474551Y376778D01*
X474465Y376904D01*
X474667Y377943D01*
X474668Y377969D01*
X474681Y378088D01*
X474681Y379146D01*
X474789Y379254D01*
X474800Y379269D01*
X474814Y379280D01*
X474871Y379368D01*
X474932Y379453D01*
X474938Y379471D01*
X474948Y379487D01*
X474998Y379647D01*
X475085Y380094D01*
X475088Y380206D01*
X475094Y380260D01*
X475091Y380275D01*
X475093Y380331D01*
X475092Y380335D01*
X475092Y380340D01*
X475057Y380454D01*
X475025Y380567D01*
X475022Y380571D01*
X475020Y380576D01*
X474951Y380672D01*
X474884Y380769D01*
X474880Y380772D01*
X474878Y380776D01*
X474781Y380846D01*
X474687Y380916D01*
X474682Y380917D01*
X474678Y380920D01*
X474565Y380955D01*
X474453Y380992D01*
X474448Y380992D01*
X474444Y380993D01*
X474326Y380991D01*
X474207Y380990D01*
X474202Y380988D01*
X474198Y380988D01*
X474183Y380983D01*
X474046Y380943D01*
X471361Y379831D01*
X467016Y379831D01*
X463002Y381494D01*
X459929Y384566D01*
X458266Y388581D01*
X458266Y392926D01*
X459929Y396941D01*
X463002Y400013D01*
X467016Y401676D01*
X471361Y401676D01*
X475376Y400013D01*
X477287Y398103D01*
X477345Y398061D01*
X477397Y398012D01*
X477444Y397990D01*
X477486Y397959D01*
X477555Y397938D01*
X477620Y397908D01*
X477672Y397902D01*
X477721Y397887D01*
X477793Y397889D01*
X477864Y397881D01*
X477915Y397892D01*
X477967Y397893D01*
X478035Y397918D01*
X478105Y397933D01*
X478149Y397960D01*
X478198Y397978D01*
X478254Y398023D01*
X478316Y398059D01*
X478350Y398099D01*
X478390Y398131D01*
X478429Y398192D01*
X478476Y398246D01*
X478495Y398295D01*
X478523Y398338D01*
X478541Y398408D01*
X478568Y398474D01*
X478576Y398546D01*
X478583Y398577D01*
X478582Y398600D01*
X478586Y398641D01*
X478586Y426586D01*
X478571Y426676D01*
X478564Y426767D01*
X478552Y426797D01*
X478546Y426829D01*
X478504Y426910D01*
X478468Y426993D01*
X478442Y427026D01*
X478431Y427046D01*
X478408Y427068D01*
X478363Y427124D01*
X477062Y428425D01*
X477062Y432635D01*
X478363Y433936D01*
X478416Y434009D01*
X478476Y434079D01*
X478488Y434109D01*
X478507Y434135D01*
X478533Y434222D01*
X478568Y434307D01*
X478572Y434348D01*
X478579Y434370D01*
X478578Y434403D01*
X478586Y434474D01*
X478586Y445709D01*
X478584Y445720D01*
X478585Y445728D01*
X478577Y445767D01*
X478571Y445799D01*
X478564Y445890D01*
X478552Y445919D01*
X478546Y445951D01*
X478504Y446032D01*
X478468Y446116D01*
X478442Y446148D01*
X478431Y446169D01*
X478408Y446191D01*
X478363Y446247D01*
X471190Y453420D01*
X471116Y453473D01*
X471046Y453533D01*
X471016Y453545D01*
X470990Y453564D01*
X470903Y453591D01*
X470818Y453625D01*
X470777Y453629D01*
X470755Y453636D01*
X470723Y453635D01*
X470651Y453643D01*
X455358Y453643D01*
X455243Y453624D01*
X455127Y453607D01*
X455122Y453605D01*
X455115Y453604D01*
X455013Y453549D01*
X454908Y453496D01*
X454903Y453491D01*
X454898Y453488D01*
X454818Y453404D01*
X454736Y453320D01*
X454732Y453314D01*
X454729Y453310D01*
X454721Y453293D01*
X454655Y453173D01*
X453760Y451013D01*
X450687Y447940D01*
X446673Y446277D01*
X442327Y446277D01*
X438313Y447940D01*
X435240Y451013D01*
X434129Y453696D01*
X434077Y453779D01*
X434032Y453864D01*
X434013Y453882D01*
X433999Y453905D01*
X433924Y453967D01*
X433854Y454034D01*
X433830Y454045D01*
X433810Y454062D01*
X433719Y454096D01*
X433631Y454137D01*
X433605Y454140D01*
X433580Y454150D01*
X433483Y454154D01*
X433386Y454165D01*
X433361Y454159D01*
X433334Y454160D01*
X433241Y454133D01*
X433146Y454112D01*
X433123Y454099D01*
X433098Y454092D01*
X433018Y454036D01*
X432935Y453986D01*
X432918Y453966D01*
X432896Y453951D01*
X432838Y453873D01*
X432775Y453799D01*
X432765Y453775D01*
X432749Y453754D01*
X432719Y453661D01*
X432683Y453571D01*
X432679Y453539D01*
X432673Y453520D01*
X432673Y453487D01*
X432664Y453404D01*
X432664Y438039D01*
X432675Y437973D01*
X432676Y437905D01*
X432695Y437852D01*
X432704Y437797D01*
X432736Y437737D01*
X432758Y437673D01*
X432793Y437629D01*
X432819Y437579D01*
X432868Y437533D01*
X432910Y437479D01*
X432957Y437448D01*
X432998Y437410D01*
X433059Y437381D01*
X433116Y437344D01*
X433170Y437330D01*
X433221Y437306D01*
X433288Y437299D01*
X433354Y437281D01*
X433409Y437285D01*
X433465Y437279D01*
X433531Y437293D01*
X433599Y437298D01*
X433651Y437319D01*
X433705Y437331D01*
X433764Y437366D01*
X433826Y437392D01*
X433869Y437429D01*
X433917Y437458D01*
X433961Y437509D01*
X434012Y437554D01*
X434055Y437619D01*
X434076Y437644D01*
X434084Y437664D01*
X434104Y437694D01*
X434289Y438057D01*
X435394Y439578D01*
X436722Y440906D01*
X438243Y442011D01*
X439917Y442864D01*
X441704Y443445D01*
X442977Y443646D01*
X442977Y432562D01*
X442980Y432542D01*
X442978Y432523D01*
X443000Y432421D01*
X443017Y432319D01*
X443026Y432302D01*
X443030Y432282D01*
X443083Y432193D01*
X443132Y432102D01*
X443146Y432088D01*
X443156Y432071D01*
X443235Y432004D01*
X443310Y431933D01*
X443328Y431924D01*
X443343Y431911D01*
X443439Y431873D01*
X443533Y431829D01*
X443553Y431827D01*
X443571Y431819D01*
X443738Y431801D01*
X444501Y431801D01*
X444501Y431799D01*
X443738Y431799D01*
X443718Y431796D01*
X443699Y431798D01*
X443597Y431776D01*
X443495Y431759D01*
X443478Y431750D01*
X443458Y431746D01*
X443369Y431693D01*
X443278Y431644D01*
X443264Y431630D01*
X443247Y431620D01*
X443180Y431541D01*
X443109Y431466D01*
X443100Y431448D01*
X443087Y431433D01*
X443048Y431337D01*
X443005Y431243D01*
X443003Y431223D01*
X442995Y431205D01*
X442977Y431038D01*
X442977Y419954D01*
X441704Y420155D01*
X439917Y420736D01*
X438243Y421589D01*
X436722Y422694D01*
X435394Y424022D01*
X434289Y425543D01*
X434104Y425906D01*
X434064Y425961D01*
X434032Y426021D01*
X433992Y426059D01*
X433958Y426104D01*
X433903Y426144D01*
X433854Y426190D01*
X433803Y426214D01*
X433757Y426246D01*
X433692Y426265D01*
X433631Y426294D01*
X433575Y426300D01*
X433521Y426316D01*
X433453Y426313D01*
X433386Y426321D01*
X433331Y426309D01*
X433275Y426307D01*
X433212Y426283D01*
X433146Y426269D01*
X433098Y426240D01*
X433045Y426220D01*
X432993Y426177D01*
X432935Y426142D01*
X432898Y426100D01*
X432855Y426064D01*
X432819Y426007D01*
X432775Y425956D01*
X432754Y425904D01*
X432724Y425856D01*
X432708Y425790D01*
X432683Y425727D01*
X432674Y425649D01*
X432666Y425617D01*
X432668Y425596D01*
X432664Y425561D01*
X432664Y398096D01*
X432666Y398088D01*
X432664Y398080D01*
X432686Y397967D01*
X432704Y397854D01*
X432708Y397846D01*
X432709Y397839D01*
X432765Y397738D01*
X432819Y397636D01*
X432825Y397631D01*
X432829Y397624D01*
X432914Y397546D01*
X432998Y397467D01*
X433005Y397463D01*
X433011Y397458D01*
X433116Y397412D01*
X433221Y397363D01*
X433229Y397362D01*
X433236Y397359D01*
X433351Y397349D01*
X433465Y397336D01*
X433473Y397338D01*
X433481Y397337D01*
X433593Y397364D01*
X433705Y397388D01*
X433712Y397392D01*
X433720Y397394D01*
X433818Y397456D01*
X433917Y397515D01*
X433922Y397521D01*
X433929Y397525D01*
X434041Y397649D01*
X434682Y398531D01*
X436011Y399860D01*
X437532Y400965D01*
X439206Y401818D01*
X440993Y402398D01*
X442266Y402600D01*
X442266Y391516D01*
X442269Y391496D01*
X442267Y391476D01*
X442289Y391375D01*
X442305Y391273D01*
X442315Y391255D01*
X442319Y391236D01*
X442372Y391147D01*
X442420Y391056D01*
X442435Y391042D01*
X442445Y391025D01*
X442524Y390957D01*
X442599Y390886D01*
X442617Y390878D01*
X442632Y390865D01*
X442728Y390826D01*
X442822Y390783D01*
X442842Y390780D01*
X442860Y390773D01*
X443027Y390754D01*
X443790Y390754D01*
X443790Y390753D01*
X443027Y390753D01*
X443007Y390749D01*
X442987Y390752D01*
X442886Y390730D01*
X442784Y390713D01*
X442767Y390704D01*
X442747Y390699D01*
X442658Y390646D01*
X442567Y390598D01*
X442553Y390583D01*
X442536Y390573D01*
X442469Y390495D01*
X442397Y390420D01*
X442389Y390401D01*
X442376Y390386D01*
X442337Y390290D01*
X442294Y390196D01*
X442292Y390177D01*
X442284Y390158D01*
X442266Y389991D01*
X442266Y378907D01*
X440993Y379109D01*
X439206Y379690D01*
X437532Y380543D01*
X436011Y381647D01*
X434682Y382976D01*
X434041Y383858D01*
X434036Y383864D01*
X434032Y383871D01*
X433949Y383950D01*
X433867Y384031D01*
X433859Y384035D01*
X433854Y384040D01*
X433749Y384089D01*
X433646Y384140D01*
X433638Y384141D01*
X433631Y384144D01*
X433516Y384157D01*
X433402Y384172D01*
X433394Y384170D01*
X433386Y384171D01*
X433274Y384147D01*
X433161Y384125D01*
X433154Y384121D01*
X433146Y384119D01*
X433047Y384060D01*
X432947Y384003D01*
X432942Y383997D01*
X432935Y383993D01*
X432859Y383905D01*
X432783Y383819D01*
X432780Y383812D01*
X432775Y383806D01*
X432732Y383699D01*
X432686Y383593D01*
X432686Y383585D01*
X432683Y383578D01*
X432664Y383411D01*
X432664Y156413D01*
X432668Y156393D01*
X432665Y156374D01*
X432687Y156272D01*
X432704Y156170D01*
X432713Y156153D01*
X432718Y156133D01*
X432771Y156044D01*
X432819Y155953D01*
X432834Y155939D01*
X432844Y155922D01*
X432923Y155855D01*
X432998Y155784D01*
X433016Y155775D01*
X433031Y155762D01*
X433127Y155724D01*
X433221Y155680D01*
X433240Y155678D01*
X433259Y155670D01*
X433426Y155652D01*
X931164Y155652D01*
X931184Y155655D01*
G37*
%LPC*%
G36*
X640294Y384758D02*
X640294Y384758D01*
X636746Y386228D01*
X634030Y388943D01*
X632561Y392491D01*
X632561Y396331D01*
X634030Y399879D01*
X636746Y402594D01*
X638949Y403507D01*
X639048Y403568D01*
X639149Y403628D01*
X639153Y403633D01*
X639158Y403637D01*
X639232Y403726D01*
X639308Y403815D01*
X639311Y403821D01*
X639315Y403826D01*
X639356Y403934D01*
X639400Y404044D01*
X639401Y404051D01*
X639403Y404056D01*
X639404Y404074D01*
X639419Y404210D01*
X639419Y453692D01*
X639404Y453782D01*
X639397Y453873D01*
X639384Y453903D01*
X639379Y453935D01*
X639336Y454016D01*
X639301Y454099D01*
X639275Y454132D01*
X639264Y454152D01*
X639241Y454174D01*
X639196Y454230D01*
X628497Y464930D01*
X628497Y517874D01*
X628485Y517944D01*
X628483Y518016D01*
X628465Y518065D01*
X628457Y518117D01*
X628424Y518180D01*
X628399Y518247D01*
X628366Y518288D01*
X628342Y518334D01*
X628290Y518383D01*
X628245Y518439D01*
X628201Y518467D01*
X628164Y518503D01*
X628099Y518533D01*
X628038Y518572D01*
X627988Y518585D01*
X627941Y518607D01*
X627869Y518615D01*
X627800Y518632D01*
X627748Y518628D01*
X627696Y518634D01*
X627626Y518619D01*
X627555Y518613D01*
X627507Y518593D01*
X627456Y518582D01*
X627394Y518545D01*
X627328Y518517D01*
X627272Y518472D01*
X627245Y518456D01*
X627229Y518438D01*
X627197Y518412D01*
X624405Y515619D01*
X620195Y515619D01*
X617219Y518595D01*
X617219Y522805D01*
X619282Y524868D01*
X619335Y524941D01*
X619395Y525011D01*
X619407Y525041D01*
X619426Y525067D01*
X619453Y525154D01*
X619487Y525239D01*
X619491Y525280D01*
X619498Y525302D01*
X619497Y525335D01*
X619505Y525406D01*
X619505Y554094D01*
X619491Y554184D01*
X619483Y554275D01*
X619471Y554305D01*
X619466Y554337D01*
X619423Y554418D01*
X619387Y554501D01*
X619361Y554534D01*
X619350Y554554D01*
X619327Y554576D01*
X619282Y554632D01*
X617219Y556695D01*
X617219Y560905D01*
X620195Y563881D01*
X624405Y563881D01*
X627381Y560905D01*
X627381Y559516D01*
X627392Y559447D01*
X627394Y559377D01*
X627412Y559326D01*
X627420Y559273D01*
X627453Y559211D01*
X627477Y559145D01*
X627511Y559103D01*
X627536Y559056D01*
X627586Y559008D01*
X627630Y558953D01*
X627675Y558923D01*
X627714Y558886D01*
X627778Y558857D01*
X627836Y558819D01*
X627888Y558805D01*
X627937Y558783D01*
X628007Y558775D01*
X628075Y558758D01*
X628128Y558762D01*
X628181Y558756D01*
X628250Y558771D01*
X628320Y558776D01*
X628369Y558797D01*
X628422Y558808D01*
X628482Y558844D01*
X628547Y558871D01*
X628605Y558918D01*
X628633Y558934D01*
X628648Y558951D01*
X628678Y558976D01*
X629318Y559610D01*
X629318Y559611D01*
X629320Y559612D01*
X630139Y560431D01*
X631294Y560426D01*
X631295Y560426D01*
X631297Y560426D01*
X632716Y560426D01*
X632767Y560420D01*
X648459Y560357D01*
X648460Y560357D01*
X648578Y560376D01*
X648702Y560396D01*
X648703Y560396D01*
X648704Y560397D01*
X648854Y560466D01*
X651065Y561792D01*
X652728Y561376D01*
X652789Y561371D01*
X652849Y561356D01*
X652911Y561361D01*
X652973Y561356D01*
X653033Y561371D01*
X653094Y561375D01*
X653151Y561400D01*
X653212Y561415D01*
X653264Y561448D01*
X653320Y561472D01*
X653392Y561529D01*
X653420Y561547D01*
X653430Y561560D01*
X653451Y561576D01*
X654485Y562611D01*
X656844Y562611D01*
X656864Y562614D01*
X656883Y562612D01*
X656985Y562634D01*
X657087Y562650D01*
X657104Y562660D01*
X657124Y562664D01*
X657213Y562717D01*
X657304Y562766D01*
X657318Y562780D01*
X657335Y562790D01*
X657402Y562869D01*
X657474Y562944D01*
X657482Y562962D01*
X657495Y562977D01*
X657534Y563073D01*
X657577Y563167D01*
X657579Y563187D01*
X657587Y563205D01*
X657605Y563372D01*
X657605Y566794D01*
X657591Y566884D01*
X657583Y566975D01*
X657571Y567005D01*
X657566Y567037D01*
X657523Y567118D01*
X657487Y567201D01*
X657461Y567234D01*
X657450Y567254D01*
X657427Y567276D01*
X657382Y567332D01*
X655319Y569395D01*
X655319Y573605D01*
X658295Y576581D01*
X662505Y576581D01*
X665481Y573605D01*
X665481Y569395D01*
X663418Y567332D01*
X663365Y567259D01*
X663305Y567189D01*
X663293Y567159D01*
X663274Y567133D01*
X663247Y567046D01*
X663213Y566961D01*
X663209Y566920D01*
X663202Y566898D01*
X663203Y566865D01*
X663195Y566794D01*
X663195Y564532D01*
X663209Y564442D01*
X663217Y564351D01*
X663229Y564322D01*
X663234Y564290D01*
X663277Y564209D01*
X663313Y564125D01*
X663339Y564093D01*
X663350Y564072D01*
X663373Y564050D01*
X663418Y563994D01*
X665989Y561423D01*
X665989Y506647D01*
X645231Y485889D01*
X645178Y485815D01*
X645119Y485746D01*
X645107Y485716D01*
X645088Y485690D01*
X645061Y485603D01*
X645027Y485518D01*
X645022Y485477D01*
X645015Y485455D01*
X645016Y485422D01*
X645008Y485351D01*
X645008Y480410D01*
X645027Y480295D01*
X645044Y480179D01*
X645047Y480174D01*
X645048Y480168D01*
X645103Y480065D01*
X645156Y479960D01*
X645160Y479956D01*
X645163Y479950D01*
X645248Y479870D01*
X645331Y479788D01*
X645338Y479784D01*
X645342Y479781D01*
X645358Y479773D01*
X645478Y479707D01*
X647681Y478794D01*
X650397Y476079D01*
X651866Y472531D01*
X651866Y468691D01*
X650954Y466488D01*
X650946Y466453D01*
X650943Y466447D01*
X650941Y466435D01*
X650927Y466374D01*
X650899Y466261D01*
X650899Y466255D01*
X650898Y466248D01*
X650909Y466132D01*
X650918Y466016D01*
X650920Y466010D01*
X650921Y466004D01*
X650968Y465896D01*
X651014Y465789D01*
X651019Y465783D01*
X651021Y465779D01*
X651033Y465765D01*
X651119Y465658D01*
X654985Y461792D01*
X656845Y459932D01*
X656845Y427616D01*
X656859Y427526D01*
X656867Y427435D01*
X656879Y427405D01*
X656884Y427373D01*
X656927Y427292D01*
X656963Y427209D01*
X656989Y427176D01*
X657000Y427156D01*
X657023Y427134D01*
X657068Y427078D01*
X659131Y425015D01*
X659131Y420805D01*
X656155Y417829D01*
X651945Y417829D01*
X648969Y420805D01*
X648969Y425015D01*
X651032Y427078D01*
X651085Y427151D01*
X651145Y427221D01*
X651157Y427251D01*
X651176Y427277D01*
X651203Y427364D01*
X651237Y427449D01*
X651241Y427490D01*
X651248Y427512D01*
X651247Y427545D01*
X651255Y427616D01*
X651255Y457302D01*
X651241Y457392D01*
X651233Y457483D01*
X651221Y457513D01*
X651216Y457545D01*
X651173Y457625D01*
X651137Y457709D01*
X651111Y457741D01*
X651100Y457762D01*
X651077Y457784D01*
X651032Y457840D01*
X647166Y461706D01*
X647072Y461774D01*
X646978Y461844D01*
X646972Y461846D01*
X646967Y461850D01*
X646856Y461884D01*
X646744Y461920D01*
X646738Y461920D01*
X646732Y461922D01*
X646615Y461919D01*
X646498Y461918D01*
X646491Y461916D01*
X646486Y461916D01*
X646468Y461909D01*
X646337Y461871D01*
X644134Y460958D01*
X642210Y460958D01*
X642140Y460947D01*
X642068Y460945D01*
X642019Y460927D01*
X641968Y460919D01*
X641904Y460885D01*
X641837Y460861D01*
X641796Y460828D01*
X641750Y460804D01*
X641701Y460752D01*
X641645Y460707D01*
X641617Y460663D01*
X641581Y460625D01*
X641551Y460560D01*
X641512Y460500D01*
X641499Y460449D01*
X641477Y460402D01*
X641469Y460331D01*
X641452Y460261D01*
X641456Y460209D01*
X641450Y460158D01*
X641465Y460088D01*
X641471Y460016D01*
X641491Y459968D01*
X641502Y459917D01*
X641539Y459856D01*
X641567Y459790D01*
X641612Y459734D01*
X641629Y459706D01*
X641646Y459691D01*
X641672Y459659D01*
X645008Y456323D01*
X645008Y404210D01*
X645027Y404095D01*
X645044Y403979D01*
X645047Y403974D01*
X645048Y403968D01*
X645102Y403865D01*
X645156Y403760D01*
X645160Y403756D01*
X645163Y403750D01*
X645247Y403670D01*
X645331Y403588D01*
X645338Y403584D01*
X645342Y403581D01*
X645358Y403573D01*
X645478Y403507D01*
X647681Y402594D01*
X650397Y399879D01*
X651866Y396331D01*
X651866Y392491D01*
X650397Y388943D01*
X647681Y386228D01*
X644134Y384758D01*
X640294Y384758D01*
G37*
%LPD*%
%LPC*%
G36*
X767294Y384758D02*
X767294Y384758D01*
X763746Y386228D01*
X761030Y388943D01*
X759561Y392491D01*
X759561Y396331D01*
X761030Y399879D01*
X763746Y402594D01*
X765949Y403507D01*
X766048Y403568D01*
X766149Y403628D01*
X766153Y403633D01*
X766158Y403637D01*
X766232Y403726D01*
X766308Y403815D01*
X766311Y403821D01*
X766315Y403826D01*
X766356Y403934D01*
X766400Y404044D01*
X766401Y404051D01*
X766403Y404056D01*
X766404Y404074D01*
X766419Y404210D01*
X766419Y453692D01*
X766404Y453782D01*
X766397Y453873D01*
X766384Y453903D01*
X766379Y453935D01*
X766336Y454016D01*
X766301Y454099D01*
X766275Y454132D01*
X766264Y454152D01*
X766241Y454174D01*
X766196Y454230D01*
X755497Y464930D01*
X755497Y467237D01*
X755496Y467241D01*
X755497Y467245D01*
X755476Y467364D01*
X755457Y467480D01*
X755455Y467484D01*
X755455Y467488D01*
X755397Y467593D01*
X755342Y467697D01*
X755339Y467700D01*
X755337Y467704D01*
X755250Y467785D01*
X755164Y467867D01*
X755160Y467869D01*
X755157Y467871D01*
X755049Y467920D01*
X754941Y467970D01*
X754937Y467971D01*
X754933Y467973D01*
X754814Y467985D01*
X754696Y467998D01*
X754692Y467997D01*
X754688Y467997D01*
X754573Y467971D01*
X754456Y467945D01*
X754452Y467943D01*
X754448Y467942D01*
X754347Y467880D01*
X754245Y467819D01*
X754242Y467816D01*
X754239Y467814D01*
X754162Y467722D01*
X754085Y467632D01*
X754083Y467628D01*
X754081Y467625D01*
X754012Y467473D01*
X753701Y466516D01*
X752938Y465020D01*
X751951Y463661D01*
X750764Y462474D01*
X749405Y461486D01*
X747909Y460724D01*
X746312Y460205D01*
X745337Y460051D01*
X745337Y469849D01*
X745334Y469869D01*
X745336Y469889D01*
X745314Y469990D01*
X745297Y470092D01*
X745288Y470109D01*
X745284Y470129D01*
X745230Y470218D01*
X745182Y470309D01*
X745168Y470323D01*
X745157Y470340D01*
X745079Y470407D01*
X745004Y470479D01*
X744986Y470487D01*
X744970Y470500D01*
X744874Y470539D01*
X744781Y470582D01*
X744761Y470584D01*
X744742Y470592D01*
X744576Y470610D01*
X743813Y470610D01*
X743813Y470612D01*
X744576Y470612D01*
X744595Y470615D01*
X744615Y470613D01*
X744716Y470635D01*
X744818Y470652D01*
X744836Y470661D01*
X744855Y470665D01*
X744944Y470719D01*
X745036Y470767D01*
X745049Y470781D01*
X745066Y470792D01*
X745134Y470870D01*
X745205Y470945D01*
X745213Y470963D01*
X745226Y470978D01*
X745265Y471075D01*
X745309Y471168D01*
X745311Y471188D01*
X745318Y471207D01*
X745337Y471373D01*
X745337Y481172D01*
X746312Y481017D01*
X747909Y480498D01*
X749405Y479736D01*
X750764Y478749D01*
X751951Y477561D01*
X752938Y476203D01*
X753701Y474707D01*
X754012Y473750D01*
X754013Y473746D01*
X754014Y473742D01*
X754069Y473638D01*
X754124Y473531D01*
X754127Y473528D01*
X754129Y473525D01*
X754215Y473443D01*
X754301Y473360D01*
X754305Y473358D01*
X754307Y473356D01*
X754416Y473305D01*
X754523Y473254D01*
X754527Y473254D01*
X754531Y473252D01*
X754648Y473239D01*
X754767Y473224D01*
X754771Y473225D01*
X754775Y473225D01*
X754892Y473250D01*
X755008Y473274D01*
X755011Y473276D01*
X755015Y473277D01*
X755119Y473339D01*
X755220Y473398D01*
X755223Y473401D01*
X755226Y473403D01*
X755305Y473495D01*
X755382Y473583D01*
X755384Y473587D01*
X755386Y473590D01*
X755431Y473702D01*
X755477Y473811D01*
X755477Y473815D01*
X755478Y473818D01*
X755497Y473985D01*
X755497Y484836D01*
X755482Y484926D01*
X755475Y485017D01*
X755462Y485046D01*
X755457Y485078D01*
X755414Y485159D01*
X755379Y485243D01*
X755353Y485275D01*
X755342Y485296D01*
X755319Y485318D01*
X755274Y485374D01*
X753191Y487456D01*
X753117Y487509D01*
X753048Y487569D01*
X753018Y487581D01*
X752992Y487600D01*
X752905Y487627D01*
X752820Y487661D01*
X752779Y487665D01*
X752757Y487672D01*
X752724Y487671D01*
X752653Y487679D01*
X749735Y487679D01*
X746790Y490625D01*
X746767Y490641D01*
X746748Y490663D01*
X746667Y490713D01*
X746590Y490768D01*
X746563Y490777D01*
X746538Y490792D01*
X746377Y490837D01*
X736431Y492495D01*
X736398Y492495D01*
X736306Y492505D01*
X735442Y492505D01*
X735430Y492518D01*
X735406Y492535D01*
X735388Y492557D01*
X735307Y492606D01*
X735230Y492662D01*
X735202Y492670D01*
X735178Y492685D01*
X735016Y492731D01*
X734999Y492734D01*
X734497Y493436D01*
X734474Y493459D01*
X734416Y493532D01*
X733805Y494142D01*
X733805Y494160D01*
X733801Y494189D01*
X733803Y494217D01*
X733781Y494310D01*
X733766Y494403D01*
X733752Y494429D01*
X733745Y494457D01*
X733663Y494603D01*
X733653Y494618D01*
X733795Y495469D01*
X733795Y495502D01*
X733805Y495594D01*
X733805Y566794D01*
X733791Y566884D01*
X733783Y566975D01*
X733771Y567005D01*
X733766Y567037D01*
X733723Y567118D01*
X733687Y567201D01*
X733661Y567234D01*
X733650Y567254D01*
X733627Y567276D01*
X733582Y567332D01*
X731519Y569395D01*
X731519Y573605D01*
X734495Y576581D01*
X738705Y576581D01*
X741681Y573605D01*
X741681Y569395D01*
X739618Y567332D01*
X739565Y567259D01*
X739505Y567189D01*
X739493Y567159D01*
X739474Y567133D01*
X739447Y567046D01*
X739413Y566961D01*
X739409Y566920D01*
X739402Y566898D01*
X739403Y566865D01*
X739395Y566794D01*
X739395Y498312D01*
X739408Y498233D01*
X739412Y498153D01*
X739427Y498112D01*
X739434Y498070D01*
X739472Y497999D01*
X739501Y497924D01*
X739529Y497891D01*
X739550Y497852D01*
X739608Y497797D01*
X739659Y497735D01*
X739697Y497713D01*
X739728Y497683D01*
X739801Y497649D01*
X739869Y497607D01*
X739925Y497592D01*
X739951Y497579D01*
X739979Y497576D01*
X740031Y497561D01*
X747723Y496279D01*
X747754Y496279D01*
X747784Y496272D01*
X747877Y496279D01*
X747969Y496279D01*
X747999Y496288D01*
X748029Y496291D01*
X748115Y496327D01*
X748203Y496356D01*
X748227Y496375D01*
X748256Y496387D01*
X748387Y496492D01*
X749735Y497841D01*
X753945Y497841D01*
X756921Y494865D01*
X756921Y491947D01*
X756935Y491857D01*
X756943Y491766D01*
X756955Y491736D01*
X756960Y491704D01*
X757003Y491624D01*
X757039Y491540D01*
X757065Y491507D01*
X757076Y491487D01*
X757099Y491465D01*
X757144Y491409D01*
X759226Y489326D01*
X761086Y487466D01*
X761086Y477973D01*
X761098Y477902D01*
X761100Y477830D01*
X761118Y477781D01*
X761126Y477730D01*
X761160Y477667D01*
X761184Y477599D01*
X761217Y477559D01*
X761241Y477513D01*
X761293Y477463D01*
X761338Y477407D01*
X761382Y477379D01*
X761419Y477343D01*
X761484Y477313D01*
X761545Y477274D01*
X761595Y477261D01*
X761643Y477240D01*
X761714Y477232D01*
X761783Y477214D01*
X761835Y477218D01*
X761887Y477212D01*
X761957Y477228D01*
X762029Y477233D01*
X762076Y477254D01*
X762127Y477265D01*
X762189Y477302D01*
X762255Y477330D01*
X762311Y477374D01*
X762338Y477391D01*
X762354Y477409D01*
X762386Y477434D01*
X763746Y478794D01*
X765949Y479707D01*
X766048Y479768D01*
X766149Y479828D01*
X766153Y479833D01*
X766158Y479837D01*
X766232Y479926D01*
X766308Y480015D01*
X766311Y480021D01*
X766315Y480026D01*
X766356Y480134D01*
X766400Y480244D01*
X766401Y480251D01*
X766403Y480256D01*
X766404Y480274D01*
X766419Y480410D01*
X766419Y488791D01*
X766404Y488881D01*
X766397Y488972D01*
X766384Y489002D01*
X766379Y489034D01*
X766336Y489114D01*
X766301Y489198D01*
X766275Y489230D01*
X766264Y489251D01*
X766241Y489273D01*
X766196Y489329D01*
X763351Y492174D01*
X761491Y494034D01*
X761491Y520751D01*
X761477Y520841D01*
X761469Y520932D01*
X761457Y520962D01*
X761452Y520994D01*
X761409Y521074D01*
X761373Y521158D01*
X761347Y521190D01*
X761336Y521211D01*
X761313Y521233D01*
X761268Y521289D01*
X759541Y523016D01*
X759467Y523069D01*
X759398Y523129D01*
X759368Y523141D01*
X759342Y523160D01*
X759255Y523187D01*
X759170Y523221D01*
X759129Y523225D01*
X759107Y523232D01*
X759074Y523231D01*
X759003Y523239D01*
X756085Y523239D01*
X753109Y526215D01*
X753109Y530425D01*
X756085Y533401D01*
X760295Y533401D01*
X763271Y530425D01*
X763271Y527507D01*
X763285Y527417D01*
X763293Y527326D01*
X763305Y527296D01*
X763310Y527264D01*
X763353Y527184D01*
X763389Y527100D01*
X763415Y527068D01*
X763426Y527047D01*
X763449Y527025D01*
X763494Y526969D01*
X767081Y523382D01*
X767081Y522104D01*
X767092Y522033D01*
X767094Y521961D01*
X767112Y521912D01*
X767120Y521861D01*
X767154Y521798D01*
X767179Y521730D01*
X767211Y521690D01*
X767236Y521644D01*
X767287Y521594D01*
X767332Y521538D01*
X767376Y521510D01*
X767414Y521474D01*
X767479Y521444D01*
X767539Y521405D01*
X767590Y521393D01*
X767637Y521371D01*
X767708Y521363D01*
X767778Y521345D01*
X767830Y521349D01*
X767881Y521344D01*
X767952Y521359D01*
X768023Y521364D01*
X768071Y521385D01*
X768122Y521396D01*
X768183Y521433D01*
X768249Y521461D01*
X768305Y521506D01*
X768333Y521522D01*
X768348Y521540D01*
X768380Y521565D01*
X768786Y521971D01*
X772995Y521971D01*
X775971Y518995D01*
X775971Y514785D01*
X773908Y512722D01*
X773855Y512648D01*
X773795Y512579D01*
X773783Y512549D01*
X773764Y512523D01*
X773737Y512436D01*
X773703Y512351D01*
X773699Y512310D01*
X773692Y512288D01*
X773693Y512255D01*
X773685Y512184D01*
X773685Y495808D01*
X773699Y495718D01*
X773707Y495627D01*
X773719Y495597D01*
X773724Y495565D01*
X773767Y495484D01*
X773803Y495400D01*
X773829Y495368D01*
X773840Y495348D01*
X773863Y495325D01*
X773908Y495269D01*
X789661Y479516D01*
X789755Y479449D01*
X789849Y479378D01*
X789855Y479376D01*
X789861Y479373D01*
X789971Y479339D01*
X790083Y479302D01*
X790090Y479302D01*
X790096Y479300D01*
X790212Y479303D01*
X790329Y479305D01*
X790336Y479307D01*
X790341Y479307D01*
X790359Y479313D01*
X790490Y479351D01*
X792694Y480264D01*
X796534Y480264D01*
X800081Y478794D01*
X801441Y477434D01*
X801500Y477393D01*
X801552Y477343D01*
X801599Y477321D01*
X801641Y477291D01*
X801710Y477270D01*
X801775Y477240D01*
X801826Y477234D01*
X801876Y477218D01*
X801948Y477220D01*
X802019Y477212D01*
X802070Y477224D01*
X802122Y477225D01*
X802189Y477249D01*
X802259Y477265D01*
X802304Y477291D01*
X802353Y477309D01*
X802409Y477354D01*
X802471Y477391D01*
X802504Y477430D01*
X802545Y477463D01*
X802584Y477523D01*
X802631Y477578D01*
X802650Y477626D01*
X802678Y477670D01*
X802696Y477739D01*
X802722Y477806D01*
X802730Y477877D01*
X802738Y477908D01*
X802736Y477932D01*
X802741Y477973D01*
X802741Y483889D01*
X802726Y483979D01*
X802719Y484070D01*
X802706Y484099D01*
X802701Y484131D01*
X802658Y484212D01*
X802623Y484296D01*
X802597Y484328D01*
X802586Y484349D01*
X802563Y484371D01*
X802518Y484427D01*
X801369Y485575D01*
X801369Y489785D01*
X804345Y492761D01*
X808555Y492761D01*
X811531Y489785D01*
X811531Y485575D01*
X808553Y482598D01*
X808500Y482524D01*
X808441Y482455D01*
X808429Y482425D01*
X808410Y482398D01*
X808383Y482311D01*
X808349Y482227D01*
X808344Y482186D01*
X808337Y482163D01*
X808338Y482131D01*
X808330Y482060D01*
X808330Y464930D01*
X797631Y454230D01*
X797578Y454156D01*
X797519Y454087D01*
X797507Y454057D01*
X797488Y454031D01*
X797461Y453944D01*
X797427Y453859D01*
X797422Y453818D01*
X797415Y453796D01*
X797416Y453763D01*
X797408Y453692D01*
X797408Y404210D01*
X797427Y404095D01*
X797444Y403979D01*
X797447Y403974D01*
X797448Y403968D01*
X797502Y403865D01*
X797556Y403760D01*
X797560Y403756D01*
X797563Y403750D01*
X797647Y403670D01*
X797731Y403588D01*
X797738Y403584D01*
X797742Y403581D01*
X797758Y403573D01*
X797878Y403507D01*
X800081Y402594D01*
X802797Y399879D01*
X804266Y396331D01*
X804266Y392491D01*
X802797Y388943D01*
X800081Y386228D01*
X796534Y384758D01*
X792694Y384758D01*
X789146Y386228D01*
X786430Y388943D01*
X784961Y392491D01*
X784961Y396331D01*
X786430Y399879D01*
X789146Y402594D01*
X791349Y403507D01*
X791448Y403568D01*
X791549Y403628D01*
X791553Y403633D01*
X791558Y403637D01*
X791632Y403726D01*
X791708Y403815D01*
X791711Y403821D01*
X791715Y403826D01*
X791756Y403934D01*
X791800Y404044D01*
X791801Y404051D01*
X791803Y404056D01*
X791804Y404074D01*
X791819Y404210D01*
X791819Y456323D01*
X795155Y459659D01*
X795197Y459717D01*
X795246Y459769D01*
X795268Y459816D01*
X795299Y459859D01*
X795320Y459927D01*
X795350Y459992D01*
X795356Y460044D01*
X795371Y460094D01*
X795369Y460165D01*
X795377Y460237D01*
X795366Y460288D01*
X795365Y460340D01*
X795340Y460407D01*
X795325Y460477D01*
X795298Y460522D01*
X795280Y460571D01*
X795235Y460627D01*
X795199Y460688D01*
X795159Y460722D01*
X795126Y460763D01*
X795066Y460801D01*
X795012Y460848D01*
X794963Y460868D01*
X794920Y460896D01*
X794850Y460913D01*
X794784Y460940D01*
X794712Y460948D01*
X794681Y460956D01*
X794658Y460954D01*
X794617Y460958D01*
X792694Y460958D01*
X789146Y462428D01*
X786430Y465143D01*
X784961Y468691D01*
X784961Y472531D01*
X785873Y474734D01*
X785900Y474848D01*
X785929Y474962D01*
X785928Y474968D01*
X785930Y474974D01*
X785919Y475090D01*
X785910Y475207D01*
X785907Y475212D01*
X785907Y475219D01*
X785859Y475326D01*
X785813Y475433D01*
X785809Y475439D01*
X785807Y475443D01*
X785794Y475457D01*
X785708Y475564D01*
X773308Y487965D01*
X773250Y488006D01*
X773198Y488056D01*
X773150Y488078D01*
X773108Y488108D01*
X773040Y488129D01*
X772975Y488159D01*
X772923Y488165D01*
X772873Y488180D01*
X772801Y488179D01*
X772730Y488187D01*
X772679Y488175D01*
X772627Y488174D01*
X772560Y488149D01*
X772490Y488134D01*
X772445Y488108D01*
X772396Y488090D01*
X772340Y488045D01*
X772279Y488008D01*
X772245Y487969D01*
X772204Y487936D01*
X772165Y487876D01*
X772119Y487821D01*
X772099Y487773D01*
X772071Y487729D01*
X772054Y487660D01*
X772027Y487593D01*
X772019Y487522D01*
X772011Y487491D01*
X772013Y487467D01*
X772008Y487426D01*
X772008Y480410D01*
X772027Y480295D01*
X772044Y480179D01*
X772047Y480174D01*
X772048Y480168D01*
X772103Y480065D01*
X772156Y479960D01*
X772160Y479956D01*
X772163Y479950D01*
X772248Y479870D01*
X772331Y479788D01*
X772338Y479784D01*
X772342Y479781D01*
X772358Y479773D01*
X772478Y479707D01*
X774681Y478794D01*
X777397Y476079D01*
X778866Y472531D01*
X778866Y468691D01*
X777397Y465143D01*
X774681Y462428D01*
X771134Y460958D01*
X769210Y460958D01*
X769140Y460947D01*
X769068Y460945D01*
X769019Y460927D01*
X768968Y460919D01*
X768904Y460885D01*
X768837Y460861D01*
X768796Y460828D01*
X768750Y460804D01*
X768701Y460752D01*
X768645Y460707D01*
X768617Y460663D01*
X768581Y460625D01*
X768551Y460560D01*
X768512Y460500D01*
X768499Y460449D01*
X768477Y460402D01*
X768469Y460331D01*
X768452Y460261D01*
X768456Y460209D01*
X768450Y460158D01*
X768465Y460088D01*
X768471Y460016D01*
X768491Y459968D01*
X768502Y459917D01*
X768539Y459856D01*
X768567Y459790D01*
X768612Y459734D01*
X768629Y459706D01*
X768646Y459691D01*
X768672Y459659D01*
X772008Y456323D01*
X772008Y404210D01*
X772027Y404095D01*
X772044Y403979D01*
X772047Y403974D01*
X772048Y403968D01*
X772102Y403865D01*
X772156Y403760D01*
X772160Y403756D01*
X772163Y403750D01*
X772247Y403670D01*
X772331Y403588D01*
X772338Y403584D01*
X772342Y403581D01*
X772358Y403573D01*
X772478Y403507D01*
X774681Y402594D01*
X777397Y399879D01*
X778866Y396331D01*
X778866Y392491D01*
X777397Y388943D01*
X774681Y386228D01*
X771134Y384758D01*
X767294Y384758D01*
G37*
%LPD*%
%LPC*%
G36*
X589309Y196290D02*
X589309Y196290D01*
X586333Y199267D01*
X586333Y203476D01*
X588396Y205539D01*
X588449Y205613D01*
X588508Y205682D01*
X588521Y205712D01*
X588539Y205738D01*
X588566Y205825D01*
X588600Y205910D01*
X588605Y205951D01*
X588612Y205974D01*
X588611Y206006D01*
X588619Y206077D01*
X588619Y384612D01*
X588600Y384727D01*
X588583Y384843D01*
X588580Y384849D01*
X588579Y384855D01*
X588525Y384957D01*
X588471Y385062D01*
X588467Y385067D01*
X588464Y385072D01*
X588380Y385152D01*
X588296Y385235D01*
X588289Y385238D01*
X588286Y385242D01*
X588269Y385249D01*
X588149Y385315D01*
X585946Y386228D01*
X584484Y387690D01*
X584426Y387731D01*
X584374Y387781D01*
X584327Y387803D01*
X584285Y387833D01*
X584216Y387854D01*
X584151Y387884D01*
X584099Y387890D01*
X584049Y387905D01*
X583978Y387904D01*
X583907Y387911D01*
X583856Y387900D01*
X583804Y387899D01*
X583736Y387874D01*
X583666Y387859D01*
X583621Y387832D01*
X583573Y387815D01*
X583517Y387770D01*
X583455Y387733D01*
X583421Y387693D01*
X583381Y387661D01*
X583342Y387601D01*
X583295Y387546D01*
X583276Y387498D01*
X583248Y387454D01*
X583230Y387385D01*
X583203Y387318D01*
X583195Y387247D01*
X583187Y387215D01*
X583189Y387192D01*
X583185Y387151D01*
X583185Y356840D01*
X583199Y356750D01*
X583207Y356659D01*
X583219Y356629D01*
X583224Y356597D01*
X583267Y356517D01*
X583303Y356433D01*
X583329Y356401D01*
X583340Y356380D01*
X583363Y356358D01*
X583408Y356302D01*
X586080Y353629D01*
X586080Y260818D01*
X581417Y256155D01*
X581405Y256139D01*
X581390Y256126D01*
X581334Y256039D01*
X581274Y255955D01*
X581268Y255936D01*
X581257Y255919D01*
X581232Y255819D01*
X581201Y255720D01*
X581202Y255700D01*
X581197Y255681D01*
X581205Y255578D01*
X581208Y255474D01*
X581214Y255455D01*
X581216Y255435D01*
X581256Y255341D01*
X581292Y255243D01*
X581305Y255227D01*
X581312Y255209D01*
X581417Y255078D01*
X581661Y254835D01*
X581661Y250625D01*
X578685Y247649D01*
X574475Y247649D01*
X571499Y250625D01*
X571499Y254835D01*
X574475Y257811D01*
X574853Y257811D01*
X574943Y257825D01*
X575034Y257833D01*
X575064Y257845D01*
X575096Y257850D01*
X575176Y257893D01*
X575260Y257929D01*
X575292Y257955D01*
X575313Y257966D01*
X575335Y257989D01*
X575391Y258034D01*
X575645Y258288D01*
X578054Y260696D01*
X578111Y260776D01*
X578173Y260851D01*
X578182Y260875D01*
X578198Y260896D01*
X578226Y260989D01*
X578261Y261080D01*
X578262Y261106D01*
X578270Y261131D01*
X578267Y261229D01*
X578272Y261326D01*
X578264Y261351D01*
X578264Y261377D01*
X578230Y261469D01*
X578203Y261562D01*
X578188Y261584D01*
X578179Y261608D01*
X578118Y261684D01*
X578063Y261764D01*
X578042Y261780D01*
X578025Y261800D01*
X577944Y261853D01*
X577865Y261911D01*
X577841Y261919D01*
X577819Y261933D01*
X577724Y261957D01*
X577632Y261987D01*
X577605Y261987D01*
X577580Y261993D01*
X577483Y261986D01*
X577386Y261985D01*
X577354Y261976D01*
X577335Y261974D01*
X577305Y261961D01*
X577224Y261938D01*
X573266Y260298D01*
X568921Y260298D01*
X564906Y261961D01*
X561834Y265034D01*
X560171Y269049D01*
X560171Y273394D01*
X561834Y277408D01*
X564906Y280481D01*
X568921Y282144D01*
X573266Y282144D01*
X577281Y280481D01*
X579191Y278570D01*
X579250Y278529D01*
X579302Y278479D01*
X579349Y278457D01*
X579391Y278427D01*
X579460Y278406D01*
X579525Y278376D01*
X579576Y278370D01*
X579626Y278355D01*
X579698Y278356D01*
X579769Y278349D01*
X579820Y278360D01*
X579872Y278361D01*
X579939Y278386D01*
X580009Y278401D01*
X580054Y278427D01*
X580103Y278445D01*
X580159Y278490D01*
X580221Y278527D01*
X580254Y278567D01*
X580295Y278599D01*
X580334Y278659D01*
X580381Y278714D01*
X580400Y278762D01*
X580428Y278806D01*
X580446Y278875D01*
X580472Y278942D01*
X580480Y279013D01*
X580488Y279045D01*
X580486Y279068D01*
X580491Y279109D01*
X580491Y339534D01*
X580479Y339604D01*
X580477Y339676D01*
X580460Y339725D01*
X580451Y339776D01*
X580418Y339840D01*
X580393Y339907D01*
X580360Y339948D01*
X580336Y339994D01*
X580284Y340043D01*
X580239Y340099D01*
X580195Y340127D01*
X580158Y340163D01*
X580093Y340193D01*
X580032Y340232D01*
X579982Y340245D01*
X579935Y340267D01*
X579863Y340275D01*
X579794Y340292D01*
X579742Y340288D01*
X579690Y340294D01*
X579620Y340279D01*
X579549Y340273D01*
X579501Y340253D01*
X579450Y340242D01*
X579388Y340205D01*
X579322Y340177D01*
X579266Y340132D01*
X579239Y340115D01*
X579224Y340098D01*
X579191Y340072D01*
X577281Y338161D01*
X573266Y336498D01*
X568921Y336498D01*
X564906Y338161D01*
X561834Y341234D01*
X560171Y345249D01*
X560171Y349594D01*
X561834Y353608D01*
X564156Y355931D01*
X564196Y355986D01*
X564243Y356035D01*
X564267Y356085D01*
X564300Y356131D01*
X564320Y356195D01*
X564349Y356257D01*
X564356Y356312D01*
X564372Y356366D01*
X564370Y356434D01*
X564379Y356501D01*
X564367Y356556D01*
X564366Y356612D01*
X564343Y356675D01*
X564329Y356742D01*
X564301Y356790D01*
X564281Y356843D01*
X564239Y356896D01*
X564205Y356954D01*
X564163Y356991D01*
X564128Y357035D01*
X564071Y357071D01*
X564020Y357116D01*
X563968Y357137D01*
X563921Y357168D01*
X563855Y357184D01*
X563792Y357210D01*
X563737Y357214D01*
X563682Y357228D01*
X563615Y357222D01*
X563547Y357227D01*
X563470Y357211D01*
X563437Y357209D01*
X563418Y357200D01*
X563383Y357193D01*
X563177Y357126D01*
X562457Y357012D01*
X562457Y364948D01*
X570392Y364948D01*
X570278Y364228D01*
X569812Y362793D01*
X569128Y361450D01*
X568241Y360230D01*
X567248Y359236D01*
X567191Y359157D01*
X567129Y359082D01*
X567119Y359058D01*
X567104Y359036D01*
X567075Y358943D01*
X567041Y358852D01*
X567039Y358826D01*
X567032Y358801D01*
X567034Y358704D01*
X567030Y358607D01*
X567037Y358581D01*
X567038Y358555D01*
X567072Y358464D01*
X567099Y358370D01*
X567114Y358349D01*
X567123Y358324D01*
X567184Y358248D01*
X567239Y358168D01*
X567260Y358153D01*
X567276Y358132D01*
X567358Y358079D01*
X567436Y358022D01*
X567461Y358013D01*
X567483Y357999D01*
X567578Y357975D01*
X567670Y357945D01*
X567696Y357946D01*
X567722Y357939D01*
X567819Y357947D01*
X567916Y357948D01*
X567947Y357957D01*
X567967Y357958D01*
X567997Y357971D01*
X568077Y357994D01*
X568921Y358344D01*
X573266Y358344D01*
X576543Y356987D01*
X576587Y356976D01*
X576629Y356957D01*
X576706Y356948D01*
X576782Y356931D01*
X576828Y356935D01*
X576873Y356930D01*
X576950Y356946D01*
X577027Y356954D01*
X577069Y356972D01*
X577114Y356982D01*
X577181Y357022D01*
X577252Y357054D01*
X577286Y357085D01*
X577325Y357108D01*
X577376Y357167D01*
X577433Y357220D01*
X577455Y357260D01*
X577485Y357295D01*
X577514Y357367D01*
X577551Y357436D01*
X577560Y357481D01*
X577577Y357523D01*
X577592Y357659D01*
X577595Y357678D01*
X577594Y357683D01*
X577595Y357690D01*
X577595Y428364D01*
X577581Y428454D01*
X577573Y428545D01*
X577561Y428575D01*
X577556Y428607D01*
X577513Y428688D01*
X577477Y428772D01*
X577451Y428804D01*
X577440Y428824D01*
X577417Y428846D01*
X577372Y428902D01*
X575309Y430965D01*
X575309Y435175D01*
X578285Y438151D01*
X582495Y438151D01*
X585471Y435175D01*
X585471Y430965D01*
X583408Y428902D01*
X583355Y428828D01*
X583295Y428759D01*
X583283Y428729D01*
X583264Y428703D01*
X583237Y428616D01*
X583203Y428531D01*
X583199Y428490D01*
X583192Y428468D01*
X583193Y428435D01*
X583185Y428364D01*
X583185Y401671D01*
X583196Y401600D01*
X583198Y401529D01*
X583216Y401480D01*
X583224Y401428D01*
X583258Y401365D01*
X583283Y401298D01*
X583315Y401257D01*
X583340Y401211D01*
X583392Y401162D01*
X583436Y401106D01*
X583480Y401077D01*
X583518Y401042D01*
X583583Y401011D01*
X583643Y400973D01*
X583694Y400960D01*
X583741Y400938D01*
X583812Y400930D01*
X583882Y400913D01*
X583934Y400917D01*
X583985Y400911D01*
X584056Y400926D01*
X584127Y400932D01*
X584175Y400952D01*
X584226Y400963D01*
X584287Y401000D01*
X584353Y401028D01*
X584409Y401073D01*
X584437Y401089D01*
X584452Y401107D01*
X584484Y401133D01*
X585946Y402594D01*
X589494Y404064D01*
X593334Y404064D01*
X596881Y402594D01*
X599597Y399879D01*
X601066Y396331D01*
X601066Y392491D01*
X599597Y388943D01*
X596881Y386228D01*
X594678Y385315D01*
X594579Y385254D01*
X594479Y385194D01*
X594475Y385189D01*
X594469Y385186D01*
X594395Y385096D01*
X594319Y385007D01*
X594316Y385001D01*
X594312Y384996D01*
X594271Y384888D01*
X594227Y384779D01*
X594226Y384771D01*
X594224Y384767D01*
X594223Y384748D01*
X594208Y384612D01*
X594208Y206077D01*
X594223Y205987D01*
X594230Y205896D01*
X594243Y205866D01*
X594248Y205834D01*
X594291Y205754D01*
X594326Y205670D01*
X594352Y205638D01*
X594363Y205617D01*
X594387Y205595D01*
X594431Y205539D01*
X596494Y203476D01*
X596494Y199267D01*
X593518Y196290D01*
X589309Y196290D01*
G37*
%LPD*%
%LPC*%
G36*
X607021Y162508D02*
X607021Y162508D01*
X603006Y164171D01*
X599934Y167244D01*
X598271Y171259D01*
X598271Y175604D01*
X599934Y179618D01*
X603006Y182691D01*
X605675Y183796D01*
X605775Y183858D01*
X605875Y183918D01*
X605879Y183923D01*
X605884Y183926D01*
X605959Y184017D01*
X606034Y184105D01*
X606037Y184111D01*
X606041Y184115D01*
X606082Y184224D01*
X606126Y184333D01*
X606127Y184341D01*
X606129Y184345D01*
X606130Y184363D01*
X606145Y184500D01*
X606145Y193117D01*
X606144Y193123D01*
X606145Y193128D01*
X606124Y193243D01*
X606105Y193360D01*
X606102Y193365D01*
X606101Y193370D01*
X606029Y193521D01*
X605940Y193663D01*
X606126Y194474D01*
X606126Y194475D01*
X606126Y194477D01*
X606145Y194644D01*
X606145Y195475D01*
X606263Y195594D01*
X606266Y195598D01*
X606271Y195602D01*
X606339Y195699D01*
X606407Y195793D01*
X606408Y195799D01*
X606412Y195803D01*
X606467Y195962D01*
X606504Y196125D01*
X607209Y196566D01*
X607210Y196568D01*
X607212Y196568D01*
X607343Y196673D01*
X607931Y197261D01*
X608098Y197261D01*
X608104Y197262D01*
X608109Y197261D01*
X608224Y197282D01*
X608341Y197301D01*
X608346Y197304D01*
X608351Y197305D01*
X608502Y197377D01*
X622806Y206344D01*
X622846Y206379D01*
X622893Y206407D01*
X622938Y206460D01*
X622991Y206506D01*
X623017Y206553D01*
X623053Y206594D01*
X623079Y206659D01*
X623114Y206719D01*
X623124Y206772D01*
X623144Y206822D01*
X623157Y206932D01*
X623162Y206960D01*
X623161Y206972D01*
X623163Y206989D01*
X623163Y208858D01*
X623151Y208928D01*
X623150Y209000D01*
X623132Y209049D01*
X623123Y209100D01*
X623090Y209164D01*
X623065Y209231D01*
X623033Y209272D01*
X623008Y209318D01*
X622956Y209367D01*
X622911Y209423D01*
X622868Y209451D01*
X622830Y209487D01*
X622765Y209517D01*
X622704Y209556D01*
X622654Y209569D01*
X622607Y209591D01*
X622535Y209599D01*
X622466Y209616D01*
X622414Y209612D01*
X622362Y209618D01*
X622292Y209602D01*
X622221Y209597D01*
X622173Y209577D01*
X622122Y209565D01*
X622060Y209529D01*
X621994Y209501D01*
X621938Y209456D01*
X621911Y209439D01*
X621896Y209422D01*
X621863Y209396D01*
X618918Y206450D01*
X614709Y206450D01*
X611733Y209427D01*
X611733Y213636D01*
X613796Y215699D01*
X613849Y215773D01*
X613908Y215842D01*
X613921Y215872D01*
X613939Y215898D01*
X613966Y215985D01*
X614000Y216070D01*
X614005Y216111D01*
X614012Y216134D01*
X614011Y216166D01*
X614019Y216237D01*
X614019Y384612D01*
X614000Y384727D01*
X613983Y384843D01*
X613980Y384849D01*
X613979Y384855D01*
X613925Y384957D01*
X613871Y385062D01*
X613867Y385067D01*
X613864Y385072D01*
X613780Y385152D01*
X613696Y385235D01*
X613689Y385238D01*
X613686Y385242D01*
X613669Y385249D01*
X613549Y385315D01*
X611346Y386228D01*
X608630Y388943D01*
X607161Y392491D01*
X607161Y396331D01*
X608630Y399879D01*
X611346Y402594D01*
X614894Y404064D01*
X618734Y404064D01*
X622281Y402594D01*
X624997Y399879D01*
X626466Y396331D01*
X626466Y392491D01*
X624997Y388943D01*
X622281Y386228D01*
X620078Y385315D01*
X619979Y385254D01*
X619879Y385194D01*
X619875Y385189D01*
X619869Y385186D01*
X619795Y385096D01*
X619719Y385007D01*
X619716Y385001D01*
X619712Y384996D01*
X619671Y384888D01*
X619627Y384779D01*
X619626Y384771D01*
X619624Y384767D01*
X619623Y384748D01*
X619608Y384612D01*
X619608Y216237D01*
X619623Y216147D01*
X619630Y216056D01*
X619643Y216026D01*
X619648Y215994D01*
X619691Y215914D01*
X619726Y215830D01*
X619752Y215798D01*
X619763Y215777D01*
X619786Y215755D01*
X619831Y215699D01*
X621863Y213667D01*
X621922Y213625D01*
X621974Y213575D01*
X622021Y213553D01*
X622063Y213523D01*
X622132Y213502D01*
X622197Y213472D01*
X622248Y213466D01*
X622298Y213451D01*
X622370Y213453D01*
X622441Y213445D01*
X622492Y213456D01*
X622544Y213457D01*
X622611Y213482D01*
X622682Y213497D01*
X622726Y213524D01*
X622775Y213541D01*
X622831Y213586D01*
X622893Y213623D01*
X622926Y213663D01*
X622967Y213695D01*
X623006Y213755D01*
X623053Y213810D01*
X623072Y213858D01*
X623100Y213902D01*
X623118Y213972D01*
X623144Y214038D01*
X623152Y214109D01*
X623160Y214141D01*
X623158Y214164D01*
X623163Y214205D01*
X623163Y336458D01*
X623162Y336465D01*
X623163Y336474D01*
X623135Y337735D01*
X624028Y338627D01*
X624031Y338632D01*
X624039Y338638D01*
X645042Y360571D01*
X645104Y360661D01*
X645169Y360748D01*
X645173Y360762D01*
X645182Y360774D01*
X645211Y360879D01*
X645245Y360982D01*
X645245Y360997D01*
X645249Y361011D01*
X645244Y361119D01*
X645243Y361228D01*
X645238Y361245D01*
X645237Y361256D01*
X645227Y361284D01*
X645196Y361389D01*
X643991Y364299D01*
X643991Y368644D01*
X645654Y372658D01*
X648726Y375731D01*
X652741Y377394D01*
X657086Y377394D01*
X661101Y375731D01*
X664173Y372658D01*
X665836Y368644D01*
X665836Y364299D01*
X664173Y360284D01*
X661101Y357211D01*
X657086Y355548D01*
X652741Y355548D01*
X650311Y356555D01*
X650309Y356556D01*
X650307Y356557D01*
X650189Y356584D01*
X650071Y356611D01*
X650069Y356611D01*
X650067Y356612D01*
X649944Y356599D01*
X649826Y356588D01*
X649824Y356587D01*
X649822Y356587D01*
X649709Y356536D01*
X649602Y356488D01*
X649600Y356487D01*
X649598Y356486D01*
X649470Y356378D01*
X629472Y335496D01*
X629425Y335427D01*
X629371Y335364D01*
X629356Y335326D01*
X629333Y335293D01*
X629310Y335213D01*
X629279Y335136D01*
X629273Y335083D01*
X629265Y335056D01*
X629267Y335027D01*
X629260Y334969D01*
X629260Y205976D01*
X629261Y205970D01*
X629261Y205965D01*
X629281Y205850D01*
X629300Y205733D01*
X629303Y205728D01*
X629304Y205723D01*
X629377Y205572D01*
X629466Y205430D01*
X629280Y204619D01*
X629280Y204618D01*
X629279Y204616D01*
X629260Y204449D01*
X629260Y203618D01*
X629142Y203499D01*
X629139Y203495D01*
X629134Y203491D01*
X629066Y203394D01*
X628999Y203300D01*
X628997Y203294D01*
X628994Y203290D01*
X628938Y203131D01*
X628901Y202968D01*
X628196Y202526D01*
X628195Y202525D01*
X628193Y202525D01*
X628062Y202420D01*
X627475Y201832D01*
X627307Y201832D01*
X627302Y201831D01*
X627296Y201832D01*
X627181Y201811D01*
X627064Y201792D01*
X627059Y201789D01*
X627054Y201788D01*
X626903Y201716D01*
X612599Y192749D01*
X612559Y192713D01*
X612513Y192686D01*
X612467Y192633D01*
X612415Y192586D01*
X612388Y192540D01*
X612353Y192499D01*
X612327Y192434D01*
X612292Y192374D01*
X612281Y192321D01*
X612261Y192271D01*
X612249Y192161D01*
X612243Y192132D01*
X612244Y192121D01*
X612242Y192104D01*
X612242Y184500D01*
X612261Y184385D01*
X612278Y184269D01*
X612281Y184263D01*
X612282Y184257D01*
X612336Y184154D01*
X612390Y184049D01*
X612394Y184045D01*
X612397Y184040D01*
X612481Y183960D01*
X612565Y183877D01*
X612572Y183874D01*
X612576Y183870D01*
X612592Y183862D01*
X612712Y183796D01*
X615381Y182691D01*
X618453Y179618D01*
X620116Y175604D01*
X620116Y171259D01*
X618453Y167244D01*
X615381Y164171D01*
X611366Y162508D01*
X607021Y162508D01*
G37*
%LPD*%
%LPC*%
G36*
X665694Y384758D02*
X665694Y384758D01*
X662146Y386228D01*
X659430Y388943D01*
X657961Y392491D01*
X657961Y396331D01*
X659430Y399879D01*
X662146Y402594D01*
X665694Y404064D01*
X669534Y404064D01*
X671737Y403151D01*
X671850Y403125D01*
X671964Y403096D01*
X671970Y403097D01*
X671976Y403095D01*
X672093Y403106D01*
X672209Y403115D01*
X672215Y403118D01*
X672221Y403118D01*
X672329Y403166D01*
X672435Y403212D01*
X672441Y403216D01*
X672446Y403218D01*
X672460Y403231D01*
X672566Y403316D01*
X676432Y407182D01*
X676485Y407256D01*
X676545Y407326D01*
X676557Y407356D01*
X676576Y407382D01*
X676603Y407469D01*
X676637Y407554D01*
X676641Y407595D01*
X676648Y407617D01*
X676647Y407649D01*
X676655Y407721D01*
X676655Y464164D01*
X676644Y464235D01*
X676642Y464306D01*
X676624Y464355D01*
X676616Y464407D01*
X676582Y464470D01*
X676557Y464537D01*
X676525Y464578D01*
X676500Y464624D01*
X676448Y464674D01*
X676404Y464730D01*
X676360Y464758D01*
X676322Y464794D01*
X676257Y464824D01*
X676197Y464863D01*
X676146Y464875D01*
X676099Y464897D01*
X676028Y464905D01*
X675958Y464923D01*
X675906Y464919D01*
X675855Y464924D01*
X675784Y464909D01*
X675713Y464903D01*
X675665Y464883D01*
X675614Y464872D01*
X675553Y464835D01*
X675487Y464807D01*
X675431Y464762D01*
X675403Y464746D01*
X675388Y464728D01*
X675356Y464702D01*
X673081Y462428D01*
X669534Y460958D01*
X665694Y460958D01*
X662146Y462428D01*
X659430Y465143D01*
X657961Y468691D01*
X657961Y472531D01*
X659430Y476079D01*
X662146Y478794D01*
X665694Y480264D01*
X669534Y480264D01*
X673081Y478794D01*
X675356Y476520D01*
X675414Y476478D01*
X675466Y476429D01*
X675513Y476407D01*
X675555Y476377D01*
X675624Y476355D01*
X675689Y476325D01*
X675741Y476319D01*
X675791Y476304D01*
X675862Y476306D01*
X675933Y476298D01*
X675984Y476309D01*
X676036Y476311D01*
X676104Y476335D01*
X676174Y476350D01*
X676219Y476377D01*
X676267Y476395D01*
X676323Y476440D01*
X676385Y476477D01*
X676419Y476516D01*
X676459Y476549D01*
X676498Y476609D01*
X676545Y476663D01*
X676564Y476712D01*
X676592Y476756D01*
X676610Y476825D01*
X676637Y476892D01*
X676645Y476963D01*
X676653Y476994D01*
X676651Y477017D01*
X676655Y477058D01*
X676655Y536314D01*
X676641Y536404D01*
X676633Y536495D01*
X676621Y536525D01*
X676616Y536557D01*
X676573Y536638D01*
X676537Y536721D01*
X676511Y536754D01*
X676500Y536774D01*
X676477Y536796D01*
X676432Y536852D01*
X674369Y538915D01*
X674369Y543125D01*
X677345Y546101D01*
X681555Y546101D01*
X684531Y543125D01*
X684531Y538915D01*
X682468Y536852D01*
X682415Y536779D01*
X682355Y536709D01*
X682343Y536679D01*
X682324Y536653D01*
X682297Y536566D01*
X682263Y536481D01*
X682259Y536440D01*
X682252Y536418D01*
X682253Y536385D01*
X682245Y536314D01*
X682245Y473664D01*
X682260Y473568D01*
X682270Y473471D01*
X682280Y473447D01*
X682284Y473421D01*
X682330Y473335D01*
X682370Y473246D01*
X682387Y473227D01*
X682400Y473204D01*
X682470Y473137D01*
X682536Y473065D01*
X682559Y473052D01*
X682578Y473034D01*
X682666Y472993D01*
X682752Y472946D01*
X682777Y472942D01*
X682801Y472931D01*
X682898Y472920D01*
X682994Y472903D01*
X683020Y472906D01*
X683045Y472903D01*
X683141Y472924D01*
X683237Y472938D01*
X683260Y472950D01*
X683286Y472956D01*
X683369Y473006D01*
X683456Y473050D01*
X683475Y473069D01*
X683497Y473082D01*
X683560Y473156D01*
X683628Y473225D01*
X683644Y473254D01*
X683657Y473269D01*
X683669Y473300D01*
X683709Y473372D01*
X684830Y476079D01*
X687546Y478794D01*
X691094Y480264D01*
X694934Y480264D01*
X698481Y478794D01*
X701197Y476079D01*
X702666Y472531D01*
X702666Y468691D01*
X701197Y465143D01*
X698481Y462428D01*
X696278Y461515D01*
X696179Y461454D01*
X696079Y461394D01*
X696075Y461389D01*
X696069Y461386D01*
X695995Y461296D01*
X695919Y461207D01*
X695916Y461201D01*
X695912Y461196D01*
X695871Y461088D01*
X695827Y460979D01*
X695826Y460971D01*
X695824Y460967D01*
X695823Y460948D01*
X695808Y460812D01*
X695808Y439452D01*
X695823Y439362D01*
X695830Y439271D01*
X695843Y439241D01*
X695848Y439209D01*
X695891Y439129D01*
X695926Y439045D01*
X695952Y439013D01*
X695963Y438992D01*
X695987Y438970D01*
X696031Y438914D01*
X698501Y436445D01*
X698501Y432235D01*
X695525Y429259D01*
X691315Y429259D01*
X688339Y432235D01*
X688339Y436445D01*
X689996Y438101D01*
X690049Y438175D01*
X690108Y438245D01*
X690121Y438275D01*
X690139Y438301D01*
X690166Y438388D01*
X690200Y438473D01*
X690205Y438514D01*
X690212Y438536D01*
X690211Y438568D01*
X690219Y438639D01*
X690219Y460812D01*
X690200Y460927D01*
X690183Y461043D01*
X690180Y461049D01*
X690179Y461055D01*
X690125Y461157D01*
X690071Y461262D01*
X690067Y461267D01*
X690064Y461272D01*
X689980Y461352D01*
X689896Y461435D01*
X689889Y461438D01*
X689886Y461442D01*
X689869Y461449D01*
X689749Y461515D01*
X687546Y462428D01*
X684830Y465143D01*
X683709Y467850D01*
X683658Y467933D01*
X683612Y468019D01*
X683593Y468037D01*
X683580Y468059D01*
X683505Y468121D01*
X683434Y468188D01*
X683410Y468199D01*
X683390Y468216D01*
X683299Y468251D01*
X683211Y468292D01*
X683185Y468295D01*
X683161Y468304D01*
X683063Y468308D01*
X682967Y468319D01*
X682941Y468313D01*
X682915Y468314D01*
X682821Y468287D01*
X682726Y468267D01*
X682704Y468253D01*
X682679Y468246D01*
X682599Y468190D01*
X682515Y468140D01*
X682498Y468121D01*
X682477Y468106D01*
X682418Y468028D01*
X682355Y467954D01*
X682345Y467929D01*
X682330Y467908D01*
X682300Y467816D01*
X682263Y467725D01*
X682260Y467693D01*
X682254Y467674D01*
X682254Y467641D01*
X682245Y467559D01*
X682245Y405090D01*
X676519Y399364D01*
X676451Y399270D01*
X676381Y399175D01*
X676379Y399169D01*
X676375Y399164D01*
X676341Y399053D01*
X676305Y398941D01*
X676305Y398935D01*
X676303Y398929D01*
X676306Y398812D01*
X676307Y398695D01*
X676309Y398688D01*
X676309Y398683D01*
X676316Y398666D01*
X676354Y398534D01*
X677266Y396331D01*
X677266Y392491D01*
X675797Y388943D01*
X673081Y386228D01*
X669534Y384758D01*
X665694Y384758D01*
G37*
%LPD*%
G36*
X550229Y397813D02*
X550229Y397813D01*
X550255Y397812D01*
X550349Y397839D01*
X550444Y397859D01*
X550466Y397873D01*
X550491Y397880D01*
X550571Y397936D01*
X550655Y397986D01*
X550672Y398005D01*
X550693Y398020D01*
X550752Y398099D01*
X550815Y398173D01*
X550825Y398197D01*
X550840Y398218D01*
X550870Y398310D01*
X550907Y398401D01*
X550910Y398433D01*
X550916Y398452D01*
X550916Y398485D01*
X550925Y398567D01*
X550925Y447414D01*
X550911Y447504D01*
X550903Y447595D01*
X550891Y447625D01*
X550886Y447657D01*
X550843Y447738D01*
X550807Y447821D01*
X550781Y447854D01*
X550770Y447874D01*
X550747Y447896D01*
X550702Y447952D01*
X548639Y450015D01*
X548639Y454225D01*
X551615Y457201D01*
X555825Y457201D01*
X558801Y454225D01*
X558801Y450015D01*
X556738Y447952D01*
X556685Y447879D01*
X556625Y447809D01*
X556613Y447779D01*
X556594Y447753D01*
X556567Y447666D01*
X556533Y447581D01*
X556529Y447540D01*
X556522Y447518D01*
X556523Y447485D01*
X556515Y447414D01*
X556515Y400401D01*
X556526Y400330D01*
X556528Y400259D01*
X556546Y400210D01*
X556554Y400158D01*
X556588Y400095D01*
X556613Y400028D01*
X556645Y399987D01*
X556670Y399941D01*
X556722Y399892D01*
X556766Y399836D01*
X556810Y399807D01*
X556848Y399772D01*
X556913Y399741D01*
X556973Y399703D01*
X557024Y399690D01*
X557071Y399668D01*
X557142Y399660D01*
X557212Y399643D01*
X557264Y399647D01*
X557315Y399641D01*
X557386Y399656D01*
X557457Y399662D01*
X557505Y399682D01*
X557556Y399693D01*
X557617Y399730D01*
X557683Y399758D01*
X557739Y399803D01*
X557767Y399819D01*
X557782Y399837D01*
X557814Y399863D01*
X560546Y402594D01*
X561885Y403149D01*
X561985Y403211D01*
X562085Y403271D01*
X562089Y403276D01*
X562094Y403279D01*
X562169Y403368D01*
X562245Y403458D01*
X562247Y403464D01*
X562251Y403468D01*
X562293Y403576D01*
X562337Y403686D01*
X562338Y403693D01*
X562339Y403698D01*
X562340Y403716D01*
X562355Y403853D01*
X562355Y432958D01*
X574832Y445435D01*
X574885Y445509D01*
X574945Y445578D01*
X574957Y445608D01*
X574976Y445634D01*
X575003Y445721D01*
X575037Y445806D01*
X575041Y445847D01*
X575048Y445869D01*
X575047Y445902D01*
X575055Y445973D01*
X575055Y464164D01*
X575044Y464235D01*
X575042Y464306D01*
X575024Y464355D01*
X575016Y464407D01*
X574982Y464470D01*
X574957Y464537D01*
X574925Y464578D01*
X574900Y464624D01*
X574848Y464674D01*
X574804Y464730D01*
X574760Y464758D01*
X574722Y464794D01*
X574657Y464824D01*
X574597Y464863D01*
X574546Y464875D01*
X574499Y464897D01*
X574428Y464905D01*
X574358Y464923D01*
X574306Y464919D01*
X574255Y464924D01*
X574184Y464909D01*
X574113Y464903D01*
X574065Y464883D01*
X574014Y464872D01*
X573953Y464835D01*
X573887Y464807D01*
X573831Y464762D01*
X573803Y464746D01*
X573788Y464728D01*
X573756Y464702D01*
X571481Y462428D01*
X567934Y460958D01*
X564094Y460958D01*
X560546Y462428D01*
X557830Y465143D01*
X556361Y468691D01*
X556361Y472531D01*
X557273Y474734D01*
X557300Y474848D01*
X557329Y474961D01*
X557328Y474968D01*
X557330Y474974D01*
X557319Y475090D01*
X557310Y475207D01*
X557307Y475212D01*
X557307Y475219D01*
X557259Y475326D01*
X557213Y475433D01*
X557209Y475439D01*
X557207Y475443D01*
X557194Y475457D01*
X557108Y475564D01*
X532465Y500207D01*
X530890Y501782D01*
X530832Y501824D01*
X530780Y501873D01*
X530733Y501895D01*
X530691Y501926D01*
X530622Y501947D01*
X530557Y501977D01*
X530505Y501983D01*
X530455Y501998D01*
X530384Y501996D01*
X530313Y502004D01*
X530262Y501993D01*
X530210Y501992D01*
X530142Y501967D01*
X530072Y501952D01*
X530027Y501925D01*
X529979Y501907D01*
X529923Y501862D01*
X529861Y501826D01*
X529827Y501786D01*
X529787Y501754D01*
X529748Y501693D01*
X529701Y501639D01*
X529682Y501590D01*
X529654Y501547D01*
X529636Y501477D01*
X529609Y501411D01*
X529601Y501339D01*
X529593Y501308D01*
X529595Y501285D01*
X529591Y501244D01*
X529591Y477977D01*
X529605Y477887D01*
X529613Y477796D01*
X529625Y477766D01*
X529630Y477734D01*
X529673Y477654D01*
X529709Y477570D01*
X529735Y477537D01*
X529746Y477517D01*
X529769Y477495D01*
X529814Y477439D01*
X530674Y476579D01*
X530738Y476532D01*
X530797Y476479D01*
X530838Y476461D01*
X530873Y476435D01*
X530950Y476412D01*
X531022Y476380D01*
X531066Y476376D01*
X531109Y476363D01*
X531188Y476365D01*
X531267Y476358D01*
X531310Y476368D01*
X531354Y476369D01*
X531429Y476396D01*
X531507Y476415D01*
X531544Y476438D01*
X531585Y476453D01*
X531648Y476503D01*
X531715Y476545D01*
X531754Y476589D01*
X531778Y476607D01*
X531793Y476631D01*
X531828Y476669D01*
X532476Y477561D01*
X533663Y478749D01*
X535022Y479736D01*
X536518Y480498D01*
X538115Y481017D01*
X539090Y481172D01*
X539090Y471373D01*
X539094Y471354D01*
X539091Y471334D01*
X539113Y471233D01*
X539130Y471131D01*
X539139Y471113D01*
X539144Y471094D01*
X539197Y471004D01*
X539245Y470913D01*
X539260Y470900D01*
X539270Y470882D01*
X539349Y470815D01*
X539424Y470744D01*
X539442Y470735D01*
X539457Y470722D01*
X539553Y470684D01*
X539647Y470640D01*
X539666Y470638D01*
X539685Y470631D01*
X539852Y470612D01*
X540614Y470612D01*
X540614Y469849D01*
X540618Y469830D01*
X540616Y469810D01*
X540638Y469708D01*
X540654Y469606D01*
X540664Y469589D01*
X540668Y469569D01*
X540721Y469480D01*
X540769Y469389D01*
X540784Y469375D01*
X540794Y469358D01*
X540873Y469291D01*
X540948Y469220D01*
X540966Y469211D01*
X540981Y469198D01*
X541077Y469160D01*
X541171Y469116D01*
X541190Y469114D01*
X541209Y469106D01*
X541376Y469088D01*
X551174Y469088D01*
X551020Y468113D01*
X550501Y466516D01*
X549738Y465020D01*
X548751Y463661D01*
X547564Y462474D01*
X546205Y461486D01*
X544709Y460724D01*
X543112Y460205D01*
X541492Y459949D01*
X541480Y459945D01*
X541468Y459945D01*
X541364Y459906D01*
X541258Y459871D01*
X541249Y459864D01*
X541237Y459860D01*
X541150Y459790D01*
X541062Y459724D01*
X541055Y459714D01*
X541045Y459706D01*
X540985Y459612D01*
X540922Y459521D01*
X540919Y459510D01*
X540912Y459499D01*
X540885Y459391D01*
X540855Y459285D01*
X540855Y459273D01*
X540852Y459261D01*
X540861Y459150D01*
X540866Y459039D01*
X540871Y459028D01*
X540871Y459016D01*
X540915Y458913D01*
X540955Y458810D01*
X540963Y458800D01*
X540968Y458789D01*
X541073Y458658D01*
X543408Y456323D01*
X543408Y404210D01*
X543427Y404095D01*
X543444Y403979D01*
X543447Y403974D01*
X543448Y403968D01*
X543502Y403865D01*
X543556Y403760D01*
X543560Y403756D01*
X543563Y403750D01*
X543647Y403670D01*
X543731Y403588D01*
X543738Y403584D01*
X543742Y403581D01*
X543758Y403573D01*
X543878Y403507D01*
X546081Y402594D01*
X548797Y399879D01*
X549461Y398276D01*
X549512Y398193D01*
X549558Y398107D01*
X549576Y398089D01*
X549590Y398067D01*
X549666Y398005D01*
X549736Y397938D01*
X549760Y397927D01*
X549780Y397910D01*
X549871Y397875D01*
X549959Y397834D01*
X549985Y397831D01*
X550009Y397822D01*
X550107Y397818D01*
X550203Y397807D01*
X550229Y397813D01*
G37*
%LPC*%
G36*
X682496Y342362D02*
X682496Y342362D01*
X679348Y343666D01*
X676939Y346075D01*
X675635Y349223D01*
X675635Y352630D01*
X676939Y355778D01*
X679348Y358187D01*
X682496Y359491D01*
X685903Y359491D01*
X687490Y358834D01*
X687604Y358807D01*
X687717Y358779D01*
X687724Y358779D01*
X687730Y358778D01*
X687846Y358789D01*
X687963Y358798D01*
X687968Y358800D01*
X687975Y358801D01*
X688082Y358849D01*
X688189Y358894D01*
X688195Y358899D01*
X688199Y358901D01*
X688213Y358913D01*
X688320Y358999D01*
X704474Y375153D01*
X704521Y375219D01*
X704527Y375225D01*
X704529Y375229D01*
X704586Y375296D01*
X704599Y375326D01*
X704617Y375353D01*
X704644Y375439D01*
X704678Y375524D01*
X704683Y375565D01*
X704690Y375588D01*
X704689Y375620D01*
X704697Y375691D01*
X704697Y391037D01*
X704696Y391041D01*
X704697Y391045D01*
X704676Y391163D01*
X704657Y391280D01*
X704655Y391284D01*
X704654Y391288D01*
X704598Y391392D01*
X704542Y391497D01*
X704539Y391500D01*
X704537Y391504D01*
X704450Y391585D01*
X704364Y391667D01*
X704360Y391669D01*
X704357Y391671D01*
X704249Y391720D01*
X704141Y391770D01*
X704137Y391771D01*
X704133Y391773D01*
X704014Y391785D01*
X703896Y391798D01*
X703892Y391797D01*
X703888Y391797D01*
X703772Y391771D01*
X703656Y391745D01*
X703652Y391743D01*
X703648Y391742D01*
X703547Y391680D01*
X703445Y391619D01*
X703442Y391616D01*
X703439Y391614D01*
X703362Y391523D01*
X703285Y391432D01*
X703283Y391428D01*
X703281Y391425D01*
X703212Y391273D01*
X702901Y390316D01*
X702138Y388820D01*
X701151Y387461D01*
X699964Y386274D01*
X698605Y385286D01*
X697109Y384524D01*
X695512Y384005D01*
X694537Y383851D01*
X694537Y393649D01*
X694534Y393669D01*
X694536Y393689D01*
X694514Y393790D01*
X694497Y393892D01*
X694488Y393909D01*
X694484Y393929D01*
X694430Y394018D01*
X694382Y394109D01*
X694368Y394123D01*
X694357Y394140D01*
X694279Y394207D01*
X694204Y394279D01*
X694186Y394287D01*
X694170Y394300D01*
X694074Y394339D01*
X693981Y394382D01*
X693961Y394384D01*
X693942Y394392D01*
X693776Y394410D01*
X693013Y394410D01*
X693013Y394412D01*
X693776Y394412D01*
X693795Y394415D01*
X693815Y394413D01*
X693916Y394435D01*
X694018Y394452D01*
X694036Y394461D01*
X694055Y394465D01*
X694144Y394519D01*
X694236Y394567D01*
X694249Y394581D01*
X694266Y394592D01*
X694334Y394670D01*
X694405Y394745D01*
X694413Y394763D01*
X694426Y394778D01*
X694465Y394875D01*
X694509Y394968D01*
X694511Y394988D01*
X694518Y395007D01*
X694537Y395173D01*
X694537Y404972D01*
X695512Y404817D01*
X697109Y404298D01*
X698605Y403536D01*
X699964Y402549D01*
X701151Y401361D01*
X702138Y400003D01*
X702901Y398507D01*
X703212Y397550D01*
X703213Y397546D01*
X703214Y397542D01*
X703269Y397438D01*
X703324Y397331D01*
X703327Y397328D01*
X703329Y397325D01*
X703415Y397243D01*
X703501Y397160D01*
X703505Y397158D01*
X703507Y397156D01*
X703615Y397106D01*
X703723Y397054D01*
X703727Y397054D01*
X703731Y397052D01*
X703848Y397039D01*
X703967Y397024D01*
X703971Y397025D01*
X703975Y397025D01*
X704091Y397050D01*
X704208Y397074D01*
X704211Y397076D01*
X704215Y397077D01*
X704318Y397138D01*
X704420Y397198D01*
X704423Y397201D01*
X704426Y397203D01*
X704505Y397295D01*
X704582Y397383D01*
X704584Y397387D01*
X704586Y397390D01*
X704631Y397502D01*
X704677Y397611D01*
X704677Y397615D01*
X704678Y397618D01*
X704697Y397785D01*
X704697Y400093D01*
X715396Y410792D01*
X715449Y410866D01*
X715508Y410935D01*
X715521Y410966D01*
X715539Y410992D01*
X715566Y411079D01*
X715600Y411164D01*
X715605Y411205D01*
X715612Y411227D01*
X715611Y411259D01*
X715619Y411330D01*
X715619Y460812D01*
X715600Y460927D01*
X715583Y461043D01*
X715580Y461049D01*
X715579Y461055D01*
X715525Y461157D01*
X715471Y461262D01*
X715467Y461267D01*
X715464Y461272D01*
X715380Y461352D01*
X715296Y461435D01*
X715289Y461438D01*
X715286Y461442D01*
X715269Y461449D01*
X715149Y461515D01*
X712946Y462428D01*
X710230Y465143D01*
X708761Y468691D01*
X708761Y472531D01*
X710230Y476079D01*
X712946Y478794D01*
X716494Y480264D01*
X720334Y480264D01*
X723881Y478794D01*
X726597Y476079D01*
X728066Y472531D01*
X728066Y468691D01*
X726597Y465143D01*
X723881Y462428D01*
X721678Y461515D01*
X721579Y461454D01*
X721479Y461394D01*
X721475Y461389D01*
X721469Y461386D01*
X721395Y461296D01*
X721319Y461207D01*
X721316Y461201D01*
X721312Y461196D01*
X721271Y461088D01*
X721227Y460979D01*
X721226Y460971D01*
X721224Y460967D01*
X721223Y460948D01*
X721208Y460812D01*
X721208Y408700D01*
X717872Y405363D01*
X717830Y405305D01*
X717781Y405253D01*
X717759Y405206D01*
X717729Y405164D01*
X717707Y405095D01*
X717677Y405030D01*
X717671Y404978D01*
X717656Y404929D01*
X717658Y404857D01*
X717650Y404786D01*
X717661Y404735D01*
X717663Y404683D01*
X717687Y404615D01*
X717702Y404545D01*
X717729Y404501D01*
X717747Y404452D01*
X717792Y404396D01*
X717829Y404334D01*
X717868Y404300D01*
X717901Y404260D01*
X717961Y404221D01*
X718015Y404174D01*
X718064Y404155D01*
X718108Y404127D01*
X718177Y404109D01*
X718244Y404082D01*
X718315Y404074D01*
X718346Y404067D01*
X718369Y404068D01*
X718410Y404064D01*
X720334Y404064D01*
X723881Y402594D01*
X726597Y399879D01*
X728066Y396331D01*
X728066Y392491D01*
X726597Y388943D01*
X723881Y386228D01*
X720334Y384758D01*
X716494Y384758D01*
X712946Y386228D01*
X711586Y387588D01*
X711528Y387630D01*
X711476Y387679D01*
X711428Y387701D01*
X711386Y387732D01*
X711318Y387753D01*
X711253Y387783D01*
X711201Y387789D01*
X711151Y387804D01*
X711079Y387802D01*
X711008Y387810D01*
X710957Y387799D01*
X710905Y387798D01*
X710838Y387773D01*
X710768Y387758D01*
X710723Y387731D01*
X710674Y387713D01*
X710618Y387668D01*
X710557Y387631D01*
X710523Y387592D01*
X710482Y387559D01*
X710443Y387499D01*
X710397Y387445D01*
X710377Y387396D01*
X710349Y387352D01*
X710332Y387283D01*
X710305Y387216D01*
X710297Y387145D01*
X710289Y387114D01*
X710291Y387091D01*
X710286Y387050D01*
X710286Y373060D01*
X708426Y371200D01*
X692272Y355047D01*
X692205Y354953D01*
X692134Y354858D01*
X692132Y354852D01*
X692129Y354847D01*
X692095Y354736D01*
X692058Y354624D01*
X692058Y354618D01*
X692056Y354612D01*
X692059Y354495D01*
X692061Y354378D01*
X692063Y354371D01*
X692063Y354366D01*
X692069Y354348D01*
X692107Y354217D01*
X692765Y352630D01*
X692765Y349223D01*
X691461Y346075D01*
X689051Y343666D01*
X685903Y342362D01*
X682496Y342362D01*
G37*
%LPD*%
%LPC*%
G36*
X487829Y227226D02*
X487829Y227226D01*
X484865Y228454D01*
X482597Y230723D01*
X481369Y233687D01*
X481369Y236895D01*
X481898Y238174D01*
X481909Y238219D01*
X481928Y238260D01*
X481937Y238338D01*
X481955Y238413D01*
X481950Y238459D01*
X481955Y238505D01*
X481939Y238581D01*
X481932Y238658D01*
X481913Y238700D01*
X481903Y238745D01*
X481863Y238812D01*
X481832Y238883D01*
X481800Y238917D01*
X481777Y238956D01*
X481718Y239007D01*
X481665Y239064D01*
X481625Y239086D01*
X481590Y239116D01*
X481518Y239145D01*
X481450Y239183D01*
X481404Y239191D01*
X481362Y239208D01*
X481226Y239223D01*
X481208Y239226D01*
X481203Y239226D01*
X481195Y239226D01*
X479829Y239226D01*
X476865Y240454D01*
X474597Y242723D01*
X473369Y245687D01*
X473369Y248895D01*
X474597Y251860D01*
X476865Y254128D01*
X477407Y254352D01*
X477507Y254414D01*
X477607Y254474D01*
X477611Y254479D01*
X477616Y254482D01*
X477690Y254572D01*
X477766Y254661D01*
X477769Y254667D01*
X477773Y254672D01*
X477814Y254780D01*
X477858Y254889D01*
X477859Y254897D01*
X477861Y254901D01*
X477862Y254919D01*
X477877Y255056D01*
X477877Y293899D01*
X477872Y293928D01*
X477875Y293957D01*
X477852Y294049D01*
X477837Y294141D01*
X477823Y294168D01*
X477816Y294196D01*
X477766Y294276D01*
X477722Y294359D01*
X477701Y294379D01*
X477685Y294404D01*
X477560Y294517D01*
X458432Y308282D01*
X458382Y308307D01*
X458337Y308341D01*
X458272Y308362D01*
X458212Y308392D01*
X458156Y308400D01*
X458103Y308417D01*
X458035Y308416D01*
X457968Y308426D01*
X457913Y308415D01*
X457857Y308415D01*
X457756Y308385D01*
X457726Y308380D01*
X457715Y308373D01*
X457696Y308368D01*
X455858Y307606D01*
X452649Y307606D01*
X449685Y308834D01*
X447417Y311103D01*
X446189Y314067D01*
X446189Y317275D01*
X447417Y320240D01*
X449685Y322508D01*
X452649Y323736D01*
X455858Y323736D01*
X458822Y322508D01*
X461091Y320240D01*
X462318Y317275D01*
X462318Y314639D01*
X462323Y314610D01*
X462321Y314581D01*
X462343Y314489D01*
X462358Y314397D01*
X462372Y314371D01*
X462379Y314342D01*
X462429Y314262D01*
X462473Y314179D01*
X462495Y314159D01*
X462510Y314134D01*
X462635Y314022D01*
X482381Y299811D01*
X482408Y299798D01*
X482431Y299778D01*
X482518Y299743D01*
X482601Y299702D01*
X482631Y299698D01*
X482659Y299686D01*
X482826Y299668D01*
X482907Y299668D01*
X483701Y298873D01*
X483728Y298854D01*
X483795Y298794D01*
X484707Y298138D01*
X484720Y298058D01*
X484730Y298029D01*
X484732Y297999D01*
X484768Y297913D01*
X484798Y297824D01*
X484816Y297800D01*
X484828Y297773D01*
X484933Y297642D01*
X484990Y297584D01*
X484990Y296461D01*
X484992Y296450D01*
X484991Y296444D01*
X484996Y296423D01*
X485000Y296338D01*
X485181Y295229D01*
X485134Y295164D01*
X485120Y295137D01*
X485101Y295114D01*
X485066Y295027D01*
X485024Y294943D01*
X485020Y294914D01*
X485009Y294886D01*
X484990Y294719D01*
X484990Y255056D01*
X485009Y254941D01*
X485026Y254825D01*
X485029Y254819D01*
X485030Y254813D01*
X485084Y254710D01*
X485138Y254606D01*
X485142Y254601D01*
X485145Y254596D01*
X485230Y254515D01*
X485313Y254433D01*
X485320Y254430D01*
X485324Y254426D01*
X485341Y254418D01*
X485460Y254352D01*
X486002Y254128D01*
X488271Y251860D01*
X488730Y250750D01*
X488768Y250689D01*
X488797Y250623D01*
X488832Y250585D01*
X488860Y250540D01*
X488915Y250495D01*
X488964Y250442D01*
X489009Y250417D01*
X489049Y250384D01*
X489116Y250358D01*
X489179Y250323D01*
X489230Y250314D01*
X489279Y250295D01*
X489351Y250292D01*
X489421Y250280D01*
X489473Y250287D01*
X489525Y250285D01*
X489594Y250305D01*
X489665Y250315D01*
X489711Y250339D01*
X489761Y250354D01*
X489820Y250394D01*
X489884Y250427D01*
X489920Y250464D01*
X489963Y250494D01*
X490006Y250551D01*
X490056Y250603D01*
X490091Y250665D01*
X490110Y250691D01*
X490117Y250714D01*
X490137Y250750D01*
X490597Y251860D01*
X492865Y254128D01*
X495829Y255356D01*
X499038Y255356D01*
X502002Y254128D01*
X504333Y251797D01*
X504346Y251775D01*
X504348Y251773D01*
X504350Y251771D01*
X504444Y251693D01*
X504535Y251617D01*
X504537Y251616D01*
X504539Y251614D01*
X504653Y251570D01*
X504763Y251527D01*
X504766Y251527D01*
X504769Y251526D01*
X504888Y251521D01*
X505009Y251514D01*
X505012Y251515D01*
X505015Y251515D01*
X505129Y251548D01*
X505246Y251581D01*
X505248Y251583D01*
X505251Y251583D01*
X505350Y251652D01*
X505449Y251720D01*
X505451Y251722D01*
X505453Y251723D01*
X505459Y251732D01*
X505557Y251848D01*
X506380Y253080D01*
X507645Y254345D01*
X509132Y255338D01*
X510785Y256023D01*
X511910Y256247D01*
X511910Y248053D01*
X511914Y248034D01*
X511911Y248014D01*
X511933Y247913D01*
X511950Y247811D01*
X511959Y247793D01*
X511964Y247774D01*
X512017Y247684D01*
X512065Y247593D01*
X512080Y247580D01*
X512090Y247562D01*
X512169Y247495D01*
X512244Y247424D01*
X512262Y247415D01*
X512277Y247402D01*
X512373Y247364D01*
X512467Y247320D01*
X512486Y247318D01*
X512505Y247311D01*
X512672Y247292D01*
X513434Y247292D01*
X513434Y247290D01*
X512672Y247290D01*
X512652Y247287D01*
X512632Y247289D01*
X512531Y247267D01*
X512429Y247251D01*
X512411Y247241D01*
X512392Y247237D01*
X512303Y247184D01*
X512211Y247135D01*
X512198Y247121D01*
X512181Y247111D01*
X512113Y247032D01*
X512042Y246957D01*
X512034Y246939D01*
X512021Y246924D01*
X511982Y246828D01*
X511938Y246734D01*
X511936Y246714D01*
X511929Y246696D01*
X511910Y246529D01*
X511910Y240535D01*
X511925Y240445D01*
X511932Y240354D01*
X511945Y240324D01*
X511950Y240292D01*
X511993Y240212D01*
X512029Y240128D01*
X512054Y240096D01*
X512065Y240075D01*
X512089Y240053D01*
X512133Y239997D01*
X512271Y239860D01*
X513498Y236895D01*
X513498Y233687D01*
X512271Y230723D01*
X510002Y228454D01*
X507038Y227226D01*
X503829Y227226D01*
X500865Y228454D01*
X498597Y230723D01*
X498137Y231833D01*
X498099Y231894D01*
X498070Y231959D01*
X498035Y231998D01*
X498007Y232042D01*
X497952Y232088D01*
X497904Y232140D01*
X497858Y232166D01*
X497818Y232199D01*
X497751Y232224D01*
X497688Y232259D01*
X497637Y232268D01*
X497588Y232287D01*
X497517Y232290D01*
X497446Y232303D01*
X497394Y232295D01*
X497342Y232297D01*
X497274Y232277D01*
X497203Y232267D01*
X497156Y232243D01*
X497106Y232229D01*
X497047Y232188D01*
X496983Y232155D01*
X496947Y232118D01*
X496904Y232089D01*
X496861Y232031D01*
X496811Y231980D01*
X496777Y231917D01*
X496757Y231891D01*
X496750Y231869D01*
X496730Y231833D01*
X496271Y230723D01*
X494002Y228454D01*
X491038Y227226D01*
X487829Y227226D01*
G37*
%LPD*%
%LPC*%
G36*
X763299Y268680D02*
X763299Y268680D01*
X760323Y271657D01*
X760323Y273497D01*
X760308Y273586D01*
X760301Y273678D01*
X760288Y273707D01*
X760283Y273739D01*
X760240Y273820D01*
X760205Y273904D01*
X760179Y273936D01*
X760168Y273957D01*
X760145Y273979D01*
X760100Y274035D01*
X750417Y283718D01*
X750417Y350164D01*
X760977Y360724D01*
X760988Y360741D01*
X761004Y360753D01*
X761060Y360840D01*
X761120Y360924D01*
X761126Y360943D01*
X761137Y360960D01*
X761162Y361060D01*
X761193Y361159D01*
X761192Y361179D01*
X761197Y361198D01*
X761189Y361301D01*
X761186Y361405D01*
X761179Y361424D01*
X761178Y361444D01*
X761138Y361539D01*
X761102Y361636D01*
X761089Y361652D01*
X761082Y361670D01*
X760977Y361801D01*
X759954Y362824D01*
X758291Y366839D01*
X758291Y371184D01*
X759954Y375198D01*
X763026Y378271D01*
X767041Y379934D01*
X771386Y379934D01*
X775401Y378271D01*
X778473Y375198D01*
X780136Y371184D01*
X780136Y366839D01*
X778473Y362824D01*
X775401Y359751D01*
X771386Y358088D01*
X768716Y358088D01*
X768626Y358074D01*
X768535Y358067D01*
X768505Y358054D01*
X768473Y358049D01*
X768393Y358006D01*
X768309Y357970D01*
X768277Y357945D01*
X768256Y357934D01*
X768234Y357910D01*
X768178Y357865D01*
X757753Y347441D01*
X757700Y347367D01*
X757641Y347297D01*
X757629Y347267D01*
X757610Y347241D01*
X757583Y347154D01*
X757549Y347069D01*
X757544Y347028D01*
X757537Y347006D01*
X757538Y346974D01*
X757530Y346903D01*
X757530Y296975D01*
X757546Y296879D01*
X757555Y296782D01*
X757566Y296758D01*
X757570Y296732D01*
X757616Y296646D01*
X757655Y296557D01*
X757673Y296538D01*
X757685Y296515D01*
X757756Y296448D01*
X757822Y296376D01*
X757845Y296363D01*
X757864Y296345D01*
X757952Y296304D01*
X758037Y296257D01*
X758063Y296253D01*
X758087Y296242D01*
X758183Y296231D01*
X758279Y296214D01*
X758305Y296217D01*
X758331Y296215D01*
X758426Y296235D01*
X758523Y296249D01*
X758546Y296261D01*
X758571Y296267D01*
X758655Y296317D01*
X758742Y296361D01*
X758760Y296380D01*
X758783Y296393D01*
X758846Y296467D01*
X758914Y296536D01*
X758930Y296565D01*
X758942Y296580D01*
X758955Y296611D01*
X758995Y296683D01*
X759954Y298998D01*
X763026Y302071D01*
X767041Y303734D01*
X771386Y303734D01*
X775401Y302071D01*
X778473Y298998D01*
X780136Y294984D01*
X780136Y290639D01*
X778473Y286624D01*
X775401Y283551D01*
X771386Y281888D01*
X767041Y281888D01*
X763026Y283551D01*
X759954Y286624D01*
X758995Y288939D01*
X758943Y289022D01*
X758898Y289108D01*
X758879Y289126D01*
X758865Y289148D01*
X758790Y289210D01*
X758720Y289277D01*
X758696Y289288D01*
X758676Y289305D01*
X758585Y289340D01*
X758497Y289381D01*
X758471Y289384D01*
X758446Y289393D01*
X758349Y289397D01*
X758252Y289408D01*
X758227Y289402D01*
X758200Y289403D01*
X758107Y289376D01*
X758012Y289356D01*
X757989Y289342D01*
X757964Y289335D01*
X757884Y289279D01*
X757801Y289229D01*
X757784Y289210D01*
X757762Y289195D01*
X757704Y289116D01*
X757641Y289042D01*
X757631Y289018D01*
X757615Y288997D01*
X757585Y288905D01*
X757549Y288814D01*
X757545Y288782D01*
X757539Y288763D01*
X757539Y288730D01*
X757530Y288648D01*
X757530Y286980D01*
X757545Y286890D01*
X757552Y286799D01*
X757565Y286769D01*
X757570Y286737D01*
X757613Y286656D01*
X757648Y286572D01*
X757674Y286540D01*
X757685Y286520D01*
X757709Y286497D01*
X757753Y286441D01*
X765130Y279065D01*
X765204Y279012D01*
X765273Y278952D01*
X765303Y278940D01*
X765330Y278921D01*
X765417Y278895D01*
X765501Y278860D01*
X765542Y278856D01*
X765565Y278849D01*
X765597Y278850D01*
X765668Y278842D01*
X767508Y278842D01*
X770484Y275866D01*
X770484Y271657D01*
X767508Y268680D01*
X763299Y268680D01*
G37*
%LPD*%
%LPC*%
G36*
X632421Y162508D02*
X632421Y162508D01*
X628406Y164171D01*
X625334Y167244D01*
X623671Y171259D01*
X623671Y175604D01*
X625334Y179618D01*
X628406Y182691D01*
X631329Y183902D01*
X631428Y183963D01*
X631529Y184023D01*
X631533Y184028D01*
X631538Y184031D01*
X631613Y184121D01*
X631688Y184210D01*
X631691Y184216D01*
X631695Y184221D01*
X631736Y184329D01*
X631780Y184438D01*
X631781Y184446D01*
X631783Y184450D01*
X631784Y184469D01*
X631799Y184605D01*
X631799Y253329D01*
X633659Y255189D01*
X639740Y261270D01*
X639778Y261322D01*
X639823Y261369D01*
X639864Y261443D01*
X639884Y261470D01*
X639889Y261488D01*
X639904Y261515D01*
X648037Y281034D01*
X648064Y281148D01*
X648093Y281262D01*
X648093Y281268D01*
X648094Y281273D01*
X648083Y281391D01*
X648074Y281508D01*
X648072Y281513D01*
X648071Y281518D01*
X648023Y281627D01*
X647978Y281734D01*
X647973Y281739D01*
X647972Y281743D01*
X647960Y281756D01*
X647873Y281865D01*
X645654Y284084D01*
X643991Y288099D01*
X643991Y292444D01*
X645654Y296458D01*
X648726Y299531D01*
X652741Y301194D01*
X657086Y301194D01*
X661101Y299531D01*
X664173Y296458D01*
X665836Y292444D01*
X665836Y288099D01*
X664173Y284084D01*
X661101Y281011D01*
X657086Y279348D01*
X653898Y279348D01*
X653783Y279330D01*
X653668Y279313D01*
X653662Y279310D01*
X653655Y279309D01*
X653553Y279255D01*
X653449Y279202D01*
X653444Y279197D01*
X653437Y279194D01*
X653358Y279110D01*
X653276Y279027D01*
X653272Y279019D01*
X653268Y279015D01*
X653260Y278997D01*
X653195Y278880D01*
X645067Y259373D01*
X645052Y259308D01*
X645027Y259247D01*
X645018Y259166D01*
X645010Y259133D01*
X645012Y259114D01*
X645008Y259080D01*
X645008Y258634D01*
X644687Y258312D01*
X644649Y258260D01*
X644604Y258214D01*
X644563Y258139D01*
X644544Y258113D01*
X644538Y258095D01*
X644523Y258067D01*
X644348Y257648D01*
X643935Y257478D01*
X643879Y257443D01*
X643818Y257417D01*
X643754Y257366D01*
X643726Y257349D01*
X643713Y257333D01*
X643687Y257312D01*
X637611Y251237D01*
X637558Y251163D01*
X637499Y251093D01*
X637487Y251063D01*
X637468Y251037D01*
X637441Y250950D01*
X637407Y250865D01*
X637402Y250824D01*
X637395Y250802D01*
X637396Y250770D01*
X637388Y250698D01*
X637388Y184605D01*
X637407Y184490D01*
X637424Y184374D01*
X637427Y184368D01*
X637428Y184362D01*
X637482Y184260D01*
X637536Y184155D01*
X637540Y184150D01*
X637543Y184145D01*
X637627Y184065D01*
X637711Y183982D01*
X637718Y183979D01*
X637722Y183975D01*
X637738Y183968D01*
X637858Y183902D01*
X640781Y182691D01*
X643853Y179618D01*
X645516Y175604D01*
X645516Y171259D01*
X643853Y167244D01*
X640781Y164171D01*
X636766Y162508D01*
X632421Y162508D01*
G37*
%LPD*%
%LPC*%
G36*
X843309Y214070D02*
X843309Y214070D01*
X840333Y217047D01*
X840333Y221256D01*
X842396Y223319D01*
X842449Y223393D01*
X842508Y223462D01*
X842521Y223492D01*
X842539Y223518D01*
X842566Y223605D01*
X842600Y223690D01*
X842605Y223731D01*
X842612Y223754D01*
X842611Y223786D01*
X842619Y223857D01*
X842619Y281178D01*
X842604Y281268D01*
X842597Y281359D01*
X842584Y281389D01*
X842579Y281421D01*
X842536Y281502D01*
X842501Y281586D01*
X842475Y281618D01*
X842464Y281638D01*
X842441Y281661D01*
X842396Y281717D01*
X840079Y284034D01*
X840079Y309209D01*
X842396Y311526D01*
X842449Y311600D01*
X842508Y311669D01*
X842521Y311699D01*
X842539Y311726D01*
X842566Y311813D01*
X842600Y311897D01*
X842605Y311938D01*
X842612Y311961D01*
X842611Y311993D01*
X842619Y312064D01*
X842619Y384612D01*
X842600Y384727D01*
X842583Y384843D01*
X842580Y384849D01*
X842579Y384855D01*
X842525Y384957D01*
X842471Y385062D01*
X842467Y385067D01*
X842464Y385072D01*
X842380Y385152D01*
X842296Y385235D01*
X842289Y385238D01*
X842286Y385242D01*
X842269Y385249D01*
X842149Y385315D01*
X839946Y386228D01*
X837230Y388943D01*
X835761Y392491D01*
X835761Y396331D01*
X837230Y399879D01*
X839946Y402594D01*
X843494Y404064D01*
X847334Y404064D01*
X850881Y402594D01*
X853597Y399879D01*
X855066Y396331D01*
X855066Y392491D01*
X853597Y388943D01*
X850881Y386228D01*
X848678Y385315D01*
X848579Y385254D01*
X848479Y385194D01*
X848475Y385189D01*
X848469Y385186D01*
X848395Y385096D01*
X848319Y385007D01*
X848316Y385001D01*
X848312Y384996D01*
X848271Y384888D01*
X848227Y384779D01*
X848226Y384771D01*
X848224Y384767D01*
X848223Y384748D01*
X848208Y384612D01*
X848208Y309434D01*
X845891Y307117D01*
X845838Y307043D01*
X845779Y306973D01*
X845767Y306943D01*
X845748Y306917D01*
X845721Y306830D01*
X845687Y306745D01*
X845682Y306704D01*
X845675Y306682D01*
X845676Y306650D01*
X845668Y306578D01*
X845668Y286664D01*
X845683Y286574D01*
X845690Y286483D01*
X845703Y286453D01*
X845708Y286421D01*
X845751Y286341D01*
X845786Y286257D01*
X845812Y286225D01*
X845823Y286204D01*
X845847Y286182D01*
X845891Y286126D01*
X848208Y283809D01*
X848208Y223857D01*
X848223Y223767D01*
X848230Y223676D01*
X848243Y223646D01*
X848248Y223614D01*
X848291Y223534D01*
X848326Y223450D01*
X848352Y223418D01*
X848363Y223397D01*
X848387Y223375D01*
X848431Y223319D01*
X850494Y221256D01*
X850494Y217047D01*
X847518Y214070D01*
X843309Y214070D01*
G37*
%LPD*%
%LPC*%
G36*
X886421Y185368D02*
X886421Y185368D01*
X882406Y187031D01*
X879334Y190104D01*
X877671Y194119D01*
X877671Y198464D01*
X879334Y202478D01*
X882406Y205551D01*
X885329Y206762D01*
X885428Y206823D01*
X885529Y206883D01*
X885533Y206888D01*
X885538Y206891D01*
X885613Y206981D01*
X885688Y207070D01*
X885691Y207076D01*
X885695Y207081D01*
X885736Y207189D01*
X885780Y207298D01*
X885781Y207306D01*
X885783Y207310D01*
X885784Y207329D01*
X885799Y207465D01*
X885799Y248158D01*
X885784Y248248D01*
X885777Y248339D01*
X885764Y248369D01*
X885759Y248401D01*
X885716Y248482D01*
X885681Y248566D01*
X885655Y248598D01*
X885644Y248618D01*
X885621Y248641D01*
X885576Y248697D01*
X880039Y254233D01*
X880039Y254234D01*
X878179Y256094D01*
X878179Y288105D01*
X878173Y288141D01*
X878174Y288149D01*
X878166Y288187D01*
X878164Y288195D01*
X878157Y288286D01*
X878144Y288316D01*
X878139Y288348D01*
X878124Y288376D01*
X878122Y288389D01*
X878093Y288437D01*
X878061Y288513D01*
X878035Y288545D01*
X878024Y288565D01*
X878006Y288583D01*
X877995Y288600D01*
X877980Y288613D01*
X877956Y288644D01*
X875893Y290707D01*
X875893Y294916D01*
X878869Y297892D01*
X883078Y297892D01*
X886054Y294916D01*
X886054Y290707D01*
X883991Y288644D01*
X883949Y288585D01*
X883904Y288537D01*
X883896Y288521D01*
X883879Y288500D01*
X883867Y288470D01*
X883848Y288444D01*
X883822Y288362D01*
X883801Y288314D01*
X883799Y288303D01*
X883787Y288272D01*
X883782Y288231D01*
X883775Y288209D01*
X883776Y288177D01*
X883768Y288105D01*
X883768Y258724D01*
X883783Y258634D01*
X883790Y258543D01*
X883803Y258513D01*
X883808Y258481D01*
X883851Y258401D01*
X883886Y258317D01*
X883912Y258285D01*
X883923Y258264D01*
X883947Y258242D01*
X883991Y258186D01*
X889528Y252649D01*
X891388Y250789D01*
X891388Y207465D01*
X891407Y207350D01*
X891424Y207234D01*
X891427Y207228D01*
X891428Y207222D01*
X891482Y207120D01*
X891536Y207015D01*
X891540Y207010D01*
X891543Y207005D01*
X891627Y206925D01*
X891711Y206842D01*
X891718Y206839D01*
X891722Y206835D01*
X891738Y206828D01*
X891858Y206762D01*
X894781Y205551D01*
X897853Y202478D01*
X899516Y198464D01*
X899516Y194119D01*
X897853Y190104D01*
X894781Y187031D01*
X890766Y185368D01*
X886421Y185368D01*
G37*
%LPD*%
%LPC*%
G36*
X614894Y460958D02*
X614894Y460958D01*
X611346Y462428D01*
X608630Y465143D01*
X607161Y468691D01*
X607161Y472531D01*
X608630Y476079D01*
X611346Y478794D01*
X613630Y479740D01*
X613635Y479744D01*
X613642Y479746D01*
X613740Y479809D01*
X613839Y479870D01*
X613843Y479875D01*
X613849Y479879D01*
X613921Y479969D01*
X613995Y480059D01*
X613998Y480066D01*
X614002Y480071D01*
X614041Y480179D01*
X614084Y480289D01*
X614084Y480296D01*
X614086Y480303D01*
X614099Y480470D01*
X613205Y506503D01*
X613190Y506580D01*
X613184Y506658D01*
X613166Y506700D01*
X613157Y506744D01*
X613118Y506812D01*
X613087Y506884D01*
X613050Y506931D01*
X613035Y506958D01*
X613014Y506976D01*
X612983Y507015D01*
X600455Y519542D01*
X600455Y538277D01*
X600441Y538367D01*
X600433Y538458D01*
X600421Y538488D01*
X600416Y538520D01*
X600373Y538600D01*
X600337Y538684D01*
X600311Y538716D01*
X600300Y538737D01*
X600277Y538759D01*
X600232Y538815D01*
X598505Y540542D01*
X598431Y540595D01*
X598362Y540655D01*
X598332Y540667D01*
X598306Y540686D01*
X598219Y540713D01*
X598134Y540747D01*
X598093Y540751D01*
X598071Y540758D01*
X598038Y540757D01*
X597967Y540765D01*
X577476Y540765D01*
X577386Y540751D01*
X577295Y540743D01*
X577265Y540731D01*
X577233Y540726D01*
X577152Y540683D01*
X577069Y540647D01*
X577036Y540621D01*
X577016Y540610D01*
X576994Y540587D01*
X576938Y540542D01*
X574875Y538479D01*
X570665Y538479D01*
X567689Y541455D01*
X567689Y545665D01*
X570665Y548641D01*
X574875Y548641D01*
X576938Y546578D01*
X577011Y546525D01*
X577081Y546465D01*
X577111Y546453D01*
X577137Y546434D01*
X577224Y546407D01*
X577309Y546373D01*
X577350Y546369D01*
X577372Y546362D01*
X577405Y546363D01*
X577476Y546355D01*
X600598Y546355D01*
X606045Y540908D01*
X606045Y522173D01*
X606059Y522083D01*
X606067Y521992D01*
X606079Y521962D01*
X606084Y521930D01*
X606127Y521850D01*
X606163Y521766D01*
X606189Y521734D01*
X606200Y521713D01*
X606223Y521691D01*
X606268Y521635D01*
X617883Y510019D01*
X617891Y510013D01*
X617902Y510001D01*
X618745Y509214D01*
X618745Y508061D01*
X618746Y508051D01*
X618745Y508035D01*
X619696Y480348D01*
X619716Y480246D01*
X619731Y480143D01*
X619740Y480126D01*
X619744Y480107D01*
X619796Y480017D01*
X619843Y479924D01*
X619857Y479910D01*
X619866Y479893D01*
X619944Y479824D01*
X620018Y479752D01*
X620039Y479740D01*
X620051Y479730D01*
X620080Y479718D01*
X620165Y479671D01*
X622281Y478794D01*
X624997Y476079D01*
X626466Y472531D01*
X626466Y468691D01*
X624997Y465143D01*
X622281Y462428D01*
X618734Y460958D01*
X614894Y460958D01*
G37*
%LPD*%
%LPC*%
G36*
X457796Y180516D02*
X457796Y180516D01*
X451998Y182918D01*
X447560Y187355D01*
X445159Y193153D01*
X445159Y199429D01*
X447560Y205227D01*
X451998Y209664D01*
X457796Y212066D01*
X464071Y212066D01*
X469869Y209664D01*
X474307Y205227D01*
X476708Y199429D01*
X476708Y193153D01*
X474307Y187355D01*
X469869Y182918D01*
X464071Y180516D01*
X457796Y180516D01*
G37*
%LPD*%
%LPC*%
G36*
X530796Y180516D02*
X530796Y180516D01*
X524998Y182918D01*
X520560Y187355D01*
X518159Y193153D01*
X518159Y199429D01*
X520560Y205227D01*
X524998Y209664D01*
X530796Y212066D01*
X537071Y212066D01*
X542869Y209664D01*
X547307Y205227D01*
X549708Y199429D01*
X549708Y193153D01*
X547307Y187355D01*
X542869Y182918D01*
X537071Y180516D01*
X530796Y180516D01*
G37*
%LPD*%
%LPC*%
G36*
X818094Y384758D02*
X818094Y384758D01*
X814546Y386228D01*
X811830Y388943D01*
X810361Y392491D01*
X810361Y396331D01*
X811830Y399879D01*
X814546Y402594D01*
X818094Y404064D01*
X821934Y404064D01*
X823375Y403467D01*
X823489Y403440D01*
X823602Y403412D01*
X823608Y403412D01*
X823614Y403411D01*
X823731Y403422D01*
X823847Y403431D01*
X823853Y403433D01*
X823859Y403434D01*
X823967Y403482D01*
X824073Y403527D01*
X824079Y403532D01*
X824084Y403534D01*
X824098Y403547D01*
X824204Y403632D01*
X828070Y407498D01*
X828123Y407572D01*
X828183Y407641D01*
X828195Y407671D01*
X828214Y407698D01*
X828241Y407785D01*
X828275Y407869D01*
X828279Y407910D01*
X828286Y407933D01*
X828285Y407965D01*
X828293Y408036D01*
X828293Y418966D01*
X828279Y419056D01*
X828271Y419147D01*
X828259Y419177D01*
X828254Y419209D01*
X828211Y419290D01*
X828175Y419374D01*
X828149Y419406D01*
X828138Y419426D01*
X828115Y419448D01*
X828070Y419504D01*
X826769Y420805D01*
X826769Y425015D01*
X828070Y426316D01*
X828123Y426390D01*
X828183Y426459D01*
X828195Y426489D01*
X828214Y426515D01*
X828241Y426602D01*
X828275Y426687D01*
X828279Y426728D01*
X828286Y426750D01*
X828285Y426783D01*
X828293Y426854D01*
X828293Y450716D01*
X828279Y450806D01*
X828271Y450897D01*
X828259Y450927D01*
X828254Y450959D01*
X828211Y451040D01*
X828175Y451124D01*
X828149Y451156D01*
X828138Y451176D01*
X828115Y451198D01*
X828070Y451254D01*
X826769Y452555D01*
X826769Y456765D01*
X829745Y459741D01*
X833955Y459741D01*
X836931Y456765D01*
X836931Y452555D01*
X835630Y451254D01*
X835577Y451180D01*
X835517Y451111D01*
X835505Y451081D01*
X835486Y451055D01*
X835459Y450968D01*
X835425Y450883D01*
X835421Y450842D01*
X835414Y450820D01*
X835415Y450787D01*
X835407Y450716D01*
X835407Y426854D01*
X835421Y426764D01*
X835429Y426673D01*
X835441Y426643D01*
X835446Y426611D01*
X835489Y426530D01*
X835525Y426446D01*
X835551Y426414D01*
X835562Y426394D01*
X835585Y426372D01*
X835630Y426316D01*
X836931Y425015D01*
X836931Y420805D01*
X835630Y419504D01*
X835577Y419430D01*
X835517Y419361D01*
X835505Y419331D01*
X835486Y419305D01*
X835459Y419218D01*
X835425Y419133D01*
X835421Y419092D01*
X835414Y419070D01*
X835415Y419037D01*
X835407Y418966D01*
X835407Y404774D01*
X829234Y398602D01*
X829166Y398507D01*
X829096Y398413D01*
X829094Y398407D01*
X829091Y398402D01*
X829057Y398291D01*
X829020Y398179D01*
X829020Y398173D01*
X829018Y398167D01*
X829022Y398050D01*
X829023Y397933D01*
X829025Y397926D01*
X829025Y397921D01*
X829031Y397904D01*
X829069Y397772D01*
X829666Y396331D01*
X829666Y392491D01*
X828197Y388943D01*
X825481Y386228D01*
X821934Y384758D01*
X818094Y384758D01*
G37*
%LPD*%
%LPC*%
G36*
X709095Y490219D02*
X709095Y490219D01*
X706119Y493195D01*
X706119Y497405D01*
X708182Y499468D01*
X708235Y499541D01*
X708295Y499611D01*
X708307Y499641D01*
X708326Y499667D01*
X708353Y499754D01*
X708387Y499839D01*
X708391Y499880D01*
X708398Y499902D01*
X708397Y499935D01*
X708405Y500006D01*
X708405Y566794D01*
X708391Y566884D01*
X708383Y566975D01*
X708371Y567005D01*
X708366Y567037D01*
X708323Y567118D01*
X708287Y567201D01*
X708261Y567234D01*
X708250Y567254D01*
X708227Y567276D01*
X708182Y567332D01*
X706119Y569395D01*
X706119Y573605D01*
X709095Y576581D01*
X713305Y576581D01*
X716281Y573605D01*
X716281Y569395D01*
X714218Y567332D01*
X714165Y567259D01*
X714105Y567189D01*
X714093Y567159D01*
X714074Y567133D01*
X714047Y567046D01*
X714013Y566961D01*
X714009Y566920D01*
X714002Y566898D01*
X714003Y566865D01*
X713995Y566794D01*
X713995Y500006D01*
X714009Y499916D01*
X714017Y499825D01*
X714029Y499795D01*
X714034Y499763D01*
X714077Y499682D01*
X714113Y499599D01*
X714139Y499566D01*
X714150Y499546D01*
X714173Y499524D01*
X714218Y499468D01*
X716281Y497405D01*
X716281Y493195D01*
X713305Y490219D01*
X709095Y490219D01*
G37*
%LPD*%
%LPC*%
G36*
X818094Y460958D02*
X818094Y460958D01*
X814546Y462428D01*
X811830Y465143D01*
X810361Y468691D01*
X810361Y472531D01*
X811830Y476079D01*
X814546Y478794D01*
X815885Y479349D01*
X815985Y479411D01*
X816085Y479471D01*
X816089Y479476D01*
X816094Y479479D01*
X816168Y479568D01*
X816245Y479658D01*
X816247Y479664D01*
X816251Y479668D01*
X816293Y479776D01*
X816337Y479886D01*
X816338Y479893D01*
X816339Y479898D01*
X816340Y479916D01*
X816355Y480053D01*
X816355Y500754D01*
X816341Y500844D01*
X816333Y500935D01*
X816321Y500965D01*
X816316Y500997D01*
X816273Y501078D01*
X816237Y501161D01*
X816211Y501194D01*
X816200Y501214D01*
X816177Y501236D01*
X816132Y501292D01*
X814069Y503355D01*
X814069Y507565D01*
X817045Y510541D01*
X821255Y510541D01*
X824231Y507565D01*
X824231Y503355D01*
X822168Y501292D01*
X822115Y501219D01*
X822055Y501149D01*
X822043Y501119D01*
X822024Y501093D01*
X821997Y501006D01*
X821963Y500921D01*
X821959Y500880D01*
X821952Y500858D01*
X821953Y500825D01*
X821945Y500754D01*
X821945Y480768D01*
X821964Y480653D01*
X821981Y480537D01*
X821983Y480531D01*
X821984Y480525D01*
X822039Y480423D01*
X822092Y480318D01*
X822097Y480313D01*
X822100Y480308D01*
X822184Y480228D01*
X822268Y480146D01*
X822274Y480142D01*
X822278Y480138D01*
X822295Y480131D01*
X822415Y480065D01*
X825481Y478794D01*
X828197Y476079D01*
X829666Y472531D01*
X829666Y468691D01*
X828197Y465143D01*
X825481Y462428D01*
X821934Y460958D01*
X818094Y460958D01*
G37*
%LPD*%
%LPC*%
G36*
X842445Y436879D02*
X842445Y436879D01*
X839469Y439855D01*
X839469Y444065D01*
X840770Y445366D01*
X840823Y445439D01*
X840883Y445509D01*
X840895Y445539D01*
X840914Y445565D01*
X840941Y445652D01*
X840975Y445737D01*
X840979Y445778D01*
X840986Y445800D01*
X840985Y445833D01*
X840993Y445904D01*
X840993Y461485D01*
X840974Y461600D01*
X840957Y461716D01*
X840955Y461722D01*
X840954Y461728D01*
X840899Y461831D01*
X840846Y461936D01*
X840841Y461940D01*
X840838Y461946D01*
X840754Y462025D01*
X840670Y462108D01*
X840664Y462112D01*
X840660Y462115D01*
X840643Y462123D01*
X840523Y462189D01*
X839946Y462428D01*
X837230Y465143D01*
X835761Y468691D01*
X835761Y472531D01*
X837230Y476079D01*
X839946Y478794D01*
X843494Y480264D01*
X847334Y480264D01*
X850881Y478794D01*
X853597Y476079D01*
X855066Y472531D01*
X855066Y468691D01*
X853597Y465143D01*
X850881Y462428D01*
X848577Y461473D01*
X848477Y461412D01*
X848377Y461352D01*
X848373Y461347D01*
X848368Y461344D01*
X848293Y461254D01*
X848217Y461165D01*
X848215Y461159D01*
X848211Y461154D01*
X848169Y461046D01*
X848125Y460937D01*
X848124Y460929D01*
X848123Y460925D01*
X848122Y460906D01*
X848107Y460770D01*
X848107Y445904D01*
X848121Y445814D01*
X848129Y445723D01*
X848141Y445693D01*
X848146Y445661D01*
X848189Y445580D01*
X848225Y445497D01*
X848251Y445464D01*
X848262Y445444D01*
X848285Y445422D01*
X848330Y445366D01*
X849631Y444065D01*
X849631Y439855D01*
X846655Y436879D01*
X842445Y436879D01*
G37*
%LPD*%
%LPC*%
G36*
X683221Y162508D02*
X683221Y162508D01*
X679206Y164171D01*
X676134Y167244D01*
X674471Y171259D01*
X674471Y175604D01*
X676134Y179618D01*
X679206Y182691D01*
X683221Y184354D01*
X687566Y184354D01*
X691581Y182691D01*
X694653Y179618D01*
X696316Y175604D01*
X696316Y171259D01*
X694653Y167244D01*
X691581Y164171D01*
X687566Y162508D01*
X683221Y162508D01*
G37*
%LPD*%
%LPC*%
G36*
X708621Y162508D02*
X708621Y162508D01*
X704606Y164171D01*
X701534Y167244D01*
X699871Y171259D01*
X699871Y175604D01*
X701534Y179618D01*
X704606Y182691D01*
X708621Y184354D01*
X712966Y184354D01*
X716981Y182691D01*
X720053Y179618D01*
X721716Y175604D01*
X721716Y171259D01*
X720053Y167244D01*
X716981Y164171D01*
X712966Y162508D01*
X708621Y162508D01*
G37*
%LPD*%
%LPC*%
G36*
X728941Y294588D02*
X728941Y294588D01*
X724926Y296251D01*
X721854Y299324D01*
X720191Y303339D01*
X720191Y307684D01*
X721854Y311698D01*
X724926Y314771D01*
X728941Y316434D01*
X733286Y316434D01*
X737301Y314771D01*
X740373Y311698D01*
X742036Y307684D01*
X742036Y303339D01*
X740373Y299324D01*
X737301Y296251D01*
X733286Y294588D01*
X728941Y294588D01*
G37*
%LPD*%
%LPC*%
G36*
X792441Y358088D02*
X792441Y358088D01*
X788426Y359751D01*
X785354Y362824D01*
X783691Y366839D01*
X783691Y371184D01*
X785354Y375198D01*
X788426Y378271D01*
X792441Y379934D01*
X796786Y379934D01*
X800801Y378271D01*
X803873Y375198D01*
X805536Y371184D01*
X805536Y366839D01*
X803873Y362824D01*
X800801Y359751D01*
X796786Y358088D01*
X792441Y358088D01*
G37*
%LPD*%
%LPC*%
G36*
X792441Y281888D02*
X792441Y281888D01*
X788426Y283551D01*
X785354Y286624D01*
X783691Y290639D01*
X783691Y294984D01*
X785354Y298998D01*
X788426Y302071D01*
X792441Y303734D01*
X796786Y303734D01*
X800801Y302071D01*
X803873Y298998D01*
X805536Y294984D01*
X805536Y290639D01*
X803873Y286624D01*
X800801Y283551D01*
X796786Y281888D01*
X792441Y281888D01*
G37*
%LPD*%
%LPC*%
G36*
X734021Y162508D02*
X734021Y162508D01*
X730006Y164171D01*
X726934Y167244D01*
X725271Y171259D01*
X725271Y175604D01*
X726934Y179618D01*
X730006Y182691D01*
X734021Y184354D01*
X738366Y184354D01*
X742381Y182691D01*
X745453Y179618D01*
X747116Y175604D01*
X747116Y171259D01*
X745453Y167244D01*
X742381Y164171D01*
X738366Y162508D01*
X734021Y162508D01*
G37*
%LPD*%
%LPC*%
G36*
X728941Y345388D02*
X728941Y345388D01*
X724926Y347051D01*
X721854Y350124D01*
X720191Y354139D01*
X720191Y358484D01*
X721854Y362498D01*
X724926Y365571D01*
X728941Y367234D01*
X733286Y367234D01*
X737301Y365571D01*
X740373Y362498D01*
X742036Y358484D01*
X742036Y354139D01*
X740373Y350124D01*
X737301Y347051D01*
X733286Y345388D01*
X728941Y345388D01*
G37*
%LPD*%
%LPC*%
G36*
X513294Y384758D02*
X513294Y384758D01*
X509746Y386228D01*
X507030Y388943D01*
X505561Y392491D01*
X505561Y396331D01*
X507030Y399879D01*
X509746Y402594D01*
X513294Y404064D01*
X517134Y404064D01*
X520681Y402594D01*
X523397Y399879D01*
X524866Y396331D01*
X524866Y392491D01*
X523397Y388943D01*
X520681Y386228D01*
X517134Y384758D01*
X513294Y384758D01*
G37*
%LPD*%
%LPC*%
G36*
X741894Y384758D02*
X741894Y384758D01*
X738346Y386228D01*
X735630Y388943D01*
X734161Y392491D01*
X734161Y396331D01*
X735630Y399879D01*
X738346Y402594D01*
X741894Y404064D01*
X745734Y404064D01*
X749281Y402594D01*
X751997Y399879D01*
X753466Y396331D01*
X753466Y392491D01*
X751997Y388943D01*
X749281Y386228D01*
X745734Y384758D01*
X741894Y384758D01*
G37*
%LPD*%
%LPC*%
G36*
X759895Y535939D02*
X759895Y535939D01*
X756919Y538915D01*
X756919Y543125D01*
X758982Y545188D01*
X759035Y545261D01*
X759095Y545331D01*
X759107Y545361D01*
X759126Y545387D01*
X759153Y545474D01*
X759187Y545559D01*
X759191Y545600D01*
X759198Y545622D01*
X759197Y545655D01*
X759205Y545726D01*
X759205Y566794D01*
X759191Y566884D01*
X759183Y566975D01*
X759171Y567005D01*
X759166Y567037D01*
X759123Y567118D01*
X759087Y567201D01*
X759061Y567234D01*
X759050Y567254D01*
X759027Y567276D01*
X758982Y567332D01*
X756919Y569395D01*
X756919Y573605D01*
X759895Y576581D01*
X764105Y576581D01*
X767081Y573605D01*
X767081Y569395D01*
X765018Y567332D01*
X764965Y567259D01*
X764905Y567189D01*
X764893Y567159D01*
X764874Y567133D01*
X764847Y567046D01*
X764813Y566961D01*
X764809Y566920D01*
X764802Y566898D01*
X764803Y566865D01*
X764795Y566794D01*
X764795Y545726D01*
X764809Y545636D01*
X764817Y545545D01*
X764829Y545515D01*
X764834Y545483D01*
X764877Y545402D01*
X764913Y545319D01*
X764939Y545286D01*
X764950Y545266D01*
X764973Y545244D01*
X765018Y545188D01*
X767081Y543125D01*
X767081Y538915D01*
X764105Y535939D01*
X759895Y535939D01*
G37*
%LPD*%
%LPC*%
G36*
X790271Y171986D02*
X790271Y171986D01*
X786939Y173366D01*
X784389Y175916D01*
X783009Y179248D01*
X783009Y182854D01*
X784389Y186186D01*
X786939Y188736D01*
X790271Y190116D01*
X793877Y190116D01*
X797208Y188736D01*
X799758Y186186D01*
X801138Y182854D01*
X801138Y179248D01*
X799758Y175916D01*
X797208Y173366D01*
X793877Y171986D01*
X790271Y171986D01*
G37*
%LPD*%
%LPC*%
G36*
X899491Y263426D02*
X899491Y263426D01*
X896159Y264806D01*
X893609Y267356D01*
X892229Y270688D01*
X892229Y274294D01*
X893609Y277626D01*
X896159Y280176D01*
X899491Y281556D01*
X903097Y281556D01*
X906428Y280176D01*
X908978Y277626D01*
X910358Y274294D01*
X910358Y270688D01*
X908978Y267356D01*
X906428Y264806D01*
X903097Y263426D01*
X899491Y263426D01*
G37*
%LPD*%
%LPC*%
G36*
X452451Y346606D02*
X452451Y346606D01*
X449119Y347986D01*
X446569Y350536D01*
X445189Y353868D01*
X445189Y357474D01*
X446569Y360806D01*
X449119Y363356D01*
X452451Y364736D01*
X456057Y364736D01*
X459388Y363356D01*
X461938Y360806D01*
X463318Y357474D01*
X463318Y353868D01*
X461938Y350536D01*
X459388Y347986D01*
X456057Y346606D01*
X452451Y346606D01*
G37*
%LPD*%
%LPC*%
G36*
X452451Y266606D02*
X452451Y266606D01*
X449119Y267986D01*
X446569Y270536D01*
X445189Y273868D01*
X445189Y277474D01*
X446569Y280806D01*
X449119Y283356D01*
X452451Y284736D01*
X456057Y284736D01*
X459388Y283356D01*
X461938Y280806D01*
X463318Y277474D01*
X463318Y273868D01*
X461938Y270536D01*
X459388Y267986D01*
X456057Y266606D01*
X452451Y266606D01*
G37*
%LPD*%
%LPC*%
G36*
X818310Y360446D02*
X818310Y360446D01*
X815162Y361750D01*
X812753Y364160D01*
X811449Y367308D01*
X811449Y370715D01*
X812753Y373863D01*
X815162Y376272D01*
X818310Y377576D01*
X821717Y377576D01*
X824865Y376272D01*
X827274Y373863D01*
X828578Y370715D01*
X828578Y367308D01*
X827274Y364160D01*
X824865Y361750D01*
X821717Y360446D01*
X818310Y360446D01*
G37*
%LPD*%
%LPC*%
G36*
X452649Y287606D02*
X452649Y287606D01*
X449685Y288834D01*
X447417Y291103D01*
X446189Y294067D01*
X446189Y297275D01*
X447417Y300240D01*
X449685Y302508D01*
X452649Y303736D01*
X455858Y303736D01*
X458822Y302508D01*
X461091Y300240D01*
X462318Y297275D01*
X462318Y294067D01*
X461091Y291103D01*
X458822Y288834D01*
X455858Y287606D01*
X452649Y287606D01*
G37*
%LPD*%
%LPC*%
G36*
X452649Y327606D02*
X452649Y327606D01*
X449685Y328834D01*
X447417Y331103D01*
X446189Y334067D01*
X446189Y337275D01*
X447417Y340240D01*
X449685Y342508D01*
X452649Y343736D01*
X455858Y343736D01*
X458822Y342508D01*
X461091Y340240D01*
X462318Y337275D01*
X462318Y334067D01*
X461091Y331103D01*
X458822Y328834D01*
X455858Y327606D01*
X452649Y327606D01*
G37*
%LPD*%
%LPC*%
G36*
X446023Y433323D02*
X446023Y433323D01*
X446023Y443646D01*
X447296Y443445D01*
X449083Y442864D01*
X450757Y442011D01*
X452278Y440906D01*
X453606Y439578D01*
X454711Y438057D01*
X455564Y436383D01*
X456145Y434596D01*
X456346Y433323D01*
X446023Y433323D01*
G37*
%LPD*%
%LPC*%
G36*
X915517Y197814D02*
X915517Y197814D01*
X915517Y208137D01*
X916789Y207936D01*
X918577Y207355D01*
X920251Y206502D01*
X921771Y205397D01*
X923100Y204069D01*
X924205Y202548D01*
X925058Y200874D01*
X925638Y199087D01*
X925840Y197814D01*
X915517Y197814D01*
G37*
%LPD*%
%LPC*%
G36*
X445312Y392277D02*
X445312Y392277D01*
X445312Y402600D01*
X446584Y402398D01*
X448372Y401818D01*
X450046Y400965D01*
X451566Y399860D01*
X452895Y398531D01*
X454000Y397011D01*
X454853Y395337D01*
X455434Y393549D01*
X455635Y392277D01*
X445312Y392277D01*
G37*
%LPD*%
%LPC*%
G36*
X732637Y332434D02*
X732637Y332434D01*
X732637Y342757D01*
X733909Y342556D01*
X735697Y341975D01*
X737371Y341122D01*
X738891Y340017D01*
X740220Y338689D01*
X741325Y337168D01*
X742178Y335494D01*
X742758Y333707D01*
X742960Y332434D01*
X732637Y332434D01*
G37*
%LPD*%
%LPC*%
G36*
X661517Y174954D02*
X661517Y174954D01*
X661517Y185277D01*
X662789Y185076D01*
X664577Y184495D01*
X666251Y183642D01*
X667771Y182537D01*
X669100Y181209D01*
X670205Y179688D01*
X671058Y178014D01*
X671638Y176227D01*
X671840Y174954D01*
X661517Y174954D01*
G37*
%LPD*%
%LPC*%
G36*
X908904Y433323D02*
X908904Y433323D01*
X909105Y434596D01*
X909686Y436383D01*
X910539Y438057D01*
X911644Y439578D01*
X912972Y440906D01*
X914493Y442011D01*
X916167Y442864D01*
X917954Y443445D01*
X919227Y443646D01*
X919227Y433323D01*
X908904Y433323D01*
G37*
%LPD*%
%LPC*%
G36*
X446023Y430277D02*
X446023Y430277D01*
X456346Y430277D01*
X456145Y429004D01*
X455564Y427217D01*
X454711Y425543D01*
X453606Y424022D01*
X452278Y422694D01*
X450757Y421589D01*
X449083Y420736D01*
X447296Y420155D01*
X446023Y419954D01*
X446023Y430277D01*
G37*
%LPD*%
%LPC*%
G36*
X445312Y389230D02*
X445312Y389230D01*
X455635Y389230D01*
X455434Y387958D01*
X454853Y386171D01*
X454000Y384496D01*
X452895Y382976D01*
X451566Y381647D01*
X450046Y380543D01*
X448372Y379690D01*
X446584Y379109D01*
X445312Y378907D01*
X445312Y389230D01*
G37*
%LPD*%
%LPC*%
G36*
X719267Y332434D02*
X719267Y332434D01*
X719469Y333707D01*
X720050Y335494D01*
X720903Y337168D01*
X722007Y338689D01*
X723336Y340017D01*
X724856Y341122D01*
X726531Y341975D01*
X728318Y342556D01*
X729590Y342757D01*
X729590Y332434D01*
X719267Y332434D01*
G37*
%LPD*%
%LPC*%
G36*
X661517Y171908D02*
X661517Y171908D01*
X671840Y171908D01*
X671638Y170636D01*
X671058Y168848D01*
X670205Y167174D01*
X669100Y165654D01*
X667771Y164325D01*
X666251Y163220D01*
X664577Y162367D01*
X662789Y161786D01*
X661517Y161585D01*
X661517Y171908D01*
G37*
%LPD*%
%LPC*%
G36*
X732637Y329388D02*
X732637Y329388D01*
X742960Y329388D01*
X742758Y328116D01*
X742178Y326328D01*
X741325Y324654D01*
X740220Y323134D01*
X738891Y321805D01*
X737371Y320700D01*
X735697Y319847D01*
X733909Y319266D01*
X732637Y319065D01*
X732637Y329388D01*
G37*
%LPD*%
%LPC*%
G36*
X902147Y197814D02*
X902147Y197814D01*
X902349Y199087D01*
X902930Y200874D01*
X903783Y202548D01*
X904887Y204069D01*
X906216Y205397D01*
X907736Y206502D01*
X909411Y207355D01*
X911198Y207936D01*
X912470Y208137D01*
X912470Y197814D01*
X902147Y197814D01*
G37*
%LPD*%
%LPC*%
G36*
X915517Y194768D02*
X915517Y194768D01*
X925840Y194768D01*
X925638Y193496D01*
X925058Y191708D01*
X924205Y190034D01*
X923100Y188514D01*
X921771Y187185D01*
X920251Y186080D01*
X918577Y185227D01*
X916789Y184646D01*
X915517Y184445D01*
X915517Y194768D01*
G37*
%LPD*%
%LPC*%
G36*
X648147Y174954D02*
X648147Y174954D01*
X648349Y176227D01*
X648930Y178014D01*
X649783Y179688D01*
X650887Y181209D01*
X652216Y182537D01*
X653736Y183642D01*
X655411Y184495D01*
X657198Y185076D01*
X658470Y185277D01*
X658470Y174954D01*
X648147Y174954D01*
G37*
%LPD*%
%LPC*%
G36*
X728318Y319266D02*
X728318Y319266D01*
X726531Y319847D01*
X724856Y320700D01*
X723336Y321805D01*
X722007Y323134D01*
X720903Y324654D01*
X720050Y326328D01*
X719469Y328116D01*
X719267Y329388D01*
X729590Y329388D01*
X729590Y319065D01*
X728318Y319266D01*
G37*
%LPD*%
%LPC*%
G36*
X911198Y184646D02*
X911198Y184646D01*
X909411Y185227D01*
X907736Y186080D01*
X906216Y187185D01*
X904887Y188514D01*
X903783Y190034D01*
X902930Y191708D01*
X902349Y193496D01*
X902147Y194768D01*
X912470Y194768D01*
X912470Y184445D01*
X911198Y184646D01*
G37*
%LPD*%
%LPC*%
G36*
X917954Y420155D02*
X917954Y420155D01*
X916167Y420736D01*
X914493Y421589D01*
X912972Y422694D01*
X911644Y424022D01*
X910539Y425543D01*
X909686Y427217D01*
X909105Y429004D01*
X908904Y430277D01*
X919227Y430277D01*
X919227Y419954D01*
X917954Y420155D01*
G37*
%LPD*%
%LPC*%
G36*
X657198Y161786D02*
X657198Y161786D01*
X655411Y162367D01*
X653736Y163220D01*
X652216Y164325D01*
X650887Y165654D01*
X649783Y167174D01*
X648930Y168848D01*
X648349Y170636D01*
X648147Y171908D01*
X658470Y171908D01*
X658470Y161585D01*
X657198Y161786D01*
G37*
%LPD*%
%LPC*%
G36*
X516276Y329767D02*
X516276Y329767D01*
X515630Y329941D01*
X515051Y330275D01*
X514577Y330748D01*
X514243Y331327D01*
X514070Y331974D01*
X514070Y338278D01*
X522580Y338278D01*
X522580Y329767D01*
X516276Y329767D01*
G37*
%LPD*%
%LPC*%
G36*
X542137Y472134D02*
X542137Y472134D01*
X542137Y481172D01*
X543112Y481017D01*
X544709Y480498D01*
X546205Y479736D01*
X547564Y478749D01*
X548751Y477561D01*
X549738Y476203D01*
X550501Y474707D01*
X551020Y473109D01*
X551174Y472134D01*
X542137Y472134D01*
G37*
%LPD*%
%LPC*%
G36*
X682453Y395934D02*
X682453Y395934D01*
X682608Y396909D01*
X683127Y398507D01*
X683889Y400003D01*
X684876Y401361D01*
X686063Y402549D01*
X687422Y403536D01*
X688918Y404298D01*
X690515Y404817D01*
X691490Y404972D01*
X691490Y395934D01*
X682453Y395934D01*
G37*
%LPD*%
%LPC*%
G36*
X733253Y472134D02*
X733253Y472134D01*
X733408Y473109D01*
X733927Y474707D01*
X734689Y476203D01*
X735676Y477561D01*
X736863Y478749D01*
X738222Y479736D01*
X739718Y480498D01*
X741315Y481017D01*
X742290Y481172D01*
X742290Y472134D01*
X733253Y472134D01*
G37*
%LPD*%
%LPC*%
G36*
X741315Y460205D02*
X741315Y460205D01*
X739718Y460724D01*
X738222Y461486D01*
X736863Y462474D01*
X735676Y463661D01*
X734689Y465020D01*
X733927Y466516D01*
X733408Y468113D01*
X733253Y469088D01*
X742290Y469088D01*
X742290Y460051D01*
X741315Y460205D01*
G37*
%LPD*%
%LPC*%
G36*
X690515Y384005D02*
X690515Y384005D01*
X688918Y384524D01*
X687422Y385286D01*
X686063Y386274D01*
X684876Y387461D01*
X683889Y388820D01*
X683127Y390316D01*
X682608Y391913D01*
X682453Y392888D01*
X691490Y392888D01*
X691490Y383851D01*
X690515Y384005D01*
G37*
%LPD*%
%LPC*%
G36*
X902817Y324814D02*
X902817Y324814D01*
X902817Y333256D01*
X903654Y333124D01*
X905163Y332633D01*
X906577Y331913D01*
X907861Y330980D01*
X908983Y329858D01*
X909915Y328575D01*
X910636Y327161D01*
X911126Y325652D01*
X911259Y324814D01*
X902817Y324814D01*
G37*
%LPD*%
%LPC*%
G36*
X844397Y182574D02*
X844397Y182574D01*
X844397Y191016D01*
X845234Y190884D01*
X846743Y190393D01*
X848157Y189673D01*
X849441Y188740D01*
X850563Y187618D01*
X851495Y186335D01*
X852216Y184921D01*
X852706Y183412D01*
X852839Y182574D01*
X844397Y182574D01*
G37*
%LPD*%
%LPC*%
G36*
X891328Y324814D02*
X891328Y324814D01*
X891461Y325652D01*
X891951Y327161D01*
X892672Y328575D01*
X893605Y329858D01*
X894726Y330980D01*
X896010Y331913D01*
X897424Y332633D01*
X898933Y333124D01*
X899770Y333256D01*
X899770Y324814D01*
X891328Y324814D01*
G37*
%LPD*%
%LPC*%
G36*
X902817Y321768D02*
X902817Y321768D01*
X911259Y321768D01*
X911126Y320931D01*
X910636Y319421D01*
X909915Y318008D01*
X908983Y316724D01*
X907861Y315602D01*
X906577Y314669D01*
X905163Y313949D01*
X903654Y313459D01*
X902817Y313326D01*
X902817Y321768D01*
G37*
%LPD*%
%LPC*%
G36*
X832908Y182574D02*
X832908Y182574D01*
X833041Y183412D01*
X833531Y184921D01*
X834252Y186335D01*
X835185Y187618D01*
X836306Y188740D01*
X837590Y189673D01*
X839004Y190393D01*
X840513Y190884D01*
X841350Y191016D01*
X841350Y182574D01*
X832908Y182574D01*
G37*
%LPD*%
%LPC*%
G36*
X844397Y179528D02*
X844397Y179528D01*
X852839Y179528D01*
X852706Y178691D01*
X852216Y177181D01*
X851495Y175768D01*
X850563Y174484D01*
X849441Y173362D01*
X848157Y172429D01*
X846743Y171709D01*
X845234Y171219D01*
X844397Y171086D01*
X844397Y179528D01*
G37*
%LPD*%
%LPC*%
G36*
X898933Y313459D02*
X898933Y313459D01*
X897424Y313949D01*
X896010Y314669D01*
X894726Y315602D01*
X893605Y316724D01*
X892672Y318008D01*
X891951Y319421D01*
X891461Y320931D01*
X891328Y321768D01*
X899770Y321768D01*
X899770Y313326D01*
X898933Y313459D01*
G37*
%LPD*%
%LPC*%
G36*
X840513Y171219D02*
X840513Y171219D01*
X839004Y171709D01*
X837590Y172429D01*
X836306Y173362D01*
X835185Y174484D01*
X834252Y175768D01*
X833531Y177181D01*
X833041Y178691D01*
X832908Y179528D01*
X841350Y179528D01*
X841350Y171086D01*
X840513Y171219D01*
G37*
%LPD*%
%LPC*%
G36*
X562457Y367994D02*
X562457Y367994D01*
X562457Y375930D01*
X563177Y375816D01*
X564611Y375350D01*
X565955Y374665D01*
X567175Y373779D01*
X568241Y372713D01*
X569128Y371492D01*
X569812Y370149D01*
X570278Y368715D01*
X570393Y367994D01*
X562457Y367994D01*
G37*
%LPD*%
%LPC*%
G36*
X685723Y327050D02*
X685723Y327050D01*
X685723Y334985D01*
X686443Y334871D01*
X687878Y334405D01*
X689221Y333721D01*
X690441Y332834D01*
X691508Y331768D01*
X692394Y330548D01*
X693079Y329204D01*
X693545Y327770D01*
X693659Y327050D01*
X685723Y327050D01*
G37*
%LPD*%
%LPC*%
G36*
X491337Y367994D02*
X491337Y367994D01*
X491337Y375930D01*
X492057Y375816D01*
X493491Y375350D01*
X494835Y374665D01*
X496055Y373779D01*
X497121Y372713D01*
X498008Y371492D01*
X498692Y370149D01*
X499158Y368715D01*
X499273Y367994D01*
X491337Y367994D01*
G37*
%LPD*%
%LPC*%
G36*
X821537Y345134D02*
X821537Y345134D01*
X821537Y353070D01*
X822257Y352956D01*
X823691Y352490D01*
X825035Y351805D01*
X826255Y350919D01*
X827321Y349853D01*
X828208Y348632D01*
X828892Y347289D01*
X829358Y345855D01*
X829473Y345134D01*
X821537Y345134D01*
G37*
%LPD*%
%LPC*%
G36*
X549757Y286714D02*
X549757Y286714D01*
X549757Y294650D01*
X550477Y294536D01*
X551911Y294070D01*
X553255Y293385D01*
X554475Y292499D01*
X555541Y291433D01*
X556428Y290212D01*
X557112Y288869D01*
X557578Y287435D01*
X557693Y286714D01*
X549757Y286714D01*
G37*
%LPD*%
%LPC*%
G36*
X491337Y364948D02*
X491337Y364948D01*
X499272Y364948D01*
X499158Y364228D01*
X498692Y362793D01*
X498008Y361450D01*
X497121Y360230D01*
X496055Y359164D01*
X494835Y358277D01*
X493491Y357592D01*
X492057Y357126D01*
X491337Y357012D01*
X491337Y364948D01*
G37*
%LPD*%
%LPC*%
G36*
X685723Y324003D02*
X685723Y324003D01*
X693659Y324003D01*
X693545Y323283D01*
X693079Y321849D01*
X692394Y320505D01*
X691508Y319285D01*
X690441Y318219D01*
X689221Y317332D01*
X687878Y316648D01*
X686443Y316182D01*
X685723Y316067D01*
X685723Y324003D01*
G37*
%LPD*%
%LPC*%
G36*
X810555Y345134D02*
X810555Y345134D01*
X810669Y345855D01*
X811135Y347289D01*
X811819Y348632D01*
X812706Y349853D01*
X813772Y350919D01*
X814992Y351805D01*
X816336Y352490D01*
X817770Y352956D01*
X818490Y353070D01*
X818490Y345134D01*
X810555Y345134D01*
G37*
%LPD*%
%LPC*%
G36*
X505755Y522934D02*
X505755Y522934D01*
X505869Y523655D01*
X506335Y525089D01*
X507019Y526432D01*
X507906Y527653D01*
X508972Y528719D01*
X510192Y529605D01*
X511536Y530290D01*
X512970Y530756D01*
X513690Y530870D01*
X513690Y522934D01*
X505755Y522934D01*
G37*
%LPD*%
%LPC*%
G36*
X549757Y283668D02*
X549757Y283668D01*
X557692Y283668D01*
X557578Y282948D01*
X557112Y281513D01*
X556428Y280170D01*
X555541Y278950D01*
X554475Y277884D01*
X553255Y276997D01*
X551911Y276312D01*
X550477Y275846D01*
X549757Y275732D01*
X549757Y283668D01*
G37*
%LPD*%
%LPC*%
G36*
X821537Y342088D02*
X821537Y342088D01*
X829472Y342088D01*
X829358Y341368D01*
X828892Y339933D01*
X828208Y338590D01*
X827321Y337370D01*
X826255Y336304D01*
X825035Y335417D01*
X823691Y334732D01*
X822257Y334266D01*
X821537Y334152D01*
X821537Y342088D01*
G37*
%LPD*%
%LPC*%
G36*
X674741Y327050D02*
X674741Y327050D01*
X674855Y327770D01*
X675321Y329204D01*
X676006Y330548D01*
X676892Y331768D01*
X677958Y332834D01*
X679179Y333721D01*
X680522Y334405D01*
X681956Y334871D01*
X682677Y334985D01*
X682677Y327050D01*
X674741Y327050D01*
G37*
%LPD*%
%LPC*%
G36*
X681956Y316182D02*
X681956Y316182D01*
X680522Y316648D01*
X679179Y317332D01*
X677958Y318219D01*
X676892Y319285D01*
X676006Y320505D01*
X675321Y321849D01*
X674855Y323283D01*
X674741Y324003D01*
X682677Y324003D01*
X682677Y316068D01*
X681956Y316182D01*
G37*
%LPD*%
%LPC*%
G36*
X512970Y512066D02*
X512970Y512066D01*
X511536Y512532D01*
X510192Y513217D01*
X508972Y514104D01*
X507906Y515170D01*
X507019Y516390D01*
X506335Y517733D01*
X505869Y519168D01*
X505755Y519888D01*
X513690Y519888D01*
X513690Y511952D01*
X512970Y512066D01*
G37*
%LPD*%
%LPC*%
G36*
X817770Y334266D02*
X817770Y334266D01*
X816336Y334732D01*
X814992Y335417D01*
X813772Y336304D01*
X812706Y337370D01*
X811819Y338590D01*
X811135Y339933D01*
X810669Y341368D01*
X810555Y342088D01*
X818490Y342088D01*
X818490Y334152D01*
X817770Y334266D01*
G37*
%LPD*%
%LPC*%
G36*
X514957Y248814D02*
X514957Y248814D01*
X514957Y256247D01*
X516082Y256023D01*
X517735Y255338D01*
X519222Y254345D01*
X520487Y253080D01*
X521481Y251592D01*
X522165Y249940D01*
X522389Y248814D01*
X514957Y248814D01*
G37*
%LPD*%
%LPC*%
G36*
X514957Y245768D02*
X514957Y245768D01*
X522389Y245768D01*
X522165Y244642D01*
X521481Y242990D01*
X520487Y241502D01*
X519222Y240238D01*
X517735Y239244D01*
X516082Y238559D01*
X514957Y238336D01*
X514957Y245768D01*
G37*
%LPD*%
%LPC*%
G36*
X684199Y325526D02*
X684199Y325526D01*
X684199Y325527D01*
X684201Y325527D01*
X684201Y325526D01*
X684199Y325526D01*
G37*
%LPD*%
%LPC*%
G36*
X913993Y196290D02*
X913993Y196290D01*
X913993Y196292D01*
X913994Y196292D01*
X913994Y196290D01*
X913993Y196290D01*
G37*
%LPD*%
%LPC*%
G36*
X820013Y343610D02*
X820013Y343610D01*
X820013Y343612D01*
X820014Y343612D01*
X820014Y343610D01*
X820013Y343610D01*
G37*
%LPD*%
%LPC*%
G36*
X731113Y330910D02*
X731113Y330910D01*
X731113Y330912D01*
X731114Y330912D01*
X731114Y330910D01*
X731113Y330910D01*
G37*
%LPD*%
%LPC*%
G36*
X659993Y173430D02*
X659993Y173430D01*
X659993Y173432D01*
X659994Y173432D01*
X659994Y173430D01*
X659993Y173430D01*
G37*
%LPD*%
%LPC*%
G36*
X901293Y323290D02*
X901293Y323290D01*
X901293Y323292D01*
X901294Y323292D01*
X901294Y323290D01*
X901293Y323290D01*
G37*
%LPD*%
%LPC*%
G36*
X842873Y181050D02*
X842873Y181050D01*
X842873Y181052D01*
X842874Y181052D01*
X842874Y181050D01*
X842873Y181050D01*
G37*
%LPD*%
D10*
X769214Y369011D03*
X769214Y292811D03*
D11*
X515214Y394411D03*
X540614Y394411D03*
X566014Y394411D03*
X591414Y394411D03*
X616814Y394411D03*
X642214Y394411D03*
X667614Y394411D03*
X693014Y394411D03*
X718414Y394411D03*
X743814Y394411D03*
X769214Y394411D03*
X794614Y394411D03*
X820014Y394411D03*
X845414Y394411D03*
X845414Y470611D03*
X820014Y470611D03*
X794614Y470611D03*
X769214Y470611D03*
X743814Y470611D03*
X718414Y470611D03*
X693014Y470611D03*
X667614Y470611D03*
X642214Y470611D03*
X616814Y470611D03*
X591414Y470611D03*
X566014Y470611D03*
X540614Y470611D03*
X515214Y470611D03*
D12*
X901294Y323291D03*
X901294Y272491D03*
D10*
X794614Y369011D03*
X794614Y292811D03*
X731114Y330911D03*
X731114Y305511D03*
X731114Y356311D03*
D13*
X515214Y521411D03*
X515214Y496011D03*
X820014Y369011D03*
X820014Y343611D03*
D14*
X524104Y339801D03*
D15*
X511404Y314401D03*
X498704Y339801D03*
D13*
X489814Y366471D03*
X515214Y366471D03*
X560934Y366471D03*
X535534Y366471D03*
X548234Y285191D03*
X522834Y285191D03*
D10*
X888594Y196291D03*
X913994Y196291D03*
D16*
X481434Y247291D03*
X497434Y247291D03*
X513434Y247291D03*
X489434Y235291D03*
X505434Y235291D03*
D17*
X533934Y196291D03*
X460934Y196291D03*
D16*
X454254Y315671D03*
X454254Y295671D03*
X454254Y335671D03*
D12*
X454254Y275671D03*
X454254Y355671D03*
D10*
X609194Y173431D03*
X634594Y173431D03*
X659994Y173431D03*
X685394Y173431D03*
X710794Y173431D03*
X736194Y173431D03*
X920750Y609600D03*
X920750Y584200D03*
X920750Y558800D03*
X920750Y533400D03*
X920750Y508000D03*
X920750Y482600D03*
X920750Y457200D03*
X920750Y431800D03*
X444500Y609600D03*
X444500Y584200D03*
X444500Y558800D03*
X444500Y533400D03*
X444500Y508000D03*
X444500Y482600D03*
X444500Y457200D03*
X444500Y431800D03*
X571094Y271221D03*
X571094Y347421D03*
X469189Y390754D03*
X443789Y390754D03*
D13*
X684200Y325526D03*
X684200Y350926D03*
D10*
X654914Y366471D03*
X654914Y290271D03*
D12*
X842874Y181051D03*
X792074Y181051D03*
D18*
X609194Y173431D02*
X609194Y194212D01*
X626212Y204881D01*
X626212Y336499D02*
X654914Y366471D01*
X626212Y336499D02*
X626212Y204881D01*
D19*
X591414Y201371D03*
D20*
X591414Y394411D01*
X616814Y394411D02*
X616814Y211531D01*
D19*
X616814Y211531D03*
D20*
X718414Y409857D02*
X718414Y470611D01*
X707492Y374218D02*
X684200Y350926D01*
X707492Y398935D02*
X718414Y409857D01*
X707492Y398935D02*
X707492Y374218D01*
X654914Y290271D02*
X642214Y259791D01*
X634594Y252171D01*
X634594Y173431D01*
D21*
X498704Y339801D02*
X515214Y356311D01*
X515214Y366471D01*
X500380Y381305D01*
X500380Y421640D01*
X500380Y471170D01*
X514655Y471170D01*
X515214Y470611D01*
D19*
X831850Y454660D03*
X831850Y422910D03*
X500380Y421640D03*
D20*
X642214Y470611D02*
X654050Y458775D01*
D19*
X654050Y422910D03*
D20*
X654050Y458775D01*
D19*
X660400Y571500D03*
D20*
X642214Y486824D02*
X642214Y470611D01*
X660400Y563060D02*
X660400Y571500D01*
X660400Y563060D02*
X663194Y560266D01*
X663194Y507805D01*
X642214Y486824D01*
D21*
X820014Y394411D02*
X831850Y406248D01*
X831850Y422910D01*
X831850Y454660D01*
D20*
X693014Y470611D02*
X693014Y436016D01*
X693420Y435610D01*
X693420Y434340D01*
D19*
X693420Y434340D03*
X580390Y433070D03*
D20*
X580390Y355367D01*
X583286Y352471D01*
X583286Y261976D01*
X576580Y255270D01*
X576580Y252730D01*
D19*
X576580Y252730D03*
X534670Y267970D03*
D20*
X534670Y341630D01*
X547580Y370425D02*
X553720Y375295D01*
X553720Y452120D01*
X547580Y370425D02*
X547580Y358350D01*
X534670Y341630D01*
D19*
X553720Y452120D03*
X845414Y219151D03*
D20*
X845414Y282651D01*
X842874Y285191D01*
X842874Y308051D01*
X845414Y310591D01*
X845414Y394411D01*
D21*
X511404Y314401D02*
X509575Y316230D01*
X480060Y316230D01*
X480060Y359110D01*
X478238Y362202D01*
X478238Y377673D01*
X482143Y380308D01*
X482143Y430530D01*
X482143Y447497D01*
X472440Y457200D02*
X444500Y457200D01*
X472440Y457200D02*
X482143Y447497D01*
X844550Y469748D02*
X845414Y470611D01*
X844550Y469748D02*
X844550Y441960D01*
X844550Y440690D01*
D19*
X844550Y441960D03*
X482143Y430530D03*
D20*
X888594Y249631D02*
X888594Y196291D01*
X888594Y249631D02*
X880974Y257251D01*
X880974Y292811D01*
D19*
X880974Y292811D03*
D21*
X481434Y296111D02*
X481434Y247291D01*
X481434Y296111D02*
X454254Y315671D01*
D20*
X540614Y394411D02*
X540614Y455165D01*
X529692Y466087D01*
X529692Y473608D01*
X526796Y476504D02*
X526796Y602996D01*
X526796Y476504D02*
X529692Y473608D01*
X526796Y602996D02*
X533400Y609600D01*
X920750Y609600D01*
X920750Y584200D02*
X558800Y584200D01*
X558800Y574490D01*
X545846Y561536D01*
X545846Y508254D01*
X577850Y476250D01*
X577850Y444500D01*
X565150Y431800D01*
X565150Y395275D01*
X566014Y394411D01*
X642214Y394411D02*
X642214Y455165D01*
X631292Y466087D01*
X631292Y557632D01*
X656590Y557530D01*
X651510Y558800D01*
D19*
X656590Y557530D03*
D20*
X679450Y406248D02*
X667614Y394411D01*
X679450Y406248D02*
X679450Y541020D01*
D19*
X679450Y541020D03*
X762000Y571500D03*
D20*
X762000Y541020D01*
X762000Y539750D01*
D19*
X762000Y541020D03*
D21*
X769214Y369011D02*
X769214Y363931D01*
X753974Y348691D01*
X753974Y285191D01*
X765404Y273761D01*
D19*
X765404Y273761D03*
D20*
X769214Y394411D02*
X769214Y455165D01*
X758292Y486308D02*
X751840Y492760D01*
X758292Y466087D02*
X769214Y455165D01*
X758292Y466087D02*
X758292Y486308D01*
D19*
X751840Y492760D03*
X736600Y571500D03*
D20*
X736600Y495300D01*
X751840Y492760D01*
X794614Y455165D02*
X794614Y394411D01*
X805536Y486766D02*
X806450Y487680D01*
X805536Y466087D02*
X794614Y455165D01*
X805536Y466087D02*
X805536Y486766D01*
D19*
X806450Y487680D03*
X711200Y571500D03*
D20*
X711200Y495300D01*
D19*
X711200Y495300D03*
D20*
X566014Y470611D02*
X533400Y503225D01*
X533400Y584200D01*
D19*
X533400Y584200D03*
D20*
X552450Y509575D02*
X591414Y470611D01*
X552450Y509575D02*
X552450Y558800D01*
D19*
X552450Y558800D03*
X572770Y543560D03*
D20*
X599440Y543560D01*
X603250Y539750D01*
X603250Y520700D01*
X615950Y508000D01*
X617220Y471018D01*
X616814Y470611D01*
D19*
X758190Y528320D03*
D20*
X769214Y490264D02*
X769214Y470611D01*
X764286Y522224D02*
X758190Y528320D01*
X764286Y522224D02*
X764286Y495191D01*
X769214Y490264D01*
D19*
X770890Y516890D03*
D20*
X770890Y494335D01*
X794614Y470611D01*
D19*
X622300Y558800D03*
D20*
X622300Y520700D01*
D19*
X622300Y520700D03*
X819150Y505460D03*
D20*
X819150Y471475D01*
X820014Y470611D01*
D19*
X641350Y539750D03*
D20*
X641350Y495300D01*
D19*
X641350Y495300D03*
M02*
