M48
;GenerationSoftware,Autodesk,EAGLE,8.7.1*%
;CreationDate,2018-04-12T17:58:54Z*%
FMAT,2
ICI,OFF
METRIC,TZ,000.000
T8C0.406
T7C0.800
T6C0.813
T5C0.900
T4C0.991
T3C1.000
T2C1.016
T1C1.900
%
G90
M71
T1
X46093Y19629
X53393Y19629
T2
X92075Y53340
X44450Y43180
X44450Y45720
X92075Y58420
X92075Y55880
X44450Y48260
X44450Y50800
X44450Y53340
X44450Y55880
X44450Y60960
X92075Y43180
X92075Y45720
X92075Y48260
X92075Y50800
X92075Y60960
X73619Y17343
X71079Y17343
X68539Y17343
X65999Y17343
X63459Y17343
X60919Y17343
X44450Y58420
T3
X45425Y35567
X90129Y32329
X45425Y27567
X84287Y18105
X90129Y27249
X79207Y18105
T4
X49870Y33980
X51140Y31440
X52410Y33980
T5
X48981Y36647
X51521Y36647
X53553Y36647
X54823Y28519
X52283Y28519
X57109Y27122
X57109Y34742
X68420Y32553
X68420Y35093
X65491Y36647
X65491Y29027
X76921Y36901
X76921Y29281
X56093Y36647
X79461Y36901
X79461Y29281
X51521Y52141
X51521Y49601
X82001Y36901
X82001Y34361
T6
X54061Y47061
X88859Y19629
X82001Y39441
X51521Y47061
X44379Y39075
X46919Y39075
X59141Y47061
X51521Y39441
X54061Y39441
X56601Y47061
X56601Y39441
X59141Y39441
X61681Y39441
X64221Y39441
X66761Y39441
X69301Y39441
X71841Y39441
X74381Y39441
X76921Y39441
X79461Y39441
X84541Y39441
X84541Y47061
X82001Y47061
X79461Y47061
X76921Y47061
X71841Y47061
X69301Y47061
X66761Y47061
X64221Y47061
X61681Y47061
X74381Y47061
X91399Y19629
T7
X73111Y33091
X73111Y30551
X73111Y35631
X48143Y24729
X49743Y24729
X51343Y24729
X48943Y23529
X50543Y23529
X45425Y31567
X45425Y29567
X45425Y33567
T8
X59141Y20137
X61681Y21153
X57277Y54356
X55245Y55880
X53340Y58420
X62230Y55880
X71120Y49530
X71120Y57150
X80645Y48768
X73660Y57150
X75184Y49276
X76540Y27376
X76200Y54102
X76200Y57150
X67945Y54102
X88097Y29281
X48214Y43053
X84455Y44196
X84541Y21915
X65659Y55753
X55372Y45212
X53467Y26797
X58039Y43307
X69342Y43434
X64135Y49530
X64135Y53975
X57658Y25273
X66040Y57150
X65405Y42291
X50038Y42164
X83185Y42291
X75819Y52832
X83185Y45466
X77089Y51689
X81915Y50546
X62230Y52070
M30