G04 EAGLE Gerber X2 export*
%TF.Part,Single*%
%TF.FileFunction,Legend,Bot,1*%
%TF.FilePolarity,Positive*%
%TF.GenerationSoftware,Autodesk,EAGLE,8.7.1*%
%TF.CreationDate,2018-04-12T17:58:56Z*%
G75*
%MOMM*%
%FSLAX34Y34*%
%LPD*%
%AMOC8*
5,1,8,0,0,1.08239X$1,22.5*%
G01*
%ADD10R,0.704850X0.019050*%
%ADD11R,1.123950X0.019050*%
%ADD12R,1.390650X0.019050*%
%ADD13R,1.619250X0.019050*%
%ADD14R,1.828800X0.019050*%
%ADD15R,2.000250X0.019050*%
%ADD16R,2.152650X0.019050*%
%ADD17R,2.305050X0.019050*%
%ADD18R,2.419350X0.019050*%
%ADD19R,2.552700X0.019050*%
%ADD20R,1.009650X0.019050*%
%ADD21R,1.219200X0.019050*%
%ADD22R,0.838200X0.019050*%
%ADD23R,0.990600X0.019050*%
%ADD24R,0.762000X0.019050*%
%ADD25R,0.933450X0.019050*%
%ADD26R,0.723900X0.019050*%
%ADD27R,0.876300X0.019050*%
%ADD28R,0.685800X0.019050*%
%ADD29R,0.819150X0.019050*%
%ADD30R,0.666750X0.019050*%
%ADD31R,0.800100X0.019050*%
%ADD32R,0.628650X0.019050*%
%ADD33R,0.781050X0.019050*%
%ADD34R,0.609600X0.019050*%
%ADD35R,0.571500X0.019050*%
%ADD36R,0.742950X0.019050*%
%ADD37R,0.533400X0.019050*%
%ADD38R,0.495300X0.019050*%
%ADD39R,0.476250X0.019050*%
%ADD40R,0.457200X0.019050*%
%ADD41R,0.438150X0.019050*%
%ADD42R,0.419100X0.019050*%
%ADD43R,0.400050X0.019050*%
%ADD44R,0.381000X0.019050*%
%ADD45R,0.342900X0.019050*%
%ADD46R,0.323850X0.019050*%
%ADD47R,0.304800X0.019050*%
%ADD48R,0.285750X0.019050*%
%ADD49R,0.266700X0.019050*%
%ADD50R,0.647700X0.019050*%
%ADD51R,0.247650X0.019050*%
%ADD52R,0.228600X0.019050*%
%ADD53R,0.190500X0.019050*%
%ADD54R,0.114300X0.019050*%
%ADD55R,0.361950X0.019050*%
%ADD56R,0.514350X0.019050*%
%ADD57R,0.552450X0.019050*%
%ADD58R,0.590550X0.019050*%
%ADD59R,0.857250X0.019050*%
%ADD60R,0.895350X0.019050*%
%ADD61R,0.914400X0.019050*%
%ADD62R,1.066800X0.019050*%
%ADD63R,1.809750X0.019050*%
%ADD64R,1.638300X0.019050*%
%ADD65R,1.504950X0.019050*%
%ADD66R,1.276350X0.019050*%
%ADD67R,0.952500X0.019050*%
%ADD68R,0.971550X0.019050*%
%ADD69R,0.095250X0.019050*%
%ADD70R,0.171450X0.019050*%
%ADD71R,1.028700X0.019050*%
%ADD72R,1.047750X0.019050*%
%ADD73R,1.085850X0.019050*%
%ADD74R,1.162050X0.019050*%
%ADD75R,1.181100X0.019050*%
%ADD76R,1.238250X0.019050*%
%ADD77R,1.295400X0.019050*%
%ADD78R,1.314450X0.019050*%
%ADD79R,1.352550X0.019050*%
%ADD80R,1.409700X0.019050*%
%ADD81R,1.428750X0.019050*%
%ADD82R,1.447800X0.019050*%
%ADD83R,1.466850X0.019050*%
%ADD84R,1.485900X0.019050*%
%ADD85R,1.524000X0.019050*%
%ADD86R,1.543050X0.019050*%
%ADD87R,1.562100X0.019050*%
%ADD88R,1.581150X0.019050*%
%ADD89R,1.676400X0.019050*%
%ADD90R,1.924050X0.019050*%
%ADD91R,2.019300X0.019050*%
%ADD92R,2.095500X0.019050*%
%ADD93R,2.171700X0.019050*%
%ADD94R,2.228850X0.019050*%
%ADD95R,1.733550X0.019050*%
%ADD96R,2.362200X0.019050*%
%ADD97R,1.790700X0.019050*%
%ADD98R,2.438400X0.019050*%
%ADD99R,1.866900X0.019050*%
%ADD100R,2.495550X0.019050*%
%ADD101R,2.533650X0.019050*%
%ADD102R,1.981200X0.019050*%
%ADD103R,2.590800X0.019050*%
%ADD104R,2.038350X0.019050*%
%ADD105R,2.647950X0.019050*%
%ADD106R,2.076450X0.019050*%
%ADD107R,2.686050X0.019050*%
%ADD108R,2.133600X0.019050*%
%ADD109R,2.743200X0.019050*%
%ADD110R,1.200150X0.019050*%
%ADD111R,2.800350X0.019050*%
%ADD112R,2.838450X0.019050*%
%ADD113R,1.143000X0.019050*%
%ADD114R,2.895600X0.019050*%
%ADD115R,2.933700X0.019050*%
%ADD116R,1.104900X0.019050*%
%ADD117R,1.695450X0.019050*%
%ADD118R,1.371600X0.019050*%
%ADD119R,1.333500X0.019050*%
%ADD120R,1.257300X0.019050*%
%ADD121R,1.657350X0.019050*%
%ADD122R,1.905000X0.019050*%
%ADD123R,2.209800X0.019050*%
%ADD124R,2.286000X0.019050*%
%ADD125R,2.457450X0.019050*%
%ADD126R,2.609850X0.019050*%
%ADD127R,2.705100X0.019050*%
%ADD128R,2.762250X0.019050*%
%ADD129R,2.857500X0.019050*%
%ADD130R,1.600200X0.019050*%
%ADD131R,2.190750X0.019050*%
%ADD132R,0.152400X0.019050*%
%ADD133R,0.076200X0.019050*%
%ADD134R,2.400300X0.019050*%
%ADD135R,2.476500X0.019050*%
%ADD136R,2.571750X0.019050*%
%ADD137R,2.914650X0.019050*%
%ADD138R,2.990850X0.019050*%
%ADD139R,3.048000X0.019050*%
%ADD140R,3.143250X0.019050*%
%ADD141R,3.200400X0.019050*%
%ADD142R,3.238500X0.019050*%
%ADD143R,3.162300X0.019050*%
%ADD144R,2.724150X0.019050*%
%ADD145R,2.781300X0.019050*%
%ADD146R,1.771650X0.019050*%
%ADD147R,2.819400X0.019050*%
%ADD148R,1.943100X0.019050*%
%ADD149R,1.714500X0.019050*%
%ADD150R,2.266950X0.019050*%
%ADD151R,2.324100X0.019050*%
%ADD152R,2.381250X0.019050*%
%ADD153R,3.028950X0.019050*%
%ADD154R,3.257550X0.019050*%
%ADD155R,3.371850X0.019050*%
%ADD156R,3.467100X0.019050*%
%ADD157R,3.562350X0.019050*%
%ADD158R,3.657600X0.019050*%
%ADD159R,3.771900X0.019050*%
%ADD160R,3.867150X0.019050*%
%ADD161R,3.962400X0.019050*%
%ADD162R,4.038600X0.019050*%
%ADD163R,4.114800X0.019050*%
%ADD164R,4.210050X0.019050*%
%ADD165R,0.209550X0.019050*%
%ADD166R,4.267200X0.019050*%
%ADD167R,4.343400X0.019050*%
%ADD168R,4.400550X0.019050*%
%ADD169R,4.476750X0.019050*%
%ADD170R,0.019050X0.019050*%
%ADD171R,0.057150X0.019050*%
%ADD172R,4.533900X0.019050*%
%ADD173R,4.572000X0.019050*%
%ADD174R,4.610100X0.019050*%
%ADD175R,4.514850X0.019050*%
%ADD176R,3.924300X0.019050*%
%ADD177R,3.333750X0.019050*%
%ADD178R,3.124200X0.019050*%
%ADD179R,3.276600X0.019050*%
%ADD180R,4.286250X0.019050*%
%ADD181R,3.086100X0.019050*%
%ADD182R,2.114550X0.019050*%
%ADD183R,1.847850X0.019050*%
%ADD184R,1.752600X0.019050*%
%ADD185R,2.247900X0.019050*%
%ADD186R,1.962150X0.019050*%
%ADD187R,0.133350X0.019050*%
%ADD188R,0.038100X0.019050*%
%ADD189C,0.000000*%


D10*
X631254Y488506D03*
D11*
X631444Y488696D03*
D12*
X631444Y488887D03*
D13*
X631635Y489077D03*
D14*
X631730Y489268D03*
D15*
X631825Y489458D03*
D16*
X632016Y489649D03*
D17*
X632016Y489839D03*
D18*
X632016Y490030D03*
D19*
X631920Y490220D03*
D20*
X640017Y490411D03*
D21*
X624872Y490411D03*
D22*
X641445Y490601D03*
D23*
X623157Y490601D03*
D24*
X642207Y490792D03*
D25*
X622300Y490792D03*
D26*
X642779Y490982D03*
D27*
X621443Y490982D03*
D28*
X643350Y491173D03*
D29*
X620776Y491173D03*
D30*
X643827Y491363D03*
D31*
X620109Y491363D03*
D32*
X644208Y491554D03*
D33*
X619633Y491554D03*
D34*
X644684Y491744D03*
D33*
X619062Y491744D03*
D35*
X645065Y491935D03*
D36*
X618490Y491935D03*
D35*
X645446Y492125D03*
D36*
X617919Y492125D03*
D37*
X645827Y492316D03*
D36*
X617538Y492316D03*
D38*
X646208Y492506D03*
D26*
X617061Y492506D03*
D39*
X646494Y492697D03*
D26*
X616680Y492697D03*
D40*
X646970Y492887D03*
D10*
X616204Y492887D03*
D41*
X647256Y493078D03*
D26*
X615728Y493078D03*
D42*
X647541Y493268D03*
D10*
X615252Y493268D03*
D43*
X647827Y493459D03*
D10*
X614871Y493459D03*
D44*
X648113Y493649D03*
D10*
X614490Y493649D03*
D45*
X648303Y493840D03*
D10*
X614109Y493840D03*
D46*
X648589Y494030D03*
D28*
X613632Y494030D03*
D46*
X648780Y494221D03*
D28*
X613251Y494221D03*
D47*
X649065Y494411D03*
D28*
X612870Y494411D03*
D47*
X649256Y494602D03*
D28*
X612489Y494602D03*
D47*
X649446Y494792D03*
D28*
X612108Y494792D03*
D48*
X649732Y494983D03*
D28*
X611727Y494983D03*
D49*
X649827Y495173D03*
D28*
X611346Y495173D03*
D49*
X650018Y495364D03*
D30*
X611061Y495364D03*
D48*
X650113Y495554D03*
D30*
X610680Y495554D03*
D48*
X650304Y495745D03*
D30*
X610299Y495745D03*
D49*
X650399Y495935D03*
D30*
X609918Y495935D03*
D49*
X650589Y496126D03*
D30*
X609537Y496126D03*
D49*
X650780Y496316D03*
D30*
X609156Y496316D03*
D49*
X650780Y496507D03*
D50*
X608870Y496507D03*
D49*
X650970Y496697D03*
D30*
X608584Y496697D03*
D51*
X651066Y496888D03*
D30*
X608203Y496888D03*
D49*
X651161Y497078D03*
D50*
X607917Y497078D03*
D49*
X651351Y497269D03*
D50*
X607536Y497269D03*
D49*
X651351Y497459D03*
D50*
X607155Y497459D03*
D51*
X651447Y497650D03*
D50*
X606965Y497650D03*
D49*
X651542Y497840D03*
D50*
X606584Y497840D03*
D51*
X651637Y498031D03*
D50*
X606203Y498031D03*
D49*
X651732Y498221D03*
D32*
X605917Y498221D03*
D49*
X651732Y498412D03*
D32*
X605536Y498412D03*
D49*
X651923Y498602D03*
D32*
X605346Y498602D03*
D49*
X651923Y498793D03*
D32*
X604965Y498793D03*
D51*
X652018Y498983D03*
D50*
X604679Y498983D03*
D49*
X652113Y499174D03*
D32*
X604393Y499174D03*
D49*
X652113Y499364D03*
D32*
X604012Y499364D03*
D51*
X652209Y499555D03*
D50*
X603726Y499555D03*
D51*
X652209Y499745D03*
D32*
X603441Y499745D03*
D49*
X652304Y499936D03*
D50*
X603155Y499936D03*
D49*
X652304Y500126D03*
D32*
X602869Y500126D03*
D51*
X652399Y500317D03*
D50*
X602583Y500317D03*
D51*
X652399Y500507D03*
D32*
X602298Y500507D03*
D51*
X652399Y500698D03*
D32*
X602107Y500698D03*
D51*
X652399Y500888D03*
D32*
X601726Y500888D03*
D51*
X652399Y501079D03*
D32*
X601536Y501079D03*
D51*
X652399Y501269D03*
D32*
X601155Y501269D03*
D51*
X652399Y501460D03*
D32*
X600964Y501460D03*
D51*
X652590Y501650D03*
D32*
X600583Y501650D03*
D51*
X652590Y501841D03*
D32*
X600393Y501841D03*
D51*
X652590Y502031D03*
D50*
X600107Y502031D03*
D51*
X652590Y502222D03*
D32*
X599821Y502222D03*
D51*
X652590Y502412D03*
D50*
X599535Y502412D03*
D51*
X652590Y502603D03*
D50*
X599345Y502603D03*
D52*
X652494Y502793D03*
D32*
X599059Y502793D03*
D52*
X652494Y502984D03*
D50*
X598773Y502984D03*
D52*
X652494Y503174D03*
D50*
X598583Y503174D03*
D51*
X652399Y503365D03*
D32*
X598297Y503365D03*
D51*
X652399Y503555D03*
D50*
X598011Y503555D03*
D51*
X652399Y503746D03*
D50*
X597821Y503746D03*
D51*
X652399Y503936D03*
D50*
X597630Y503936D03*
D51*
X652399Y504127D03*
D50*
X597249Y504127D03*
D51*
X652399Y504317D03*
D50*
X597059Y504317D03*
D51*
X652399Y504508D03*
D50*
X596868Y504508D03*
D51*
X652399Y504698D03*
D30*
X596583Y504698D03*
D49*
X652304Y504889D03*
D50*
X596297Y504889D03*
D49*
X652304Y505079D03*
D50*
X596106Y505079D03*
D51*
X652209Y505270D03*
D30*
X595821Y505270D03*
D51*
X652209Y505460D03*
D30*
X595630Y505460D03*
D49*
X652113Y505651D03*
D30*
X595440Y505651D03*
D49*
X652113Y505841D03*
D28*
X595154Y505841D03*
D49*
X652113Y506032D03*
D30*
X594868Y506032D03*
D51*
X652018Y506222D03*
D30*
X594678Y506222D03*
D53*
X686594Y506413D03*
D49*
X651923Y506413D03*
D30*
X594487Y506413D03*
D54*
X840708Y506603D03*
D51*
X686308Y506603D03*
D49*
X651923Y506603D03*
D30*
X594297Y506603D03*
D53*
X840327Y506794D03*
D47*
X686022Y506794D03*
D51*
X651828Y506794D03*
D28*
X594011Y506794D03*
D51*
X840042Y506984D03*
D45*
X685832Y506984D03*
D49*
X651732Y506984D03*
D30*
X593725Y506984D03*
D47*
X839756Y507175D03*
D55*
X685546Y507175D03*
D49*
X651732Y507175D03*
D30*
X593535Y507175D03*
D55*
X839280Y507365D03*
D44*
X685260Y507365D03*
D49*
X651542Y507365D03*
D30*
X593344Y507365D03*
D42*
X838803Y507556D03*
D43*
X684975Y507556D03*
D49*
X651542Y507556D03*
D28*
X593058Y507556D03*
D40*
X838422Y507746D03*
D42*
X684689Y507746D03*
D51*
X651447Y507746D03*
D28*
X592868Y507746D03*
D38*
X838041Y507937D03*
D42*
X684498Y507937D03*
D49*
X651351Y507937D03*
D28*
X592677Y507937D03*
D56*
X837756Y508127D03*
D42*
X684117Y508127D03*
D51*
X651256Y508127D03*
D28*
X592487Y508127D03*
D57*
X837375Y508318D03*
D42*
X683736Y508318D03*
D49*
X651161Y508318D03*
D28*
X592296Y508318D03*
D35*
X837089Y508508D03*
D42*
X683546Y508508D03*
D51*
X651066Y508508D03*
D10*
X592011Y508508D03*
D35*
X836708Y508699D03*
D41*
X683260Y508699D03*
D49*
X650970Y508699D03*
D10*
X591820Y508699D03*
D58*
X836422Y508889D03*
D41*
X683070Y508889D03*
D51*
X650875Y508889D03*
D28*
X591534Y508889D03*
D35*
X836136Y509080D03*
D41*
X682689Y509080D03*
D49*
X650780Y509080D03*
D28*
X591344Y509080D03*
D35*
X835755Y509270D03*
D41*
X682498Y509270D03*
D51*
X650685Y509270D03*
D28*
X591153Y509270D03*
D58*
X835470Y509461D03*
D40*
X682212Y509461D03*
D49*
X650589Y509461D03*
D28*
X590963Y509461D03*
D35*
X835184Y509651D03*
D40*
X682022Y509651D03*
D51*
X650494Y509651D03*
D10*
X590677Y509651D03*
D58*
X834898Y509842D03*
D40*
X681831Y509842D03*
D51*
X650304Y509842D03*
D10*
X590487Y509842D03*
D58*
X834708Y510032D03*
D39*
X681546Y510032D03*
D49*
X650208Y510032D03*
D10*
X590296Y510032D03*
D35*
X834422Y510223D03*
D40*
X681260Y510223D03*
D51*
X650113Y510223D03*
D10*
X590106Y510223D03*
D58*
X834136Y510413D03*
D40*
X681069Y510413D03*
D51*
X649923Y510413D03*
D10*
X589915Y510413D03*
D58*
X833946Y510604D03*
D39*
X680784Y510604D03*
D49*
X649827Y510604D03*
D10*
X589725Y510604D03*
D58*
X833755Y510794D03*
D39*
X680593Y510794D03*
D51*
X649732Y510794D03*
D10*
X589534Y510794D03*
D58*
X833565Y510985D03*
D39*
X680403Y510985D03*
D51*
X649542Y510985D03*
D10*
X589344Y510985D03*
D58*
X833374Y511175D03*
D39*
X680212Y511175D03*
D49*
X649446Y511175D03*
D10*
X589153Y511175D03*
D58*
X832993Y511366D03*
D38*
X679926Y511366D03*
D51*
X649351Y511366D03*
D10*
X588963Y511366D03*
D58*
X832803Y511556D03*
D38*
X679736Y511556D03*
D51*
X649161Y511556D03*
D26*
X588677Y511556D03*
D58*
X832612Y511747D03*
D38*
X679545Y511747D03*
D49*
X649065Y511747D03*
D10*
X588391Y511747D03*
D58*
X832422Y511937D03*
D38*
X679355Y511937D03*
D49*
X648875Y511937D03*
D10*
X588201Y511937D03*
D58*
X832231Y512128D03*
D38*
X679164Y512128D03*
D51*
X648780Y512128D03*
D10*
X588010Y512128D03*
D34*
X831945Y512318D03*
D56*
X678879Y512318D03*
D51*
X648589Y512318D03*
D10*
X587820Y512318D03*
D34*
X831755Y512509D03*
D56*
X678688Y512509D03*
D51*
X648399Y512509D03*
D10*
X587629Y512509D03*
D34*
X831564Y512699D03*
D56*
X678498Y512699D03*
D49*
X648303Y512699D03*
D10*
X587439Y512699D03*
D34*
X831374Y512890D03*
D56*
X678307Y512890D03*
D49*
X648113Y512890D03*
D10*
X587248Y512890D03*
D34*
X831183Y513080D03*
D56*
X678117Y513080D03*
D51*
X648018Y513080D03*
D10*
X587058Y513080D03*
D58*
X830898Y513271D03*
D56*
X677926Y513271D03*
D51*
X647827Y513271D03*
D10*
X586867Y513271D03*
D58*
X830707Y513461D03*
D56*
X677736Y513461D03*
D51*
X647637Y513461D03*
D10*
X586677Y513461D03*
D58*
X830517Y513652D03*
D37*
X677450Y513652D03*
D49*
X647541Y513652D03*
D10*
X586486Y513652D03*
D34*
X830231Y513842D03*
D37*
X677259Y513842D03*
D49*
X647351Y513842D03*
D10*
X586296Y513842D03*
D34*
X830040Y514033D03*
D37*
X677069Y514033D03*
D49*
X647160Y514033D03*
D10*
X586105Y514033D03*
D34*
X829850Y514223D03*
D37*
X676878Y514223D03*
D49*
X646970Y514223D03*
D10*
X585915Y514223D03*
D34*
X829659Y514414D03*
D37*
X676688Y514414D03*
D49*
X646779Y514414D03*
D10*
X585724Y514414D03*
D34*
X829469Y514604D03*
D37*
X676497Y514604D03*
D49*
X646589Y514604D03*
D10*
X585534Y514604D03*
D34*
X829278Y514795D03*
D37*
X676307Y514795D03*
D49*
X646398Y514795D03*
D10*
X585343Y514795D03*
D34*
X829088Y514985D03*
D37*
X676116Y514985D03*
D49*
X646208Y514985D03*
D26*
X585248Y514985D03*
D34*
X828897Y515176D03*
D37*
X675926Y515176D03*
D48*
X646113Y515176D03*
D26*
X585057Y515176D03*
D34*
X828707Y515366D03*
D37*
X675735Y515366D03*
D48*
X645922Y515366D03*
D26*
X584867Y515366D03*
D34*
X828516Y515557D03*
D37*
X675545Y515557D03*
D48*
X645732Y515557D03*
D26*
X584676Y515557D03*
D34*
X828326Y515747D03*
D37*
X675354Y515747D03*
D48*
X645541Y515747D03*
D26*
X584486Y515747D03*
D34*
X828135Y515938D03*
D37*
X675164Y515938D03*
D48*
X645351Y515938D03*
D26*
X584295Y515938D03*
D34*
X827945Y516128D03*
D37*
X674973Y516128D03*
D48*
X645160Y516128D03*
D26*
X584105Y516128D03*
D34*
X827754Y516319D03*
D37*
X674783Y516319D03*
D48*
X644970Y516319D03*
D26*
X583914Y516319D03*
D32*
X827469Y516509D03*
D37*
X674592Y516509D03*
D48*
X644779Y516509D03*
D36*
X583819Y516509D03*
D32*
X827278Y516700D03*
D37*
X674402Y516700D03*
D47*
X644493Y516700D03*
D36*
X583629Y516700D03*
D32*
X827088Y516890D03*
D37*
X674211Y516890D03*
D47*
X644303Y516890D03*
D26*
X583533Y516890D03*
D32*
X826897Y517081D03*
D37*
X674021Y517081D03*
D47*
X644112Y517081D03*
D26*
X583343Y517081D03*
D32*
X826707Y517271D03*
D37*
X673830Y517271D03*
D47*
X643922Y517271D03*
D26*
X583152Y517271D03*
D32*
X826516Y517462D03*
D37*
X673640Y517462D03*
D47*
X643731Y517462D03*
D36*
X583057Y517462D03*
D32*
X826326Y517652D03*
D37*
X673449Y517652D03*
D47*
X643541Y517652D03*
D36*
X582867Y517652D03*
D50*
X826230Y517843D03*
D56*
X673354Y517843D03*
D46*
X643255Y517843D03*
D36*
X582676Y517843D03*
D50*
X826040Y518033D03*
D56*
X673164Y518033D03*
D46*
X643065Y518033D03*
D24*
X582581Y518033D03*
D50*
X825849Y518224D03*
D37*
X673068Y518224D03*
D46*
X642874Y518224D03*
D24*
X582390Y518224D03*
D50*
X825659Y518414D03*
D37*
X672878Y518414D03*
D45*
X642588Y518414D03*
D24*
X582200Y518414D03*
D50*
X825468Y518605D03*
D37*
X672687Y518605D03*
D45*
X642398Y518605D03*
D24*
X582009Y518605D03*
D50*
X825278Y518795D03*
D37*
X672497Y518795D03*
D46*
X642112Y518795D03*
D33*
X581914Y518795D03*
D50*
X825087Y518986D03*
D37*
X672306Y518986D03*
D46*
X641922Y518986D03*
D33*
X581724Y518986D03*
D50*
X824897Y519176D03*
D37*
X672116Y519176D03*
D45*
X641636Y519176D03*
D33*
X581533Y519176D03*
D50*
X824706Y519367D03*
D37*
X672116Y519367D03*
D45*
X641445Y519367D03*
D31*
X581438Y519367D03*
D50*
X824516Y519557D03*
D37*
X671925Y519557D03*
D45*
X641255Y519557D03*
D33*
X581343Y519557D03*
D50*
X824325Y519748D03*
D37*
X671735Y519748D03*
D55*
X640969Y519748D03*
D33*
X581152Y519748D03*
D50*
X824135Y519938D03*
D37*
X671544Y519938D03*
D55*
X640779Y519938D03*
D31*
X581057Y519938D03*
D30*
X824040Y520129D03*
D57*
X671449Y520129D03*
D45*
X640493Y520129D03*
D31*
X580866Y520129D03*
D50*
X823754Y520319D03*
D35*
X671354Y520319D03*
D55*
X640207Y520319D03*
D29*
X580771Y520319D03*
D30*
X823659Y520510D03*
D57*
X671259Y520510D03*
D55*
X640017Y520510D03*
D29*
X580581Y520510D03*
D30*
X823468Y520700D03*
D35*
X671163Y520700D03*
D44*
X639731Y520700D03*
D29*
X580390Y520700D03*
D30*
X823278Y520891D03*
D58*
X671068Y520891D03*
D44*
X639540Y520891D03*
D22*
X580295Y520891D03*
D30*
X823087Y521081D03*
D58*
X670878Y521081D03*
D43*
X639255Y521081D03*
D29*
X580200Y521081D03*
D30*
X822897Y521272D03*
D34*
X670782Y521272D03*
D44*
X638969Y521272D03*
D29*
X580009Y521272D03*
D30*
X822706Y521462D03*
D58*
X670687Y521462D03*
D44*
X638778Y521462D03*
D22*
X579914Y521462D03*
D30*
X822516Y521653D03*
D34*
X670592Y521653D03*
D43*
X638493Y521653D03*
D22*
X579723Y521653D03*
D28*
X822420Y521843D03*
D34*
X670401Y521843D03*
D43*
X638302Y521843D03*
D59*
X579628Y521843D03*
D28*
X822230Y522034D03*
D34*
X670211Y522034D03*
D43*
X637921Y522034D03*
D59*
X579438Y522034D03*
D28*
X822039Y522224D03*
D32*
X670116Y522224D03*
D42*
X637635Y522224D03*
D59*
X579247Y522224D03*
D30*
X821944Y522415D03*
D34*
X670020Y522415D03*
D42*
X637445Y522415D03*
D59*
X579247Y522415D03*
D30*
X821754Y522605D03*
D32*
X669925Y522605D03*
D41*
X637159Y522605D03*
D59*
X579057Y522605D03*
D28*
X821658Y522796D03*
D32*
X669735Y522796D03*
D42*
X636873Y522796D03*
D59*
X578866Y522796D03*
D28*
X821468Y522986D03*
D50*
X669639Y522986D03*
D41*
X636588Y522986D03*
D27*
X578771Y522986D03*
D28*
X821277Y523177D03*
D50*
X669449Y523177D03*
D41*
X636207Y523177D03*
D59*
X578676Y523177D03*
D28*
X821087Y523367D03*
D32*
X669354Y523367D03*
D41*
X636016Y523367D03*
D59*
X578485Y523367D03*
D10*
X820992Y523558D03*
D50*
X669258Y523558D03*
D40*
X635730Y523558D03*
D27*
X578390Y523558D03*
D10*
X820801Y523748D03*
D50*
X669068Y523748D03*
D40*
X635349Y523748D03*
D27*
X578199Y523748D03*
D10*
X820611Y523939D03*
D30*
X668973Y523939D03*
D40*
X635159Y523939D03*
D27*
X578009Y523939D03*
D26*
X820515Y524129D03*
D50*
X668877Y524129D03*
D40*
X634778Y524129D03*
D60*
X577914Y524129D03*
D26*
X820325Y524320D03*
D50*
X668687Y524320D03*
D39*
X634492Y524320D03*
D27*
X577818Y524320D03*
D26*
X820134Y524510D03*
D30*
X668592Y524510D03*
D39*
X634111Y524510D03*
D27*
X577628Y524510D03*
D26*
X820134Y524701D03*
D30*
X668401Y524701D03*
D38*
X633825Y524701D03*
D60*
X577533Y524701D03*
D26*
X819944Y524891D03*
D30*
X668401Y524891D03*
D39*
X633540Y524891D03*
D60*
X577342Y524891D03*
D36*
X819849Y525082D03*
D30*
X668211Y525082D03*
D39*
X633159Y525082D03*
D27*
X577247Y525082D03*
D36*
X819658Y525272D03*
D28*
X668115Y525272D03*
D38*
X632873Y525272D03*
D27*
X577056Y525272D03*
D24*
X819563Y525463D03*
D30*
X668020Y525463D03*
D38*
X632492Y525463D03*
D60*
X576961Y525463D03*
D24*
X819372Y525653D03*
D28*
X667925Y525653D03*
D38*
X632111Y525653D03*
D60*
X576771Y525653D03*
D24*
X819182Y525844D03*
D28*
X667734Y525844D03*
D38*
X631730Y525844D03*
D27*
X576675Y525844D03*
D24*
X819182Y526034D03*
D10*
X667639Y526034D03*
D38*
X631349Y526034D03*
D60*
X576580Y526034D03*
D24*
X818991Y526225D03*
D28*
X667544Y526225D03*
D56*
X630873Y526225D03*
D60*
X576390Y526225D03*
D33*
X818896Y526415D03*
D10*
X667449Y526415D03*
D56*
X630492Y526415D03*
D60*
X576199Y526415D03*
D33*
X818706Y526606D03*
D10*
X667258Y526606D03*
D38*
X630015Y526606D03*
D60*
X576199Y526606D03*
D33*
X818515Y526796D03*
D10*
X667258Y526796D03*
D56*
X629539Y526796D03*
D60*
X576009Y526796D03*
D33*
X818325Y526987D03*
D10*
X667068Y526987D03*
D56*
X629158Y526987D03*
D60*
X575818Y526987D03*
D31*
X818229Y527177D03*
D26*
X666972Y527177D03*
D56*
X628587Y527177D03*
D27*
X575723Y527177D03*
D33*
X818134Y527368D03*
D26*
X666782Y527368D03*
D37*
X628110Y527368D03*
D60*
X575628Y527368D03*
D33*
X817944Y527558D03*
D26*
X666782Y527558D03*
D57*
X627444Y527558D03*
D60*
X575437Y527558D03*
D33*
X817753Y527749D03*
D26*
X666591Y527749D03*
D35*
X626967Y527749D03*
D27*
X575342Y527749D03*
D33*
X817563Y527939D03*
D36*
X666496Y527939D03*
D58*
X626301Y527939D03*
D27*
X575151Y527939D03*
D31*
X817467Y528130D03*
D26*
X666401Y528130D03*
D32*
X625729Y528130D03*
D60*
X575056Y528130D03*
D33*
X817372Y528320D03*
D36*
X666306Y528320D03*
D50*
X625062Y528320D03*
D27*
X574961Y528320D03*
D33*
X817182Y528511D03*
D24*
X666210Y528511D03*
D30*
X624396Y528511D03*
D27*
X574770Y528511D03*
D31*
X817086Y528701D03*
D36*
X666115Y528701D03*
D26*
X623538Y528701D03*
D27*
X574580Y528701D03*
D31*
X816896Y528892D03*
D24*
X666020Y528892D03*
X622586Y528892D03*
D27*
X574580Y528892D03*
D33*
X816801Y529082D03*
D24*
X665829Y529082D03*
D29*
X621729Y529082D03*
D53*
X604869Y529082D03*
D27*
X574389Y529082D03*
D31*
X816705Y529273D03*
D24*
X665829Y529273D03*
D61*
X620681Y529273D03*
D49*
X605822Y529273D03*
D59*
X574294Y529273D03*
D31*
X816515Y529463D03*
D33*
X665734Y529463D03*
D62*
X619157Y529463D03*
D44*
X606774Y529463D03*
D59*
X574104Y529463D03*
D29*
X816420Y529654D03*
D33*
X665544Y529654D03*
D63*
X614490Y529654D03*
D27*
X574008Y529654D03*
D29*
X816420Y529844D03*
D33*
X665544Y529844D03*
D64*
X614394Y529844D03*
D59*
X573913Y529844D03*
D29*
X816229Y530035D03*
D33*
X665353Y530035D03*
D65*
X614299Y530035D03*
D59*
X573723Y530035D03*
D22*
X816134Y530225D03*
D33*
X665353Y530225D03*
D66*
X613918Y530225D03*
D59*
X573723Y530225D03*
X816039Y530416D03*
D33*
X665163Y530416D03*
D62*
X613823Y530416D03*
D59*
X573532Y530416D03*
D22*
X815943Y530606D03*
D33*
X665163Y530606D03*
D26*
X613442Y530606D03*
D59*
X573532Y530606D03*
X815848Y530797D03*
D33*
X664972Y530797D03*
D59*
X573342Y530797D03*
D27*
X815753Y530987D03*
D31*
X664877Y530987D03*
D22*
X573246Y530987D03*
D59*
X815658Y531178D03*
D33*
X664782Y531178D03*
D59*
X573151Y531178D03*
D27*
X815562Y531368D03*
D33*
X664782Y531368D03*
D22*
X573056Y531368D03*
D60*
X815467Y531559D03*
D33*
X664591Y531559D03*
D59*
X572961Y531559D03*
D60*
X815277Y531749D03*
D33*
X664591Y531749D03*
D22*
X572865Y531749D03*
D60*
X815277Y531940D03*
D33*
X664401Y531940D03*
D22*
X572675Y531940D03*
D60*
X815086Y532130D03*
D31*
X664305Y532130D03*
D22*
X572675Y532130D03*
D60*
X815086Y532321D03*
D33*
X664210Y532321D03*
D22*
X572484Y532321D03*
D60*
X814896Y532511D03*
D24*
X664115Y532511D03*
D22*
X572484Y532511D03*
D60*
X814705Y532702D03*
D33*
X664020Y532702D03*
D22*
X572294Y532702D03*
D60*
X814705Y532892D03*
D33*
X663829Y532892D03*
D29*
X572199Y532892D03*
D60*
X814515Y533083D03*
D33*
X663829Y533083D03*
D22*
X572103Y533083D03*
D61*
X814419Y533273D03*
D33*
X663639Y533273D03*
D22*
X571913Y533273D03*
D60*
X814324Y533464D03*
D24*
X663543Y533464D03*
D59*
X571818Y533464D03*
D60*
X814134Y533654D03*
D33*
X663448Y533654D03*
D22*
X571722Y533654D03*
D60*
X813943Y533845D03*
D24*
X663353Y533845D03*
D59*
X571627Y533845D03*
D60*
X813943Y534035D03*
D33*
X663258Y534035D03*
D59*
X571437Y534035D03*
D60*
X813753Y534226D03*
D24*
X663162Y534226D03*
D22*
X571341Y534226D03*
D27*
X813657Y534416D03*
D33*
X663067Y534416D03*
D59*
X571246Y534416D03*
D60*
X813562Y534607D03*
D33*
X662877Y534607D03*
D59*
X571056Y534607D03*
D27*
X813467Y534797D03*
D33*
X662877Y534797D03*
D27*
X570960Y534797D03*
X813276Y534988D03*
D54*
X782225Y534988D03*
D33*
X662686Y534988D03*
D27*
X570770Y534988D03*
D60*
X813181Y535178D03*
D51*
X781939Y535178D03*
D33*
X662686Y535178D03*
D60*
X570675Y535178D03*
D27*
X813086Y535369D03*
D46*
X781749Y535369D03*
D31*
X662591Y535369D03*
D27*
X570579Y535369D03*
X812895Y535559D03*
D43*
X781558Y535559D03*
D31*
X662400Y535559D03*
D60*
X570484Y535559D03*
D27*
X812895Y535750D03*
D41*
X781368Y535750D03*
D31*
X662400Y535750D03*
D60*
X570294Y535750D03*
D27*
X812705Y535940D03*
D38*
X781082Y535940D03*
D31*
X662210Y535940D03*
D60*
X570103Y535940D03*
D27*
X812705Y536131D03*
D57*
X780987Y536131D03*
D29*
X662115Y536131D03*
D60*
X570103Y536131D03*
D27*
X812514Y536321D03*
D58*
X780796Y536321D03*
D29*
X662115Y536321D03*
D60*
X569913Y536321D03*
X812419Y536512D03*
D32*
X780606Y536512D03*
D29*
X661924Y536512D03*
D61*
X569817Y536512D03*
D27*
X812324Y536702D03*
D30*
X780415Y536702D03*
D22*
X661829Y536702D03*
D60*
X569722Y536702D03*
X812229Y536893D03*
D10*
X780225Y536893D03*
D29*
X661734Y536893D03*
D61*
X569627Y536893D03*
D27*
X812133Y537083D03*
D36*
X780034Y537083D03*
D22*
X661638Y537083D03*
D61*
X569436Y537083D03*
D60*
X812038Y537274D03*
D33*
X779844Y537274D03*
D59*
X661543Y537274D03*
D61*
X569436Y537274D03*
D27*
X811943Y537464D03*
D31*
X779748Y537464D03*
D59*
X661353Y537464D03*
D61*
X569246Y537464D03*
D60*
X811848Y537655D03*
D22*
X779558Y537655D03*
D59*
X661353Y537655D03*
D25*
X569151Y537655D03*
D27*
X811752Y537845D03*
D22*
X779367Y537845D03*
D27*
X661257Y537845D03*
D61*
X569055Y537845D03*
D60*
X811657Y538036D03*
D27*
X779177Y538036D03*
D59*
X661162Y538036D03*
D25*
X568960Y538036D03*
D60*
X811467Y538226D03*
X779082Y538226D03*
D27*
X661067Y538226D03*
D25*
X568770Y538226D03*
D60*
X811467Y538417D03*
D25*
X778891Y538417D03*
D60*
X660972Y538417D03*
D25*
X568770Y538417D03*
D61*
X811371Y538607D03*
D67*
X778796Y538607D03*
D27*
X660876Y538607D03*
D25*
X568579Y538607D03*
D60*
X811276Y538798D03*
D68*
X778701Y538798D03*
D60*
X660781Y538798D03*
D67*
X568484Y538798D03*
D61*
X811181Y538988D03*
D68*
X778510Y538988D03*
D69*
X753555Y538988D03*
D61*
X660686Y538988D03*
D25*
X568389Y538988D03*
D61*
X811181Y539179D03*
D20*
X778320Y539179D03*
D70*
X753364Y539179D03*
D60*
X660591Y539179D03*
D67*
X568293Y539179D03*
D61*
X810990Y539369D03*
D71*
X778224Y539369D03*
D51*
X753174Y539369D03*
D61*
X660495Y539369D03*
D67*
X568103Y539369D03*
D25*
X810895Y539560D03*
D72*
X778129Y539560D03*
D48*
X752793Y539560D03*
D61*
X660495Y539560D03*
D67*
X568103Y539560D03*
D61*
X810800Y539750D03*
D62*
X777843Y539750D03*
D45*
X752507Y539750D03*
D25*
X660400Y539750D03*
D67*
X567912Y539750D03*
D25*
X810705Y539941D03*
D73*
X777748Y539941D03*
D43*
X752221Y539941D03*
D61*
X660305Y539941D03*
D67*
X567722Y539941D03*
D61*
X810609Y540131D03*
D11*
X777558Y540131D03*
D41*
X752031Y540131D03*
D25*
X660210Y540131D03*
D67*
X567722Y540131D03*
D25*
X810514Y540322D03*
D74*
X777367Y540322D03*
D38*
X751745Y540322D03*
D67*
X660114Y540322D03*
X567531Y540322D03*
X810419Y540512D03*
D75*
X777081Y540512D03*
D37*
X751554Y540512D03*
D25*
X660019Y540512D03*
D68*
X567436Y540512D03*
D25*
X810324Y540703D03*
D76*
X776796Y540703D03*
D57*
X751269Y540703D03*
D67*
X659924Y540703D03*
X567341Y540703D03*
X810228Y540893D03*
D66*
X776605Y540893D03*
D58*
X751078Y540893D03*
D67*
X659924Y540893D03*
X567150Y540893D03*
X810228Y541084D03*
D77*
X776319Y541084D03*
D50*
X750792Y541084D03*
D68*
X659829Y541084D03*
D67*
X567150Y541084D03*
X810038Y541274D03*
D78*
X776224Y541274D03*
D30*
X750697Y541274D03*
D67*
X659733Y541274D03*
X566960Y541274D03*
D68*
X809943Y541465D03*
D79*
X776034Y541465D03*
D28*
X750411Y541465D03*
D68*
X659638Y541465D03*
D67*
X566769Y541465D03*
X809847Y541655D03*
D79*
X775843Y541655D03*
D26*
X750221Y541655D03*
D68*
X659638Y541655D03*
D67*
X566769Y541655D03*
D68*
X809752Y541846D03*
D12*
X775653Y541846D03*
D24*
X750030Y541846D03*
D68*
X659448Y541846D03*
D67*
X566579Y541846D03*
D23*
X809657Y542036D03*
D80*
X775557Y542036D03*
D24*
X749840Y542036D03*
D68*
X659448Y542036D03*
D25*
X566484Y542036D03*
D68*
X809562Y542227D03*
D81*
X775272Y542227D03*
D33*
X749745Y542227D03*
D68*
X659448Y542227D03*
D67*
X566388Y542227D03*
D23*
X809466Y542417D03*
D82*
X775176Y542417D03*
D33*
X749554Y542417D03*
D68*
X659257Y542417D03*
D67*
X566198Y542417D03*
D20*
X809371Y542608D03*
D83*
X775081Y542608D03*
D31*
X749459Y542608D03*
D68*
X659257Y542608D03*
D25*
X566103Y542608D03*
D23*
X809276Y542798D03*
D84*
X774795Y542798D03*
D29*
X749364Y542798D03*
D23*
X659162Y542798D03*
D25*
X565912Y542798D03*
D20*
X809181Y542989D03*
D65*
X774700Y542989D03*
D29*
X749173Y542989D03*
D68*
X659067Y542989D03*
D25*
X565722Y542989D03*
D71*
X809085Y543179D03*
D85*
X774605Y543179D03*
D22*
X749078Y543179D03*
D68*
X659067Y543179D03*
D61*
X565626Y543179D03*
D20*
X808990Y543370D03*
D86*
X774319Y543370D03*
D29*
X748983Y543370D03*
D23*
X658971Y543370D03*
D61*
X565436Y543370D03*
D71*
X808895Y543560D03*
D87*
X774224Y543560D03*
D22*
X748887Y543560D03*
D68*
X658876Y543560D03*
D60*
X565341Y543560D03*
D20*
X808800Y543751D03*
D88*
X774129Y543751D03*
D22*
X748697Y543751D03*
D23*
X658781Y543751D03*
D60*
X565150Y543751D03*
D71*
X808704Y543941D03*
D88*
X773938Y543941D03*
D22*
X748697Y543941D03*
D68*
X658686Y543941D03*
D60*
X564960Y543941D03*
D71*
X808704Y544132D03*
D61*
X777272Y544132D03*
D58*
X768604Y544132D03*
D59*
X748602Y544132D03*
D68*
X658686Y544132D03*
D27*
X564864Y544132D03*
D71*
X808514Y544322D03*
D60*
X777367Y544322D03*
D35*
X768318Y544322D03*
D59*
X748411Y544322D03*
D23*
X658590Y544322D03*
D27*
X564674Y544322D03*
D71*
X808514Y544513D03*
D27*
X777272Y544513D03*
D37*
X767937Y544513D03*
D59*
X748411Y544513D03*
D68*
X658495Y544513D03*
D27*
X564674Y544513D03*
D72*
X808419Y544703D03*
D27*
X777272Y544703D03*
D38*
X767556Y544703D03*
D59*
X748221Y544703D03*
D68*
X658495Y544703D03*
D27*
X564483Y544703D03*
D71*
X808323Y544894D03*
D59*
X777177Y544894D03*
D38*
X767175Y544894D03*
D59*
X748221Y544894D03*
D28*
X694976Y544894D03*
D68*
X658305Y544894D03*
D27*
X564293Y544894D03*
D71*
X808323Y545084D03*
D59*
X777177Y545084D03*
D39*
X766890Y545084D03*
D59*
X748030Y545084D03*
D23*
X695166Y545084D03*
D68*
X658305Y545084D03*
D27*
X564293Y545084D03*
D71*
X808133Y545275D03*
D59*
X777177Y545275D03*
D40*
X766604Y545275D03*
D59*
X748030Y545275D03*
D76*
X695071Y545275D03*
D67*
X658209Y545275D03*
D40*
X586010Y545275D03*
D27*
X564102Y545275D03*
D71*
X808133Y545465D03*
D22*
X777081Y545465D03*
D41*
X766318Y545465D03*
D59*
X747840Y545465D03*
D80*
X695166Y545465D03*
D68*
X658114Y545465D03*
D26*
X585819Y545465D03*
D59*
X564007Y545465D03*
D72*
X808038Y545656D03*
D22*
X777081Y545656D03*
D42*
X766032Y545656D03*
D59*
X747840Y545656D03*
D87*
X694976Y545656D03*
D68*
X658114Y545656D03*
D61*
X585629Y545656D03*
D27*
X563912Y545656D03*
D71*
X807942Y545846D03*
D22*
X777081Y545846D03*
D44*
X765651Y545846D03*
D59*
X747649Y545846D03*
D89*
X694976Y545846D03*
D67*
X658019Y545846D03*
D72*
X585534Y545846D03*
D59*
X563817Y545846D03*
D72*
X807847Y546037D03*
D22*
X776891Y546037D03*
D55*
X765366Y546037D03*
D59*
X747649Y546037D03*
D63*
X694881Y546037D03*
D67*
X658019Y546037D03*
D75*
X585438Y546037D03*
D27*
X563721Y546037D03*
D72*
X807847Y546227D03*
D22*
X776891Y546227D03*
D46*
X764985Y546227D03*
D59*
X747459Y546227D03*
D90*
X694881Y546227D03*
D68*
X657924Y546227D03*
D77*
X585248Y546227D03*
D60*
X563626Y546227D03*
D71*
X807752Y546418D03*
D22*
X776891Y546418D03*
D48*
X764604Y546418D03*
D59*
X747459Y546418D03*
D91*
X694785Y546418D03*
D67*
X657828Y546418D03*
D80*
X585057Y546418D03*
D27*
X563531Y546418D03*
D72*
X807657Y546608D03*
D29*
X776796Y546608D03*
D52*
X764318Y546608D03*
D59*
X747268Y546608D03*
D92*
X694785Y546608D03*
D67*
X657828Y546608D03*
D84*
X584867Y546608D03*
D60*
X563436Y546608D03*
D71*
X807561Y546799D03*
D22*
X776700Y546799D03*
D70*
X764032Y546799D03*
D59*
X747268Y546799D03*
D93*
X694785Y546799D03*
D67*
X657638Y546799D03*
D88*
X584772Y546799D03*
D27*
X563340Y546799D03*
D71*
X807561Y546989D03*
D22*
X776700Y546989D03*
D59*
X747078Y546989D03*
D94*
X694690Y546989D03*
D67*
X657638Y546989D03*
D89*
X584676Y546989D03*
D60*
X563245Y546989D03*
D71*
X807371Y547180D03*
D29*
X776605Y547180D03*
D59*
X747078Y547180D03*
D17*
X694690Y547180D03*
D67*
X657638Y547180D03*
D95*
X584581Y547180D03*
D61*
X563150Y547180D03*
D71*
X807371Y547370D03*
D29*
X776605Y547370D03*
D59*
X746887Y547370D03*
D96*
X694595Y547370D03*
D25*
X657543Y547370D03*
D97*
X584486Y547370D03*
D60*
X563055Y547370D03*
D71*
X807371Y547561D03*
D22*
X776510Y547561D03*
D59*
X746887Y547561D03*
D98*
X694595Y547561D03*
D67*
X657447Y547561D03*
D99*
X584295Y547561D03*
D61*
X562959Y547561D03*
D71*
X807180Y547751D03*
D29*
X776415Y547751D03*
D22*
X746792Y547751D03*
D100*
X694500Y547751D03*
D67*
X657447Y547751D03*
D90*
X584200Y547751D03*
D61*
X562959Y547751D03*
D71*
X807180Y547942D03*
D29*
X776415Y547942D03*
D59*
X746697Y547942D03*
D101*
X694500Y547942D03*
D25*
X657352Y547942D03*
D102*
X584105Y547942D03*
D61*
X562769Y547942D03*
D71*
X807180Y548132D03*
D29*
X776415Y548132D03*
D22*
X746601Y548132D03*
D103*
X694404Y548132D03*
D67*
X657257Y548132D03*
D104*
X584010Y548132D03*
D61*
X562769Y548132D03*
D71*
X806990Y548323D03*
D29*
X776224Y548323D03*
D59*
X746506Y548323D03*
D105*
X694309Y548323D03*
D67*
X657257Y548323D03*
D106*
X583819Y548323D03*
D61*
X562578Y548323D03*
D71*
X806990Y548513D03*
D29*
X776224Y548513D03*
D59*
X746506Y548513D03*
D107*
X694309Y548513D03*
D25*
X657162Y548513D03*
D108*
X583724Y548513D03*
D25*
X562483Y548513D03*
D20*
X806895Y548704D03*
D31*
X776129Y548704D03*
D22*
X746411Y548704D03*
D109*
X694214Y548704D03*
D25*
X657162Y548704D03*
D110*
X588391Y548704D03*
D24*
X576675Y548704D03*
D61*
X562388Y548704D03*
D71*
X806799Y548894D03*
D29*
X776034Y548894D03*
D59*
X746316Y548894D03*
D111*
X694119Y548894D03*
D67*
X657066Y548894D03*
D74*
X588772Y548894D03*
D10*
X576009Y548894D03*
D25*
X562293Y548894D03*
D71*
X806799Y549085D03*
D29*
X776034Y549085D03*
D22*
X746220Y549085D03*
D112*
X694119Y549085D03*
D25*
X656971Y549085D03*
D113*
X588867Y549085D03*
D28*
X575532Y549085D03*
D61*
X562197Y549085D03*
D20*
X806704Y549275D03*
D31*
X775938Y549275D03*
D22*
X746220Y549275D03*
D114*
X694023Y549275D03*
D25*
X656971Y549275D03*
D11*
X589153Y549275D03*
D50*
X575151Y549275D03*
D25*
X562102Y549275D03*
D71*
X806609Y549466D03*
D29*
X775843Y549466D03*
D22*
X746030Y549466D03*
D115*
X694023Y549466D03*
D25*
X656971Y549466D03*
D116*
X589248Y549466D03*
D32*
X574675Y549466D03*
D61*
X562007Y549466D03*
D71*
X806609Y549656D03*
D29*
X775843Y549656D03*
D22*
X746030Y549656D03*
D117*
X700405Y549656D03*
D116*
X684498Y549656D03*
D67*
X656876Y549656D03*
D73*
X589344Y549656D03*
D34*
X574389Y549656D03*
D25*
X561912Y549656D03*
D71*
X806418Y549847D03*
D31*
X775748Y549847D03*
D59*
X745935Y549847D03*
D86*
X701358Y549847D03*
D22*
X682974Y549847D03*
D25*
X656781Y549847D03*
D73*
X589534Y549847D03*
D35*
X574008Y549847D03*
D61*
X561816Y549847D03*
D71*
X806418Y550037D03*
D29*
X775653Y550037D03*
D22*
X745839Y550037D03*
D83*
X701929Y550037D03*
D26*
X682022Y550037D03*
D25*
X656781Y550037D03*
D62*
X589629Y550037D03*
D35*
X573627Y550037D03*
D25*
X561721Y550037D03*
D20*
X806323Y550228D03*
D29*
X775653Y550228D03*
D22*
X745839Y550228D03*
D12*
X702310Y550228D03*
D50*
X681450Y550228D03*
D67*
X656685Y550228D03*
D47*
X619919Y550228D03*
D72*
X589725Y550228D03*
D57*
X573342Y550228D03*
D61*
X561626Y550228D03*
D71*
X806228Y550418D03*
D31*
X775557Y550418D03*
D22*
X745649Y550418D03*
D118*
X702596Y550418D03*
D58*
X680784Y550418D03*
D25*
X656590Y550418D03*
D44*
X619538Y550418D03*
D62*
X589820Y550418D03*
D56*
X572961Y550418D03*
D25*
X561531Y550418D03*
D71*
X806228Y550609D03*
D29*
X775462Y550609D03*
D22*
X745649Y550609D03*
D119*
X702977Y550609D03*
D57*
X680403Y550609D03*
D25*
X656590Y550609D03*
D40*
X619157Y550609D03*
D72*
X589915Y550609D03*
D38*
X572675Y550609D03*
D61*
X561435Y550609D03*
D20*
X806133Y550799D03*
D29*
X775462Y550799D03*
D22*
X745649Y550799D03*
D78*
X703263Y550799D03*
D38*
X679926Y550799D03*
D25*
X656590Y550799D03*
D56*
X618871Y550799D03*
D71*
X590010Y550799D03*
D38*
X572484Y550799D03*
D25*
X561340Y550799D03*
D71*
X806037Y550990D03*
D31*
X775367Y550990D03*
D22*
X745458Y550990D03*
D66*
X703453Y550990D03*
D38*
X679545Y550990D03*
D25*
X656400Y550990D03*
D35*
X618585Y550990D03*
D20*
X590106Y550990D03*
D39*
X572199Y550990D03*
D61*
X561245Y550990D03*
D20*
X805942Y551180D03*
D29*
X775272Y551180D03*
D22*
X745458Y551180D03*
D120*
X703739Y551180D03*
D40*
X679164Y551180D03*
D25*
X656400Y551180D03*
D34*
X618204Y551180D03*
D20*
X590106Y551180D03*
D39*
X571818Y551180D03*
D25*
X561150Y551180D03*
D20*
X805942Y551371D03*
D29*
X775272Y551371D03*
X745363Y551371D03*
D76*
X704025Y551371D03*
D40*
X678783Y551371D03*
D25*
X656400Y551371D03*
D10*
X617728Y551371D03*
D20*
X590106Y551371D03*
D40*
X571532Y551371D03*
D61*
X561054Y551371D03*
D71*
X805847Y551561D03*
D31*
X775176Y551561D03*
D22*
X745268Y551561D03*
D21*
X704120Y551561D03*
D41*
X678498Y551561D03*
D25*
X656400Y551561D03*
D31*
X617252Y551561D03*
D20*
X590106Y551561D03*
D40*
X571341Y551561D03*
D61*
X560864Y551561D03*
D20*
X805752Y551752D03*
D29*
X775081Y551752D03*
D22*
X745268Y551752D03*
D21*
X704310Y551752D03*
D42*
X678212Y551752D03*
D25*
X656209Y551752D03*
X616585Y551752D03*
D23*
X590201Y551752D03*
D41*
X571056Y551752D03*
D61*
X560864Y551752D03*
D71*
X805656Y551942D03*
D29*
X775081Y551942D03*
D22*
X745077Y551942D03*
D110*
X704596Y551942D03*
D42*
X677831Y551942D03*
D25*
X656209Y551942D03*
D116*
X615728Y551942D03*
D20*
X590296Y551942D03*
D41*
X570865Y551942D03*
D61*
X560673Y551942D03*
D20*
X805561Y552133D03*
D29*
X774891Y552133D03*
D22*
X745077Y552133D03*
D75*
X704691Y552133D03*
D42*
X677640Y552133D03*
D25*
X656209Y552133D03*
D120*
X614966Y552133D03*
D20*
X590296Y552133D03*
D41*
X570675Y552133D03*
D61*
X560673Y552133D03*
D20*
X805561Y552323D03*
D29*
X774891Y552323D03*
D22*
X745077Y552323D03*
D75*
X704882Y552323D03*
D43*
X677355Y552323D03*
D25*
X656019Y552323D03*
D118*
X614394Y552323D03*
D20*
X590296Y552323D03*
D41*
X570294Y552323D03*
D61*
X560483Y552323D03*
D71*
X805466Y552514D03*
D29*
X774891Y552514D03*
D22*
X744887Y552514D03*
D75*
X705072Y552514D03*
D43*
X676974Y552514D03*
D25*
X656019Y552514D03*
D84*
X613823Y552514D03*
D71*
X590201Y552514D03*
D41*
X570103Y552514D03*
D61*
X560292Y552514D03*
D20*
X805371Y552704D03*
D29*
X774700Y552704D03*
D22*
X744887Y552704D03*
D74*
X705168Y552704D03*
D43*
X676783Y552704D03*
D25*
X656019Y552704D03*
D86*
X613537Y552704D03*
D71*
X590201Y552704D03*
D41*
X569913Y552704D03*
D61*
X560292Y552704D03*
D71*
X805275Y552895D03*
D29*
X774700Y552895D03*
X744792Y552895D03*
D113*
X705263Y552895D03*
D44*
X676497Y552895D03*
D25*
X656019Y552895D03*
D87*
X613251Y552895D03*
D71*
X590201Y552895D03*
D41*
X569532Y552895D03*
D61*
X560102Y552895D03*
D71*
X805275Y553085D03*
D22*
X774605Y553085D03*
X744696Y553085D03*
D113*
X705453Y553085D03*
D44*
X676307Y553085D03*
D25*
X655828Y553085D03*
D87*
X613251Y553085D03*
D71*
X590201Y553085D03*
D41*
X569341Y553085D03*
D60*
X560007Y553085D03*
D20*
X805180Y553276D03*
D29*
X774510Y553276D03*
D22*
X744696Y553276D03*
D113*
X705644Y553276D03*
D44*
X676116Y553276D03*
D25*
X655828Y553276D03*
D86*
X613347Y553276D03*
D71*
X590201Y553276D03*
D41*
X569151Y553276D03*
D61*
X559911Y553276D03*
D71*
X805085Y553466D03*
D22*
X774414Y553466D03*
X744506Y553466D03*
D11*
X705739Y553466D03*
D44*
X675735Y553466D03*
D25*
X655828Y553466D03*
D65*
X613537Y553466D03*
D20*
X590106Y553466D03*
D41*
X568960Y553466D03*
D61*
X559721Y553466D03*
D20*
X804990Y553657D03*
D22*
X774414Y553657D03*
X744506Y553657D03*
D11*
X705930Y553657D03*
D44*
X675545Y553657D03*
D67*
X655733Y553657D03*
D81*
X613918Y553657D03*
D71*
X590010Y553657D03*
D40*
X568674Y553657D03*
D61*
X559721Y553657D03*
D20*
X804990Y553847D03*
D29*
X774319Y553847D03*
D22*
X744506Y553847D03*
D11*
X705930Y553847D03*
D55*
X675259Y553847D03*
D25*
X655638Y553847D03*
D119*
X614394Y553847D03*
D71*
X590010Y553847D03*
D40*
X568484Y553847D03*
D61*
X559530Y553847D03*
D20*
X804799Y554038D03*
D22*
X774224Y554038D03*
X744315Y554038D03*
D11*
X706120Y554038D03*
D55*
X675069Y554038D03*
D25*
X655638Y554038D03*
D75*
X614966Y554038D03*
D71*
X590010Y554038D03*
D40*
X568293Y554038D03*
D60*
X559435Y554038D03*
D20*
X804799Y554228D03*
D22*
X774224Y554228D03*
X744315Y554228D03*
D116*
X706215Y554228D03*
D55*
X674878Y554228D03*
D25*
X655638Y554228D03*
D71*
X615728Y554228D03*
X590010Y554228D03*
D40*
X567912Y554228D03*
D61*
X559340Y554228D03*
D71*
X804704Y554419D03*
D22*
X774033Y554419D03*
D29*
X744220Y554419D03*
D73*
X706311Y554419D03*
D45*
X674592Y554419D03*
D67*
X655542Y554419D03*
D68*
X616014Y554419D03*
D72*
X589915Y554419D03*
D40*
X567722Y554419D03*
D61*
X559149Y554419D03*
D20*
X804609Y554609D03*
D22*
X774033Y554609D03*
X744125Y554609D03*
D116*
X706406Y554609D03*
D47*
X674402Y554609D03*
D25*
X655447Y554609D03*
D68*
X616014Y554609D03*
D72*
X589915Y554609D03*
D39*
X567436Y554609D03*
D60*
X559054Y554609D03*
D20*
X804609Y554800D03*
D59*
X773938Y554800D03*
D22*
X744125Y554800D03*
D73*
X706501Y554800D03*
D47*
X674211Y554800D03*
D25*
X655447Y554800D03*
D68*
X616014Y554800D03*
D72*
X589915Y554800D03*
D39*
X567246Y554800D03*
D61*
X558959Y554800D03*
D20*
X804418Y554990D03*
D22*
X773843Y554990D03*
D29*
X744030Y554990D03*
D73*
X706692Y554990D03*
D49*
X674021Y554990D03*
D67*
X655352Y554990D03*
D68*
X616014Y554990D03*
D62*
X589820Y554990D03*
D39*
X567055Y554990D03*
D61*
X558768Y554990D03*
D20*
X804418Y555181D03*
D22*
X773843Y555181D03*
X743934Y555181D03*
D73*
X706692Y555181D03*
D52*
X673830Y555181D03*
D67*
X655352Y555181D03*
X615918Y555181D03*
D62*
X589820Y555181D03*
D38*
X566769Y555181D03*
D60*
X558673Y555181D03*
D71*
X804323Y555371D03*
D59*
X773748Y555371D03*
D22*
X743934Y555371D03*
D62*
X706787Y555371D03*
D53*
X673640Y555371D03*
D67*
X655352Y555371D03*
X615918Y555371D03*
D72*
X589725Y555371D03*
D38*
X566579Y555371D03*
D61*
X558578Y555371D03*
D20*
X804228Y555562D03*
D22*
X773652Y555562D03*
X743744Y555562D03*
D62*
X706977Y555562D03*
D54*
X673449Y555562D03*
D67*
X655161Y555562D03*
X615918Y555562D03*
D62*
X589629Y555562D03*
D56*
X566293Y555562D03*
D61*
X558387Y555562D03*
D20*
X804228Y555752D03*
D59*
X773557Y555752D03*
D22*
X743744Y555752D03*
D62*
X706977Y555752D03*
D67*
X655161Y555752D03*
D25*
X615823Y555752D03*
D62*
X589629Y555752D03*
D56*
X566103Y555752D03*
D61*
X558197Y555752D03*
D20*
X804037Y555943D03*
D22*
X773462Y555943D03*
D59*
X743649Y555943D03*
D72*
X707073Y555943D03*
D67*
X655161Y555943D03*
D25*
X615823Y555943D03*
D62*
X589629Y555943D03*
D37*
X565817Y555943D03*
D61*
X558197Y555943D03*
D20*
X804037Y556133D03*
D59*
X773367Y556133D03*
D22*
X743553Y556133D03*
D62*
X707168Y556133D03*
D67*
X655161Y556133D03*
D25*
X615823Y556133D03*
D73*
X589534Y556133D03*
D84*
X560864Y556133D03*
D71*
X803942Y556324D03*
D59*
X773367Y556324D03*
D22*
X743553Y556324D03*
D72*
X707263Y556324D03*
D68*
X655066Y556324D03*
D25*
X615823Y556324D03*
D62*
X589439Y556324D03*
D84*
X560673Y556324D03*
D20*
X803847Y556514D03*
D59*
X773176Y556514D03*
X743458Y556514D03*
D71*
X707358Y556514D03*
D68*
X655066Y556514D03*
D61*
X615728Y556514D03*
D73*
X589344Y556514D03*
D84*
X560483Y556514D03*
D20*
X803847Y556705D03*
D59*
X773176Y556705D03*
D22*
X743363Y556705D03*
D71*
X707358Y556705D03*
D68*
X655066Y556705D03*
D61*
X615728Y556705D03*
D73*
X589344Y556705D03*
D83*
X560388Y556705D03*
D20*
X803656Y556895D03*
D59*
X772986Y556895D03*
X743268Y556895D03*
D71*
X707549Y556895D03*
D23*
X654971Y556895D03*
D61*
X615728Y556895D03*
D73*
X589344Y556895D03*
D83*
X560197Y556895D03*
D20*
X803656Y557086D03*
D59*
X772986Y557086D03*
X743268Y557086D03*
D71*
X707549Y557086D03*
D23*
X654971Y557086D03*
D60*
X615633Y557086D03*
D73*
X589153Y557086D03*
D83*
X560007Y557086D03*
D71*
X803561Y557276D03*
D27*
X772890Y557276D03*
D59*
X743077Y557276D03*
D20*
X707644Y557276D03*
D68*
X654876Y557276D03*
D60*
X615633Y557276D03*
D73*
X589153Y557276D03*
D82*
X559911Y557276D03*
D20*
X803466Y557467D03*
D59*
X772795Y557467D03*
X743077Y557467D03*
D23*
X707739Y557467D03*
X654780Y557467D03*
D60*
X615633Y557467D03*
D116*
X589058Y557467D03*
D82*
X559721Y557467D03*
D20*
X803466Y557657D03*
D27*
X772700Y557657D03*
X742982Y557657D03*
D23*
X707739Y557657D03*
X654780Y557657D03*
D27*
X615537Y557657D03*
D73*
X588963Y557657D03*
D82*
X559530Y557657D03*
D20*
X803275Y557848D03*
D27*
X772700Y557848D03*
D59*
X742887Y557848D03*
D68*
X707835Y557848D03*
D23*
X654780Y557848D03*
D27*
X615537Y557848D03*
D73*
X588963Y557848D03*
D81*
X559435Y557848D03*
D20*
X803275Y558038D03*
D27*
X772509Y558038D03*
D59*
X742887Y558038D03*
D23*
X707930Y558038D03*
D68*
X654685Y558038D03*
D27*
X615537Y558038D03*
D116*
X588867Y558038D03*
D81*
X559245Y558038D03*
D71*
X803180Y558229D03*
D27*
X772509Y558229D03*
X742791Y558229D03*
D120*
X706596Y558229D03*
D23*
X654590Y558229D03*
D27*
X615347Y558229D03*
D73*
X588772Y558229D03*
D12*
X559054Y558229D03*
D20*
X803085Y558419D03*
D27*
X772509Y558419D03*
X742791Y558419D03*
D84*
X705453Y558419D03*
D23*
X654590Y558419D03*
D27*
X615347Y558419D03*
D116*
X588677Y558419D03*
D12*
X558864Y558419D03*
D20*
X803085Y558610D03*
D27*
X772319Y558610D03*
X742601Y558610D03*
D121*
X704596Y558610D03*
D68*
X654495Y558610D03*
D59*
X615252Y558610D03*
D73*
X588582Y558610D03*
D118*
X558768Y558610D03*
D20*
X802894Y558800D03*
D60*
X772224Y558800D03*
X742506Y558800D03*
D63*
X704025Y558800D03*
D68*
X654495Y558800D03*
D59*
X615252Y558800D03*
D116*
X588486Y558800D03*
D118*
X558578Y558800D03*
D20*
X802894Y558991D03*
D27*
X772128Y558991D03*
X742410Y558991D03*
D122*
X703548Y558991D03*
D23*
X654399Y558991D03*
D59*
X615252Y558991D03*
D116*
X588486Y558991D03*
D79*
X558483Y558991D03*
D20*
X802894Y559181D03*
D60*
X772033Y559181D03*
X742315Y559181D03*
D104*
X703072Y559181D03*
D68*
X654304Y559181D03*
D22*
X615156Y559181D03*
D116*
X588296Y559181D03*
D79*
X558292Y559181D03*
D20*
X802704Y559372D03*
D27*
X771938Y559372D03*
D60*
X742315Y559372D03*
D108*
X702596Y559372D03*
D68*
X654304Y559372D03*
D22*
X615156Y559372D03*
D73*
X588201Y559372D03*
D119*
X558197Y559372D03*
D20*
X802704Y559562D03*
D60*
X771843Y559562D03*
D61*
X742220Y559562D03*
D123*
X702405Y559562D03*
D67*
X654209Y559562D03*
D29*
X615061Y559562D03*
D116*
X588105Y559562D03*
D119*
X558006Y559562D03*
D20*
X802513Y559753D03*
D27*
X771747Y559753D03*
D60*
X742125Y559753D03*
D124*
X702024Y559753D03*
D68*
X654114Y559753D03*
D29*
X615061Y559753D03*
D73*
X588010Y559753D03*
D78*
X557911Y559753D03*
D20*
X802513Y559943D03*
D27*
X771747Y559943D03*
D61*
X742029Y559943D03*
D96*
X701834Y559943D03*
D68*
X654114Y559943D03*
D22*
X614966Y559943D03*
D73*
X588010Y559943D03*
D78*
X557721Y559943D03*
D71*
X802418Y560134D03*
D27*
X771557Y560134D03*
D61*
X741839Y560134D03*
D125*
X701548Y560134D03*
D67*
X654018Y560134D03*
D29*
X614871Y560134D03*
D73*
X587820Y560134D03*
D77*
X557625Y560134D03*
D20*
X802323Y560324D03*
D60*
X771462Y560324D03*
D61*
X741839Y560324D03*
D101*
X701358Y560324D03*
D67*
X654018Y560324D03*
D29*
X614871Y560324D03*
D73*
X587820Y560324D03*
D77*
X557435Y560324D03*
D20*
X802323Y560515D03*
D60*
X771462Y560515D03*
D25*
X741744Y560515D03*
D126*
X701167Y560515D03*
D67*
X654018Y560515D03*
D31*
X614775Y560515D03*
D73*
X587629Y560515D03*
D66*
X557340Y560515D03*
D71*
X802227Y560705D03*
D27*
X771366Y560705D03*
D25*
X741553Y560705D03*
D127*
X701072Y560705D03*
D25*
X653923Y560705D03*
D31*
X614775Y560705D03*
D73*
X587629Y560705D03*
D120*
X557244Y560705D03*
D20*
X802132Y560896D03*
D60*
X771271Y560896D03*
D25*
X741553Y560896D03*
D128*
X700977Y560896D03*
D67*
X653828Y560896D03*
D31*
X614775Y560896D03*
D73*
X587439Y560896D03*
D120*
X557054Y560896D03*
D71*
X802037Y561086D03*
D27*
X771176Y561086D03*
D67*
X741458Y561086D03*
D129*
X700881Y561086D03*
D67*
X653828Y561086D03*
D33*
X614680Y561086D03*
D73*
X587439Y561086D03*
D76*
X556959Y561086D03*
D71*
X802037Y561277D03*
D27*
X770985Y561277D03*
D67*
X741267Y561277D03*
D74*
X709549Y561277D03*
D80*
X693071Y561277D03*
D25*
X653733Y561277D03*
D31*
X614585Y561277D03*
D73*
X587248Y561277D03*
D76*
X556768Y561277D03*
D20*
X801942Y561467D03*
D27*
X770985Y561467D03*
D68*
X741172Y561467D03*
D75*
X709644Y561467D03*
D116*
X691166Y561467D03*
D68*
X653733Y561467D03*
D33*
X614490Y561467D03*
D73*
X587248Y561467D03*
D21*
X556673Y561467D03*
D71*
X801846Y561658D03*
D27*
X770795Y561658D03*
D23*
X741077Y561658D03*
D21*
X709835Y561658D03*
D23*
X690213Y561658D03*
D72*
X653923Y561658D03*
D33*
X614490Y561658D03*
D73*
X587058Y561658D03*
D21*
X556482Y561658D03*
D71*
X801846Y561848D03*
D27*
X770795Y561848D03*
D68*
X740982Y561848D03*
D76*
X709930Y561848D03*
D25*
X689547Y561848D03*
D11*
X654114Y561848D03*
D24*
X614394Y561848D03*
D62*
X586962Y561848D03*
D110*
X556387Y561848D03*
D71*
X801656Y562039D03*
D27*
X770604Y562039D03*
D23*
X740886Y562039D03*
D66*
X709930Y562039D03*
D61*
X688880Y562039D03*
D110*
X654304Y562039D03*
D24*
X614394Y562039D03*
D73*
X586867Y562039D03*
D110*
X556387Y562039D03*
D71*
X801656Y562229D03*
D27*
X770604Y562229D03*
D20*
X740791Y562229D03*
D66*
X709930Y562229D03*
D60*
X688404Y562229D03*
D78*
X654495Y562229D03*
D24*
X614394Y562229D03*
D62*
X586772Y562229D03*
D110*
X556197Y562229D03*
D71*
X801656Y562420D03*
D27*
X770414Y562420D03*
D20*
X740601Y562420D03*
D77*
X710025Y562420D03*
D60*
X688023Y562420D03*
D12*
X654495Y562420D03*
D24*
X614204Y562420D03*
D62*
X586581Y562420D03*
D74*
X556006Y562420D03*
D71*
X801465Y562610D03*
D27*
X770414Y562610D03*
D71*
X740505Y562610D03*
D78*
X710121Y562610D03*
D27*
X687546Y562610D03*
D65*
X654495Y562610D03*
D24*
X614204Y562610D03*
D62*
X586581Y562610D03*
D74*
X556006Y562610D03*
D71*
X801465Y562801D03*
D27*
X770223Y562801D03*
D72*
X740410Y562801D03*
D78*
X710121Y562801D03*
D59*
X687261Y562801D03*
D130*
X654399Y562801D03*
D36*
X614109Y562801D03*
D62*
X586391Y562801D03*
D113*
X555720Y562801D03*
D72*
X801370Y562991D03*
D59*
X770128Y562991D03*
D72*
X740220Y562991D03*
D78*
X710121Y562991D03*
D59*
X686880Y562991D03*
D95*
X654114Y562991D03*
D36*
X614109Y562991D03*
D62*
X586391Y562991D03*
D113*
X555720Y562991D03*
D71*
X801275Y563182D03*
D59*
X770128Y563182D03*
D62*
X740124Y563182D03*
D77*
X710025Y563182D03*
D59*
X686499Y563182D03*
D99*
X653637Y563182D03*
D26*
X614013Y563182D03*
D72*
X586296Y563182D03*
D116*
X555530Y563182D03*
D72*
X801180Y563372D03*
D59*
X769938Y563372D03*
D62*
X739934Y563372D03*
D45*
X714597Y563372D03*
D25*
X708025Y563372D03*
D59*
X686118Y563372D03*
D102*
X653447Y563372D03*
D26*
X614013Y563372D03*
D72*
X586105Y563372D03*
D116*
X555339Y563372D03*
D72*
X801180Y563563D03*
D59*
X769747Y563563D03*
D73*
X739839Y563563D03*
D48*
X714693Y563563D03*
D60*
X707835Y563563D03*
D59*
X685737Y563563D03*
D92*
X653256Y563563D03*
D36*
X613918Y563563D03*
D72*
X586105Y563563D03*
D116*
X555339Y563563D03*
D71*
X801084Y563753D03*
D59*
X769747Y563753D03*
D116*
X739743Y563753D03*
D51*
X714693Y563753D03*
D27*
X707739Y563753D03*
D22*
X685451Y563753D03*
D131*
X652971Y563753D03*
D26*
X613823Y563753D03*
D72*
X585915Y563753D03*
D73*
X555244Y563753D03*
D72*
X800989Y563944D03*
D22*
X769652Y563944D03*
D73*
X739648Y563944D03*
D132*
X714597Y563944D03*
D27*
X707739Y563944D03*
D22*
X685070Y563944D03*
D17*
X652780Y563944D03*
D26*
X613823Y563944D03*
D71*
X585819Y563944D03*
D62*
X554958Y563944D03*
D72*
X800989Y564134D03*
D22*
X769461Y564134D03*
D116*
X739553Y564134D03*
D133*
X714407Y564134D03*
D59*
X707644Y564134D03*
X684784Y564134D03*
D134*
X652494Y564134D03*
D26*
X613823Y564134D03*
D72*
X585724Y564134D03*
D62*
X554958Y564134D03*
X800894Y564325D03*
D22*
X769461Y564325D03*
D116*
X739362Y564325D03*
D59*
X707454Y564325D03*
D22*
X684498Y564325D03*
D135*
X652304Y564325D03*
D10*
X613728Y564325D03*
D71*
X585629Y564325D03*
X554768Y564325D03*
D72*
X800799Y564515D03*
D22*
X769271Y564515D03*
D11*
X739267Y564515D03*
D59*
X707454Y564515D03*
D22*
X684308Y564515D03*
D136*
X652018Y564515D03*
D26*
X613632Y564515D03*
D20*
X585534Y564515D03*
D71*
X554768Y564515D03*
D72*
X800799Y564706D03*
D22*
X769271Y564706D03*
D74*
X739077Y564706D03*
D22*
X707358Y564706D03*
X683927Y564706D03*
D105*
X651828Y564706D03*
D26*
X613632Y564706D03*
D71*
X585438Y564706D03*
X554577Y564706D03*
D62*
X800703Y564896D03*
D22*
X769080Y564896D03*
D74*
X738886Y564896D03*
D29*
X707263Y564896D03*
D22*
X683736Y564896D03*
D109*
X651542Y564896D03*
D10*
X613537Y564896D03*
D20*
X585343Y564896D03*
X554482Y564896D03*
D62*
X800703Y565087D03*
D29*
X768985Y565087D03*
D75*
X738791Y565087D03*
D29*
X707263Y565087D03*
D59*
X683451Y565087D03*
D112*
X651256Y565087D03*
D10*
X613537Y565087D03*
D20*
X585153Y565087D03*
X554292Y565087D03*
D62*
X800513Y565277D03*
D29*
X768985Y565277D03*
D110*
X738696Y565277D03*
D29*
X707073Y565277D03*
D22*
X683165Y565277D03*
D137*
X651066Y565277D03*
D10*
X613537Y565277D03*
D20*
X585153Y565277D03*
D23*
X554196Y565277D03*
D62*
X800513Y565468D03*
D29*
X768795Y565468D03*
D110*
X738505Y565468D03*
D29*
X707073Y565468D03*
D22*
X682974Y565468D03*
D138*
X650875Y565468D03*
D10*
X613347Y565468D03*
D20*
X584962Y565468D03*
D68*
X554101Y565468D03*
D73*
X800418Y565658D03*
D31*
X768699Y565658D03*
D21*
X738410Y565658D03*
D31*
X706977Y565658D03*
D22*
X682784Y565658D03*
D139*
X650589Y565658D03*
D10*
X613347Y565658D03*
D23*
X584867Y565658D03*
D68*
X553911Y565658D03*
D73*
X800418Y565849D03*
D29*
X768604Y565849D03*
D21*
X738219Y565849D03*
D31*
X706977Y565849D03*
D59*
X682498Y565849D03*
D140*
X650304Y565849D03*
D28*
X613251Y565849D03*
D23*
X584867Y565849D03*
D67*
X553815Y565849D03*
D73*
X800418Y566039D03*
D31*
X768509Y566039D03*
D76*
X738124Y566039D03*
D31*
X706787Y566039D03*
D22*
X682212Y566039D03*
D141*
X650018Y566039D03*
D28*
X613251Y566039D03*
D23*
X584676Y566039D03*
D67*
X553625Y566039D03*
D116*
X800322Y566230D03*
D31*
X768509Y566230D03*
D59*
X740029Y566230D03*
D55*
X733552Y566230D03*
D31*
X706787Y566230D03*
D22*
X682022Y566230D03*
D142*
X649637Y566230D03*
D28*
X613251Y566230D03*
D68*
X584581Y566230D03*
D25*
X553530Y566230D03*
D116*
X800322Y566420D03*
D31*
X768318Y566420D03*
D22*
X739934Y566420D03*
D45*
X733266Y566420D03*
D33*
X706692Y566420D03*
D22*
X681831Y566420D03*
D142*
X649065Y566420D03*
D30*
X613156Y566420D03*
D23*
X584486Y566420D03*
D25*
X553339Y566420D03*
D11*
X800227Y566611D03*
D31*
X768318Y566611D03*
D22*
X739934Y566611D03*
D45*
X733076Y566611D03*
D31*
X706596Y566611D03*
D22*
X681641Y566611D03*
D143*
X648113Y566611D03*
D28*
X613061Y566611D03*
D68*
X584391Y566611D03*
D61*
X553244Y566611D03*
D11*
X800227Y566801D03*
D33*
X768223Y566801D03*
D29*
X739839Y566801D03*
D45*
X732695Y566801D03*
D33*
X706501Y566801D03*
D22*
X681450Y566801D03*
D112*
X645732Y566801D03*
D28*
X613061Y566801D03*
D68*
X584200Y566801D03*
D60*
X553149Y566801D03*
D132*
X807371Y566992D03*
D74*
X800227Y566992D03*
D31*
X768128Y566992D03*
D22*
X739743Y566992D03*
D45*
X732504Y566992D03*
D24*
X706406Y566992D03*
D22*
X681260Y566992D03*
D144*
X644589Y566992D03*
D30*
X612966Y566992D03*
D68*
X584200Y566992D03*
D60*
X552958Y566992D03*
D85*
X802037Y567182D03*
D33*
X768033Y567182D03*
D22*
X739743Y567182D03*
D45*
X732314Y567182D03*
D33*
X706311Y567182D03*
D22*
X681069Y567182D03*
D109*
X644112Y567182D03*
D30*
X612966Y567182D03*
D68*
X584010Y567182D03*
D27*
X552863Y567182D03*
D121*
X802513Y567373D03*
D24*
X767937Y567373D03*
D29*
X739648Y567373D03*
D45*
X732123Y567373D03*
D24*
X706215Y567373D03*
D22*
X680879Y567373D03*
D145*
X643731Y567373D03*
D28*
X612870Y567373D03*
D68*
X583819Y567373D03*
D27*
X552672Y567373D03*
D146*
X803085Y567563D03*
D33*
X767842Y567563D03*
D29*
X739648Y567563D03*
D45*
X731933Y567563D03*
D24*
X706025Y567563D03*
D22*
X680688Y567563D03*
D147*
X643350Y567563D03*
D28*
X612870Y567563D03*
D68*
X583819Y567563D03*
D27*
X552482Y567563D03*
D99*
X803370Y567754D03*
D33*
X767842Y567754D03*
D29*
X739458Y567754D03*
D55*
X731647Y567754D03*
D24*
X706025Y567754D03*
D22*
X680498Y567754D03*
D129*
X642969Y567754D03*
D30*
X612775Y567754D03*
D68*
X583629Y567754D03*
D59*
X552387Y567754D03*
D148*
X803751Y567944D03*
D33*
X767652Y567944D03*
D29*
X739458Y567944D03*
D55*
X731457Y567944D03*
D24*
X705834Y567944D03*
D29*
X680403Y567944D03*
D72*
X652018Y567944D03*
D97*
X636873Y567944D03*
D30*
X612775Y567944D03*
D67*
X583533Y567944D03*
D59*
X552196Y567944D03*
D91*
X803942Y568135D03*
D24*
X767556Y568135D03*
D29*
X739267Y568135D03*
D55*
X731266Y568135D03*
D36*
X705739Y568135D03*
D29*
X680212Y568135D03*
D71*
X651923Y568135D03*
D149*
X636111Y568135D03*
D28*
X612680Y568135D03*
D68*
X583438Y568135D03*
D22*
X552101Y568135D03*
D92*
X804132Y568325D03*
D33*
X767461Y568325D03*
D29*
X739267Y568325D03*
D44*
X730980Y568325D03*
D36*
X705739Y568325D03*
D29*
X680022Y568325D03*
D71*
X651923Y568325D03*
D121*
X635254Y568325D03*
D30*
X612585Y568325D03*
D68*
X583248Y568325D03*
D22*
X551910Y568325D03*
D16*
X804418Y568516D03*
D24*
X767366Y568516D03*
D29*
X739267Y568516D03*
D44*
X730790Y568516D03*
D36*
X705549Y568516D03*
D29*
X679831Y568516D03*
D20*
X651828Y568516D03*
D88*
X634302Y568516D03*
D30*
X612585Y568516D03*
D68*
X583057Y568516D03*
D29*
X551815Y568516D03*
D123*
X804513Y568706D03*
D33*
X767271Y568706D03*
D29*
X739077Y568706D03*
D44*
X730599Y568706D03*
D36*
X705358Y568706D03*
D31*
X679736Y568706D03*
D23*
X651732Y568706D03*
D65*
X633349Y568706D03*
D30*
X612585Y568706D03*
D68*
X583057Y568706D03*
D29*
X551625Y568706D03*
D150*
X804609Y568897D03*
D24*
X767175Y568897D03*
D29*
X739077Y568897D03*
D43*
X730314Y568897D03*
D26*
X705263Y568897D03*
D31*
X679545Y568897D03*
D20*
X651637Y568897D03*
D80*
X632301Y568897D03*
D30*
X612585Y568897D03*
D68*
X582867Y568897D03*
D31*
X551529Y568897D03*
D151*
X804704Y569087D03*
D33*
X767080Y569087D03*
D31*
X738981Y569087D03*
D43*
X730123Y569087D03*
D36*
X705168Y569087D03*
D31*
X679355Y569087D03*
D23*
X651542Y569087D03*
D78*
X631444Y569087D03*
D30*
X612394Y569087D03*
D68*
X582676Y569087D03*
D31*
X551339Y569087D03*
D152*
X804609Y569278D03*
D24*
X766985Y569278D03*
D29*
X738886Y569278D03*
D43*
X729933Y569278D03*
D26*
X705072Y569278D03*
D31*
X679164Y569278D03*
D23*
X651542Y569278D03*
D21*
X630396Y569278D03*
D30*
X612394Y569278D03*
D68*
X582676Y569278D03*
D31*
X551148Y569278D03*
D135*
X804513Y569468D03*
D33*
X766890Y569468D03*
D29*
X738886Y569468D03*
D42*
X729647Y569468D03*
D26*
X704882Y569468D03*
D33*
X679069Y569468D03*
D23*
X651542Y569468D03*
D11*
X629349Y569468D03*
D30*
X612394Y569468D03*
D68*
X582486Y569468D03*
D33*
X551053Y569468D03*
D136*
X804228Y569659D03*
D33*
X766699Y569659D03*
D29*
X738696Y569659D03*
D42*
X729456Y569659D03*
D26*
X704882Y569659D03*
D31*
X678974Y569659D03*
D68*
X651447Y569659D03*
D72*
X628396Y569659D03*
D30*
X612394Y569659D03*
D68*
X582295Y569659D03*
D33*
X550863Y569659D03*
D127*
X803942Y569849D03*
D33*
X766699Y569849D03*
D29*
X738696Y569849D03*
D41*
X729171Y569849D03*
D26*
X704691Y569849D03*
D33*
X678879Y569849D03*
D68*
X651447Y569849D03*
D67*
X627348Y569849D03*
D30*
X612204Y569849D03*
D23*
X582200Y569849D03*
D24*
X550767Y569849D03*
D147*
X803561Y570040D03*
D33*
X766509Y570040D03*
D29*
X738696Y570040D03*
D41*
X728790Y570040D03*
D26*
X704501Y570040D03*
D33*
X678688Y570040D03*
D67*
X651351Y570040D03*
D27*
X626586Y570040D03*
D30*
X612204Y570040D03*
D68*
X582105Y570040D03*
D24*
X550577Y570040D03*
D115*
X803370Y570230D03*
D31*
X766413Y570230D03*
D29*
X738505Y570230D03*
D41*
X728599Y570230D03*
D10*
X704406Y570230D03*
D33*
X678498Y570230D03*
D67*
X651351Y570230D03*
D31*
X625634Y570230D03*
D30*
X612204Y570230D03*
D69*
X590106Y570230D03*
D23*
X582009Y570230D03*
D24*
X550386Y570230D03*
D153*
X803085Y570421D03*
D33*
X766318Y570421D03*
D29*
X738505Y570421D03*
D40*
X728313Y570421D03*
D10*
X704215Y570421D03*
D24*
X678402Y570421D03*
D67*
X651161Y570421D03*
D26*
X624872Y570421D03*
D30*
X612204Y570421D03*
D132*
X590010Y570421D03*
D23*
X581819Y570421D03*
D36*
X550291Y570421D03*
D140*
X802704Y570611D03*
D31*
X766223Y570611D03*
D22*
X738410Y570611D03*
D40*
X728123Y570611D03*
D10*
X704025Y570611D03*
D24*
X678212Y570611D03*
D67*
X651161Y570611D03*
D50*
X624110Y570611D03*
D30*
X612013Y570611D03*
D53*
X589820Y570611D03*
D68*
X581724Y570611D03*
D36*
X550101Y570611D03*
D154*
X802513Y570802D03*
D31*
X766032Y570802D03*
D29*
X738315Y570802D03*
D39*
X727837Y570802D03*
D28*
X703929Y570802D03*
D24*
X678212Y570802D03*
D25*
X651066Y570802D03*
D35*
X623348Y570802D03*
D30*
X612013Y570802D03*
D52*
X589439Y570802D03*
D23*
X581628Y570802D03*
D26*
X550005Y570802D03*
D155*
X802132Y570992D03*
D31*
X766032Y570992D03*
D29*
X738315Y570992D03*
D38*
X727551Y570992D03*
D28*
X703739Y570992D03*
D24*
X678021Y570992D03*
D25*
X651066Y570992D03*
D37*
X622776Y570992D03*
D30*
X612013Y570992D03*
D49*
X589248Y570992D03*
D23*
X581438Y570992D03*
D26*
X549815Y570992D03*
D156*
X801846Y571183D03*
D29*
X765937Y571183D03*
D22*
X738219Y571183D03*
D56*
X727266Y571183D03*
D28*
X703548Y571183D03*
D36*
X677926Y571183D03*
D25*
X651066Y571183D03*
D38*
X622205Y571183D03*
D30*
X612013Y571183D03*
D47*
X589058Y571183D03*
D23*
X581438Y571183D03*
D10*
X549720Y571183D03*
D157*
X801561Y571373D03*
D31*
X765842Y571373D03*
D29*
X738124Y571373D03*
D37*
X726980Y571373D03*
D28*
X703358Y571373D03*
D24*
X677831Y571373D03*
D61*
X650970Y571373D03*
D42*
X621824Y571373D03*
D30*
X611823Y571373D03*
D55*
X588772Y571373D03*
D23*
X581247Y571373D03*
D10*
X549529Y571373D03*
D158*
X801275Y571564D03*
D29*
X765747Y571564D03*
D22*
X738029Y571564D03*
D57*
X726694Y571564D03*
D28*
X703167Y571564D03*
D36*
X677736Y571564D03*
D61*
X650970Y571564D03*
D45*
X621252Y571564D03*
D30*
X611823Y571564D03*
D81*
X583248Y571564D03*
D10*
X549339Y571564D03*
D159*
X801084Y571754D03*
D29*
X765556Y571754D03*
D22*
X738029Y571754D03*
D35*
X726408Y571754D03*
D28*
X703167Y571754D03*
D36*
X677545Y571754D03*
D61*
X650970Y571754D03*
D51*
X620776Y571754D03*
D30*
X611823Y571754D03*
D81*
X583248Y571754D03*
D28*
X549243Y571754D03*
D160*
X800799Y571945D03*
D29*
X765556Y571945D03*
D22*
X738029Y571945D03*
D58*
X726123Y571945D03*
D30*
X702882Y571945D03*
D26*
X677450Y571945D03*
D61*
X650780Y571945D03*
D30*
X611823Y571945D03*
D81*
X583057Y571945D03*
D28*
X549053Y571945D03*
D161*
X800513Y572135D03*
D29*
X765366Y572135D03*
D22*
X737838Y572135D03*
D34*
X725837Y572135D03*
D30*
X702691Y572135D03*
D36*
X677355Y572135D03*
D61*
X650780Y572135D03*
D30*
X611632Y572135D03*
D81*
X583057Y572135D03*
D30*
X548958Y572135D03*
D162*
X800322Y572326D03*
D29*
X765366Y572326D03*
D22*
X737838Y572326D03*
D50*
X725456Y572326D03*
D30*
X702501Y572326D03*
D26*
X677259Y572326D03*
D60*
X650685Y572326D03*
D30*
X611632Y572326D03*
D81*
X582867Y572326D03*
D30*
X548767Y572326D03*
D163*
X800132Y572516D03*
D29*
X765175Y572516D03*
D59*
X737743Y572516D03*
D30*
X725170Y572516D03*
X702310Y572516D03*
D36*
X677164Y572516D03*
D60*
X650685Y572516D03*
D30*
X611632Y572516D03*
D81*
X582676Y572516D03*
D50*
X548672Y572516D03*
D164*
X799846Y572707D03*
D29*
X765175Y572707D03*
D59*
X737743Y572707D03*
D26*
X724694Y572707D03*
D165*
X715455Y572707D03*
D30*
X702120Y572707D03*
D26*
X677069Y572707D03*
D60*
X650685Y572707D03*
D30*
X611632Y572707D03*
D80*
X582581Y572707D03*
D30*
X548577Y572707D03*
D166*
X799560Y572897D03*
D29*
X764985Y572897D03*
D27*
X737648Y572897D03*
D22*
X723932Y572897D03*
D57*
X716407Y572897D03*
D30*
X701929Y572897D03*
D26*
X677069Y572897D03*
D60*
X650494Y572897D03*
D30*
X611442Y572897D03*
D80*
X582390Y572897D03*
D32*
X548386Y572897D03*
D167*
X799370Y573088D03*
D29*
X764985Y573088D03*
D27*
X737648Y573088D03*
D83*
X720598Y573088D03*
D30*
X701739Y573088D03*
D26*
X676878Y573088D03*
D60*
X650494Y573088D03*
D30*
X611442Y573088D03*
D12*
X582295Y573088D03*
D50*
X548291Y573088D03*
D168*
X799275Y573278D03*
D22*
X764889Y573278D03*
D27*
X737648Y573278D03*
D83*
X720408Y573278D03*
D30*
X701548Y573278D03*
D26*
X676878Y573278D03*
D60*
X650494Y573278D03*
D30*
X611442Y573278D03*
D12*
X582105Y573278D03*
D50*
X548100Y573278D03*
D169*
X799084Y573469D03*
D22*
X764699Y573469D03*
D170*
X751650Y573469D03*
D171*
X751078Y573469D03*
D60*
X737553Y573469D03*
D84*
X720122Y573469D03*
D30*
X701358Y573469D03*
D26*
X676688Y573469D03*
D27*
X650399Y573469D03*
D30*
X611251Y573469D03*
D118*
X582009Y573469D03*
D32*
X548005Y573469D03*
D172*
X798798Y573659D03*
D22*
X764699Y573659D03*
D48*
X750888Y573659D03*
D60*
X737553Y573659D03*
D84*
X719931Y573659D03*
D50*
X701072Y573659D03*
D26*
X676688Y573659D03*
D60*
X650304Y573659D03*
D30*
X611251Y573659D03*
D118*
X581819Y573659D03*
D32*
X547815Y573659D03*
D173*
X798608Y573850D03*
D22*
X764508Y573850D03*
D44*
X750411Y573850D03*
D61*
X737457Y573850D03*
D84*
X719741Y573850D03*
D50*
X700881Y573850D03*
D10*
X676593Y573850D03*
D60*
X650304Y573850D03*
D30*
X611251Y573850D03*
D119*
X581628Y573850D03*
D34*
X547719Y573850D03*
D174*
X798227Y574040D03*
D22*
X764508Y574040D03*
D42*
X750030Y574040D03*
D61*
X737457Y574040D03*
D84*
X719550Y574040D03*
D50*
X700691Y574040D03*
D10*
X676593Y574040D03*
D27*
X650208Y574040D03*
D50*
X611156Y574040D03*
D119*
X581438Y574040D03*
D34*
X547529Y574040D03*
D174*
X797655Y574231D03*
D22*
X764508Y574231D03*
D39*
X749554Y574231D03*
D25*
X737362Y574231D03*
D84*
X719360Y574231D03*
D50*
X700500Y574231D03*
D26*
X676497Y574231D03*
D27*
X650208Y574231D03*
D30*
X611061Y574231D03*
D78*
X581152Y574231D03*
D58*
X547434Y574231D03*
D175*
X796608Y574421D03*
D22*
X764318Y574421D03*
D38*
X749078Y574421D03*
D67*
X737457Y574421D03*
D83*
X719265Y574421D03*
D32*
X700215Y574421D03*
D26*
X676497Y574421D03*
D60*
X650113Y574421D03*
D30*
X611061Y574421D03*
D77*
X581057Y574421D03*
D58*
X547243Y574421D03*
D176*
X793083Y574612D03*
D22*
X764318Y574612D03*
D37*
X748316Y574612D03*
D68*
X737553Y574612D03*
D83*
X719074Y574612D03*
D32*
X700024Y574612D03*
D26*
X676307Y574612D03*
D27*
X650018Y574612D03*
D50*
X610965Y574612D03*
D66*
X580771Y574612D03*
D35*
X547148Y574612D03*
D157*
X790702Y574802D03*
D22*
X764127Y574802D03*
D58*
X747459Y574802D03*
D71*
X737838Y574802D03*
D83*
X718884Y574802D03*
D50*
X699738Y574802D03*
D26*
X676307Y574802D03*
D27*
X650018Y574802D03*
D30*
X610870Y574802D03*
D76*
X580581Y574802D03*
D35*
X546957Y574802D03*
D177*
X788988Y574993D03*
D22*
X764127Y574993D03*
D95*
X741172Y574993D03*
D83*
X718693Y574993D03*
D50*
X699548Y574993D03*
D26*
X676307Y574993D03*
D27*
X650018Y574993D03*
D30*
X610870Y574993D03*
D21*
X580295Y574993D03*
D57*
X546862Y574993D03*
D178*
X787368Y575183D03*
D59*
X764032Y575183D03*
D121*
X740791Y575183D03*
D82*
X718598Y575183D03*
D32*
X699262Y575183D03*
D26*
X676307Y575183D03*
D27*
X649827Y575183D03*
D50*
X610775Y575183D03*
D110*
X580009Y575183D03*
D57*
X546672Y575183D03*
D178*
X786797Y575374D03*
D59*
X763842Y575374D03*
D13*
X740601Y575374D03*
D82*
X718407Y575374D03*
D50*
X698976Y575374D03*
D26*
X676116Y575374D03*
D27*
X649827Y575374D03*
D50*
X610775Y575374D03*
D11*
X579628Y575374D03*
D37*
X546576Y575374D03*
D141*
X786416Y575564D03*
D59*
X763842Y575564D03*
D88*
X740220Y575564D03*
D82*
X718217Y575564D03*
D50*
X698786Y575564D03*
D26*
X676116Y575564D03*
D27*
X649827Y575564D03*
D30*
X610680Y575564D03*
D62*
X579152Y575564D03*
D37*
X546386Y575564D03*
D179*
X785844Y575755D03*
D59*
X763842Y575755D03*
D85*
X739934Y575755D03*
D82*
X718026Y575755D03*
D32*
X698500Y575755D03*
D26*
X676116Y575755D03*
D60*
X649732Y575755D03*
D50*
X610584Y575755D03*
D71*
X578961Y575755D03*
D37*
X546195Y575755D03*
D180*
X780796Y575945D03*
D82*
X739553Y575945D03*
D81*
X717931Y575945D03*
D50*
X698214Y575945D03*
D26*
X676116Y575945D03*
D27*
X649637Y575945D03*
D50*
X610584Y575945D03*
D20*
X578676Y575945D03*
D56*
X546100Y575945D03*
D180*
X780606Y576136D03*
D80*
X739362Y576136D03*
X717645Y576136D03*
D32*
X697929Y576136D03*
D26*
X676116Y576136D03*
D27*
X649637Y576136D03*
D50*
X610584Y576136D03*
D20*
X578485Y576136D03*
D56*
X545910Y576136D03*
D180*
X780606Y576326D03*
D118*
X738981Y576326D03*
D80*
X717455Y576326D03*
D50*
X697643Y576326D03*
D36*
X676021Y576326D03*
D27*
X649637Y576326D03*
D50*
X610394Y576326D03*
D23*
X578199Y576326D03*
D56*
X545719Y576326D03*
D166*
X780510Y576517D03*
D119*
X738791Y576517D03*
D12*
X717360Y576517D03*
D32*
X697357Y576517D03*
D36*
X676021Y576517D03*
D27*
X649446Y576517D03*
D50*
X610394Y576517D03*
D67*
X578009Y576517D03*
D37*
X545624Y576517D03*
D72*
X796608Y576707D03*
D181*
X774414Y576707D03*
D66*
X738505Y576707D03*
D12*
X717169Y576707D03*
D50*
X697071Y576707D03*
D36*
X676021Y576707D03*
D27*
X649446Y576707D03*
D50*
X610394Y576707D03*
D67*
X577818Y576707D03*
D56*
X545529Y576707D03*
D71*
X796512Y576898D03*
D114*
X773462Y576898D03*
D120*
X738219Y576898D03*
D118*
X717074Y576898D03*
D50*
X696690Y576898D03*
D36*
X676021Y576898D03*
D27*
X649446Y576898D03*
D50*
X610203Y576898D03*
D25*
X577533Y576898D03*
D56*
X545338Y576898D03*
D71*
X796512Y577088D03*
D127*
X772319Y577088D03*
D21*
X738029Y577088D03*
D118*
X716883Y577088D03*
D50*
X696500Y577088D03*
D36*
X676021Y577088D03*
D60*
X649351Y577088D03*
D50*
X610203Y577088D03*
D60*
X577342Y577088D03*
D56*
X545148Y577088D03*
D20*
X796417Y577279D03*
D98*
X770985Y577279D03*
D75*
X737838Y577279D03*
D119*
X716693Y577279D03*
D50*
X696119Y577279D03*
D36*
X676021Y577279D03*
D27*
X649256Y577279D03*
D50*
X610203Y577279D03*
D60*
X577152Y577279D03*
D56*
X544957Y577279D03*
D20*
X796417Y577469D03*
D150*
X769938Y577469D03*
D113*
X737648Y577469D03*
D119*
X716502Y577469D03*
D30*
X695833Y577469D03*
D36*
X676021Y577469D03*
D27*
X649256Y577469D03*
D32*
X610108Y577469D03*
D27*
X576866Y577469D03*
D37*
X544671Y577469D03*
D20*
X796227Y577660D03*
D182*
X769176Y577660D03*
D11*
X737362Y577660D03*
D78*
X716407Y577660D03*
D30*
X695452Y577660D03*
D36*
X676021Y577660D03*
D60*
X649161Y577660D03*
D50*
X610013Y577660D03*
D27*
X576675Y577660D03*
D37*
X544481Y577660D03*
D20*
X796227Y577850D03*
D104*
X768604Y577850D03*
D116*
X737267Y577850D03*
D77*
X716312Y577850D03*
D28*
X695166Y577850D03*
D24*
X676116Y577850D03*
D27*
X649065Y577850D03*
D32*
X609918Y577850D03*
D22*
X576485Y577850D03*
D37*
X544290Y577850D03*
D23*
X796131Y578041D03*
D102*
X768318Y578041D03*
D72*
X736981Y578041D03*
D120*
X716121Y578041D03*
D28*
X694785Y578041D03*
D33*
X676021Y578041D03*
D27*
X649065Y578041D03*
D32*
X609918Y578041D03*
D22*
X576294Y578041D03*
D37*
X544100Y578041D03*
D23*
X796131Y578231D03*
D122*
X767937Y578231D03*
D71*
X736886Y578231D03*
D76*
X716026Y578231D03*
D28*
X694404Y578231D03*
D33*
X676021Y578231D03*
D60*
X648970Y578231D03*
D32*
X609918Y578231D03*
D29*
X576009Y578231D03*
D37*
X543909Y578231D03*
D23*
X795941Y578422D03*
D183*
X767461Y578422D03*
D20*
X736791Y578422D03*
D21*
X715931Y578422D03*
D10*
X694119Y578422D03*
D31*
X676116Y578422D03*
D60*
X648970Y578422D03*
D32*
X609727Y578422D03*
D29*
X575818Y578422D03*
D56*
X543814Y578422D03*
D23*
X795941Y578612D03*
D184*
X766985Y578612D03*
D23*
X736505Y578612D03*
D75*
X715740Y578612D03*
D10*
X693738Y578612D03*
D31*
X676116Y578612D03*
D27*
X648875Y578612D03*
D32*
X609727Y578612D03*
D31*
X575532Y578612D03*
D56*
X543624Y578612D03*
D68*
X795846Y578803D03*
D64*
X766223Y578803D03*
D67*
X736314Y578803D03*
D113*
X715740Y578803D03*
D26*
X693261Y578803D03*
D29*
X676212Y578803D03*
D60*
X648780Y578803D03*
D34*
X609632Y578803D03*
D24*
X575342Y578803D03*
D56*
X543433Y578803D03*
D23*
X795750Y578993D03*
D84*
X765461Y578993D03*
D25*
X736219Y578993D03*
D116*
X715550Y578993D03*
D36*
X692976Y578993D03*
D29*
X676212Y578993D03*
D60*
X648780Y578993D03*
D34*
X609632Y578993D03*
D24*
X575151Y578993D03*
D38*
X543338Y578993D03*
D68*
X795655Y579184D03*
D118*
X764889Y579184D03*
D61*
X736124Y579184D03*
D62*
X715550Y579184D03*
D24*
X692499Y579184D03*
D22*
X676307Y579184D03*
D60*
X648780Y579184D03*
D32*
X609537Y579184D03*
D36*
X574866Y579184D03*
D56*
X543243Y579184D03*
D68*
X795655Y579374D03*
D66*
X764223Y579374D03*
D60*
X735838Y579374D03*
D20*
X715455Y579374D03*
D33*
X692023Y579374D03*
D59*
X676402Y579374D03*
D60*
X648589Y579374D03*
D34*
X609441Y579374D03*
D26*
X574770Y579374D03*
D38*
X543147Y579374D03*
D68*
X795465Y579565D03*
D75*
X763746Y579565D03*
D27*
X735743Y579565D03*
D68*
X715455Y579565D03*
D29*
X691642Y579565D03*
D60*
X676593Y579565D03*
X648589Y579565D03*
D34*
X609441Y579565D03*
D10*
X574485Y579565D03*
D39*
X543052Y579565D03*
D68*
X795465Y579755D03*
D73*
X763270Y579755D03*
D59*
X735648Y579755D03*
D61*
X715359Y579755D03*
D27*
X690975Y579755D03*
D67*
X676878Y579755D03*
D60*
X648589Y579755D03*
D58*
X609346Y579755D03*
D28*
X574199Y579755D03*
D39*
X542862Y579755D03*
D68*
X795274Y579946D03*
D71*
X762794Y579946D03*
D29*
X735457Y579946D03*
D59*
X715264Y579946D03*
D23*
X690023Y579946D03*
D62*
X677450Y579946D03*
D61*
X648494Y579946D03*
D34*
X609251Y579946D03*
D28*
X574008Y579946D03*
D40*
X542766Y579946D03*
D68*
X795274Y580136D03*
D67*
X762413Y580136D03*
D31*
X735362Y580136D03*
D29*
X715264Y580136D03*
D185*
X683355Y580136D03*
D60*
X648399Y580136D03*
D34*
X609251Y580136D03*
D50*
X573818Y580136D03*
D40*
X542576Y580136D03*
D67*
X795179Y580327D03*
D60*
X762127Y580327D03*
D33*
X735267Y580327D03*
D24*
X715169Y580327D03*
D123*
X683165Y580327D03*
D60*
X648399Y580327D03*
D58*
X609156Y580327D03*
D50*
X573627Y580327D03*
D41*
X542481Y580327D03*
D68*
X795084Y580517D03*
D22*
X761651Y580517D03*
D33*
X735076Y580517D03*
D10*
X715074Y580517D03*
D16*
X683070Y580517D03*
D61*
X648303Y580517D03*
D58*
X609156Y580517D03*
D34*
X573437Y580517D03*
D41*
X542290Y580517D03*
D67*
X794988Y580708D03*
D31*
X761460Y580708D03*
D24*
X734981Y580708D03*
D50*
X714978Y580708D03*
D182*
X682879Y580708D03*
D61*
X648303Y580708D03*
D35*
X609060Y580708D03*
D58*
X573151Y580708D03*
D42*
X542195Y580708D03*
D68*
X794893Y580898D03*
D26*
X761079Y580898D03*
D36*
X734886Y580898D03*
D35*
X714788Y580898D03*
D106*
X682689Y580898D03*
D60*
X648208Y580898D03*
D58*
X608965Y580898D03*
D35*
X572865Y580898D03*
D42*
X542004Y580898D03*
D67*
X794798Y581089D03*
D50*
X760698Y581089D03*
D10*
X734695Y581089D03*
D39*
X714693Y581089D03*
D104*
X682498Y581089D03*
D61*
X648113Y581089D03*
D58*
X608965Y581089D03*
D37*
X572675Y581089D03*
D43*
X541909Y581089D03*
D67*
X794798Y581279D03*
D58*
X760413Y581279D03*
D28*
X734600Y581279D03*
D43*
X714693Y581279D03*
D15*
X682308Y581279D03*
D61*
X648113Y581279D03*
D35*
X608870Y581279D03*
D56*
X572389Y581279D03*
D43*
X541719Y581279D03*
D67*
X794607Y581470D03*
D38*
X759936Y581470D03*
D30*
X734505Y581470D03*
D52*
X714597Y581470D03*
D186*
X682117Y581470D03*
D25*
X648018Y581470D03*
D35*
X608870Y581470D03*
D39*
X572199Y581470D03*
D43*
X541528Y581470D03*
D67*
X794607Y581660D03*
D42*
X759555Y581660D03*
D50*
X734409Y581660D03*
D122*
X682022Y581660D03*
D25*
X648018Y581660D03*
D57*
X608775Y581660D03*
D40*
X571913Y581660D03*
D44*
X541433Y581660D03*
D67*
X794417Y581851D03*
D48*
X759079Y581851D03*
D34*
X734219Y581851D03*
D99*
X681831Y581851D03*
D61*
X647922Y581851D03*
D35*
X608679Y581851D03*
D42*
X571722Y581851D03*
D44*
X541242Y581851D03*
D67*
X794417Y582041D03*
D170*
X758889Y582041D03*
X758508Y582041D03*
X758127Y582041D03*
D58*
X734124Y582041D03*
D14*
X681641Y582041D03*
D25*
X647827Y582041D03*
D35*
X608679Y582041D03*
D44*
X571532Y582041D03*
X541052Y582041D03*
D67*
X794226Y582232D03*
D57*
X733933Y582232D03*
D184*
X681450Y582232D03*
D25*
X647827Y582232D03*
D57*
X608584Y582232D03*
D45*
X571151Y582232D03*
D55*
X540957Y582232D03*
D67*
X794226Y582422D03*
D37*
X733838Y582422D03*
D149*
X681260Y582422D03*
D25*
X647827Y582422D03*
D35*
X608489Y582422D03*
D52*
X570960Y582422D03*
D55*
X540766Y582422D03*
D25*
X794131Y582613D03*
D39*
X733743Y582613D03*
D64*
X681069Y582613D03*
D25*
X647637Y582613D03*
D35*
X608489Y582613D03*
D44*
X540671Y582613D03*
D67*
X794036Y582803D03*
D40*
X733647Y582803D03*
D130*
X680879Y582803D03*
D25*
X647637Y582803D03*
D57*
X608394Y582803D03*
D44*
X540480Y582803D03*
D25*
X793941Y582994D03*
D44*
X733457Y582994D03*
D85*
X680688Y582994D03*
D25*
X647637Y582994D03*
D35*
X608298Y582994D03*
D44*
X540290Y582994D03*
D67*
X793845Y583184D03*
D47*
X733457Y583184D03*
D83*
X680593Y583184D03*
D67*
X647541Y583184D03*
D57*
X608203Y583184D03*
D55*
X540195Y583184D03*
D25*
X793750Y583375D03*
D165*
X733362Y583375D03*
D12*
X680403Y583375D03*
D25*
X647446Y583375D03*
D57*
X608203Y583375D03*
D55*
X540004Y583375D03*
D67*
X793655Y583565D03*
D78*
X680212Y583565D03*
D25*
X647446Y583565D03*
D35*
X608108Y583565D03*
D55*
X539814Y583565D03*
D25*
X793560Y583756D03*
D76*
X680022Y583756D03*
D67*
X647351Y583756D03*
D57*
X608013Y583756D03*
D55*
X539623Y583756D03*
D25*
X793560Y583946D03*
D11*
X679831Y583946D03*
D25*
X647256Y583946D03*
D57*
X608013Y583946D03*
D45*
X539528Y583946D03*
D25*
X793369Y584137D03*
D71*
X679736Y584137D03*
D67*
X647160Y584137D03*
D35*
X607917Y584137D03*
D45*
X539337Y584137D03*
D25*
X793369Y584327D03*
D61*
X679545Y584327D03*
D67*
X647160Y584327D03*
D57*
X607822Y584327D03*
D45*
X539147Y584327D03*
D25*
X793179Y584518D03*
D24*
X679164Y584518D03*
D25*
X647065Y584518D03*
D57*
X607822Y584518D03*
D46*
X539052Y584518D03*
D25*
X793179Y584708D03*
D35*
X678783Y584708D03*
D67*
X646970Y584708D03*
D35*
X607727Y584708D03*
D46*
X538861Y584708D03*
D25*
X792988Y584899D03*
D45*
X678212Y584899D03*
D67*
X646970Y584899D03*
D57*
X607632Y584899D03*
D46*
X538671Y584899D03*
D25*
X792988Y585089D03*
X646875Y585089D03*
D35*
X607536Y585089D03*
D47*
X538575Y585089D03*
D61*
X792893Y585280D03*
D67*
X646779Y585280D03*
D57*
X607441Y585280D03*
D47*
X538385Y585280D03*
D25*
X792798Y585470D03*
X646684Y585470D03*
D57*
X607441Y585470D03*
D48*
X538290Y585470D03*
D61*
X792702Y585661D03*
D67*
X646589Y585661D03*
D35*
X607346Y585661D03*
D48*
X538099Y585661D03*
D25*
X792607Y585851D03*
D67*
X646589Y585851D03*
D57*
X607251Y585851D03*
D51*
X537909Y585851D03*
D61*
X792512Y586042D03*
D25*
X646494Y586042D03*
D35*
X607155Y586042D03*
D51*
X537718Y586042D03*
D25*
X792417Y586232D03*
X646494Y586232D03*
D35*
X607155Y586232D03*
D52*
X537623Y586232D03*
D61*
X792321Y586423D03*
D25*
X646303Y586423D03*
D35*
X606965Y586423D03*
D165*
X537528Y586423D03*
D61*
X792321Y586613D03*
D25*
X646303Y586613D03*
D35*
X606965Y586613D03*
D70*
X537337Y586613D03*
D61*
X792131Y586804D03*
D25*
X646113Y586804D03*
D58*
X606870Y586804D03*
D132*
X537242Y586804D03*
D61*
X792131Y586994D03*
D25*
X646113Y586994D03*
D35*
X606774Y586994D03*
D133*
X537051Y586994D03*
D61*
X791940Y587185D03*
D25*
X646113Y587185D03*
D58*
X606679Y587185D03*
D61*
X791940Y587375D03*
D25*
X645922Y587375D03*
D58*
X606679Y587375D03*
D61*
X791750Y587566D03*
D25*
X645922Y587566D03*
D35*
X606584Y587566D03*
D61*
X791750Y587756D03*
D170*
X762889Y587756D03*
D61*
X645827Y587756D03*
D58*
X606489Y587756D03*
D60*
X791655Y587947D03*
D53*
X762413Y587947D03*
D25*
X645732Y587947D03*
D58*
X606489Y587947D03*
D61*
X791559Y588137D03*
D48*
X762127Y588137D03*
D61*
X645636Y588137D03*
D58*
X606298Y588137D03*
D60*
X791464Y588328D03*
D45*
X761841Y588328D03*
D25*
X645541Y588328D03*
D58*
X606298Y588328D03*
D61*
X791369Y588518D03*
D44*
X761651Y588518D03*
D25*
X645541Y588518D03*
D58*
X606298Y588518D03*
D60*
X791274Y588709D03*
D42*
X761460Y588709D03*
D61*
X645446Y588709D03*
D58*
X606108Y588709D03*
D60*
X791274Y588899D03*
D41*
X761175Y588899D03*
D25*
X645351Y588899D03*
D58*
X606108Y588899D03*
D60*
X791083Y589090D03*
D39*
X760984Y589090D03*
D61*
X645255Y589090D03*
D34*
X606012Y589090D03*
D60*
X791083Y589280D03*
D38*
X760889Y589280D03*
D25*
X645160Y589280D03*
D58*
X605917Y589280D03*
D27*
X790988Y589471D03*
D56*
X760603Y589471D03*
D61*
X645065Y589471D03*
D58*
X605917Y589471D03*
D60*
X790893Y589661D03*
D37*
X760508Y589661D03*
D61*
X645065Y589661D03*
D34*
X605822Y589661D03*
D27*
X790797Y589852D03*
D37*
X760317Y589852D03*
D61*
X644874Y589852D03*
D58*
X605727Y589852D03*
D27*
X790797Y590042D03*
D57*
X760032Y590042D03*
D61*
X644874Y590042D03*
D58*
X605727Y590042D03*
D27*
X790607Y590233D03*
D35*
X759936Y590233D03*
D60*
X644779Y590233D03*
D58*
X605536Y590233D03*
D27*
X790607Y590423D03*
D35*
X759746Y590423D03*
D61*
X644684Y590423D03*
D58*
X605536Y590423D03*
D59*
X790512Y590614D03*
D35*
X759555Y590614D03*
D60*
X644589Y590614D03*
D35*
X605441Y590614D03*
D27*
X790416Y590804D03*
D58*
X759460Y590804D03*
D60*
X644589Y590804D03*
D58*
X605346Y590804D03*
D59*
X790321Y590995D03*
D58*
X759270Y590995D03*
D61*
X644493Y590995D03*
D58*
X605346Y590995D03*
D59*
X790321Y591185D03*
D58*
X759079Y591185D03*
D60*
X644398Y591185D03*
D58*
X605155Y591185D03*
D59*
X790131Y591376D03*
D34*
X758984Y591376D03*
D61*
X644303Y591376D03*
D58*
X605155Y591376D03*
D22*
X790035Y591566D03*
D34*
X758793Y591566D03*
D60*
X644208Y591566D03*
D35*
X605060Y591566D03*
D22*
X790035Y591757D03*
D34*
X758603Y591757D03*
D60*
X644208Y591757D03*
D58*
X604965Y591757D03*
D22*
X790035Y591947D03*
D32*
X758508Y591947D03*
D60*
X644017Y591947D03*
D35*
X604869Y591947D03*
D29*
X789940Y592138D03*
D32*
X758317Y592138D03*
D60*
X644017Y592138D03*
D35*
X604869Y592138D03*
D29*
X789750Y592328D03*
D32*
X758317Y592328D03*
D60*
X643827Y592328D03*
D35*
X604679Y592328D03*
D29*
X789750Y592519D03*
D32*
X758127Y592519D03*
D60*
X643827Y592519D03*
D35*
X604679Y592519D03*
D31*
X789654Y592709D03*
D32*
X757936Y592709D03*
D27*
X643731Y592709D03*
D57*
X604584Y592709D03*
D29*
X789559Y592900D03*
D50*
X757841Y592900D03*
D60*
X643636Y592900D03*
D35*
X604488Y592900D03*
D31*
X789464Y593090D03*
D50*
X757650Y593090D03*
D27*
X643541Y593090D03*
D35*
X604488Y593090D03*
D31*
X789464Y593281D03*
D32*
X757555Y593281D03*
D27*
X643541Y593281D03*
D57*
X604393Y593281D03*
D31*
X789273Y593471D03*
D50*
X757460Y593471D03*
D27*
X643350Y593471D03*
D57*
X604203Y593471D03*
D31*
X789273Y593662D03*
D50*
X757269Y593662D03*
D27*
X643350Y593662D03*
D57*
X604203Y593662D03*
D31*
X789083Y593852D03*
D30*
X757174Y593852D03*
D59*
X643255Y593852D03*
D37*
X604107Y593852D03*
D33*
X788988Y594043D03*
D30*
X756984Y594043D03*
D27*
X643160Y594043D03*
D57*
X604012Y594043D03*
D31*
X788892Y594233D03*
D28*
X756888Y594233D03*
D59*
X643065Y594233D03*
D37*
X603917Y594233D03*
D33*
X788797Y594424D03*
D28*
X756698Y594424D03*
D27*
X642969Y594424D03*
D37*
X603917Y594424D03*
D31*
X788702Y594614D03*
D28*
X756507Y594614D03*
D59*
X642874Y594614D03*
D37*
X603726Y594614D03*
D33*
X788607Y594805D03*
D10*
X756412Y594805D03*
D59*
X642874Y594805D03*
D37*
X603726Y594805D03*
D33*
X788416Y594995D03*
D10*
X756222Y594995D03*
D59*
X642684Y594995D03*
D56*
X603631Y594995D03*
D33*
X788416Y595186D03*
D26*
X756126Y595186D03*
D59*
X642684Y595186D03*
D37*
X603536Y595186D03*
D33*
X788226Y595376D03*
D26*
X755936Y595376D03*
D59*
X642493Y595376D03*
D56*
X603441Y595376D03*
D33*
X788226Y595567D03*
D24*
X755745Y595567D03*
D59*
X642493Y595567D03*
D56*
X603441Y595567D03*
D24*
X788130Y595757D03*
X755555Y595757D03*
D22*
X642398Y595757D03*
D56*
X603250Y595757D03*
D24*
X787940Y595948D03*
D33*
X755460Y595948D03*
D59*
X642303Y595948D03*
D56*
X603250Y595948D03*
D36*
X787845Y596138D03*
D33*
X755269Y596138D03*
D22*
X642207Y596138D03*
D38*
X603155Y596138D03*
D24*
X787749Y596329D03*
D33*
X755079Y596329D03*
D22*
X642207Y596329D03*
D56*
X603060Y596329D03*
D36*
X787654Y596519D03*
D31*
X754983Y596519D03*
D22*
X642017Y596519D03*
D38*
X602964Y596519D03*
D36*
X787464Y596710D03*
D29*
X754698Y596710D03*
D22*
X642017Y596710D03*
D38*
X602774Y596710D03*
D36*
X787464Y596900D03*
D22*
X754602Y596900D03*
D29*
X641922Y596900D03*
D38*
X602774Y596900D03*
D36*
X787273Y597091D03*
D22*
X754412Y597091D03*
X641826Y597091D03*
D56*
X602679Y597091D03*
D26*
X787178Y597281D03*
D22*
X754221Y597281D03*
D29*
X641731Y597281D03*
D38*
X602583Y597281D03*
D36*
X787083Y597472D03*
D59*
X753936Y597472D03*
D22*
X641636Y597472D03*
D39*
X602488Y597472D03*
D26*
X786987Y597662D03*
D27*
X753840Y597662D03*
D29*
X641541Y597662D03*
D38*
X602393Y597662D03*
D26*
X786797Y597853D03*
D60*
X753555Y597853D03*
D29*
X641541Y597853D03*
D39*
X602298Y597853D03*
D10*
X786702Y598043D03*
D60*
X753364Y598043D03*
D29*
X641350Y598043D03*
D39*
X602107Y598043D03*
D28*
X786606Y598234D03*
D60*
X753174Y598234D03*
D31*
X641255Y598234D03*
D39*
X602107Y598234D03*
D10*
X786511Y598424D03*
D61*
X752888Y598424D03*
D31*
X641255Y598424D03*
D39*
X601917Y598424D03*
D28*
X786416Y598615D03*
D61*
X752697Y598615D03*
D29*
X641160Y598615D03*
D39*
X601917Y598615D03*
D28*
X786225Y598805D03*
D61*
X752507Y598805D03*
D31*
X641064Y598805D03*
D39*
X601726Y598805D03*
D28*
X786225Y598996D03*
D61*
X752316Y598996D03*
D31*
X640874Y598996D03*
D40*
X601631Y598996D03*
D30*
X786130Y599186D03*
D61*
X752126Y599186D03*
D31*
X640874Y599186D03*
D39*
X601536Y599186D03*
D30*
X785940Y599377D03*
D61*
X751935Y599377D03*
D33*
X640779Y599377D03*
D39*
X601345Y599377D03*
D30*
X785940Y599567D03*
D60*
X751650Y599567D03*
D31*
X640683Y599567D03*
D39*
X601345Y599567D03*
D50*
X785844Y599758D03*
D59*
X751459Y599758D03*
D33*
X640588Y599758D03*
D39*
X601155Y599758D03*
D30*
X785749Y599948D03*
D22*
X751173Y599948D03*
D31*
X640493Y599948D03*
D39*
X600964Y599948D03*
D50*
X785654Y600139D03*
D29*
X750888Y600139D03*
D33*
X640398Y600139D03*
D39*
X600964Y600139D03*
D50*
X785654Y600329D03*
D33*
X750697Y600329D03*
X640398Y600329D03*
D39*
X600774Y600329D03*
D30*
X785559Y600520D03*
D10*
X750316Y600520D03*
D33*
X640207Y600520D03*
D39*
X600583Y600520D03*
D50*
X785463Y600710D03*
X750030Y600710D03*
D33*
X640207Y600710D03*
D39*
X600583Y600710D03*
D50*
X785463Y600901D03*
D37*
X749649Y600901D03*
D33*
X640017Y600901D03*
D39*
X600393Y600901D03*
D50*
X785273Y601091D03*
D43*
X749173Y601091D03*
D33*
X640017Y601091D03*
D38*
X600297Y601091D03*
D32*
X785178Y601282D03*
D70*
X748792Y601282D03*
D24*
X639921Y601282D03*
D39*
X600202Y601282D03*
D50*
X785082Y601472D03*
D33*
X639826Y601472D03*
D39*
X600012Y601472D03*
D32*
X784987Y601663D03*
D24*
X639731Y601663D03*
D39*
X600012Y601663D03*
D32*
X784797Y601853D03*
D24*
X639731Y601853D03*
D39*
X599821Y601853D03*
D34*
X784701Y602044D03*
D24*
X639540Y602044D03*
D39*
X599631Y602044D03*
D32*
X784606Y602234D03*
D24*
X639540Y602234D03*
D39*
X599631Y602234D03*
D34*
X784511Y602425D03*
D24*
X639350Y602425D03*
D39*
X599440Y602425D03*
D34*
X784320Y602615D03*
D24*
X639350Y602615D03*
D40*
X599345Y602615D03*
D34*
X784130Y602806D03*
D36*
X639255Y602806D03*
D39*
X599250Y602806D03*
D58*
X784035Y602996D03*
D24*
X639159Y602996D03*
D40*
X599154Y602996D03*
D58*
X783844Y603187D03*
D36*
X639064Y603187D03*
D40*
X598964Y603187D03*
D58*
X783844Y603377D03*
D24*
X638969Y603377D03*
D41*
X598869Y603377D03*
D58*
X783654Y603568D03*
D36*
X638874Y603568D03*
D41*
X598869Y603568D03*
D58*
X783463Y603758D03*
D36*
X638874Y603758D03*
D41*
X598678Y603758D03*
D58*
X783273Y603949D03*
D36*
X638683Y603949D03*
D42*
X598583Y603949D03*
D58*
X783273Y604139D03*
D36*
X638683Y604139D03*
D42*
X598583Y604139D03*
D58*
X783082Y604330D03*
D36*
X638493Y604330D03*
D42*
X598392Y604330D03*
D58*
X782892Y604520D03*
D26*
X638397Y604520D03*
D42*
X598202Y604520D03*
D34*
X782796Y604711D03*
D26*
X638397Y604711D03*
D42*
X598202Y604711D03*
D58*
X782701Y604901D03*
D26*
X638207Y604901D03*
D42*
X598011Y604901D03*
D58*
X782511Y605092D03*
D26*
X638207Y605092D03*
D43*
X597916Y605092D03*
D34*
X782415Y605282D03*
D26*
X638016Y605282D03*
D43*
X597726Y605282D03*
D34*
X782225Y605473D03*
D26*
X638016Y605473D03*
D42*
X597630Y605473D03*
D34*
X782225Y605663D03*
D26*
X637826Y605663D03*
D43*
X597535Y605663D03*
D34*
X782034Y605854D03*
D10*
X637731Y605854D03*
D43*
X597345Y605854D03*
D34*
X781844Y606044D03*
D10*
X637731Y606044D03*
D43*
X597154Y606044D03*
D34*
X781844Y606235D03*
D10*
X637540Y606235D03*
D42*
X597059Y606235D03*
D34*
X781653Y606425D03*
D10*
X637540Y606425D03*
D42*
X596868Y606425D03*
D32*
X781558Y606616D03*
D10*
X637350Y606616D03*
D42*
X596678Y606616D03*
D34*
X781463Y606806D03*
D10*
X637350Y606806D03*
D42*
X596487Y606806D03*
D34*
X781272Y606997D03*
D10*
X637159Y606997D03*
D41*
X596392Y606997D03*
D32*
X781177Y607187D03*
D10*
X637159Y607187D03*
D42*
X596297Y607187D03*
D34*
X781082Y607378D03*
D28*
X637064Y607378D03*
D41*
X596011Y607378D03*
D32*
X780987Y607568D03*
D10*
X636969Y607568D03*
D42*
X595916Y607568D03*
D34*
X780891Y607759D03*
D28*
X636873Y607759D03*
D42*
X595725Y607759D03*
D32*
X780796Y607949D03*
D28*
X636683Y607949D03*
D41*
X595630Y607949D03*
D34*
X780701Y608140D03*
D28*
X636683Y608140D03*
D41*
X595440Y608140D03*
D32*
X780606Y608330D03*
D28*
X636492Y608330D03*
D41*
X595249Y608330D03*
D32*
X780415Y608521D03*
D28*
X636492Y608521D03*
D42*
X595154Y608521D03*
D32*
X780415Y608711D03*
D30*
X636397Y608711D03*
D42*
X594963Y608711D03*
D32*
X780225Y608902D03*
D30*
X636207Y608902D03*
D42*
X594773Y608902D03*
D34*
X780129Y609092D03*
D10*
X754126Y609092D03*
D30*
X636207Y609092D03*
D41*
X594678Y609092D03*
D32*
X780034Y609283D03*
D21*
X752507Y609283D03*
D30*
X636016Y609283D03*
D41*
X594487Y609283D03*
D34*
X779939Y609473D03*
D77*
X752507Y609473D03*
D30*
X636016Y609473D03*
D42*
X594392Y609473D03*
D32*
X779844Y609664D03*
D44*
X757650Y609664D03*
D61*
X750030Y609664D03*
D30*
X635826Y609664D03*
D42*
X594201Y609664D03*
D34*
X779748Y609854D03*
D52*
X758793Y609854D03*
D24*
X748887Y609854D03*
D50*
X635730Y609854D03*
D42*
X594011Y609854D03*
D32*
X779653Y610045D03*
D70*
X759460Y610045D03*
D30*
X748221Y610045D03*
X635635Y610045D03*
D43*
X593916Y610045D03*
D34*
X779558Y610235D03*
D132*
X759936Y610235D03*
D34*
X747554Y610235D03*
D50*
X635540Y610235D03*
D43*
X593725Y610235D03*
D34*
X779367Y610426D03*
D187*
X760413Y610426D03*
D35*
X746982Y610426D03*
D50*
X635349Y610426D03*
D42*
X593630Y610426D03*
D34*
X779367Y610616D03*
D187*
X760794Y610616D03*
D37*
X746411Y610616D03*
D50*
X635349Y610616D03*
D43*
X593535Y610616D03*
D34*
X779177Y610807D03*
D187*
X761175Y610807D03*
D38*
X745839Y610807D03*
D50*
X635159Y610807D03*
D43*
X593344Y610807D03*
D32*
X779082Y610997D03*
D187*
X761556Y610997D03*
D40*
X745268Y610997D03*
D32*
X635064Y610997D03*
D44*
X593249Y610997D03*
D34*
X778986Y611188D03*
D187*
X761937Y611188D03*
D42*
X744696Y611188D03*
D50*
X634968Y611188D03*
D44*
X593058Y611188D03*
D34*
X778796Y611378D03*
D54*
X762222Y611378D03*
D43*
X744220Y611378D03*
D32*
X634873Y611378D03*
D44*
X592868Y611378D03*
D34*
X778796Y611569D03*
D54*
X762603Y611569D03*
D43*
X743649Y611569D03*
D32*
X634683Y611569D03*
D55*
X592773Y611569D03*
D34*
X778605Y611759D03*
D54*
X762984Y611759D03*
D55*
X743268Y611759D03*
D32*
X634683Y611759D03*
D55*
X592582Y611759D03*
D58*
X778510Y611950D03*
D54*
X763175Y611950D03*
D45*
X742791Y611950D03*
D32*
X634492Y611950D03*
D55*
X592392Y611950D03*
D34*
X778415Y612140D03*
D54*
X763556Y612140D03*
D46*
X742315Y612140D03*
D34*
X634397Y612140D03*
D45*
X592296Y612140D03*
D58*
X778320Y612331D03*
D69*
X763842Y612331D03*
D46*
X741934Y612331D03*
D34*
X634206Y612331D03*
D45*
X592106Y612331D03*
D58*
X778129Y612521D03*
D69*
X764032Y612521D03*
D47*
X741458Y612521D03*
D34*
X634206Y612521D03*
D45*
X591915Y612521D03*
D58*
X778129Y612712D03*
D188*
X764318Y612712D03*
D47*
X741077Y612712D03*
D34*
X634016Y612712D03*
D46*
X591820Y612712D03*
D58*
X777939Y612902D03*
D48*
X740601Y612902D03*
D34*
X633825Y612902D03*
D45*
X591725Y612902D03*
D58*
X777748Y613093D03*
D48*
X740220Y613093D03*
D34*
X633825Y613093D03*
D46*
X591439Y613093D03*
D58*
X777748Y613283D03*
D49*
X739934Y613283D03*
D34*
X633635Y613283D03*
D47*
X591344Y613283D03*
D58*
X777558Y613474D03*
D51*
X739458Y613474D03*
D58*
X633540Y613474D03*
D47*
X591153Y613474D03*
D58*
X777367Y613664D03*
D51*
X739077Y613664D03*
D58*
X633349Y613664D03*
D47*
X590963Y613664D03*
D35*
X777272Y613855D03*
D52*
X738791Y613855D03*
D35*
X633254Y613855D03*
D47*
X590772Y613855D03*
D58*
X777177Y614045D03*
D52*
X738410Y614045D03*
D35*
X633063Y614045D03*
D47*
X590582Y614045D03*
D58*
X776986Y614236D03*
D165*
X738124Y614236D03*
D58*
X632968Y614236D03*
D47*
X590391Y614236D03*
D35*
X776891Y614426D03*
D165*
X737743Y614426D03*
D35*
X632873Y614426D03*
D48*
X590296Y614426D03*
D35*
X776700Y614617D03*
D52*
X737457Y614617D03*
D35*
X632682Y614617D03*
D48*
X590106Y614617D03*
D58*
X776605Y614807D03*
D165*
X737172Y614807D03*
D35*
X632492Y614807D03*
D48*
X589915Y614807D03*
D35*
X776510Y614998D03*
D165*
X736791Y614998D03*
D57*
X632397Y614998D03*
D48*
X589725Y614998D03*
D35*
X776319Y615188D03*
D53*
X736505Y615188D03*
D57*
X632206Y615188D03*
D48*
X589534Y615188D03*
D35*
X776129Y615379D03*
D53*
X736314Y615379D03*
D35*
X632111Y615379D03*
D48*
X589344Y615379D03*
D35*
X776129Y615569D03*
D53*
X735933Y615569D03*
D57*
X632016Y615569D03*
D49*
X589058Y615569D03*
D35*
X775938Y615760D03*
D70*
X735648Y615760D03*
D57*
X631825Y615760D03*
D49*
X588867Y615760D03*
D35*
X775748Y615950D03*
D70*
X735457Y615950D03*
D57*
X631635Y615950D03*
D49*
X588677Y615950D03*
D35*
X775557Y616141D03*
D70*
X735076Y616141D03*
D37*
X631539Y616141D03*
D49*
X588486Y616141D03*
D35*
X775557Y616331D03*
D70*
X734886Y616331D03*
D37*
X631349Y616331D03*
D51*
X588201Y616331D03*
D35*
X775367Y616522D03*
D70*
X734695Y616522D03*
D37*
X631158Y616522D03*
D51*
X588010Y616522D03*
D35*
X775176Y616712D03*
D70*
X734314Y616712D03*
D37*
X630968Y616712D03*
D51*
X587820Y616712D03*
D35*
X774986Y616903D03*
D70*
X734124Y616903D03*
D37*
X630777Y616903D03*
D52*
X587534Y616903D03*
D57*
X774891Y617093D03*
D132*
X733838Y617093D03*
D56*
X630682Y617093D03*
D51*
X587248Y617093D03*
D57*
X774700Y617284D03*
D132*
X733647Y617284D03*
D56*
X630492Y617284D03*
D52*
X586962Y617284D03*
D57*
X774510Y617474D03*
D132*
X733457Y617474D03*
D56*
X630301Y617474D03*
D52*
X586581Y617474D03*
D35*
X774414Y617665D03*
D132*
X733266Y617665D03*
D37*
X630206Y617665D03*
D165*
X586296Y617665D03*
D57*
X774319Y617855D03*
D132*
X733076Y617855D03*
D56*
X629920Y617855D03*
D53*
X585819Y617855D03*
D57*
X774129Y618046D03*
D187*
X732790Y618046D03*
D56*
X629920Y618046D03*
D54*
X585629Y618046D03*
D57*
X773938Y618236D03*
D132*
X732504Y618236D03*
D38*
X629634Y618236D03*
D57*
X773748Y618427D03*
D132*
X732314Y618427D03*
D56*
X629539Y618427D03*
D57*
X773557Y618617D03*
D132*
X732123Y618617D03*
D56*
X629349Y618617D03*
D37*
X773462Y618808D03*
D132*
X731933Y618808D03*
D56*
X629158Y618808D03*
D57*
X773367Y618998D03*
D132*
X731742Y618998D03*
D56*
X628968Y618998D03*
D57*
X773176Y619189D03*
D132*
X731552Y619189D03*
D56*
X628777Y619189D03*
D57*
X772986Y619379D03*
D132*
X731361Y619379D03*
D56*
X628587Y619379D03*
D57*
X772795Y619570D03*
D187*
X731266Y619570D03*
D38*
X628301Y619570D03*
D57*
X772605Y619760D03*
D187*
X731076Y619760D03*
D38*
X628110Y619760D03*
D37*
X772509Y619951D03*
D187*
X730885Y619951D03*
D39*
X627825Y619951D03*
D37*
X772319Y620141D03*
D187*
X730695Y620141D03*
D39*
X627634Y620141D03*
D37*
X772128Y620332D03*
D132*
X730599Y620332D03*
D40*
X627348Y620332D03*
D37*
X771938Y620522D03*
D132*
X730409Y620522D03*
D40*
X627158Y620522D03*
D57*
X771843Y620713D03*
D132*
X730218Y620713D03*
D41*
X626872Y620713D03*
D57*
X771652Y620903D03*
D187*
X730123Y620903D03*
D41*
X626491Y620903D03*
D57*
X771462Y621094D03*
D187*
X729933Y621094D03*
D41*
X626301Y621094D03*
D57*
X771271Y621284D03*
D132*
X729837Y621284D03*
D42*
X626015Y621284D03*
D37*
X771176Y621475D03*
D132*
X729647Y621475D03*
D43*
X625729Y621475D03*
D37*
X770985Y621665D03*
D187*
X729552Y621665D03*
D43*
X625348Y621665D03*
D37*
X770795Y621856D03*
D132*
X729456Y621856D03*
D44*
X625062Y621856D03*
D37*
X770604Y622046D03*
D132*
X729266Y622046D03*
D55*
X624777Y622046D03*
D37*
X770414Y622237D03*
D187*
X729171Y622237D03*
D55*
X624396Y622237D03*
D37*
X770223Y622427D03*
D132*
X729075Y622427D03*
D55*
X624015Y622427D03*
D37*
X770033Y622618D03*
D132*
X728885Y622618D03*
D55*
X623634Y622618D03*
D37*
X769842Y622808D03*
D132*
X728885Y622808D03*
D44*
X623157Y622808D03*
D37*
X769652Y622999D03*
D132*
X728694Y622999D03*
D44*
X622776Y622999D03*
D37*
X769461Y623189D03*
D70*
X728599Y623189D03*
D44*
X622205Y623189D03*
D37*
X769271Y623380D03*
D132*
X728504Y623380D03*
D41*
X621538Y623380D03*
D37*
X769080Y623570D03*
D70*
X728409Y623570D03*
D56*
X620776Y623570D03*
X768985Y623761D03*
D132*
X728313Y623761D03*
D58*
X619824Y623761D03*
D37*
X768699Y623951D03*
D70*
X728218Y623951D03*
D30*
X618681Y623951D03*
D37*
X768509Y624142D03*
D132*
X728123Y624142D03*
D43*
X618681Y624142D03*
D37*
X768318Y624332D03*
D70*
X728028Y624332D03*
D37*
X768128Y624523D03*
D132*
X727932Y624523D03*
D37*
X767937Y624713D03*
D70*
X727837Y624713D03*
D37*
X767747Y624904D03*
D70*
X727837Y624904D03*
D37*
X767556Y625094D03*
D70*
X727647Y625094D03*
D56*
X767461Y625285D03*
D70*
X727647Y625285D03*
D37*
X767175Y625475D03*
D70*
X727647Y625475D03*
D56*
X766890Y625666D03*
D70*
X727456Y625666D03*
D56*
X766699Y625856D03*
D70*
X727456Y625856D03*
D56*
X766509Y626047D03*
D53*
X727361Y626047D03*
D56*
X766318Y626237D03*
D70*
X727266Y626237D03*
D56*
X766128Y626428D03*
D70*
X727266Y626428D03*
D56*
X765937Y626618D03*
D70*
X727266Y626618D03*
D56*
X765747Y626809D03*
D53*
X727170Y626809D03*
D56*
X765556Y626999D03*
D53*
X727170Y626999D03*
D38*
X765270Y627190D03*
D70*
X727075Y627190D03*
D38*
X765080Y627380D03*
D70*
X727075Y627380D03*
D56*
X764794Y627571D03*
D53*
X726980Y627571D03*
D56*
X764604Y627761D03*
D53*
X726980Y627761D03*
D56*
X764413Y627952D03*
D53*
X726980Y627952D03*
D38*
X764127Y628142D03*
D53*
X726980Y628142D03*
D38*
X763937Y628333D03*
D53*
X726980Y628333D03*
D38*
X763746Y628523D03*
D53*
X726980Y628523D03*
D39*
X763461Y628714D03*
D70*
X726885Y628714D03*
D39*
X763270Y628904D03*
D53*
X726789Y628904D03*
D38*
X762984Y629095D03*
D53*
X726789Y629095D03*
D38*
X762794Y629285D03*
D53*
X726789Y629285D03*
D39*
X762508Y629476D03*
D53*
X726789Y629476D03*
D39*
X762318Y629666D03*
D53*
X726789Y629666D03*
D39*
X761937Y629857D03*
D53*
X726789Y629857D03*
D39*
X761746Y630047D03*
D53*
X726789Y630047D03*
D39*
X761556Y630238D03*
D53*
X726789Y630238D03*
D40*
X761270Y630428D03*
D70*
X726885Y630428D03*
D39*
X760984Y630619D03*
D53*
X726980Y630619D03*
D40*
X760698Y630809D03*
D53*
X726980Y630809D03*
D40*
X760508Y631000D03*
D53*
X726980Y631000D03*
D41*
X760222Y631190D03*
D53*
X726980Y631190D03*
D40*
X759936Y631381D03*
D53*
X726980Y631381D03*
D41*
X759651Y631571D03*
D70*
X727075Y631571D03*
D40*
X759365Y631762D03*
D53*
X727170Y631762D03*
D41*
X759079Y631952D03*
D53*
X727170Y631952D03*
D42*
X758793Y632143D03*
D53*
X727170Y632143D03*
D41*
X758508Y632333D03*
D53*
X727361Y632333D03*
D42*
X758222Y632524D03*
D53*
X727361Y632524D03*
D41*
X757936Y632714D03*
D53*
X727361Y632714D03*
D42*
X757650Y632905D03*
D53*
X727551Y632905D03*
D42*
X757269Y633095D03*
D53*
X727551Y633095D03*
D43*
X756984Y633286D03*
D53*
X727742Y633286D03*
D43*
X756603Y633476D03*
D53*
X727742Y633476D03*
D43*
X756222Y633667D03*
D53*
X727932Y633667D03*
D42*
X755936Y633857D03*
D53*
X727932Y633857D03*
D43*
X755650Y634048D03*
D53*
X728123Y634048D03*
D43*
X755269Y634238D03*
D165*
X728218Y634238D03*
D43*
X754888Y634429D03*
D165*
X728409Y634429D03*
D44*
X754412Y634619D03*
D165*
X728599Y634619D03*
D43*
X753936Y634810D03*
D53*
X728694Y634810D03*
D43*
X753555Y635000D03*
D52*
X728885Y635000D03*
D42*
X753078Y635191D03*
D52*
X729075Y635191D03*
D42*
X752697Y635381D03*
D52*
X729266Y635381D03*
D40*
X752126Y635572D03*
D52*
X729456Y635572D03*
D41*
X751650Y635762D03*
D51*
X729742Y635762D03*
D39*
X751078Y635953D03*
D51*
X729933Y635953D03*
D38*
X750411Y636143D03*
D49*
X730218Y636143D03*
D37*
X749840Y636334D03*
D48*
X730504Y636334D03*
D57*
X748983Y636524D03*
D46*
X730885Y636524D03*
D34*
X748316Y636715D03*
D46*
X731266Y636715D03*
D30*
X747459Y636905D03*
D44*
X731742Y636905D03*
D36*
X746506Y637096D03*
D41*
X732219Y637096D03*
D22*
X745458Y637286D03*
D37*
X733076Y637286D03*
D183*
X739839Y637477D03*
D184*
X739743Y637667D03*
D121*
X739648Y637858D03*
D86*
X739458Y638048D03*
D81*
X739267Y638239D03*
D77*
X739172Y638429D03*
D113*
X739172Y638620D03*
D23*
X739172Y638810D03*
D10*
X739077Y639001D03*
D189*
X820674Y446151D02*
X820610Y446088D01*
X820674Y446151D02*
X820801Y446151D01*
X820865Y446088D01*
X820865Y445834D01*
X820801Y445770D01*
X820674Y445770D01*
X820610Y445834D01*
X820514Y446024D02*
X820450Y446024D01*
X820450Y445961D01*
X820514Y445961D01*
X820514Y446024D01*
X820514Y445834D02*
X820450Y445834D01*
X820450Y445770D01*
X820514Y445770D01*
X820514Y445834D01*
X820338Y445770D02*
X820084Y446151D01*
X819987Y446151D02*
X819987Y445834D01*
X819924Y445770D01*
X819797Y445770D01*
X819733Y445834D01*
X819733Y446151D01*
X819637Y445770D02*
X819446Y445770D01*
X819382Y445834D01*
X819446Y445897D01*
X819573Y445897D01*
X819637Y445961D01*
X819573Y446024D01*
X819382Y446024D01*
X819222Y445770D02*
X819095Y445770D01*
X819222Y445770D02*
X819286Y445834D01*
X819286Y445961D01*
X819222Y446024D01*
X819095Y446024D01*
X819032Y445961D01*
X819032Y445897D01*
X819286Y445897D01*
X818935Y445770D02*
X818935Y446024D01*
X818935Y445897D02*
X818808Y446024D01*
X818744Y446024D01*
X818643Y445770D02*
X818452Y445770D01*
X818389Y445834D01*
X818452Y445897D01*
X818579Y445897D01*
X818643Y445961D01*
X818579Y446024D01*
X818389Y446024D01*
X818292Y445770D02*
X818038Y446151D01*
X817941Y446151D02*
X817941Y445770D01*
X817941Y446151D02*
X817750Y446151D01*
X817687Y446088D01*
X817687Y446024D01*
X817750Y445961D01*
X817687Y445897D01*
X817687Y445834D01*
X817750Y445770D01*
X817941Y445770D01*
X817941Y445961D02*
X817750Y445961D01*
X817527Y445770D02*
X817400Y445770D01*
X817527Y445770D02*
X817590Y445834D01*
X817590Y445961D01*
X817527Y446024D01*
X817400Y446024D01*
X817336Y445961D01*
X817336Y445897D01*
X817590Y445897D01*
X817239Y445770D02*
X817239Y446024D01*
X817049Y446024D01*
X816985Y445961D01*
X816985Y445770D01*
X816889Y445770D02*
X816634Y446151D01*
X816538Y446151D02*
X816538Y445770D01*
X816347Y445770D01*
X816284Y445834D01*
X816284Y446088D01*
X816347Y446151D01*
X816538Y446151D01*
X816123Y445770D02*
X815996Y445770D01*
X816123Y445770D02*
X816187Y445834D01*
X816187Y445961D01*
X816123Y446024D01*
X815996Y446024D01*
X815933Y445961D01*
X815933Y445897D01*
X816187Y445897D01*
X815836Y445770D02*
X815646Y445770D01*
X815582Y445834D01*
X815646Y445897D01*
X815773Y445897D01*
X815836Y445961D01*
X815773Y446024D01*
X815582Y446024D01*
X815485Y446151D02*
X815485Y445770D01*
X815485Y445897D02*
X815295Y445770D01*
X815485Y445897D02*
X815295Y446024D01*
X815130Y446088D02*
X815130Y445834D01*
X815066Y445770D01*
X815066Y446024D02*
X815193Y446024D01*
X814896Y445770D02*
X814769Y445770D01*
X814705Y445834D01*
X814705Y445961D01*
X814769Y446024D01*
X814896Y446024D01*
X814959Y445961D01*
X814959Y445834D01*
X814896Y445770D01*
X814608Y445643D02*
X814608Y446024D01*
X814418Y446024D01*
X814354Y445961D01*
X814354Y445834D01*
X814418Y445770D01*
X814608Y445770D01*
X814258Y445770D02*
X814003Y446151D01*
X813843Y446088D02*
X813843Y445770D01*
X813843Y446088D02*
X813780Y446151D01*
X813780Y445961D02*
X813907Y445961D01*
X813673Y446024D02*
X813609Y446024D01*
X813609Y445770D01*
X813546Y445770D02*
X813673Y445770D01*
X813609Y446151D02*
X813609Y446215D01*
X813439Y446024D02*
X813439Y445770D01*
X813439Y445897D02*
X813312Y446024D01*
X813248Y446024D01*
X813083Y445770D02*
X812956Y445770D01*
X813083Y445770D02*
X813147Y445834D01*
X813147Y445961D01*
X813083Y446024D01*
X812956Y446024D01*
X812892Y445961D01*
X812892Y445897D01*
X813147Y445897D01*
X812732Y445770D02*
X812732Y446088D01*
X812669Y446151D01*
X812669Y445961D02*
X812796Y445961D01*
X812562Y446151D02*
X812498Y446151D01*
X812498Y445770D01*
X812435Y445770D02*
X812562Y445770D01*
X812328Y445834D02*
X812328Y446024D01*
X812328Y445834D02*
X812265Y445770D01*
X812074Y445770D01*
X812074Y445706D02*
X812074Y446024D01*
X812074Y445706D02*
X812137Y445643D01*
X812201Y445643D01*
X811977Y445770D02*
X811977Y445834D01*
X811914Y445834D01*
X811914Y445770D01*
X811977Y445770D01*
X811802Y445770D02*
X811802Y446151D01*
X811802Y445770D02*
X811611Y445770D01*
X811548Y445834D01*
X811548Y445961D01*
X811611Y446024D01*
X811802Y446024D01*
X811451Y446024D02*
X811451Y445770D01*
X811451Y446024D02*
X811388Y446024D01*
X811324Y445961D01*
X811324Y445770D01*
X811324Y445961D02*
X811260Y446024D01*
X811197Y445961D01*
X811197Y445770D01*
X811100Y445643D02*
X811100Y446024D01*
X810910Y446024D01*
X810846Y445961D01*
X810846Y445834D01*
X810910Y445770D01*
X811100Y445770D01*
M02*
