G04 EAGLE Gerber X2 export*
%TF.Part,Single*%
%TF.FileFunction,Paste,Top*%
%TF.FilePolarity,Positive*%
%TF.GenerationSoftware,Autodesk,EAGLE,8.7.1*%
%TF.CreationDate,2018-04-12T17:58:56Z*%
G75*
%MOMM*%
%FSLAX34Y34*%
%LPD*%
%AMOC8*
5,1,8,0,0,1.08239X$1,22.5*%
G01*
%ADD10R,1.000000X1.100000*%
%ADD11C,0.300000*%


D10*
X825500Y588400D03*
X825500Y605400D03*
X800100Y588400D03*
X800100Y605400D03*
X774700Y588400D03*
X774700Y605400D03*
X749300Y588400D03*
X749300Y605400D03*
X723900Y588400D03*
X723900Y605400D03*
X698500Y588400D03*
X698500Y605400D03*
X673100Y588400D03*
X673100Y605400D03*
X647700Y588400D03*
X647700Y605400D03*
X622300Y588400D03*
X622300Y605400D03*
X596900Y588400D03*
X596900Y605400D03*
X571500Y588400D03*
X571500Y605400D03*
X546100Y588400D03*
X546100Y605400D03*
X520700Y588400D03*
X520700Y605400D03*
D11*
X822000Y632650D02*
X829000Y632650D01*
X822000Y632650D02*
X822000Y639650D01*
X829000Y639650D01*
X829000Y632650D01*
X829000Y635649D02*
X822000Y635649D01*
X822000Y638648D02*
X829000Y638648D01*
X829000Y615110D02*
X822000Y615110D01*
X822000Y622110D01*
X829000Y622110D01*
X829000Y615110D01*
X829000Y618109D02*
X822000Y618109D01*
X822000Y621108D02*
X829000Y621108D01*
X803600Y632650D02*
X796600Y632650D01*
X796600Y639650D01*
X803600Y639650D01*
X803600Y632650D01*
X803600Y635649D02*
X796600Y635649D01*
X796600Y638648D02*
X803600Y638648D01*
X803600Y615110D02*
X796600Y615110D01*
X796600Y622110D01*
X803600Y622110D01*
X803600Y615110D01*
X803600Y618109D02*
X796600Y618109D01*
X796600Y621108D02*
X803600Y621108D01*
X778200Y632650D02*
X771200Y632650D01*
X771200Y639650D01*
X778200Y639650D01*
X778200Y632650D01*
X778200Y635649D02*
X771200Y635649D01*
X771200Y638648D02*
X778200Y638648D01*
X778200Y615110D02*
X771200Y615110D01*
X771200Y622110D01*
X778200Y622110D01*
X778200Y615110D01*
X778200Y618109D02*
X771200Y618109D01*
X771200Y621108D02*
X778200Y621108D01*
X752800Y632650D02*
X745800Y632650D01*
X745800Y639650D01*
X752800Y639650D01*
X752800Y632650D01*
X752800Y635649D02*
X745800Y635649D01*
X745800Y638648D02*
X752800Y638648D01*
X752800Y615110D02*
X745800Y615110D01*
X745800Y622110D01*
X752800Y622110D01*
X752800Y615110D01*
X752800Y618109D02*
X745800Y618109D01*
X745800Y621108D02*
X752800Y621108D01*
X727400Y632650D02*
X720400Y632650D01*
X720400Y639650D01*
X727400Y639650D01*
X727400Y632650D01*
X727400Y635649D02*
X720400Y635649D01*
X720400Y638648D02*
X727400Y638648D01*
X727400Y615110D02*
X720400Y615110D01*
X720400Y622110D01*
X727400Y622110D01*
X727400Y615110D01*
X727400Y618109D02*
X720400Y618109D01*
X720400Y621108D02*
X727400Y621108D01*
X702000Y632650D02*
X695000Y632650D01*
X695000Y639650D01*
X702000Y639650D01*
X702000Y632650D01*
X702000Y635649D02*
X695000Y635649D01*
X695000Y638648D02*
X702000Y638648D01*
X702000Y615110D02*
X695000Y615110D01*
X695000Y622110D01*
X702000Y622110D01*
X702000Y615110D01*
X702000Y618109D02*
X695000Y618109D01*
X695000Y621108D02*
X702000Y621108D01*
X676600Y632650D02*
X669600Y632650D01*
X669600Y639650D01*
X676600Y639650D01*
X676600Y632650D01*
X676600Y635649D02*
X669600Y635649D01*
X669600Y638648D02*
X676600Y638648D01*
X676600Y615110D02*
X669600Y615110D01*
X669600Y622110D01*
X676600Y622110D01*
X676600Y615110D01*
X676600Y618109D02*
X669600Y618109D01*
X669600Y621108D02*
X676600Y621108D01*
X651200Y632650D02*
X644200Y632650D01*
X644200Y639650D01*
X651200Y639650D01*
X651200Y632650D01*
X651200Y635649D02*
X644200Y635649D01*
X644200Y638648D02*
X651200Y638648D01*
X651200Y615110D02*
X644200Y615110D01*
X644200Y622110D01*
X651200Y622110D01*
X651200Y615110D01*
X651200Y618109D02*
X644200Y618109D01*
X644200Y621108D02*
X651200Y621108D01*
X625800Y632650D02*
X618800Y632650D01*
X618800Y639650D01*
X625800Y639650D01*
X625800Y632650D01*
X625800Y635649D02*
X618800Y635649D01*
X618800Y638648D02*
X625800Y638648D01*
X625800Y615110D02*
X618800Y615110D01*
X618800Y622110D01*
X625800Y622110D01*
X625800Y615110D01*
X625800Y618109D02*
X618800Y618109D01*
X618800Y621108D02*
X625800Y621108D01*
X600400Y632650D02*
X593400Y632650D01*
X593400Y639650D01*
X600400Y639650D01*
X600400Y632650D01*
X600400Y635649D02*
X593400Y635649D01*
X593400Y638648D02*
X600400Y638648D01*
X600400Y615110D02*
X593400Y615110D01*
X593400Y622110D01*
X600400Y622110D01*
X600400Y615110D01*
X600400Y618109D02*
X593400Y618109D01*
X593400Y621108D02*
X600400Y621108D01*
X575000Y632650D02*
X568000Y632650D01*
X568000Y639650D01*
X575000Y639650D01*
X575000Y632650D01*
X575000Y635649D02*
X568000Y635649D01*
X568000Y638648D02*
X575000Y638648D01*
X575000Y615110D02*
X568000Y615110D01*
X568000Y622110D01*
X575000Y622110D01*
X575000Y615110D01*
X575000Y618109D02*
X568000Y618109D01*
X568000Y621108D02*
X575000Y621108D01*
X549600Y632650D02*
X542600Y632650D01*
X542600Y639650D01*
X549600Y639650D01*
X549600Y632650D01*
X549600Y635649D02*
X542600Y635649D01*
X542600Y638648D02*
X549600Y638648D01*
X549600Y615110D02*
X542600Y615110D01*
X542600Y622110D01*
X549600Y622110D01*
X549600Y615110D01*
X549600Y618109D02*
X542600Y618109D01*
X542600Y621108D02*
X549600Y621108D01*
X524200Y632650D02*
X517200Y632650D01*
X517200Y639650D01*
X524200Y639650D01*
X524200Y632650D01*
X524200Y635649D02*
X517200Y635649D01*
X517200Y638648D02*
X524200Y638648D01*
X524200Y615110D02*
X517200Y615110D01*
X517200Y622110D01*
X524200Y622110D01*
X524200Y615110D01*
X524200Y618109D02*
X517200Y618109D01*
X517200Y621108D02*
X524200Y621108D01*
M02*
